<?xml version="1.0" encoding="UTF-8" standalone="no"?><!-- Generator: Gravit.io --><svg xmlns="http://www.w3.org/2000/svg" xmlns:xlink="http://www.w3.org/1999/xlink" style="isolation:isolate" viewBox="0 0 1100 1100" width="1100pt" height="1100pt"><defs><clipPath id="_clipPath_jIhuba5SN2ui3fQrCI0HyCSfHJw4zL03"><rect width="1100" height="1100"/></clipPath></defs><g clip-path="url(#_clipPath_jIhuba5SN2ui3fQrCI0HyCSfHJw4zL03)"><path d=" M 1090.083 531.006 L 948.348 432.24 C 930.765 419.987 911.253 412.18 891.236 408.656 C 902.9 392.01 911.176 372.691 914.944 351.596 L 945.33 181.536 C 948.163 165.672 934.33 151.838 918.466 154.672 L 748.406 185.055 C 727.311 188.823 707.992 197.099 691.346 208.763 C 687.822 188.744 680.013 169.234 667.763 151.651 L 568.997 9.916 C 559.784 -3.305 540.219 -3.305 531.006 9.916 L 432.24 151.651 C 419.988 169.234 412.18 188.744 408.657 208.763 C 392.011 197.099 372.692 188.823 351.597 185.055 L 181.537 154.672 C 165.673 151.838 151.84 165.672 154.673 181.536 L 185.057 351.596 C 188.825 372.691 197.101 392.01 208.764 408.656 C 188.745 412.18 169.235 419.989 151.653 432.24 L 9.916 531.006 C -3.305 540.218 -3.305 559.784 9.916 568.997 L 151.65 667.762 C 169.233 680.015 188.743 687.822 208.762 691.346 C 197.098 707.992 188.823 727.311 185.054 748.406 L 154.671 918.466 C 151.837 934.33 165.671 948.164 181.535 945.33 L 351.595 914.945 C 372.69 911.177 392.009 902.901 408.655 891.237 C 412.178 911.254 419.988 930.766 432.238 948.349 L 531.004 1090.084 C 540.216 1103.305 559.782 1103.305 568.995 1090.084 L 667.76 948.349 C 680.013 930.766 687.82 911.256 691.344 891.237 C 707.99 902.901 727.309 911.177 748.404 914.945 L 918.463 945.328 C 934.327 948.162 948.161 934.328 945.327 918.464 L 914.942 748.404 C 911.174 727.309 902.898 707.99 891.234 691.344 C 911.251 687.82 930.763 680.011 948.346 667.76 L 1090.08 568.994 C 1103.306 559.784 1103.306 540.22 1090.083 531.006 Z " fill="rgb(252,159,101)"/><ellipse vector-effect="non-scaling-stroke" cx="556.5541495054906" cy="550.0021276003222" rx="330.82296676296755" ry="326.92836058649493" fill="rgb(251,221,86)"/><g><ellipse vector-effect="non-scaling-stroke" cx="392.1775069742361" cy="520.8692592980766" rx="60.65341361451033" ry="47.73837268996462" fill="rgb(255,110,110)"/><ellipse vector-effect="non-scaling-stroke" cx="720.9329660721497" cy="520.8692592980766" rx="60.65341361451033" ry="47.73837268996462" fill="rgb(255,110,110)"/></g><g><path d=" M 402.313 480.614 C 393.306 480.614 386.008 473.399 386.008 464.501 L 386.008 438.773 C 386.008 429.874 393.306 422.66 402.313 422.66 C 411.32 422.66 418.618 429.874 418.618 438.773 L 418.618 464.501 C 418.618 473.399 411.32 480.614 402.313 480.614 Z " fill="rgb(65,75,88)"/><path d=" M 556.554 527.611 L 556.554 527.611 C 532.285 527.611 512.61 508.168 512.61 484.185 L 512.61 452.613 C 512.61 446.067 517.98 440.758 524.607 440.758 L 588.502 440.758 C 595.126 440.758 600.498 446.065 600.498 452.613 L 600.498 484.185 C 600.5 508.17 580.823 527.611 556.554 527.611 Z " fill="rgb(65,75,88)"/><path d=" M 710.795 480.614 C 701.788 480.614 694.49 473.399 694.49 464.501 L 694.49 438.773 C 694.49 429.874 701.788 422.66 710.795 422.66 C 719.802 422.66 727.101 429.874 727.101 438.773 L 727.101 464.501 C 727.101 473.399 719.802 480.614 710.795 480.614 Z " fill="rgb(65,75,88)"/></g><g opacity="0.08"><path d=" M 472.449 233.752 C 330.481 270.524 225.736 398.17 225.736 550.002 C 225.736 730.557 373.848 876.926 556.556 876.926 C 621.893 876.926 682.798 858.2 734.095 825.896 C 312.375 790.754 277.393 374.522 472.449 233.752 Z " fill="rgb(0,0,0)"/></g><g><path d=" M 375.048 133.067 C 368.65 133.067 362.58 129.32 359.978 123.115 L 337.52 69.535 C 334.072 61.313 338.022 51.888 346.345 48.483 C 354.662 45.078 364.202 48.983 367.648 57.203 L 390.106 110.783 C 393.554 119.005 389.603 128.431 381.281 131.836 C 379.242 132.672 377.129 133.067 375.048 133.067 Z " fill="rgb(252,159,101)"/><path d=" M 118.336 386.744 C 116.255 386.744 114.142 386.349 112.103 385.513 L 57.887 363.32 C 49.567 359.914 45.615 350.487 49.063 342.267 C 52.508 334.045 62.055 330.144 70.366 333.547 L 124.582 355.74 C 132.902 359.145 136.854 368.573 133.406 376.793 C 130.806 382.997 124.736 386.744 118.336 386.744 Z " fill="rgb(252,159,101)"/><path d=" M 64.131 767.689 C 57.733 767.689 51.663 763.942 49.06 757.737 C 45.612 749.515 49.563 740.09 57.885 736.685 L 112.101 714.491 C 120.423 711.084 129.958 714.99 133.404 723.212 C 136.852 731.434 132.902 740.859 124.58 744.264 L 70.364 766.458 C 68.324 767.293 66.211 767.689 64.131 767.689 Z " fill="rgb(252,159,101)"/><path d=" M 352.577 1052.752 C 350.497 1052.752 348.384 1052.357 346.345 1051.521 C 338.024 1048.114 334.072 1038.689 337.52 1030.469 L 359.978 976.889 C 363.424 968.667 372.968 964.765 381.281 968.168 C 389.601 971.576 393.554 981.001 390.106 989.221 L 367.648 1042.801 C 365.046 1049.006 358.978 1052.752 352.577 1052.752 Z " fill="rgb(252,159,101)"/><path d=" M 760.531 1052.752 C 754.133 1052.752 748.063 1049.006 745.46 1042.801 L 723.003 989.221 C 719.555 980.999 723.505 971.574 731.827 968.168 C 740.149 964.763 749.685 968.669 753.13 976.889 L 775.588 1030.469 C 779.036 1038.691 775.086 1048.116 766.764 1051.521 C 764.725 1052.357 762.609 1052.752 760.531 1052.752 Z " fill="rgb(252,159,101)"/><path d=" M 1048.98 767.689 C 1046.899 767.689 1044.786 767.293 1042.747 766.458 L 988.528 744.264 C 980.208 740.859 976.256 731.432 979.704 723.212 C 983.15 714.99 992.692 711.088 1001.007 714.491 L 1055.226 736.685 C 1063.546 740.09 1067.498 749.517 1064.05 757.737 C 1061.446 763.944 1055.376 767.689 1048.98 767.689 Z " fill="rgb(252,159,101)"/><path d=" M 994.772 386.744 C 988.374 386.744 982.304 382.997 979.702 376.793 C 976.254 368.571 980.204 359.145 988.526 355.74 L 1042.745 333.547 C 1051.067 330.141 1060.602 334.047 1064.048 342.267 C 1067.496 350.489 1063.544 359.914 1055.224 363.32 L 1001.005 385.513 C 998.966 386.349 996.851 386.744 994.772 386.744 Z " fill="rgb(252,159,101)"/><path d=" M 738.06 133.067 C 735.979 133.067 733.866 132.672 731.827 131.836 C 723.507 128.431 719.555 119.003 723.003 110.783 L 745.46 57.203 C 748.906 48.981 758.45 45.082 766.764 48.483 C 775.084 51.888 779.036 61.315 775.588 69.535 L 753.13 123.115 C 750.53 129.32 744.46 133.067 738.06 133.067 Z " fill="rgb(252,159,101)"/></g></g></svg>