<?xml version="1.0" encoding="UTF-8" standalone="no"?><!-- Generator: Gravit.io --><svg xmlns="http://www.w3.org/2000/svg" xmlns:xlink="http://www.w3.org/1999/xlink" style="isolation:isolate" viewBox="0 0 1100 1100" width="1100pt" height="1100pt"><defs><clipPath id="_clipPath_7lqOOpGMakVGK9hQZrJYxNrCwI7RCkuF"><rect width="1100" height="1100"/></clipPath></defs><g clip-path="url(#_clipPath_7lqOOpGMakVGK9hQZrJYxNrCwI7RCkuF)"><g><ellipse vector-effect="non-scaling-stroke" cx="392.1775069742361" cy="520.8692592980766" rx="60.65341361451033" ry="47.73837268996462" fill="rgb(255,110,110)"/><ellipse vector-effect="non-scaling-stroke" cx="720.9329660721497" cy="520.8692592980766" rx="60.65341361451033" ry="47.73837268996462" fill="rgb(255,110,110)"/></g><g><path d=" M 402.313 480.614 C 393.306 480.614 386.008 473.399 386.008 464.501 L 386.008 438.773 C 386.008 429.874 393.306 422.66 402.313 422.66 C 411.32 422.66 418.618 429.874 418.618 438.773 L 418.618 464.501 C 418.618 473.399 411.32 480.614 402.313 480.614 Z " fill="rgb(65,75,88)"/><path d=" M 556.554 527.611 L 556.554 527.611 C 532.285 527.611 512.61 508.168 512.61 484.185 L 512.61 452.613 C 512.61 446.067 517.98 440.758 524.607 440.758 L 588.502 440.758 C 595.126 440.758 600.498 446.065 600.498 452.613 L 600.498 484.185 C 600.5 508.17 580.823 527.611 556.554 527.611 Z " fill="rgb(65,75,88)"/><path d=" M 710.795 480.614 C 701.788 480.614 694.49 473.399 694.49 464.501 L 694.49 438.773 C 694.49 429.874 701.788 422.66 710.795 422.66 C 719.802 422.66 727.101 429.874 727.101 438.773 L 727.101 464.501 C 727.101 473.399 719.802 480.614 710.795 480.614 Z " fill="rgb(65,75,88)"/></g></g></svg>