<?xml version="1.0" encoding="UTF-8" standalone="no"?><!-- Generator: Gravit.io --><svg xmlns="http://www.w3.org/2000/svg" xmlns:xlink="http://www.w3.org/1999/xlink" style="isolation:isolate" viewBox="0 0 1100 1100" width="1100pt" height="1100pt"><defs><clipPath id="_clipPath_wknAZB3lddIOCftXQwLvlhNTNmMOpdQZ"><rect width="1100" height="1100"/></clipPath></defs><g clip-path="url(#_clipPath_wknAZB3lddIOCftXQwLvlhNTNmMOpdQZ)"><path d=" M 1090.083 531.006 L 948.348 432.24 C 930.765 419.987 911.253 412.18 891.236 408.656 C 902.9 392.01 911.176 372.691 914.944 351.596 L 945.33 181.536 C 948.163 165.672 934.33 151.838 918.466 154.672 L 748.406 185.055 C 727.311 188.823 707.992 197.099 691.346 208.763 C 687.822 188.744 680.013 169.234 667.763 151.651 L 568.997 9.916 C 559.784 -3.305 540.219 -3.305 531.006 9.916 L 432.24 151.651 C 419.988 169.234 412.18 188.744 408.657 208.763 C 392.011 197.099 372.692 188.823 351.597 185.055 L 181.537 154.672 C 165.673 151.838 151.84 165.672 154.673 181.536 L 185.057 351.596 C 188.825 372.691 197.101 392.01 208.764 408.656 C 188.745 412.18 169.235 419.989 151.653 432.24 L 9.916 531.006 C -3.305 540.218 -3.305 559.784 9.916 568.997 L 151.65 667.762 C 169.233 680.015 188.743 687.822 208.762 691.346 C 197.098 707.992 188.823 727.311 185.054 748.406 L 154.671 918.466 C 151.837 934.33 165.671 948.164 181.535 945.33 L 351.595 914.945 C 372.69 911.177 392.009 902.901 408.655 891.237 C 412.178 911.254 419.988 930.766 432.238 948.349 L 531.004 1090.084 C 540.216 1103.305 559.782 1103.305 568.995 1090.084 L 667.76 948.349 C 680.013 930.766 687.82 911.256 691.344 891.237 C 707.99 902.901 727.309 911.177 748.404 914.945 L 918.463 945.328 C 934.327 948.162 948.161 934.328 945.327 918.464 L 914.942 748.404 C 911.174 727.309 902.898 707.99 891.234 691.344 C 911.251 687.82 930.763 680.011 948.346 667.76 L 1090.08 568.994 C 1103.306 559.784 1103.306 540.22 1090.083 531.006 Z " fill="rgb(252,159,101)"/></g></svg>