<?xml version="1.0" encoding="UTF-8" standalone="no"?><!-- Generator: Gravit.io --><svg xmlns="http://www.w3.org/2000/svg" xmlns:xlink="http://www.w3.org/1999/xlink" style="isolation:isolate" viewBox="0 0 1100 1100" width="1100pt" height="1100pt"><defs><clipPath id="_clipPath_x4sXQSMNDrard0PckUqD5m8PuZPEUeTF"><rect width="1100" height="1100"/></clipPath></defs><g clip-path="url(#_clipPath_x4sXQSMNDrard0PckUqD5m8PuZPEUeTF)"><g><path d=" M 375.048 133.067 C 368.65 133.067 362.58 129.32 359.978 123.115 L 337.52 69.535 C 334.072 61.313 338.022 51.888 346.345 48.483 C 354.662 45.078 364.202 48.983 367.648 57.203 L 390.106 110.783 C 393.554 119.005 389.603 128.431 381.281 131.836 C 379.242 132.672 377.129 133.067 375.048 133.067 Z " fill="rgb(252,159,101)"/><path d=" M 118.336 386.744 C 116.255 386.744 114.142 386.349 112.103 385.513 L 57.887 363.32 C 49.567 359.914 45.615 350.487 49.063 342.267 C 52.508 334.045 62.055 330.144 70.366 333.547 L 124.582 355.74 C 132.902 359.145 136.854 368.573 133.406 376.793 C 130.806 382.997 124.736 386.744 118.336 386.744 Z " fill="rgb(252,159,101)"/><path d=" M 64.131 767.689 C 57.733 767.689 51.663 763.942 49.06 757.737 C 45.612 749.515 49.563 740.09 57.885 736.685 L 112.101 714.491 C 120.423 711.084 129.958 714.99 133.404 723.212 C 136.852 731.434 132.902 740.859 124.58 744.264 L 70.364 766.458 C 68.324 767.293 66.211 767.689 64.131 767.689 Z " fill="rgb(252,159,101)"/><path d=" M 352.577 1052.752 C 350.497 1052.752 348.384 1052.357 346.345 1051.521 C 338.024 1048.114 334.072 1038.689 337.52 1030.469 L 359.978 976.889 C 363.424 968.667 372.968 964.765 381.281 968.168 C 389.601 971.576 393.554 981.001 390.106 989.221 L 367.648 1042.801 C 365.046 1049.006 358.978 1052.752 352.577 1052.752 Z " fill="rgb(252,159,101)"/><path d=" M 760.531 1052.752 C 754.133 1052.752 748.063 1049.006 745.46 1042.801 L 723.003 989.221 C 719.555 980.999 723.505 971.574 731.827 968.168 C 740.149 964.763 749.685 968.669 753.13 976.889 L 775.588 1030.469 C 779.036 1038.691 775.086 1048.116 766.764 1051.521 C 764.725 1052.357 762.609 1052.752 760.531 1052.752 Z " fill="rgb(252,159,101)"/><path d=" M 1048.98 767.689 C 1046.899 767.689 1044.786 767.293 1042.747 766.458 L 988.528 744.264 C 980.208 740.859 976.256 731.432 979.704 723.212 C 983.15 714.99 992.692 711.088 1001.007 714.491 L 1055.226 736.685 C 1063.546 740.09 1067.498 749.517 1064.05 757.737 C 1061.446 763.944 1055.376 767.689 1048.98 767.689 Z " fill="rgb(252,159,101)"/><path d=" M 994.772 386.744 C 988.374 386.744 982.304 382.997 979.702 376.793 C 976.254 368.571 980.204 359.145 988.526 355.74 L 1042.745 333.547 C 1051.067 330.141 1060.602 334.047 1064.048 342.267 C 1067.496 350.489 1063.544 359.914 1055.224 363.32 L 1001.005 385.513 C 998.966 386.349 996.851 386.744 994.772 386.744 Z " fill="rgb(252,159,101)"/><path d=" M 738.06 133.067 C 735.979 133.067 733.866 132.672 731.827 131.836 C 723.507 128.431 719.555 119.003 723.003 110.783 L 745.46 57.203 C 748.906 48.981 758.45 45.082 766.764 48.483 C 775.084 51.888 779.036 61.315 775.588 69.535 L 753.13 123.115 C 750.53 129.32 744.46 133.067 738.06 133.067 Z " fill="rgb(252,159,101)"/></g></g></svg>