<svg id="Capa_1" enable-background="new 0 0 512 512" height="512" viewBox="0 0 512 512" width="512" xmlns="http://www.w3.org/2000/svg"><g><g><g><path d="m256.002 37.087c-91.033 0-164.829 73.796-164.829 164.829v15.705h329.658v-15.705c0-91.033-73.797-164.829-164.829-164.829z" fill="#4e5660"/></g></g><g><path d="m286.907 39.992c-10.012-1.9-20.341-2.906-30.905-2.906-91.032 0-164.829 73.797-164.829 164.829v15.705h61.811v-15.705c0-80.467 57.665-147.455 133.923-161.923z" fill="#383c43"/></g><g><g><path d="m353.319 11.914c0-6.578-7.618-10.226-12.743-6.102l-26.095 21.002c-5.734 4.615-13.908 4.615-19.643 0l-29.017-23.353c-5.734-4.615-13.909-4.615-19.643 0l-29.014 23.352c-5.734 4.615-13.909 4.615-19.643 0l-26.093-21c-5.125-4.124-12.743-.477-12.743 6.102 0 0-.009 78.042 97.313 78.042s97.321-78.043 97.321-78.043z" fill="#f7ef87"/></g></g><g><path d="m415.929 250.984c0 27.475 18.563 27.475 18.563 54.95 0 27.476-18.563 27.476-18.563 54.951 0 27.477 18.563 27.477 18.563 54.954 0 .981-.024 1.928-.069 2.841-1.465 29.317-26.143 52.113-55.497 52.113h-245.851c-29.354 0-54.032-22.795-55.497-52.113-.046-.914-.069-1.86-.069-2.841 0-27.477 18.563-27.477 18.563-54.954 0-27.476-18.563-27.476-18.563-54.951s18.563-27.475 18.563-54.95z" fill="#383c43"/></g><g><circle cx="405.509" cy="250.984" fill="#ffbf9e" r="37.17"/></g><g><circle cx="106.491" cy="250.984" fill="#f7ab8b" r="37.17"/></g><g><path d="m328.114 410.226-30.838 101.774h60.812c12.945 0 22.765-11.815 20.235-24.511-6.329-31.766-24.728-59.176-50.209-77.263z" fill="#ffbf9e"/></g><g><path d="m183.889 410.226 30.973 101.774h-60.947c-12.945 0-22.765-11.815-20.235-24.511 6.33-31.766 24.728-59.176 50.209-77.263z" fill="#f7ab8b"/></g><g><path d="m297.276 429.586h-82.415c-22.758 0-41.207 18.449-41.207 41.207 0 22.758 18.449 41.207 41.207 41.207h82.415c22.758 0 41.207-18.449 41.207-41.207.001-22.758-18.448-41.207-41.207-41.207z" fill="#e26e7e"/></g><g><path d="m225.304 470.793c0-22.758 18.449-41.207 41.207-41.207h-51.649c-22.758 0-41.207 18.449-41.207 41.207 0 22.758 18.449 41.207 41.207 41.207h51.649c-22.758 0-41.207-18.449-41.207-41.207z" fill="#d3596e"/></g><g><path d="m186.978 408.175c8.962 29.631 36.468 51.208 69.024 51.208 32.551 0 60.055-21.572 69.021-51.197-8.363-5.578-17.438-10.198-27.094-13.656-2.615-.937-5.265-1.781-7.953-2.541-10.801-3.068-22.197-4.719-33.973-4.719-25.505.001-49.244 7.707-69.025 20.905z" fill="#ffbf9e"/></g><g><path d="m284.25 390.528c-9.079-2.117-18.531-3.257-28.249-3.257-25.503 0-49.243 7.707-69.024 20.904 6.317 20.885 21.853 37.756 41.869 45.904 8.376-27.443 52.909-55.94 52.909-55.94z" fill="#f7ab8b"/></g><g><circle cx="328.823" cy="418.254" fill="#e8899e" r="41.207"/></g><g><circle cx="182.964" cy="418.254" fill="#e8899e" r="41.207"/></g><g><path d="m173.655 157.758c-44.979 9.975-62.442 56.365-62.442 56.365-2.992 11.79-4.587 24.138-4.587 36.858 0 82.498 66.878 149.376 149.376 149.376s149.376-66.878 149.376-149.376c0-12.721-1.595-25.069-4.587-36.859-117.689.001-182.157-66.34-227.136-56.364z" fill="#ffd4be"/></g><g><path d="m158.134 250.981c0-35.487 12.379-68.078 33.049-93.703-6.178-.814-12.002-.746-17.529.48-44.979 9.975-62.442 56.365-62.442 56.365-2.992 11.79-4.587 24.138-4.587 36.858 0 82.498 66.878 149.376 149.376 149.376 8.783 0 17.387-.765 25.755-2.219-70.224-12.205-123.622-73.442-123.622-147.157z" fill="#ffbf9e"/></g><g><path d="m217.164 26.814c-5.735 4.615-13.909 4.615-19.643 0l-26.093-21.001c-5.124-4.124-12.743-.477-12.743 6.102 0 0-.009 78.042 97.313 78.042-32.335-.001-54.464-50.843-38.834-63.143z" fill="#efd176"/></g><g><g><g><ellipse cx="173.953" cy="307.054" fill="#eda1ab" rx="30.274" ry="24.109"/></g><g><ellipse cx="338.05" cy="307.054" fill="#eda1ab" rx="30.274" ry="24.109"/></g><g><path d="m280.41 288.531c0-15.085-10.928-16.502-24.409-16.502s-24.409 1.417-24.409 16.502 10.928 27.313 24.409 27.313 24.409-12.229 24.409-27.313z" fill="#4e5660"/></g></g><g><path d="m179.014 285.771c-4.142 0-7.5-3.358-7.5-7.5v-12.362c0-4.142 3.358-7.5 7.5-7.5s7.5 3.358 7.5 7.5v12.362c0 4.142-3.358 7.5-7.5 7.5z" fill="#4e5660"/></g><g><path d="m332.989 285.771c-4.143 0-7.5-3.358-7.5-7.5v-12.362c0-4.142 3.357-7.5 7.5-7.5s7.5 3.358 7.5 7.5v12.362c0 4.142-3.358 7.5-7.5 7.5z" fill="#4e5660"/></g></g></g></svg>