<svg id="Layer_1" enable-background="new 0 0 512 512" height="512" viewBox="0 0 512 512" width="512" xmlns="http://www.w3.org/2000/svg"><g><g><g><path d="m345.114 48.542h-15.871c-17.878 15.073-44.545 13.811-60.897-3.312h-13.924l-14.01 36.145 15.588 29.648h89.114c0-25.096 0-55.307 0-62.481z" fill="#ffce71"/><path d="m268.345 45.23c-2.347-2.458-4.419-5.181-6.159-8.125h-12.372c-14.093 23.83-46.088 29.115-67.057 11.436h-15.871v62.481h89.114c-8.157-21.727-4.963-54.072 12.345-65.792z" fill="#ffb357"/></g><g fill="#ffce71"><path d="m256 7.5c-11.535 0-20.886 9.351-20.886 20.886 0 11.552 9.38 20.886 20.886 20.886 4.62 0 8.887-1.503 12.345-4.042 5.178-3.801 8.541-9.929 8.541-16.844 0-11.535-9.351-20.886-20.886-20.886z"/><circle cx="166.886" cy="42.31" r="20.886"/><path d="m345.114 21.424c-15.199 0-25.29 15.75-19.011 29.532 3.289 7.219 10.561 12.24 19.011 12.24 11.535 0 20.886-9.351 20.886-20.886s-9.351-20.886-20.886-20.886z"/></g></g><g><path d="m331.527 475.115c-2.661-11.64-7.866-22.243-15.049-31.263h-115.745v52.086l8.562 8.562h46.705 77.5v-11.82c0-6.038-.682-11.918-1.973-17.565z" fill="#1cbbea"/><path d="m205.025 443.839h-9.493v60.661h13.762v-11.82c0-12.922 3.136-25.132 8.678-35.894z" fill="#08a5d6"/></g><g><path d="m271.384 416.048c-4.974-1.015-10.119-1.548-15.385-1.548l-38.026 10.093v32.193c32.193 13.34 69.865 9.044 98.505-12.935-11.15-14-27.01-24.114-45.094-27.803z" fill="#ffce71"/><path d="m271.384 416.048c-4.974-1.015-10.118-1.548-15.385-1.548-24.412 0-46.251 11.488-60.467 29.339 7.008 5.378 14.563 9.683 22.44 12.948.007-.014.013-.027.02-.041 10.647-20.645 30.154-35.95 53.392-40.698z" fill="#ffb357"/></g><g><path d="m401 249.5h-290c-19.33 0-35 15.67-35 35s15.67 35 35 35h290c19.33 0 35-15.67 35-35s-15.67-35-35-35z" fill="#ffbf9d"/><g><path d="m280.148 141.513h-44.295l-124.853 142.987 124.853 142.987h44.295c68.585-11.499 120.852-71.134 120.852-142.987s-52.267-131.488-120.852-142.987z" fill="#ffd4bd"/><path d="m159.099 284.702c0-71.98 52.361-131.723 121.049-143.189-7.854-1.317-15.919-2.013-24.148-2.013-79.893 0-145 64.76-145 145 0 80.299 65.164 145 145 145 8.228 0 16.293-.696 24.148-2.013-68.688-11.466-121.049-70.807-121.049-142.785z" fill="#ffbf9d"/></g><g><g><g><g><ellipse cx="177" cy="332.127" fill="#ff8e9e" rx="29" ry="23"/></g><g><ellipse cx="335" cy="332.127" fill="#ff8e9e" rx="29" ry="23"/></g></g></g></g></g><g><path d="m195.533 443.839c-9.154-5.151-20.496-4.356-28.841 2.023s-12.089 17.115-9.52 27.299 10.956 17.861 21.328 19.519v11.82h30.795v-26.823c0-12.63-4.894-24.858-13.762-33.838z" fill="#d4d4ff"/><path d="m345.318 445.875c-8.345-6.379-19.687-7.174-28.841-2.023-8.868 8.98-13.772 21.196-13.772 33.825v26.823h30.795v-11.82c0-.006 0-.011 0-.017l.01.03c10.372-1.658 18.76-9.334 21.328-19.519s-1.175-20.921-9.52-27.299z" fill="#efedff"/></g><g><path d="m381.198 125.618c-33.293-32.943-85.08-38.98-125.198-14.594h-71.652v104.991l3.115 6.142c4.458 8.789 13.74 14.061 23.571 13.377 5.269-.367 10.542-.668 15.817-.906 9.279-.417 17.512-6.077 21.274-14.57l6.222-14.043 6.167 13.905c3.784 8.532 12.078 14.193 21.404 14.567 10.099.405 20.192 1.046 30.268 1.927 8.709.761 17.153-3.232 22.161-10.398l2.731 4.318c3.807 6.019 10.042 10.061 17.081 11.148 14.239 2.198 28.613 4.907 42.588 8.02 24.644-39.698 17.743-90.941-15.549-123.884z" fill="#e8b5b1"/><path d="m256 111.023c-40.118-24.385-91.905-18.349-125.198 14.594-33.292 32.944-40.187 84.187-15.542 123.883 14.83-3.304 30.056-6.137 45.168-8.406 8.012-1.203 14.896-6.318 18.408-13.619l5.513-11.46c-.001-46.409 28.435-88.076 71.651-104.992z" fill="#d6948c"/></g><g><path d="m201.051 310v-12c0-4.142-3.358-7.5-7.5-7.5s-7.5 3.358-7.5 7.5v12c0 4.142 3.358 7.5 7.5 7.5s7.5-3.358 7.5-7.5z"/><path d="m325.949 310v-12c0-4.142-3.358-7.5-7.5-7.5s-7.5 3.358-7.5 7.5v12c0 4.142 3.358 7.5 7.5 7.5s7.5-3.358 7.5-7.5z"/><path d="m278.118 314.571c2.722-3.123 2.396-7.86-.726-10.582s-7.86-2.398-10.582.726c-5.727 6.571-15.899 6.564-21.621 0-2.722-3.123-7.459-3.448-10.582-.726s-3.448 7.459-.726 10.582c11.705 13.429 32.544 13.416 44.237 0z"/><path d="m408.924 242.752c11.151-23.661 12.806-49.731 6.194-73.693-1.101-3.993-5.225-6.335-9.225-5.235-3.992 1.102-6.336 5.232-5.234 9.225 6.164 22.339 3.938 46.647-7.646 67.96-12.461-2.667-25.12-4.997-37.708-6.94-4.923-.76-9.255-3.583-11.887-7.745l-2.73-4.317c-2.867-4.534-9.423-4.674-12.486-.287-3.467 4.961-9.318 7.75-15.361 7.223-10.119-.884-20.421-1.54-30.62-1.949-6.41-.257-12.238-4.227-14.849-10.113l-6.167-13.905c-2.627-5.924-11.079-5.944-13.713.002l-6.222 14.043c-2.636 5.949-8.289 9.825-14.754 10.115-5.32.239-10.703.547-15.999.916-6.883.479-13.267-3.18-16.365-9.288l-3.116-6.142c-2.817-5.555-10.763-5.438-13.447.142l-5.514 11.46c-2.447 5.087-7.218 8.621-12.762 9.453-13.482 2.024-27.02 4.486-40.32 7.332-7.211-13.268-11-28.132-11-43.306 0-72.826 80.851-118.721 144.11-80.27 2.393 1.455 5.397 1.454 7.791 0 43.658-26.538 101.538-13.926 129.548 30.306 2.217 3.5 6.851 4.539 10.35 2.324 3.499-2.216 4.54-6.849 2.324-10.349-4.442-7.015-9.705-13.551-15.644-19.427-9.828-9.725-21.201-17.365-33.859-22.768v-27.836c12.024-3.298 20.887-14.317 20.887-27.373 0-15.652-12.733-28.386-28.386-28.386-9.691 0-18.611 4.871-23.861 13.03-3.996 6.211-5.371 13.564-4.034 20.609-12.29 6.261-26.882 5.127-38.043-2.831 3.334-4.738 5.21-10.443 5.21-16.346 0-15.652-12.734-28.386-28.386-28.386s-28.386 12.734-28.386 28.386c0 5.896 1.881 11.598 5.223 16.336-11.09 7.814-25.874 8.96-38.064 2.814.325-1.716.499-3.46.499-5.226 0-15.652-12.734-28.386-28.386-28.386s-28.386 12.734-28.386 28.386c0 13.056 8.863 24.075 20.886 27.373v27.836c-55.766 23.804-82.421 89.816-56.303 145.232-19.662 3.721-34.583 21.02-34.583 41.749 0 22.902 18.212 41.62 40.912 42.46 9.8 33.697 31.169 63.514 61.167 83.891 3.429 2.329 8.093 1.434 10.418-1.99 2.328-3.427 1.437-8.091-1.99-10.418-45.913-31.186-69.502-86.891-57.516-142.604 13.208-2.839 26.648-5.315 40.05-7.328 10.026-1.506 18.704-7.678 23.458-16.611 5.995 7.037 14.795 11.192 24.328 11.192.739 0 1.488-.026 2.228-.077 5.176-.36 10.436-.662 15.634-.895 11.695-.526 21.975-7.26 27.167-17.688 5.241 10.402 15.545 17.079 27.263 17.549 9.965.4 20.03 1.041 29.918 1.904 7.839.684 15.553-1.59 21.698-6.124 4.972 5.942 11.986 9.928 19.78 11.131 12.506 1.931 25.074 4.272 37.493 6.942 18.512 86.067-47.608 166.166-134.508 166.166-18.051 0-35.543-3.41-51.989-10.135-3.835-1.569-8.213.27-9.781 4.103-1.568 3.834.269 8.213 4.103 9.781 1.046.428 2.097.84 3.15 1.244-2.833 2.396-5.508 4.993-8.031 7.765-10.522-3.562-22.269-1.77-31.314 5.146-21.237 16.233-15.982 49.428 8.863 58.538v6.059c0 4.142 3.358 7.5 7.5 7.5h155c4.143 0 7.5-3.358 7.5-7.5v-6.043c24.854-9.103 30.112-42.306 8.873-58.541-9.046-6.915-20.791-8.708-31.313-5.147-2.522-2.773-5.191-5.37-8.017-7.765 44.364-16.961 78.829-54.522 92.062-100.045 22.692-.848 40.894-19.563 40.894-42.459 0-20.727-14.917-38.025-34.576-41.749zm-75.057-207.682c2.514-3.906 6.613-6.146 11.247-6.146 7.381 0 13.386 6.005 13.386 13.386s-6.005 13.386-13.386 13.386c-5.214 0-9.983-3.061-12.166-7.804-.007-.016-.015-.032-.021-.048-1.917-4.209-1.574-8.865.94-12.774zm-77.867-20.07c7.381 0 13.386 6.005 13.386 13.386 0 7.555-6.143 13.387-13.386 13.387-7.062 0-13.386-5.74-13.386-13.387 0-7.381 6.005-13.386 13.386-13.386zm-67.805 46.014c7.301 3.641 15.256 5.434 23.187 5.434 11.979 0 23.892-4.086 33.402-12.007 3.521 1.529 7.314 2.332 11.217 2.332 3.92 0 7.719-.8 11.24-2.324 9.579 8.036 21.37 12.167 33.265 12.167 7.933 0 15.909-1.842 23.3-5.572 3.659 4.151 8.469 7.151 13.809 8.623v22.688c-27.197-7.246-56.469-3.905-81.614 10-24.473-13.533-53.678-17.443-81.614-10v-22.692c5.339-1.477 10.15-4.486 13.808-8.649zm-34.695-18.704c0-7.381 6.005-13.386 13.386-13.386s13.386 6.005 13.386 13.386c0 1.893-.408 3.749-1.212 5.514v.001c-2.177 4.782-6.956 7.871-12.173 7.871-7.382 0-13.387-6.005-13.387-13.386zm-47.713 269.188c-12.678-2.444-22.287-13.617-22.287-26.998 0-13.412 9.654-24.606 22.376-27.014-3.281 18.002-3.319 36.052-.089 54.012zm96.008 185.502h-15.795v-4.32c0-3.685-2.677-6.824-6.316-7.406-16.244-2.597-21.526-23.449-8.438-33.454 5.701-4.357 13.332-5.07 19.709-1.919 6.901 7.399 10.839 17.458 10.839 27.776v19.323zm13.199-33.332c10.429 4.298 21.511 7.052 33.506 7.887v25.445h-31.705v-19.323c0-4.75-.624-9.459-1.801-14.009zm80.211 14.009v19.323h-31.705v-25.446c11.33-.801 22.649-3.41 33.516-7.909-1.183 4.558-1.811 9.275-1.811 14.032zm-88.446-35.155c3.785-3.798 7.949-7.135 12.468-9.958 11.932 2.948 24.233 4.436 36.773 4.436 12.579 0 24.911-1.514 36.797-4.442 4.511 2.825 8.673 6.169 12.462 9.979-29.242 18.554-67.623 19.542-98.5-.015zm114.295 7.392c6.379-3.152 14.01-2.437 19.71 1.92 12.971 9.916 7.987 30.772-8.465 33.435-3.631.589-6.299 3.733-6.299 7.412v4.319h-15.795v-19.323c0-10.305 3.941-20.359 10.849-27.763zm85.175-138.419c3.168-17.685 3.211-35.803-.105-54.009 12.722 2.408 22.375 13.602 22.375 27.014.001 13.375-9.599 24.545-22.27 26.995z"/></g></g></svg>