<?xml version="1.0" encoding="UTF-8" standalone="no"?><!-- Generator: Gravit.io --><svg xmlns="http://www.w3.org/2000/svg" xmlns:xlink="http://www.w3.org/1999/xlink" style="isolation:isolate" viewBox="0 0 1440 900" width="1440pt" height="900pt"><defs><clipPath id="_clipPath_MkDiw13WDQUgvR8ufMgaCer2kvFD7uWr"><rect width="1440" height="900"/></clipPath></defs><g clip-path="url(#_clipPath_MkDiw13WDQUgvR8ufMgaCer2kvFD7uWr)"><g><path d=" M 390.539 70.844 C 390.539 70.844 484.962 127.051 500.043 141.103 C 500.043 141.103 508.568 119.44 530.206 97.777 C 530.206 97.777 535.452 66.16 568.237 76.699 C 568.237 76.699 578.073 67.917 608.892 67.917 C 608.892 67.917 853.472 -69.673 1014.778 145.787 C 1014.778 145.787 1052.153 192.626 1077.726 299.185 C 1077.726 299.185 1148.543 382.324 1086.906 496.495 C 1086.906 496.495 1093.463 519.914 1086.906 542.163 C 1086.906 542.163 1157.067 549.189 1170.837 596.614 C 1170.837 596.614 1160.346 667.458 1166.903 702.002 C 1166.903 702.002 1114.446 766.991 971.501 741.815 C 971.501 741.815 1023.302 773.431 1028.548 807.39 C 1028.548 807.39 1025.269 829.638 972.812 817.928 C 972.812 817.928 1014.778 878.819 985.926 896.384 C 985.926 896.384 979.369 902.239 955.764 888.773 C 932.814 875.892 899.372 834.322 745.935 892.871 C 745.935 892.871 707.904 916.291 688.233 878.234 C 668.561 840.763 638.399 827.882 626.596 819.685 C 607.988 802.346 602.822 776.743 613.482 754.696 C 613.482 754.696 540.042 779.872 491.519 758.794 C 491.519 758.794 442.341 741.229 457.422 687.95 C 457.422 687.95 427.259 649.308 450.865 607.738 C 450.865 607.738 457.422 588.417 476.438 579.049 C 476.438 579.049 420.046 549.774 406.276 485.371 C 406.276 485.371 445.619 409.257 473.159 335.485 C 473.159 335.485 456.766 300.356 474.47 236.538 L 364.311 107.73 C 364.311 107.73 347.262 56.207 390.539 70.844 Z " fill-rule="evenodd" fill="rgb(0,0,0)" fill-opacity="0.2"/><path d=" M 418.079 48.596 C 418.079 48.596 512.502 104.803 527.583 119.44 C 527.583 119.44 536.107 97.191 557.746 75.528 C 557.746 75.528 562.992 43.912 595.777 54.45 C 595.777 54.45 605.613 46.254 636.431 45.668 C 636.431 45.668 881.012 -91.922 1041.662 124.124 C 1041.662 124.124 1079.693 170.963 1105.266 277.522 C 1105.266 277.522 1176.083 360.076 1114.446 474.246 C 1114.446 474.246 1120.347 497.666 1114.446 520.5 C 1114.446 520.5 1183.951 526.355 1197.721 574.365 C 1197.721 574.365 1187.23 645.795 1194.443 679.753 C 1194.443 679.753 1141.986 745.328 999.041 720.152 C 999.041 720.152 1050.842 751.768 1056.088 785.727 C 1056.088 785.727 1052.153 807.39 1000.352 795.68 C 1000.352 795.68 1041.662 856.571 1013.466 874.721 C 1013.466 874.721 1006.253 879.405 983.303 866.524 C 959.698 853.643 926.912 812.074 773.475 870.623 C 773.475 870.623 735.444 894.042 715.773 856.571 C 696.101 819.099 665.939 806.219 653.48 797.436 C 641.677 788.069 626.596 757.623 640.366 732.447 C 640.366 732.447 568.237 757.623 518.403 736.545 C 518.403 736.545 469.88 718.981 484.306 666.287 C 484.306 666.287 454.799 627.059 477.749 585.489 C 477.749 585.489 484.962 566.168 503.978 556.8 C 503.978 556.8 446.931 527.526 433.161 463.122 C 433.161 463.122 472.503 387.008 500.699 313.237 C 500.699 313.237 483.65 278.107 502.01 214.875 L 391.851 86.067 C 391.851 86.067 374.802 33.958 418.079 48.596 Z " fill-rule="evenodd" fill="rgb(255,255,255)"/><path d=" M 1196.41 682.095 L 1195.099 683.266 L 1194.443 684.437 L 1193.787 685.022 L 1192.476 685.608 L 1191.82 686.779 L 1191.164 687.364 L 1189.853 688.535 L 1188.541 689.706 L 1187.23 690.292 L 1185.919 691.463 L 1184.607 692.634 L 1183.296 693.805 L 1181.329 694.976 L 1180.017 696.147 L 1178.05 697.318 L 1176.083 699.074 L 1174.116 700.245 L 1172.149 701.416 L 1170.837 702.002 L 1169.526 702.587 L 1168.87 703.173 L 1167.559 703.758 L 1166.247 704.344 L 1164.936 705.515 L 1163.624 705.515 L 1162.969 706.686 L 1161.657 707.271 L 1160.346 707.856 L 1159.034 708.442 L 1157.067 709.027 L 1155.756 709.613 L 1154.444 710.198 L 1153.133 711.369 L 1151.822 711.369 L 1149.854 712.54 L 1148.543 712.54 L 1147.232 713.711 L 1145.264 713.711 L 1143.953 714.882 L 1141.986 714.882 L 1140.674 716.053 L 1138.707 716.053 L 1137.396 717.224 L 1134.773 717.224 L 1132.806 718.395 L 1131.494 718.395 L 1129.527 719.566 L 1127.56 719.566 L 1125.593 720.152 L 1123.626 720.737 L 1121.659 721.323 L 1119.692 721.323 L 1117.725 722.494 L 1115.757 722.494 L 1113.79 723.079 L 1111.823 723.665 L 1109.856 723.665 L 1107.889 724.25 L 1105.266 724.836 L 1103.299 724.836 L 1101.332 725.421 L 1098.709 725.421 L 1096.742 726.007 L 1094.119 726.007 L 1092.152 726.592 L 1089.529 726.592 L 1086.906 727.178 L 1082.316 727.178 L 1079.693 727.763 L 1069.202 727.763 L 1066.579 728.349 L 1042.973 728.349 L 1040.35 727.763 L 1034.449 727.763 L 1031.17 727.178 L 1027.892 727.178 L 1025.269 726.007 L 1018.712 726.007 L 1015.433 724.836 L 1012.155 724.836 L 1013.466 726.007 L 1016.089 727.763 L 1018.056 729.52 L 1019.368 730.691 L 1020.679 731.276 L 1021.99 732.447 L 1023.302 733.618 L 1024.613 734.789 L 1025.925 735.96 L 1027.236 736.545 L 1028.548 737.716 L 1029.859 738.887 L 1031.17 740.058 L 1032.482 741.815 L 1033.793 742.986 L 1035.105 744.157 L 1035.76 745.328 L 1037.072 746.499 L 1038.383 748.255 L 1039.695 749.426 L 1041.006 750.597 L 1042.318 752.354 L 1043.629 753.525 L 1044.94 754.696 L 1045.596 756.452 L 1046.908 757.623 L 1048.219 759.38 L 1048.875 761.136 L 1050.186 762.307 L 1050.842 764.063 L 1052.153 765.234 L 1052.809 766.991 L 1054.12 768.747 L 1054.12 770.504 L 1055.432 771.089 L 1055.432 772.846 L 1056.088 773.431 L 1056.088 774.017 L 1056.743 775.188 L 1056.743 775.773 L 1057.399 776.944 L 1057.399 777.53 L 1058.055 778.701 L 1058.055 779.872 L 1058.71 781.043 L 1058.71 782.799 L 1059.366 783.385 L 1059.366 788.654 L 1058.71 789.239 L 1058.055 789.825 L 1058.055 790.41 L 1057.399 790.996 L 1056.743 792.167 L 1056.088 792.752 L 1056.088 793.338 L 1054.776 793.338 L 1054.776 794.509 L 1054.12 794.509 L 1053.465 795.094 L 1052.809 795.68 L 1052.153 795.68 L 1051.498 796.851 L 1050.842 796.851 L 1050.186 797.436 L 1048.875 797.436 L 1048.875 798.022 L 1047.563 798.607 L 1046.252 798.607 L 1045.596 799.193 L 1044.285 799.778 L 1043.629 799.778 L 1042.318 800.364 L 1041.006 800.364 L 1040.35 800.949 L 1037.728 800.949 L 1036.416 801.535 L 1027.892 801.535 L 1026.58 802.12 L 1019.368 802.12 L 1017.4 801.535 L 1013.466 801.535 L 1011.499 800.949 L 1008.876 800.949 L 1006.909 799.778 L 1008.221 802.12 L 1009.532 804.462 L 1010.843 806.804 L 1012.155 809.146 L 1012.155 810.903 L 1013.466 812.074 L 1014.122 813.245 L 1014.778 815.001 L 1015.433 816.172 L 1016.089 817.928 L 1017.4 819.685 L 1017.4 820.27 L 1018.712 822.027 L 1018.712 823.783 L 1020.023 825.54 L 1020.023 826.711 L 1021.335 828.467 L 1021.335 830.224 L 1022.646 831.98 L 1022.646 833.737 L 1023.302 835.493 L 1023.958 837.25 L 1023.958 839.006 L 1024.613 840.763 L 1024.613 842.519 L 1025.269 844.275 L 1025.269 846.032 L 1025.925 846.617 L 1025.925 861.255 L 1025.269 861.84 L 1025.269 863.597 L 1024.613 864.182 L 1024.613 865.353 L 1023.958 865.353 L 1023.958 866.524 L 1023.302 867.11 L 1023.302 867.695 L 1022.646 868.866 L 1021.335 870.037 L 1021.335 870.623 L 1020.679 871.208 L 1020.023 871.793 L 1020.023 872.379 L 1018.712 872.964 L 1018.712 873.55 L 1017.4 874.135 L 1017.4 874.721 L 1016.089 875.306 L 1014.778 876.477 L 1013.466 876.477 L 1013.466 877.063 L 1010.843 877.063 L 1010.188 877.648 L 1002.975 877.648 L 1001.663 877.063 L 1001.008 877.063 L 999.041 876.477 L 997.729 875.892 L 996.418 875.892 L 995.106 874.721 L 993.139 874.721 L 992.483 873.55 L 990.516 873.55 L 989.861 872.379 L 988.549 872.379 L 987.893 871.793 L 986.582 871.793 L 985.926 870.623 L 984.615 870.623 L 983.303 869.452 L 982.648 869.452 L 981.336 868.281 L 980.025 868.281 L 979.369 867.11 L 978.058 866.524 L 976.746 865.353 L 974.123 864.182 L 972.156 862.426 L 969.533 860.669 L 968.222 859.498 L 966.255 858.913 L 964.943 857.742 L 963.632 857.156 L 962.321 855.985 L 960.353 855.4 L 959.042 854.229 L 957.075 854.229 L 955.764 853.058 L 953.796 851.887 L 952.485 851.887 L 951.829 851.301 L 951.174 851.301 L 949.862 850.13 L 947.895 850.13 L 946.584 848.959 L 944.616 848.959 L 943.961 848.374 L 942.649 847.788 L 941.338 847.788 L 940.682 847.203 L 939.371 847.203 L 938.059 846.617 L 936.748 846.617 L 935.436 846.032 L 934.125 846.032 L 933.469 845.446 L 931.502 845.446 L 930.191 844.861 L 927.568 844.861 L 925.601 844.275 L 924.945 844.275 L 923.634 843.69 L 919.044 843.69 L 917.732 843.105 L 907.896 843.105 L 906.585 842.519 L 891.504 842.519 L 889.537 843.105 L 885.602 843.105 L 883.635 843.69 L 879.045 843.69 L 877.078 844.275 L 875.111 844.275 L 872.488 844.861 L 870.521 845.446 L 867.898 845.446 L 865.931 846.032 L 863.308 846.617 L 861.341 846.617 L 858.718 847.788 L 856.095 847.788 L 853.472 848.374 L 850.849 848.959 L 848.227 849.545 L 845.604 850.13 L 842.981 850.716 L 840.358 851.301 L 837.735 852.472 L 835.112 853.058 L 832.49 853.643 L 829.211 854.814 L 826.588 855.4 L 823.31 855.985 L 820.687 857.156 L 817.408 857.742 L 814.785 858.913 L 811.507 860.084 L 808.228 860.669 L 804.95 861.84 L 801.671 863.011 L 798.392 864.182 L 795.114 865.353 L 791.835 866.524 L 788.557 867.695 L 785.278 868.866 L 782 870.037 L 778.065 871.208 L 774.787 872.964 L 774.131 872.964 L 773.475 873.55 L 772.164 873.55 L 771.508 874.721 L 770.197 874.721 L 768.23 875.892 L 766.918 875.892 L 766.263 876.477 L 764.951 877.063 L 764.295 877.063 L 763.64 877.648 L 762.328 877.648 L 761.017 878.819 L 759.05 878.819 L 758.394 879.405 L 757.083 879.405 L 755.771 879.99 L 751.181 879.99 L 749.87 880.576 L 741.345 880.576 L 740.034 879.99 L 738.723 879.99 L 737.411 878.819 L 734.788 878.819 L 734.133 878.234 L 733.477 878.234 L 732.821 877.648 L 732.166 877.648 L 731.51 877.063 L 730.854 877.063 L 730.198 876.477 L 729.543 875.892 L 728.231 875.892 L 727.576 875.306 L 726.92 874.721 L 726.264 874.721 L 726.264 873.55 L 724.953 873.55 L 724.953 872.964 L 723.641 872.379 L 722.33 871.208 L 721.674 870.037 L 721.018 868.866 L 720.363 868.866 L 719.707 867.695 L 719.051 867.11 L 719.051 866.524 L 717.74 865.939 L 717.74 864.768 L 717.084 864.768 L 716.428 863.597 L 715.773 862.426 L 714.461 861.255 L 714.461 860.084 L 713.806 859.498 L 713.806 858.327 L 712.494 857.742 L 711.838 855.985 L 711.183 854.229 L 709.871 852.472 L 709.216 850.716 L 707.904 849.545 L 707.248 847.788 L 705.937 846.032 L 705.281 844.861 L 703.97 843.69 L 703.314 841.934 L 702.003 840.763 L 700.691 839.592 L 700.036 837.835 L 698.724 836.664 L 698.068 835.493 L 696.757 834.322 L 695.446 833.151 L 694.79 831.98 L 693.478 830.809 L 692.167 829.638 L 691.511 828.467 L 690.2 827.296 L 689.544 826.125 L 688.233 825.54 L 686.921 824.369 L 686.266 823.198 L 684.954 822.612 L 683.643 821.441 L 682.987 820.856 L 681.676 819.685 L 681.02 819.099 L 679.709 817.928 L 678.397 817.343 L 677.741 816.757 L 676.43 815.587 L 675.774 815.001 L 673.151 813.245 L 671.184 812.074 L 669.217 810.903 L 667.25 809.732 L 665.939 808.561 L 663.971 807.39 L 660.693 805.048 L 657.414 802.706 L 655.447 802.12 L 654.136 800.949 L 652.824 800.364 L 651.513 799.193 L 650.201 798.022 L 648.89 796.851 L 647.579 795.68 L 646.267 794.509 L 646.267 793.923 L 645.611 793.338 L 644.956 792.167 L 644.3 791.581 L 643.644 790.996 L 642.989 789.825 L 642.333 789.239 L 642.333 788.069 L 641.021 787.483 L 641.021 786.312 L 640.366 785.141 L 639.71 784.556 L 639.054 783.385 L 639.054 782.214 L 638.399 781.628 L 637.743 780.457 L 637.087 779.286 L 637.087 778.115 L 636.431 776.944 L 635.776 776.359 L 635.776 775.188 L 635.12 774.017 L 635.12 772.846 L 634.464 771.675 L 634.464 770.504 L 633.809 769.333 L 633.809 768.162 L 633.153 766.991 L 633.153 764.063 L 632.497 762.892 L 632.497 758.209 L 631.841 757.038 L 631.841 746.499 L 632.497 745.328 L 632.497 744.157 L 633.153 742.4 L 633.153 741.229 L 633.809 740.058 L 633.809 738.887 L 635.12 737.131 L 631.841 737.716 L 629.219 738.887 L 626.596 739.473 L 623.317 740.058 L 621.35 740.644 L 619.383 740.644 L 617.416 741.815 L 615.449 741.815 L 613.482 742.4 L 611.514 742.4 L 609.547 742.986 L 607.58 743.571 L 605.613 743.571 L 602.99 744.157 L 601.023 744.742 L 598.4 744.742 L 596.433 745.328 L 593.81 745.328 L 591.187 745.913 L 589.22 745.913 L 586.597 746.499 L 583.974 746.499 L 581.352 747.084 L 577.417 747.084 L 574.795 747.67 L 550.533 747.67 L 549.222 747.084 L 544.632 747.084 L 543.32 746.499 L 540.697 746.499 L 539.386 745.913 L 538.075 745.913 L 536.763 745.328 L 534.14 745.328 L 532.829 744.742 L 531.517 744.742 L 530.206 743.571 L 527.583 743.571 L 526.272 742.986 L 525.616 742.986 L 524.305 741.815 L 522.993 741.815 L 521.682 741.229 L 520.37 741.229 L 519.059 740.058 L 518.403 740.058 L 517.748 739.473 L 517.092 739.473 L 516.436 738.887 L 515.125 738.887 L 514.469 737.716 L 511.846 737.716 L 510.535 736.545 L 509.879 736.545 L 509.223 735.374 L 507.912 735.374 L 507.256 734.204 L 506.6 734.204 L 505.289 733.033 L 503.978 731.862 L 503.322 731.276 L 502.01 730.691 L 500.699 729.52 L 500.043 728.934 L 498.732 727.763 L 498.076 727.178 L 496.765 726.007 L 496.109 724.836 L 494.798 724.25 L 493.486 723.079 L 492.83 721.908 L 491.519 720.737 L 490.863 719.566 L 489.552 718.395 L 488.896 717.224 L 488.24 715.468 L 487.585 715.468 L 487.585 714.297 L 486.273 713.711 L 486.273 711.955 L 485.618 711.955 L 484.962 710.784 L 484.962 710.198 L 484.306 709.027 L 484.306 708.442 L 483.65 707.856 L 483.65 706.686 L 482.995 706.1 L 482.339 704.929 L 482.339 703.758 L 481.683 702.587 L 481.683 702.002 L 481.028 700.831 L 481.028 699.074 L 480.372 697.903 L 480.372 696.147 L 479.06 695.561 L 479.06 673.898 L 479.716 672.727 L 479.716 669.8 L 480.372 668.629 L 480.372 667.458 L 481.028 666.287 L 481.028 665.701 L 479.06 664.53 L 479.06 663.359 L 477.749 661.603 L 477.093 660.432 L 475.782 658.675 L 475.782 657.504 L 475.126 656.919 L 474.47 655.748 L 473.815 654.577 L 473.815 653.406 L 472.503 652.235 L 472.503 651.064 L 471.848 649.893 L 471.848 648.722 L 470.536 647.551 L 470.536 643.453 L 469.88 642.282 L 469.225 640.525 L 469.225 639.354 L 468.569 637.598 L 467.913 635.841 L 467.913 634.67 L 467.258 632.914 L 467.258 629.401 L 466.602 628.23 L 466.602 605.981 L 467.258 605.396 L 467.258 603.054 L 467.913 602.468 L 467.913 601.297 L 468.569 600.126 L 468.569 598.37 L 469.225 597.199 L 469.225 596.614 L 469.88 595.443 L 470.536 594.272 L 470.536 593.686 L 471.192 592.515 L 471.192 591.344 L 472.503 590.759 L 472.503 588.417 L 473.815 587.246 L 473.815 586.66 L 474.47 585.489 L 475.126 584.904 L 475.126 583.733 L 475.782 582.562 L 476.438 581.391 L 476.438 580.805 L 477.749 579.634 L 477.749 579.049 L 479.06 577.878 L 479.06 576.707 L 479.716 575.536 L 480.372 574.365 L 481.028 573.194 L 482.339 572.023 L 482.339 570.852 L 483.65 569.681 L 484.962 568.51 L 486.273 567.339 L 486.273 566.754 L 486.929 566.168 L 487.585 565.583 L 488.24 564.997 L 488.896 564.412 L 489.552 563.826 L 490.208 562.655 L 490.863 562.655 L 491.519 561.484 L 492.175 561.484 L 492.83 560.313 L 493.486 560.313 L 494.798 559.142 L 496.109 557.971 L 496.765 557.971 L 497.42 557.386 L 496.765 556.215 L 494.798 555.044 L 492.83 553.873 L 491.519 552.702 L 490.863 552.116 L 489.552 550.945 L 488.24 550.36 L 486.929 549.189 L 485.618 548.603 L 484.306 547.432 L 482.995 546.261 L 481.683 545.09 L 480.372 543.92 L 479.06 542.749 L 477.093 541.578 L 475.782 540.407 L 474.47 538.65 L 473.159 537.479 L 471.192 536.308 L 469.88 534.552 L 468.569 532.795 L 466.602 531.624 L 465.291 529.868 L 463.979 527.526 L 462.012 525.769 L 460.701 524.013 L 459.389 522.256 L 457.422 519.914 L 456.111 518.158 L 454.799 516.402 L 453.488 514.06 L 451.521 512.303 L 450.209 509.961 L 448.898 508.79 L 448.242 507.619 L 447.586 507.034 L 446.931 505.863 L 446.275 504.692 L 445.619 503.521 L 444.963 502.35 L 444.308 501.179 L 443.652 500.008 L 442.996 498.837 L 442.341 497.08 L 441.685 495.909 L 441.029 494.738 L 441.029 493.567 L 439.718 492.396 L 439.718 491.225 L 438.406 489.469 L 438.406 488.298 L 437.751 487.127 L 437.095 485.956 L 436.439 484.2 L 436.439 483.029 L 435.783 481.858 L 435.128 480.101 L 434.472 478.93 L 434.472 477.759 L 433.161 474.832 L 433.161 473.075 L 432.505 471.904 L 431.849 468.977 L 431.193 467.22 L 431.193 466.049 L 430.538 464.293 L 430.538 463.122 L 432.505 459.024 L 434.472 454.925 L 437.095 449.07 L 440.373 443.215 L 442.341 439.117 L 444.308 434.433 L 446.931 430.335 L 448.898 425.651 L 451.521 420.381 L 453.488 415.697 L 456.111 409.842 L 458.733 403.988 L 461.356 398.718 L 463.979 392.863 L 467.258 387.008 L 469.88 380.568 L 472.503 374.128 L 475.782 367.687 L 478.405 360.661 L 481.028 354.221 L 484.306 347.195 L 486.929 340.755 L 489.552 333.729 L 490.863 330.216 L 492.83 326.703 L 494.142 323.19 L 495.453 319.677 L 496.765 316.164 L 497.42 313.822 L 497.42 312.066 L 496.109 310.895 L 496.109 309.724 L 495.453 307.967 L 495.453 306.211 L 494.142 304.454 L 494.142 300.941 L 493.486 299.77 L 493.486 298.6 L 492.83 297.429 L 492.83 293.33 L 492.175 293.33 L 492.175 290.403 L 491.519 288.646 L 491.519 283.377 L 490.863 281.62 L 490.863 252.346 L 491.519 250.004 L 491.519 247.662 L 492.175 245.32 L 492.175 242.393 L 493.486 240.051 L 493.486 237.123 L 494.142 234.781 L 494.142 231.854 L 495.453 228.926 L 495.453 225.999 L 496.765 223.657 L 496.765 220.729 L 498.076 217.802 L 498.076 216.046 L 389.884 87.238 L 389.884 86.067 L 389.228 86.067 L 389.228 84.31 L 387.261 82.554 L 387.261 80.798 L 386.605 79.627 L 386.605 77.87 L 385.949 76.114 L 385.949 73.772 L 385.294 72.601 L 385.294 67.917 L 384.638 66.746 L 384.638 59.134 L 385.294 57.963 L 385.294 56.207 L 387.261 55.621 L 387.261 54.45 L 387.916 54.45 L 387.916 53.28 L 388.572 52.109 L 389.228 51.523 L 389.228 49.767 L 389.884 49.767 L 390.539 49.181 L 391.195 49.181 L 391.195 47.425 L 392.506 47.425 L 392.506 46.254 L 393.818 46.254 L 393.818 45.668 L 395.129 45.083 L 396.441 44.497 L 397.096 43.912 L 399.064 43.912 L 400.375 43.326 L 411.522 43.326 L 413.489 45.083 L 415.456 45.083 L 416.768 45.668 L 417.423 45.668 L 418.735 46.254 L 420.046 46.839 L 424.636 49.767 L 429.226 52.694 L 435.783 56.207 L 442.341 60.305 L 450.865 66.16 L 460.045 71.43 L 464.635 74.357 L 469.88 77.285 L 474.47 80.212 L 479.06 83.139 L 484.306 86.067 L 488.896 88.994 L 493.486 91.922 L 498.076 94.849 L 502.666 97.777 L 506.6 100.704 L 510.535 103.632 L 514.469 105.974 L 516.436 107.145 L 517.748 108.316 L 519.715 109.486 L 521.026 110.657 L 522.338 111.828 L 524.305 112.999 L 525.616 113.585 L 526.272 114.756 L 526.927 114.756 L 528.239 112.999 L 528.239 111.828 L 528.895 110.657 L 529.55 109.486 L 530.862 108.316 L 530.862 105.974 L 532.173 104.217 L 533.485 103.046 L 534.14 101.29 L 535.452 99.533 L 536.763 97.777 L 538.075 96.02 L 538.73 94.264 L 540.697 91.922 L 542.009 90.165 L 543.32 88.409 L 544.632 86.067 L 546.599 84.31 L 547.255 83.139 L 548.566 81.968 L 548.566 81.383 L 549.877 80.212 L 551.189 79.041 L 551.845 77.87 L 553.156 77.285 L 553.812 76.114 L 555.123 74.943 L 555.123 73.186 L 555.779 72.015 L 555.779 71.43 L 556.435 70.259 L 557.09 69.088 L 557.09 67.917 L 557.746 66.746 L 558.402 65.575 L 559.057 64.404 L 559.057 63.818 L 560.369 63.233 L 560.369 62.062 L 561.68 60.891 L 561.68 60.305 L 562.336 59.134 L 562.992 57.963 L 563.647 57.963 L 564.303 56.792 L 564.959 56.792 L 565.615 55.621 L 566.27 55.036 L 567.582 54.45 L 568.893 53.865 L 569.549 53.865 L 570.86 52.109 L 571.516 52.109 L 572.827 51.523 L 573.483 50.938 L 574.795 50.938 L 575.45 50.352 L 576.762 50.352 L 577.417 49.767 L 580.04 49.767 L 581.352 49.181 L 590.532 49.181 L 591.187 49.767 L 593.81 49.767 L 594.466 50.352 L 595.122 50.352 L 595.777 50.938 L 597.089 50.938 L 597.089 49.767 L 598.4 49.767 L 599.712 48.596 L 601.023 48.596 L 601.679 48.01 L 602.99 48.01 L 603.646 47.425 L 604.957 47.425 L 606.269 46.839 L 607.58 46.839 L 608.892 45.668 L 612.826 45.668 L 614.137 44.497 L 619.383 44.497 L 620.694 43.912 L 623.973 43.912 L 625.284 43.326 L 635.12 43.326 L 636.431 41.57 L 637.087 41.57 L 639.054 40.399 L 641.021 39.228 L 642.989 38.057 L 645.611 36.886 L 648.234 35.715 L 651.513 34.544 L 654.791 32.787 L 656.759 32.202 L 658.726 31.031 L 660.693 30.445 L 662.66 29.86 L 664.627 29.86 L 666.594 29.274 L 668.561 28.103 L 671.184 27.518 L 673.151 26.347 L 675.774 24.591 L 678.397 24.005 L 680.364 22.834 L 682.987 22.249 L 685.61 21.078 L 688.233 20.492 L 691.511 19.321 L 694.134 18.736 L 696.757 17.565 L 699.38 16.979 L 702.658 15.808 L 705.937 15.223 L 708.56 14.052 L 711.838 13.466 L 715.117 12.295 L 717.74 12.295 L 721.674 10.539 L 724.953 10.539 L 728.231 8.782 L 732.166 7.611 L 735.444 7.611 L 738.067 6.44 L 741.345 6.44 L 745.28 5.855 L 748.558 5.269 L 752.493 4.684 L 755.771 4.098 L 759.705 3.513 L 762.984 2.927 L 766.918 2.342 L 770.853 2.342 L 774.131 0.585 L 793.803 0.585 L 795.77 0 L 830.522 0 L 833.145 0.585 L 837.735 0.585 L 839.702 1.171 L 843.637 1.171 L 845.604 1.756 L 848.227 1.756 L 850.194 2.342 L 852.161 2.342 L 854.128 2.927 L 856.751 2.927 L 858.718 3.513 L 860.685 3.513 L 862.652 4.098 L 865.275 4.684 L 867.242 4.684 L 869.209 5.855 L 871.177 5.855 L 873.799 6.44 L 875.767 6.44 L 877.734 7.611 L 880.357 7.611 L 882.324 8.782 L 884.291 8.782 L 886.258 9.368 L 888.881 10.539 L 890.848 10.539 L 892.159 12.295 L 894.782 12.295 L 896.749 13.466 L 898.717 14.052 L 900.684 14.637 L 903.306 15.808 L 905.274 15.808 L 907.241 16.979 L 909.864 18.15 L 911.831 18.736 L 913.798 19.321 L 916.421 20.492 L 918.388 21.078 L 920.355 22.249 L 922.322 22.834 L 924.945 24.005 L 926.912 25.176 L 928.879 25.762 L 931.502 26.933 L 933.469 28.103 L 935.436 29.274 L 937.404 30.445 L 940.026 31.616 L 941.994 32.202 L 943.961 33.373 L 946.584 34.544 L 948.551 35.715 L 950.518 37.471 L 952.485 38.642 L 955.108 39.813 L 957.075 40.984 L 959.042 42.155 L 961.009 43.912 L 963.632 45.083 L 965.599 46.254 L 967.566 48.01 L 969.533 49.181 L 971.501 50.938 L 974.123 52.109 L 976.091 53.865 L 978.058 55.621 L 980.025 56.792 L 981.992 58.549 L 984.615 60.305 L 986.582 62.062 L 988.549 63.818 L 990.516 65.575 L 992.483 67.331 L 994.451 69.088 L 997.073 70.844 L 999.041 72.601 L 1001.008 74.357 L 1002.975 76.114 L 1004.942 78.456 L 1006.909 80.212 L 1008.876 81.968 L 1010.843 84.31 L 1013.466 86.067 L 1015.433 88.409 L 1017.4 90.165 L 1019.368 92.507 L 1021.335 94.849 L 1023.302 96.606 L 1025.269 98.948 L 1027.236 101.29 L 1029.203 103.632 L 1031.17 105.974 L 1033.138 108.316 L 1035.105 110.657 L 1037.072 112.999 L 1038.383 115.341 L 1040.35 117.683 L 1042.318 120.611 L 1044.285 122.953 L 1045.596 124.124 L 1045.596 125.295 L 1046.908 126.466 L 1048.219 128.222 L 1049.53 129.979 L 1050.842 132.321 L 1052.153 134.663 L 1054.12 137.004 L 1054.776 138.761 L 1056.088 140.517 L 1056.743 141.688 L 1058.055 143.445 L 1058.71 145.201 L 1060.022 147.543 L 1060.678 149.3 L 1061.989 151.056 L 1063.3 153.398 L 1064.612 155.74 L 1065.268 158.082 L 1066.579 160.424 L 1067.89 162.766 L 1069.202 165.108 L 1070.513 167.45 L 1071.825 170.377 L 1073.136 172.719 L 1074.447 175.647 L 1075.103 178.574 L 1076.415 181.502 L 1077.726 184.429 L 1079.037 187.942 L 1080.349 190.869 L 1081.66 194.382 L 1083.627 197.31 L 1084.939 200.823 L 1086.25 204.336 L 1087.562 208.434 L 1088.873 211.947 L 1090.185 215.46 L 1091.496 219.558 L 1092.807 223.657 L 1094.119 227.17 L 1095.43 231.854 L 1096.742 235.952 L 1098.053 240.051 L 1099.365 244.149 L 1100.676 248.833 L 1101.987 253.517 L 1103.299 258.201 L 1104.61 262.885 L 1105.266 267.569 L 1106.577 272.252 L 1107.889 276.936 L 1109.2 278.693 L 1109.856 279.278 L 1110.512 280.449 L 1111.167 281.035 L 1111.823 282.206 L 1113.135 283.377 L 1113.79 285.133 L 1114.446 286.304 L 1115.757 288.061 L 1117.069 289.817 L 1117.725 291.574 L 1119.036 293.33 L 1120.347 295.087 L 1121.003 297.429 L 1122.314 299.185 L 1123.626 301.527 L 1124.937 303.869 L 1125.593 306.796 L 1126.904 309.138 L 1127.56 310.309 L 1128.216 312.066 L 1128.216 313.237 L 1129.527 314.408 L 1129.527 316.164 L 1130.183 317.335 L 1130.839 319.092 L 1131.494 320.263 L 1132.15 322.019 L 1132.15 323.19 L 1133.462 324.947 L 1133.462 326.703 L 1134.117 327.874 L 1134.773 329.63 L 1134.773 331.387 L 1135.429 333.143 L 1136.084 334.9 L 1136.084 336.071 L 1137.396 337.827 L 1137.396 341.34 L 1138.052 343.097 L 1138.707 344.853 L 1138.707 347.195 L 1139.363 348.952 L 1139.363 350.708 L 1140.019 352.465 L 1140.019 354.221 L 1140.674 356.563 L 1140.674 360.076 L 1141.33 362.418 L 1141.33 365.931 L 1141.986 368.273 L 1141.986 399.889 L 1141.33 402.231 L 1141.33 404.573 L 1140.674 406.915 L 1140.674 409.257 L 1140.019 411.599 L 1139.363 413.941 L 1139.363 416.283 L 1138.707 419.21 L 1138.052 421.552 L 1137.396 423.894 L 1136.74 426.236 L 1136.084 428.578 L 1135.429 431.506 L 1134.773 433.848 L 1134.117 436.189 L 1132.806 438.531 L 1132.15 441.459 L 1131.494 443.801 L 1130.183 446.143 L 1129.527 449.07 L 1128.216 451.412 L 1127.56 454.34 L 1126.249 456.682 L 1124.937 459.609 L 1123.626 461.951 L 1122.314 464.878 L 1121.003 467.22 L 1119.692 470.148 L 1118.38 472.49 L 1117.725 474.246 L 1117.725 477.759 L 1118.38 480.101 L 1118.38 481.272 L 1119.036 482.443 L 1119.036 487.127 L 1119.692 488.884 L 1119.692 513.474 L 1119.036 514.645 L 1119.036 516.402 L 1118.38 517.572 L 1119.692 517.572 L 1121.659 518.158 L 1123.626 518.743 L 1126.249 519.329 L 1127.56 519.329 L 1128.872 519.914 L 1130.183 519.914 L 1132.15 520.5 L 1133.462 520.5 L 1134.773 521.085 L 1136.74 521.671 L 1138.052 521.671 L 1140.019 522.842 L 1141.33 522.842 L 1143.297 524.013 L 1145.264 524.013 L 1146.576 525.184 L 1148.543 525.184 L 1150.51 526.355 L 1152.477 526.94 L 1154.444 527.526 L 1155.756 528.697 L 1157.723 529.282 L 1159.69 530.453 L 1161.657 531.039 L 1163.624 532.21 L 1165.592 532.795 L 1166.903 533.966 L 1168.214 534.552 L 1168.87 535.137 L 1170.182 535.723 L 1170.837 536.308 L 1171.493 536.308 L 1172.804 537.479 L 1173.46 538.065 L 1174.116 538.65 L 1175.427 539.236 L 1176.083 539.821 L 1176.739 540.407 L 1178.05 540.992 L 1178.706 541.578 L 1179.361 542.749 L 1180.673 542.749 L 1181.329 543.92 L 1181.984 544.505 L 1182.64 545.676 L 1183.951 545.676 L 1183.951 546.847 L 1185.263 547.432 L 1185.919 548.603 L 1186.574 549.189 L 1187.23 550.36 L 1188.541 550.945 L 1188.541 551.531 L 1189.853 552.702 L 1189.853 553.287 L 1191.164 554.458 L 1191.82 555.044 L 1192.476 556.215 L 1192.476 556.8 L 1193.787 557.971 L 1193.787 559.142 L 1195.099 559.728 L 1195.099 560.899 L 1195.754 562.07 L 1196.41 562.655 L 1197.066 563.826 L 1197.066 564.997 L 1198.377 566.168 L 1198.377 567.339 L 1199.033 567.925 L 1199.033 569.096 L 1199.689 570.267 L 1199.689 571.438 L 1200.344 572.608 L 1200.344 573.779 L 1201 573.779 L 1201 577.878 L 1200.344 581.391 L 1199.689 586.66 L 1199.689 589.002 L 1199.033 592.515 L 1199.033 595.443 L 1197.721 598.955 L 1197.721 606.567 L 1197.066 610.665 L 1197.066 614.764 L 1196.41 618.862 L 1196.41 627.059 L 1195.754 631.743 L 1195.754 646.966 L 1195.099 648.722 L 1195.099 665.116 L 1195.754 666.872 L 1195.754 670.971 L 1196.41 672.727 L 1196.41 676.24 L 1197.066 677.411 L 1197.066 681.509 L 1196.41 682.095 L 1196.41 682.095 Z  M 640.366 729.52 L 642.333 729.52 L 642.333 730.105 L 642.989 730.691 L 642.989 731.276 L 643.644 731.276 L 643.644 733.033 L 642.989 734.789 L 642.333 735.96 L 641.677 737.131 L 641.677 738.302 L 641.021 739.473 L 640.366 740.058 L 640.366 741.229 L 639.71 742.4 L 639.71 743.571 L 639.054 744.742 L 639.054 748.255 L 638.399 749.426 L 638.399 764.649 L 639.054 765.82 L 639.054 766.991 L 639.71 768.162 L 639.71 769.918 L 640.366 771.089 L 640.366 772.26 L 641.021 773.431 L 641.677 774.017 L 641.677 775.188 L 642.333 776.359 L 642.333 777.53 L 642.989 778.115 L 643.644 779.286 L 643.644 780.457 L 644.956 781.043 L 644.956 782.214 L 645.611 782.799 L 645.611 783.97 L 646.923 784.556 L 646.923 785.141 L 647.579 786.312 L 648.234 786.898 L 648.234 787.483 L 649.546 788.654 L 650.201 789.825 L 650.857 790.41 L 650.857 790.996 L 652.169 791.581 L 652.169 792.167 L 652.824 792.752 L 653.48 792.752 L 653.48 793.923 L 654.791 793.923 L 654.791 794.509 L 655.447 794.509 L 656.759 795.68 L 658.07 796.851 L 659.381 797.436 L 660.693 798.607 L 663.971 800.364 L 667.25 802.706 L 669.217 803.877 L 671.184 805.048 L 673.151 806.219 L 675.119 807.39 L 677.086 809.146 L 679.053 810.903 L 680.364 810.903 L 681.676 812.074 L 682.331 813.245 L 683.643 813.83 L 684.954 815.001 L 685.61 815.587 L 686.921 816.757 L 688.233 817.343 L 689.544 818.514 L 690.2 819.685 L 691.511 820.27 L 692.823 821.441 L 694.134 822.612 L 694.79 823.783 L 696.101 824.954 L 697.413 826.125 L 698.068 827.296 L 699.38 828.467 L 700.691 829.638 L 701.347 830.809 L 702.658 831.98 L 703.97 833.151 L 705.281 834.908 L 705.937 836.079 L 707.248 837.25 L 707.904 839.006 L 709.216 840.177 L 710.527 841.934 L 711.183 843.69 L 712.494 844.861 L 713.15 846.617 L 714.461 848.374 L 715.773 850.13 L 716.428 851.887 L 717.084 853.643 L 718.396 855.4 L 718.396 855.985 L 719.051 856.571 L 719.707 857.742 L 719.707 858.327 L 720.363 858.913 L 721.018 859.498 L 721.018 860.669 L 722.33 860.669 L 722.33 861.84 L 722.986 862.426 L 722.986 863.011 L 724.297 863.597 L 724.297 864.182 L 724.953 864.768 L 724.953 865.353 L 726.264 865.353 L 726.264 866.524 L 726.92 866.524 L 727.576 867.11 L 727.576 867.695 L 728.887 867.695 L 728.887 868.866 L 729.543 868.866 L 730.198 869.452 L 731.51 870.037 L 732.166 870.623 L 732.821 870.623 L 732.821 871.208 L 734.133 871.208 L 734.133 871.793 L 734.788 871.793 L 735.444 872.379 L 736.1 872.379 L 736.1 872.964 L 737.411 872.964 L 738.067 873.55 L 740.034 873.55 L 740.034 874.135 L 743.313 874.135 L 743.968 874.721 L 755.771 874.721 L 756.427 874.135 L 758.394 874.135 L 759.705 873.55 L 760.361 873.55 L 761.017 872.964 L 762.328 872.964 L 763.64 872.379 L 764.295 872.379 L 764.951 871.793 L 766.263 871.793 L 767.574 870.623 L 768.23 870.623 L 769.541 870.037 L 770.197 869.452 L 770.853 869.452 L 770.853 868.866 L 772.164 868.866 L 776.098 867.11 L 779.377 865.353 L 782.655 864.182 L 786.59 863.011 L 789.868 861.84 L 793.147 860.669 L 796.425 859.498 L 799.704 858.327 L 802.982 857.156 L 806.261 855.985 L 809.54 855.4 L 812.162 854.229 L 815.441 853.058 L 818.72 852.472 L 821.342 851.301 L 824.621 850.716 L 827.244 849.545 L 830.522 849.545 L 833.145 848.374 L 835.768 847.788 L 839.047 846.617 L 841.67 846.617 L 844.292 845.446 L 846.915 845.446 L 849.538 844.275 L 852.161 844.275 L 854.784 843.105 L 857.407 843.105 L 860.029 841.934 L 861.997 841.934 L 864.619 841.348 L 867.242 841.348 L 869.209 840.763 L 871.832 840.177 L 873.799 840.177 L 876.422 839.592 L 878.389 839.592 L 880.357 839.006 L 884.947 839.006 L 886.914 838.421 L 893.471 838.421 L 895.438 837.835 L 919.699 837.835 L 921.666 838.421 L 926.256 838.421 L 927.568 839.006 L 928.879 839.006 L 930.191 839.592 L 931.502 839.592 L 933.469 840.177 L 934.781 840.177 L 936.092 840.763 L 937.404 840.763 L 938.715 841.348 L 940.026 841.348 L 941.338 841.934 L 941.994 841.934 L 943.305 842.519 L 944.616 843.105 L 945.928 843.105 L 947.239 843.69 L 947.895 844.275 L 949.206 844.275 L 950.518 844.861 L 951.174 845.446 L 952.485 845.446 L 953.796 846.032 L 954.452 846.617 L 955.764 847.203 L 956.419 847.203 L 958.386 848.374 L 960.353 849.545 L 962.321 850.13 L 963.632 851.301 L 965.599 851.887 L 966.911 853.058 L 968.878 854.229 L 970.189 854.814 L 971.501 855.985 L 972.812 856.571 L 975.435 858.327 L 978.058 860.084 L 980.681 861.84 L 981.336 862.426 L 982.648 863.011 L 983.959 863.597 L 984.615 864.182 L 985.926 864.768 L 986.582 865.353 L 987.893 865.939 L 988.549 865.939 L 989.861 867.11 L 990.516 867.11 L 991.828 867.695 L 991.828 868.281 L 993.139 868.281 L 993.795 868.866 L 995.106 868.866 L 995.106 869.452 L 997.073 870.037 L 998.385 870.623 L 999.696 871.208 L 1001.008 871.208 L 1002.319 871.793 L 1003.631 871.793 L 1004.286 872.379 L 1011.499 872.379 L 1012.155 871.208 L 1012.81 871.208 L 1014.122 870.037 L 1014.122 869.452 L 1015.433 869.452 L 1015.433 868.281 L 1016.089 867.695 L 1016.089 867.11 L 1016.745 866.524 L 1017.4 865.353 L 1018.056 864.182 L 1018.056 863.011 L 1018.712 863.011 L 1018.712 861.84 L 1019.368 860.669 L 1019.368 857.156 L 1020.023 857.156 L 1020.023 846.617 L 1019.368 844.861 L 1019.368 843.105 L 1018.712 841.934 L 1018.712 840.177 L 1018.056 838.421 L 1017.4 836.664 L 1017.4 835.493 L 1016.089 833.737 L 1016.089 831.98 L 1015.433 830.224 L 1014.778 829.053 L 1014.122 827.296 L 1013.466 825.54 L 1012.81 824.369 L 1012.155 822.612 L 1011.499 820.856 L 1010.843 819.685 L 1010.188 817.928 L 1009.532 816.757 L 1008.221 815.001 L 1008.221 813.83 L 1006.909 812.659 L 1006.909 810.903 L 1004.942 808.561 L 1003.631 806.219 L 1002.319 804.462 L 1001.663 802.12 L 1000.352 800.949 L 999.696 799.193 L 999.041 798.022 L 998.385 797.436 L 998.385 796.851 L 997.729 796.265 L 997.729 793.338 L 999.041 793.338 L 999.041 792.752 L 1003.631 792.752 L 1005.598 793.338 L 1008.221 793.923 L 1010.188 793.923 L 1012.155 794.509 L 1014.122 794.509 L 1016.089 795.094 L 1020.023 795.094 L 1021.99 795.68 L 1036.416 795.68 L 1037.072 795.094 L 1038.383 795.094 L 1039.039 794.509 L 1041.006 794.509 L 1041.662 793.923 L 1042.973 793.923 L 1042.973 793.338 L 1044.285 793.338 L 1044.285 792.752 L 1045.596 792.167 L 1046.252 791.581 L 1046.908 791.581 L 1046.908 790.996 L 1048.219 790.996 L 1048.219 789.825 L 1048.875 789.825 L 1048.875 789.239 L 1049.53 789.239 L 1049.53 788.654 L 1050.186 788.654 L 1050.186 787.483 L 1050.842 787.483 L 1050.842 786.898 L 1051.498 785.727 L 1051.498 779.872 L 1050.842 779.872 L 1050.842 778.115 L 1050.186 776.944 L 1049.53 775.773 L 1049.53 774.602 L 1048.875 774.602 L 1048.875 773.431 L 1048.219 772.846 L 1048.219 771.675 L 1047.563 771.675 L 1046.908 770.504 L 1046.252 768.747 L 1044.94 767.576 L 1044.94 765.82 L 1043.629 764.649 L 1042.318 763.478 L 1041.662 761.722 L 1040.35 760.551 L 1039.039 758.794 L 1038.383 757.623 L 1037.072 756.452 L 1035.76 754.696 L 1035.105 753.525 L 1033.793 752.354 L 1032.482 751.183 L 1031.17 749.426 L 1029.859 748.255 L 1028.548 747.084 L 1027.236 745.913 L 1026.58 744.742 L 1025.269 743.571 L 1023.958 742.4 L 1022.646 741.229 L 1021.335 740.058 L 1020.023 738.887 L 1018.712 738.302 L 1017.4 737.131 L 1016.089 735.96 L 1015.433 734.789 L 1014.122 734.204 L 1012.81 733.033 L 1010.188 731.276 L 1008.221 729.52 L 1006.253 728.349 L 1004.286 727.178 L 1002.975 726.007 L 1001.008 724.836 L 999.696 723.665 L 998.385 723.079 L 997.073 721.908 L 996.418 721.908 L 996.418 721.323 L 995.762 721.323 L 995.762 720.152 L 995.106 719.566 L 995.106 717.81 L 995.762 717.81 L 995.762 717.224 L 996.418 717.224 L 997.073 716.639 L 1003.631 716.639 L 1006.909 717.81 L 1010.188 717.81 L 1012.81 718.395 L 1016.089 718.981 L 1019.368 718.981 L 1022.646 720.152 L 1028.548 720.152 L 1031.826 720.737 L 1034.449 720.737 L 1037.728 721.323 L 1046.252 721.323 L 1048.875 721.908 L 1082.316 721.908 L 1084.939 721.323 L 1089.529 721.323 L 1091.496 720.737 L 1094.119 720.737 L 1096.086 720.152 L 1098.709 720.152 L 1100.676 719.566 L 1102.643 719.566 L 1104.61 718.981 L 1107.233 718.395 L 1109.2 718.395 L 1111.167 717.81 L 1113.135 717.224 L 1115.102 717.224 L 1117.069 716.053 L 1119.036 716.053 L 1121.003 715.468 L 1122.97 715.468 L 1124.282 714.297 L 1126.249 714.297 L 1128.216 713.711 L 1130.183 713.126 L 1131.494 712.54 L 1133.462 711.955 L 1134.773 711.369 L 1136.74 710.784 L 1138.052 710.784 L 1140.019 709.613 L 1141.33 709.613 L 1143.297 708.442 L 1144.609 708.442 L 1145.92 707.271 L 1147.232 707.271 L 1149.199 706.1 L 1150.51 705.515 L 1151.822 704.929 L 1153.133 704.344 L 1154.444 703.758 L 1155.756 703.173 L 1157.067 702.587 L 1158.379 702.002 L 1159.69 701.416 L 1161.002 700.831 L 1161.657 700.245 L 1162.969 699.074 L 1164.28 699.074 L 1165.592 697.903 L 1166.247 697.903 L 1167.559 696.732 L 1168.214 696.732 L 1170.182 694.976 L 1172.149 693.805 L 1174.116 692.634 L 1176.083 691.463 L 1177.394 690.292 L 1179.361 689.121 L 1180.673 687.95 L 1181.984 686.779 L 1183.296 686.193 L 1184.607 685.022 L 1185.263 683.851 L 1186.574 683.266 L 1187.23 682.095 L 1187.886 681.509 L 1188.541 680.924 L 1189.197 680.338 L 1189.853 679.753 L 1190.509 679.168 L 1190.509 670.971 L 1189.853 669.214 L 1189.853 663.359 L 1189.197 661.603 L 1189.197 627.059 L 1189.853 622.375 L 1189.853 614.178 L 1190.509 610.08 L 1190.509 605.981 L 1191.164 602.468 L 1191.82 598.37 L 1191.82 594.857 L 1192.476 591.93 L 1192.476 589.002 L 1193.131 586.075 L 1193.787 580.805 L 1193.787 577.292 L 1194.443 574.95 L 1194.443 572.023 L 1193.787 570.852 L 1193.131 570.267 L 1193.131 568.51 L 1192.476 567.339 L 1192.476 566.754 L 1191.164 565.583 L 1191.164 564.997 L 1190.509 563.826 L 1190.509 562.655 L 1189.197 562.07 L 1189.197 560.899 L 1188.541 560.313 L 1187.886 559.142 L 1187.23 558.557 L 1186.574 557.971 L 1186.574 556.8 L 1185.263 556.215 L 1185.263 555.629 L 1183.951 554.458 L 1183.951 553.873 L 1182.64 553.287 L 1182.64 552.116 L 1181.329 551.531 L 1180.673 550.945 L 1180.017 550.36 L 1179.361 549.189 L 1178.706 549.189 L 1177.394 548.018 L 1177.394 547.432 L 1176.083 546.847 L 1175.427 546.261 L 1174.771 545.676 L 1174.116 545.09 L 1172.804 544.505 L 1172.804 543.92 L 1171.493 543.334 L 1170.837 542.749 L 1169.526 542.163 L 1169.526 541.578 L 1168.214 540.992 L 1167.559 540.407 L 1166.247 539.821 L 1165.592 539.236 L 1164.936 539.236 L 1163.624 538.065 L 1162.313 537.479 L 1160.346 536.308 L 1158.379 535.723 L 1157.067 534.552 L 1155.1 533.966 L 1153.133 532.795 L 1151.822 532.21 L 1149.854 531.624 L 1147.887 531.039 L 1146.576 530.453 L 1144.609 529.868 L 1142.642 529.282 L 1141.33 528.697 L 1139.363 528.111 L 1138.052 527.526 L 1136.084 526.94 L 1134.773 526.94 L 1133.462 526.355 L 1131.494 525.769 L 1130.183 525.769 L 1128.872 525.184 L 1127.56 525.184 L 1126.249 524.598 L 1124.937 524.598 L 1122.314 524.013 L 1120.347 523.427 L 1118.38 523.427 L 1117.069 522.842 L 1113.79 522.842 L 1113.135 522.256 L 1112.479 521.671 L 1111.823 521.085 L 1111.823 515.231 L 1112.479 514.06 L 1112.479 511.132 L 1113.135 509.961 L 1113.135 505.277 L 1113.79 502.935 L 1113.79 486.542 L 1113.135 485.371 L 1113.135 482.443 L 1112.479 481.272 L 1112.479 479.516 L 1111.823 477.759 L 1111.823 473.661 L 1113.135 470.733 L 1114.446 468.391 L 1115.757 465.464 L 1117.069 463.122 L 1118.38 460.78 L 1119.036 457.853 L 1120.347 455.511 L 1121.659 452.583 L 1122.314 450.241 L 1123.626 447.899 L 1124.282 444.972 L 1125.593 442.63 L 1125.593 439.702 L 1126.904 437.36 L 1127.56 435.019 L 1128.872 432.091 L 1128.872 429.749 L 1130.183 427.407 L 1130.183 425.065 L 1131.494 422.723 L 1131.494 420.381 L 1132.15 418.039 L 1132.806 415.697 L 1132.806 413.355 L 1133.462 411.013 L 1133.462 408.671 L 1134.117 406.33 L 1134.117 404.573 L 1134.773 402.231 L 1134.773 400.475 L 1135.429 398.133 L 1135.429 391.692 L 1136.084 389.35 L 1136.084 363.589 L 1134.773 362.418 L 1134.773 354.806 L 1134.117 353.05 L 1134.117 350.708 L 1133.462 348.952 L 1133.462 347.195 L 1132.806 345.439 L 1132.806 343.682 L 1132.15 341.926 L 1131.494 340.169 L 1131.494 338.998 L 1130.839 337.242 L 1130.183 335.485 L 1130.183 333.729 L 1129.527 331.972 L 1128.872 330.801 L 1128.872 328.459 L 1127.56 326.703 L 1127.56 325.532 L 1126.904 323.776 L 1126.249 322.605 L 1126.249 320.848 L 1124.937 319.677 L 1124.937 317.921 L 1124.282 316.75 L 1123.626 315.579 L 1122.97 313.822 L 1122.97 312.651 L 1121.659 311.48 L 1121.659 310.895 L 1120.347 307.967 L 1119.036 305.625 L 1117.725 303.283 L 1117.069 301.527 L 1115.757 299.185 L 1114.446 297.429 L 1113.135 295.087 L 1112.479 293.33 L 1111.167 291.574 L 1110.512 290.403 L 1109.2 288.646 L 1108.545 287.475 L 1107.889 285.719 L 1106.577 284.548 L 1106.577 283.377 L 1105.266 282.791 L 1105.266 281.62 L 1103.955 281.62 L 1103.299 279.864 L 1103.299 279.278 L 1102.643 279.278 L 1102.643 278.693 L 1101.987 278.107 L 1100.676 272.838 L 1099.365 268.154 L 1098.053 263.47 L 1097.397 258.786 L 1096.086 254.102 L 1094.775 249.418 L 1093.463 245.32 L 1092.152 241.222 L 1090.84 236.538 L 1089.529 232.439 L 1088.217 228.341 L 1086.906 224.242 L 1085.595 220.729 L 1084.283 216.631 L 1082.972 213.118 L 1081.66 209.605 L 1080.349 205.507 L 1079.037 202.579 L 1077.726 199.066 L 1076.415 195.553 L 1075.103 192.04 L 1073.792 189.113 L 1072.48 186.186 L 1071.169 183.258 L 1069.857 180.331 L 1068.546 177.403 L 1067.235 174.476 L 1065.923 172.134 L 1064.612 169.206 L 1063.3 166.864 L 1061.989 164.522 L 1061.333 161.595 L 1060.022 159.839 L 1058.71 157.497 L 1057.399 155.155 L 1056.743 153.398 L 1055.432 151.056 L 1054.12 149.3 L 1053.465 147.543 L 1052.153 145.787 L 1051.498 144.03 L 1050.186 142.274 L 1049.53 141.103 L 1048.875 139.346 L 1046.908 137.004 L 1045.596 134.077 L 1044.285 132.321 L 1042.973 130.564 L 1041.662 128.808 L 1041.006 127.637 L 1040.35 126.466 L 1039.695 126.466 L 1039.695 125.295 L 1037.728 122.953 L 1035.76 120.611 L 1033.793 118.269 L 1031.826 115.927 L 1029.859 113.585 L 1027.892 111.243 L 1025.925 108.901 L 1023.958 106.559 L 1021.99 104.217 L 1020.023 101.875 L 1018.056 99.533 L 1016.089 97.777 L 1014.122 95.435 L 1012.155 93.678 L 1010.188 91.336 L 1008.221 89.58 L 1006.253 87.238 L 1004.286 85.481 L 1002.319 83.725 L 1000.352 81.383 L 998.385 79.627 L 996.418 77.87 L 994.451 76.114 L 992.483 74.357 L 990.516 72.601 L 988.549 70.844 L 986.582 69.088 L 984.615 67.331 L 982.648 65.575 L 980.025 63.818 L 978.058 62.647 L 976.091 60.891 L 974.123 59.134 L 972.156 57.963 L 970.189 56.207 L 968.222 54.45 L 965.599 53.28 L 963.632 52.109 L 961.665 50.352 L 959.698 49.181 L 957.731 47.425 L 955.764 45.668 L 953.796 44.497 L 951.174 43.326 L 949.206 42.155 L 947.239 40.984 L 945.272 39.813 L 943.305 38.642 L 940.682 37.471 L 938.715 36.3 L 936.748 35.715 L 934.781 34.544 L 932.814 33.373 L 930.191 32.202 L 928.224 31.616 L 926.256 29.86 L 924.289 29.274 L 922.322 28.689 L 919.699 27.518 L 918.388 26.933 L 915.765 25.762 L 913.798 25.176 L 911.175 24.005 L 909.208 24.005 L 907.241 22.249 L 905.274 21.663 L 903.306 21.078 L 900.684 20.492 L 898.717 19.321 L 896.749 19.321 L 894.782 18.15 L 892.159 17.565 L 890.192 16.979 L 888.225 16.394 L 886.258 15.808 L 884.291 15.223 L 881.668 14.637 L 879.701 14.052 L 877.734 13.466 L 875.767 12.295 L 873.799 12.295 L 871.177 11.124 L 865.275 11.124 L 863.308 9.368 L 858.718 9.368 L 856.751 8.782 L 852.817 8.782 L 850.849 8.197 L 848.882 8.197 L 846.26 7.611 L 842.325 7.611 L 840.358 6.44 L 829.867 6.44 L 827.9 5.269 L 814.13 5.269 L 812.162 4.684 L 790.524 4.684 L 788.557 6.44 L 778.721 6.44 L 775.443 7.026 L 771.508 7.026 L 767.574 8.197 L 764.295 8.782 L 760.361 9.368 L 757.083 9.953 L 753.148 9.953 L 749.87 11.124 L 746.591 11.71 L 742.657 12.295 L 739.378 12.881 L 736.1 14.052 L 732.821 14.052 L 729.543 15.223 L 726.264 15.808 L 722.986 16.979 L 719.707 17.565 L 716.428 18.15 L 713.806 19.321 L 710.527 19.907 L 707.248 21.078 L 704.626 21.663 L 702.003 22.834 L 698.724 23.42 L 696.101 24.591 L 693.478 25.176 L 690.856 26.347 L 688.233 26.933 L 685.61 28.103 L 682.987 28.689 L 680.364 29.86 L 678.397 30.445 L 675.774 31.031 L 673.807 31.616 L 671.184 32.787 L 669.217 33.373 L 667.25 34.544 L 665.283 35.129 L 663.316 36.3 L 661.349 36.3 L 659.381 37.471 L 657.414 38.642 L 654.136 39.813 L 651.513 40.984 L 648.234 42.741 L 646.267 43.912 L 643.644 45.083 L 642.333 45.668 L 640.366 46.254 L 639.054 46.839 L 639.054 47.425 L 637.743 47.425 L 637.743 48.01 L 631.186 48.01 L 629.874 49.181 L 623.317 49.181 L 622.006 49.767 L 618.727 49.767 L 616.76 50.352 L 614.793 50.352 L 613.482 50.938 L 611.514 51.523 L 610.203 51.523 L 608.892 52.109 L 607.58 52.694 L 606.269 52.694 L 605.613 53.28 L 603.646 53.28 L 603.646 54.45 L 602.99 54.45 L 602.334 55.621 L 601.023 55.621 L 600.367 56.207 L 599.712 56.207 L 599.056 56.792 L 598.4 57.378 L 597.089 57.378 L 596.433 57.963 L 594.466 57.963 L 593.81 56.207 L 590.532 56.207 L 590.532 55.621 L 587.909 55.621 L 587.909 55.036 L 577.417 55.036 L 576.106 55.621 L 575.45 55.621 L 574.795 56.207 L 574.139 56.207 L 573.483 56.792 L 572.827 57.378 L 572.172 57.378 L 570.86 59.134 L 570.205 59.72 L 569.549 59.72 L 568.893 60.891 L 567.582 62.062 L 566.926 62.647 L 566.926 63.233 L 566.27 63.818 L 565.615 64.404 L 565.615 64.989 L 564.959 65.575 L 564.959 66.16 L 564.303 66.746 L 564.303 67.331 L 563.647 67.917 L 563.647 68.502 L 562.992 69.088 L 562.992 69.673 L 562.336 70.844 L 562.336 72.015 L 561.68 72.601 L 561.68 74.357 L 561.025 74.943 L 561.025 76.114 L 560.369 77.285 L 559.057 78.456 L 557.746 79.627 L 557.09 80.798 L 555.779 81.383 L 555.123 82.554 L 554.467 83.725 L 553.156 84.896 L 553.156 85.481 L 551.845 86.652 L 551.189 87.823 L 549.222 89.58 L 547.91 91.336 L 546.599 93.093 L 545.287 95.435 L 543.976 97.191 L 542.665 98.948 L 541.353 100.704 L 540.042 102.461 L 539.386 104.217 L 538.075 105.388 L 537.419 107.145 L 536.107 108.316 L 536.107 110.072 L 534.796 111.243 L 534.14 112.414 L 533.485 113.585 L 533.485 114.756 L 532.173 115.927 L 532.173 117.098 L 531.517 117.683 L 530.862 118.854 L 530.862 119.44 L 530.206 120.025 L 530.206 120.611 L 529.55 120.611 L 529.55 121.196 L 524.96 121.196 L 523.649 120.025 L 522.993 119.44 L 522.338 118.854 L 521.682 117.683 L 520.37 117.683 L 519.059 116.512 L 517.748 115.341 L 516.436 114.756 L 515.125 113.585 L 513.158 112.414 L 511.846 111.243 L 509.879 110.072 L 505.945 107.145 L 502.01 104.803 L 498.076 101.875 L 493.486 98.948 L 488.896 96.02 L 484.306 93.093 L 479.716 90.165 L 475.126 87.238 L 469.88 84.31 L 465.291 80.798 L 460.701 77.87 L 456.111 75.528 L 446.931 69.673 L 438.406 64.404 L 431.849 60.305 L 425.292 56.792 L 420.046 53.28 L 416.768 51.523 L 416.112 51.523 L 414.801 50.352 L 414.145 50.352 L 413.489 49.767 L 411.522 49.767 L 410.866 49.181 L 406.932 49.181 L 406.932 48.596 L 399.064 48.596 L 399.064 49.181 L 397.752 49.181 L 397.752 49.767 L 396.441 49.767 L 396.441 50.352 L 395.785 50.938 L 395.129 50.938 L 395.129 51.523 L 394.474 53.28 L 393.818 53.28 L 393.818 55.036 L 393.162 55.621 L 393.162 57.378 L 391.851 59.134 L 391.851 60.891 L 391.195 61.476 L 391.195 75.528 L 391.851 76.114 L 391.851 77.87 L 392.506 79.627 L 392.506 80.798 L 393.162 82.554 L 393.162 84.31 L 393.818 84.896 L 503.978 213.704 L 503.978 218.973 L 502.666 221.9 L 502.666 224.828 L 501.355 227.17 L 501.355 230.097 L 500.043 233.025 L 500.043 234.781 L 499.388 237.709 L 498.732 240.051 L 498.732 242.978 L 498.076 245.32 L 498.076 247.662 L 497.42 250.004 L 497.42 254.688 L 496.765 257.03 L 496.765 263.47 L 496.109 265.812 L 496.109 284.548 L 496.765 285.719 L 496.765 289.232 L 497.42 290.403 L 497.42 293.33 L 498.076 294.501 L 498.076 297.429 L 498.732 298.6 L 498.732 300.356 L 499.388 301.527 L 499.388 302.698 L 500.043 304.454 L 500.699 306.211 L 500.699 307.382 L 502.01 308.553 L 502.01 310.895 L 502.666 310.895 L 502.666 312.651 L 503.322 313.237 L 503.322 313.822 L 502.01 317.921 L 500.699 321.434 L 499.388 324.947 L 498.076 327.874 L 496.109 331.387 L 494.798 334.9 L 492.175 341.926 L 489.552 348.952 L 486.273 355.392 L 483.65 362.418 L 481.028 368.858 L 477.749 375.299 L 475.126 381.739 L 472.503 388.179 L 469.225 394.034 L 466.602 399.889 L 463.979 405.744 L 461.356 411.599 L 458.733 417.454 L 456.111 422.138 L 454.143 427.407 L 451.521 432.091 L 449.553 436.189 L 447.586 440.288 L 445.619 444.386 L 442.341 451.412 L 439.718 457.267 L 437.751 460.78 L 436.439 463.707 L 436.439 467.22 L 437.095 468.391 L 437.095 470.148 L 438.406 471.319 L 438.406 474.246 L 439.062 475.417 L 439.718 476.588 L 439.718 478.345 L 441.029 479.516 L 441.029 480.687 L 441.685 481.858 L 441.685 483.614 L 442.996 484.785 L 442.996 485.956 L 443.652 487.127 L 444.308 488.298 L 444.308 489.469 L 445.619 490.64 L 445.619 492.396 L 446.931 493.567 L 446.931 494.738 L 447.586 495.909 L 448.242 497.08 L 448.898 498.251 L 449.553 499.422 L 450.209 500.008 L 450.865 501.179 L 451.521 502.35 L 452.176 503.521 L 452.832 504.692 L 453.488 505.863 L 454.143 507.034 L 454.799 507.619 L 456.766 509.961 L 458.078 511.718 L 459.389 514.06 L 460.701 515.816 L 462.012 517.572 L 463.323 519.329 L 465.291 521.085 L 466.602 522.842 L 467.913 524.598 L 469.225 526.355 L 471.192 528.111 L 472.503 529.282 L 473.815 531.039 L 475.126 532.21 L 477.093 533.966 L 478.405 535.137 L 479.716 536.308 L 481.028 537.479 L 482.339 538.65 L 483.65 539.821 L 484.962 540.992 L 486.273 542.163 L 487.585 543.334 L 488.896 544.505 L 490.208 545.09 L 491.519 546.261 L 492.83 546.847 L 493.486 548.018 L 494.798 548.018 L 496.109 549.189 L 498.076 550.36 L 499.388 551.531 L 501.355 552.702 L 502.01 553.287 L 503.322 553.873 L 503.978 553.873 L 504.633 554.458 L 505.289 555.629 L 505.945 555.629 L 505.945 559.142 L 505.289 559.142 L 504.633 559.728 L 503.322 560.313 L 502.01 561.484 L 501.355 561.484 L 500.699 562.07 L 500.043 562.655 L 498.732 562.655 L 498.076 563.826 L 497.42 563.826 L 496.765 564.997 L 496.109 564.997 L 495.453 565.583 L 494.798 566.168 L 494.142 566.754 L 493.486 567.339 L 493.486 567.925 L 492.175 568.51 L 492.175 569.096 L 491.519 570.267 L 490.863 570.267 L 490.208 572.023 L 488.896 573.194 L 488.24 574.365 L 487.585 575.536 L 486.273 576.121 L 486.273 577.292 L 484.962 578.463 L 484.962 579.634 L 484.306 580.22 L 483.65 581.391 L 483.65 581.976 L 482.339 583.147 L 481.683 584.904 L 481.683 586.075 L 481.028 586.075 L 481.028 586.66 L 480.372 587.831 L 480.372 589.002 L 479.06 589.588 L 479.06 590.759 L 478.405 591.93 L 478.405 592.515 L 477.749 593.686 L 477.749 594.272 L 477.093 595.443 L 476.438 596.614 L 476.438 597.199 L 475.782 598.37 L 475.782 598.955 L 475.126 600.126 L 475.126 601.883 L 474.47 602.468 L 474.47 604.81 L 473.815 605.396 L 473.815 607.152 L 473.159 608.323 L 473.159 612.422 L 472.503 613.593 L 472.503 628.815 L 473.159 630.572 L 473.159 633.499 L 473.815 635.256 L 473.815 636.427 L 474.47 637.598 L 475.126 639.354 L 475.126 640.525 L 475.782 641.696 L 476.438 643.453 L 476.438 644.624 L 477.093 645.795 L 477.749 646.966 L 477.749 648.137 L 479.06 649.308 L 479.06 650.479 L 479.716 651.65 L 479.716 652.235 L 481.028 653.406 L 481.028 654.577 L 481.683 655.162 L 481.683 656.333 L 482.995 658.09 L 483.65 659.261 L 484.962 660.432 L 484.962 661.603 L 486.273 662.774 L 486.273 663.945 L 486.929 663.945 L 486.929 664.53 L 487.585 664.53 L 487.585 668.629 L 486.929 669.8 L 486.929 670.971 L 486.273 672.142 L 486.273 674.484 L 485.618 675.655 L 485.618 680.924 L 484.962 682.095 L 484.962 692.634 L 485.618 693.805 L 485.618 696.147 L 486.273 697.318 L 486.273 698.489 L 486.929 699.66 L 486.929 700.831 L 487.585 702.002 L 487.585 702.587 L 488.24 703.173 L 488.24 704.344 L 488.896 704.344 L 488.896 706.1 L 489.552 707.271 L 490.208 707.271 L 490.208 708.442 L 490.863 709.027 L 490.863 709.613 L 491.519 710.198 L 491.519 710.784 L 492.175 711.369 L 492.83 712.54 L 494.142 714.297 L 494.798 715.468 L 496.109 716.639 L 496.109 717.224 L 497.42 718.395 L 498.732 719.566 L 499.388 720.737 L 500.699 721.323 L 501.355 722.494 L 502.01 723.079 L 503.322 724.25 L 503.978 724.25 L 505.289 725.421 L 505.945 726.007 L 507.256 727.178 L 507.912 727.178 L 508.568 728.349 L 509.879 728.349 L 510.535 729.52 L 511.19 729.52 L 512.502 730.691 L 513.813 731.276 L 514.469 731.276 L 515.78 732.447 L 517.092 732.447 L 518.403 733.618 L 519.715 733.618 L 519.715 734.204 L 521.026 734.204 L 522.338 735.374 L 523.649 735.374 L 524.305 735.96 L 525.616 735.96 L 526.927 737.131 L 528.895 737.131 L 530.206 737.716 L 531.517 737.716 L 532.829 738.302 L 534.14 738.302 L 534.796 738.887 L 536.107 738.887 L 537.419 739.473 L 538.73 739.473 L 540.042 740.058 L 542.665 740.058 L 543.32 740.644 L 545.943 740.644 L 547.255 741.229 L 552.5 741.229 L 553.812 741.815 L 583.319 741.815 L 585.942 741.229 L 588.564 741.229 L 590.532 740.644 L 593.154 740.644 L 595.122 740.058 L 597.744 740.058 L 599.712 739.473 L 601.679 739.473 L 604.302 738.887 L 606.269 738.302 L 608.236 738.302 L 610.203 737.131 L 612.17 737.131 L 614.137 736.545 L 616.104 736.545 L 618.072 735.96 L 619.383 735.374 L 621.35 735.374 L 624.629 734.204 L 627.252 733.618 L 630.53 732.447 L 632.497 732.447 L 634.464 731.276 L 636.431 731.276 L 637.743 730.105 L 639.71 730.105 L 640.366 729.52 Z " fill-rule="evenodd" fill="rgb(207,207,207)"/><path d=" M 801.671 674.484 C 801.671 674.484 730.198 675.069 675.119 740.058 C 675.119 740.058 652.824 757.623 678.397 772.846 C 703.97 788.069 752.493 781.628 752.493 781.628 L 812.162 756.452 L 835.112 739.473 C 835.112 739.473 889.537 701.416 950.518 698.489 C 1011.499 694.976 997.729 686.779 997.729 686.779 L 898.717 675.069 L 801.671 675.069 L 801.671 674.484 Z  M 743.968 649.893 L 791.18 670.971 C 757.083 668.629 725.608 662.188 652.169 697.318 C 581.352 731.276 524.96 713.711 524.96 713.711 L 519.715 703.758 L 519.059 683.851 L 539.386 669.214 L 576.106 649.893 L 743.968 649.893 Z  M 1167.559 584.318 C 1167.559 584.318 1180.673 549.189 1093.463 550.945 C 1006.253 552.116 1025.925 554.458 1025.925 554.458 L 999.041 603.054 L 1074.447 617.106 L 1141.33 605.396 L 1167.559 584.318 Z " fill-rule="evenodd" fill="rgb(250,181,116)"/><path d=" M 587.909 129.979 C 586.743 128.66 585.648 127.293 584.63 125.88 C 572.172 105.974 583.319 70.259 583.319 70.259 C 604.957 76.114 623.317 103.046 623.317 103.046 L 623.973 107.73 C 630.216 106.342 636.745 106.342 642.989 107.73 C 684.299 116.512 909.864 108.316 909.864 108.316 L 938.059 170.377 L 944.616 322.605 L 905.274 459.024 L 846.26 574.365 L 770.853 607.152 L 698.724 580.805 L 686.266 564.412 C 686.266 564.412 682.331 535.137 728.887 482.443 C 752.493 455.511 746.591 416.283 740.034 412.184 C 740.034 412.184 725.608 423.309 685.61 426.236 C 685.61 426.236 637.087 449.07 610.203 490.64 C 610.203 490.64 587.253 572.608 508.568 523.427 C 473.159 501.764 467.258 456.096 467.258 456.096 C 467.258 456.096 531.517 327.288 531.517 302.112 C 531.517 277.522 513.158 225.999 552.5 190.869 C 566.27 178.574 567.582 155.74 567.582 155.74 C 567.582 155.74 575.45 142.859 587.253 130.564 L 587.909 129.979 Z " fill-rule="evenodd" fill="rgb(247,236,239)"/><path d=" M 649.546 67.331 C 653.48 63.233 721.674 8.197 847.571 30.445 C 1026.58 62.062 1072.48 229.512 1077.726 290.403 C 1077.726 290.403 1126.904 327.288 1101.332 422.138 C 1101.332 422.138 1082.316 469.562 1078.382 471.319 C 1078.382 471.319 1103.955 557.971 1039.039 602.468 L 1008.221 624.132 L 802.327 624.717 L 774.787 621.204 C 761.017 627.059 772.164 548.018 847.571 515.231 C 847.571 515.231 802.327 488.884 852.817 365.345 C 903.306 242.393 848.227 193.797 826.588 177.989 C 824.621 176.818 868.554 137.004 851.505 138.761 C 821.342 140.517 761.017 141.103 756.427 139.932 C 732.821 132.321 734.788 146.958 728.887 157.497 L 764.295 208.434 C 866.587 259.957 803.638 347.195 803.638 347.195 C 804.95 263.47 703.97 218.973 703.97 218.973 C 703.97 218.973 640.366 206.678 620.694 167.45 C 618.727 164.522 614.137 117.098 612.826 113.585 L 589.876 131.735 C 576.762 143.445 568.893 158.082 564.303 173.305 L 545.943 169.792 C 545.943 169.792 542.665 70.844 648.89 67.331 L 649.546 67.331 Z  M 703.314 73.186 C 703.314 74.357 702.003 74.943 701.347 75.528 L 704.626 75.528 L 705.937 74.357 L 703.314 73.772 L 703.314 73.186 Z " fill-rule="evenodd" fill="rgb(173,225,213)"/><path d=" M 1074.447 474.246 C 1077.07 483.614 1095.43 562.07 1035.105 603.639 L 1021.99 613.007 L 1003.631 613.007 L 879.045 592.515 C 879.045 592.515 665.283 620.033 871.832 573.779 C 1004.286 544.505 1052.809 501.764 1073.792 474.246 L 1074.447 474.246 Z " fill-rule="evenodd" fill="rgb(155,175,173)"/><path d=" M 665.939 757.623 C 665.939 757.623 669.873 785.727 762.328 752.939 C 854.128 720.152 984.615 716.053 1027.892 778.115 C 1027.892 778.115 978.058 761.136 941.338 782.214 C 941.338 782.214 1000.352 812.074 1002.319 853.643 C 1002.319 853.643 957.731 805.633 863.308 824.369 C 768.885 843.105 768.23 849.545 768.23 849.545 C 768.23 849.545 737.411 864.768 735.444 839.006 C 732.821 813.245 701.347 800.949 694.134 794.509 C 682.987 785.141 666.594 769.918 665.939 757.623 Z  M 1166.247 573.779 C 1169.526 579.049 1175.427 595.443 1157.723 638.769 C 1148.543 662.774 1156.412 679.753 1156.412 679.753 C 1156.412 679.753 1136.74 709.027 1031.17 703.173 C 924.945 696.732 875.767 677.411 682.331 668.043 C 488.896 658.09 525.616 712.54 525.616 712.54 C 525.616 712.54 499.388 700.831 513.158 663.359 C 519.715 646.966 507.912 638.183 507.912 638.183 C 500.043 629.401 501.355 610.665 505.945 606.567 C 505.945 606.567 525.616 572.023 613.482 567.339 C 701.347 562.655 955.108 596.614 967.566 596.614 C 1036.416 600.712 1148.543 610.665 1163.624 584.904 C 1163.624 584.904 1166.903 577.292 1165.592 573.194 L 1163.624 571.438 C 1164.936 571.438 1165.592 572.608 1166.247 573.779 Z " fill-rule="evenodd" fill="rgb(237,124,154)"/><path d=" M 602.334 200.823 L 411.522 68.502 L 568.237 234.196 C 573.483 238.88 616.104 234.196 602.334 200.823 Z " fill-rule="evenodd" fill="rgb(250,181,116)"/><path d=" M 765.607 676.826 L 747.903 675.655 L 732.166 674.484 C 709.022 679.142 686.574 686.216 665.283 695.561 L 652.169 701.416 L 648.89 703.173 C 639.408 706.974 629.786 710.489 620.039 713.711 C 593.606 721.327 565.591 723.529 538.075 720.152 C 533.196 719.475 528.376 718.496 523.649 717.224 L 522.338 717.224 L 521.682 716.053 L 521.682 715.468 L 520.37 714.297 L 518.403 712.54 C 510.679 706.138 505.987 697.34 505.289 687.95 L 505.289 675.655 C 505.984 670.66 507.303 665.75 509.223 661.017 L 509.879 659.846 C 510.448 657.74 510.669 655.57 510.535 653.406 C 510.451 648.886 508.595 644.535 505.289 641.111 L 503.978 639.94 C 501.288 636.644 499.493 632.836 498.732 628.815 C 497.34 622.412 497.564 615.811 499.388 609.494 C 499.893 607.609 500.782 605.823 502.01 604.225 L 503.322 603.054 C 512.167 593.405 523.093 585.441 535.452 579.634 C 564.549 568.77 595.715 563.006 627.252 562.655 L 634.464 563.241 L 681.676 564.997 L 681.676 559.142 C 684.333 545.325 689.191 531.918 696.101 519.329 C 704.635 504.687 714.972 490.94 726.92 478.345 L 728.231 477.174 C 733.581 469.646 737.357 461.314 739.378 452.583 C 741.673 443.761 742.337 434.664 741.345 425.651 C 741.009 423.056 740.349 420.503 739.378 418.039 C 724.158 425.144 707.361 429.143 690.2 429.749 L 687.577 429.749 C 677.86 434.68 668.644 440.362 660.037 446.728 C 642.382 459.355 627.298 474.606 615.449 491.811 L 615.449 492.396 L 614.137 494.738 L 614.137 495.324 C 611.84 503.244 608.072 510.765 602.99 517.572 C 601.586 519.229 600.052 520.794 598.4 522.256 C 590.21 532.454 578.05 539.553 564.303 542.163 L 558.402 542.749 C 542.727 543.173 527.318 539.066 514.469 531.039 C 494.316 520.614 479.15 503.947 471.848 484.2 L 469.225 477.759 C 466.862 471.066 465.108 464.213 463.979 457.267 L 463.979 454.34 L 470.536 442.63 C 489.219 403.244 506.711 363.416 522.993 323.19 C 524.81 316.807 526.341 310.361 527.583 303.869 L 527.583 293.916 L 524.96 276.351 L 524.96 270.496 C 524.053 263.108 523.615 255.68 523.649 248.247 C 524.005 233.398 528.036 218.802 535.452 205.507 L 408.244 70.844 L 407.588 70.259 L 407.588 69.088 C 406.932 67.331 407.588 65.575 408.899 64.989 L 413.489 64.989 L 542.665 154.569 L 544.632 145.787 C 548.411 124.848 558.886 105.329 574.795 89.58 C 575.376 82.846 576.694 76.178 578.729 69.673 L 579.384 67.917 L 582.007 66.746 L 583.319 66.746 L 589.876 67.917 L 600.367 73.772 L 605.613 71.43 C 618.947 66.577 633.181 63.996 647.579 63.818 C 652.824 59.134 658.726 55.621 664.627 52.109 C 690.282 37.081 719.434 27.47 749.87 24.005 C 761.368 22.341 772.978 21.363 784.623 21.078 L 791.18 21.078 C 823.822 20.726 856.262 25.686 886.914 35.715 C 927.384 48.445 963.666 69.976 992.483 98.362 C 1026.953 132.677 1052.284 173.509 1066.579 217.802 C 1074.331 240.319 1079.602 263.458 1082.316 286.89 L 1082.316 288.646 L 1084.283 289.817 L 1085.595 290.988 C 1092.152 298.6 1098.053 306.796 1101.987 315.579 C 1111.425 335.94 1115.248 358.027 1113.135 379.983 C 1112.668 394.205 1110.469 408.34 1106.577 422.138 L 1106.577 423.309 L 1093.463 454.34 L 1088.217 464.878 L 1083.627 472.49 C 1084.209 474.611 1084.647 476.762 1084.939 478.93 C 1087.195 491.318 1088.292 503.851 1088.217 516.402 C 1088.217 526.94 1086.25 536.894 1083.627 546.847 L 1085.595 546.847 C 1097.191 546.871 1108.782 547.262 1120.347 548.018 C 1126.973 548.58 1133.547 549.558 1140.019 550.945 L 1145.264 552.116 L 1149.199 553.873 C 1155.756 556.215 1162.969 560.313 1167.559 565.583 L 1169.526 569.096 C 1171.034 571.842 1171.925 574.826 1172.149 577.878 L 1173.46 583.733 L 1173.46 596.614 L 1171.493 611.836 L 1164.936 632.328 L 1161.657 641.111 L 1161.002 643.453 C 1158.215 651.398 1157.104 659.736 1157.723 668.043 L 1159.034 673.898 L 1160.346 677.997 L 1160.346 680.924 C 1160.346 680.924 1160.346 682.095 1159.034 682.68 C 1158.251 683.719 1157.374 684.698 1156.412 685.608 L 1154.444 687.364 C 1149.075 691.227 1143.113 694.381 1136.74 696.732 C 1129.527 699.66 1121.003 701.416 1113.135 703.173 C 1089.968 706.69 1066.456 708.063 1042.973 707.271 L 1025.925 706.686 C 1010.588 705.67 995.283 704.304 980.025 702.587 C 975.435 702.587 970.845 701.416 966.911 700.831 L 959.042 701.416 L 947.895 702.002 L 945.272 702.002 C 916.897 705.19 889.618 713.775 865.275 727.178 C 875.07 726.139 884.919 725.553 894.782 725.421 L 899.372 725.421 C 920.405 725.702 941.321 728.258 961.665 733.033 C 974.779 735.96 986.582 740.644 998.385 747.084 C 1011.214 754.055 1022.181 763.447 1030.515 774.602 L 1030.515 775.188 L 1031.826 776.944 C 1031.826 778.701 1031.826 780.457 1030.515 781.043 L 1029.203 781.628 L 1026.58 781.628 C 1011.826 777.129 996.256 775.143 980.681 775.773 C 970.257 776.172 960.016 778.359 950.518 782.214 L 949.862 782.214 L 953.141 784.556 L 956.419 786.898 C 965.278 792.746 973.61 799.206 981.336 806.219 L 985.926 810.903 C 997.257 822.831 1004.335 837.511 1006.253 853.058 L 1006.253 855.4 L 1004.942 856.571 C 1003.643 857.492 1001.888 857.716 1000.352 857.156 L 999.041 856.571 L 998.385 855.4 L 997.073 854.814 L 995.762 853.058 C 972.32 834.31 941.989 823.894 910.519 823.783 C 890.557 823.344 870.641 825.715 851.505 830.809 L 817.408 838.421 C 802.338 842.118 787.46 846.416 772.82 851.301 L 772.164 851.301 L 772.164 851.887 L 771.508 851.887 L 770.853 852.472 L 769.541 853.058 L 768.23 854.229 C 766.263 854.229 764.951 855.4 762.984 855.985 L 759.05 856.571 L 757.083 857.156 C 751.632 858.482 745.835 858.068 740.69 855.985 C 738.733 855.085 736.96 853.897 735.444 852.472 C 732.948 849.579 731.363 846.143 730.854 842.519 L 730.854 837.835 L 730.198 836.079 C 729.734 834.08 729.076 832.121 728.231 830.224 C 724.498 822.584 718.627 815.931 711.183 810.903 L 707.904 808.561 L 703.314 805.633 L 694.79 800.364 L 690.856 797.436 L 686.266 793.338 C 679.054 786.821 672.473 779.77 666.594 772.26 C 663.689 767.986 661.896 763.184 661.349 758.209 L 661.349 756.452 L 662.66 751.768 C 662.66 749.426 663.971 747.084 665.283 745.328 C 667.25 742.4 669.217 739.473 671.84 737.716 L 673.151 736.545 C 675.98 732.876 679.045 729.358 682.331 726.007 C 704.014 704.213 731.54 687.693 762.328 677.997 L 765.607 676.826 Z  M 987.238 767.576 C 996.971 767.787 1006.648 768.966 1016.089 771.089 L 1016.745 771.089 C 1001.476 756.465 981.95 745.923 960.353 740.644 L 951.174 738.302 C 935.692 735.114 919.849 733.542 903.962 733.618 C 870.283 732.466 836.619 736.223 804.294 744.742 L 774.787 752.939 L 757.738 758.794 L 751.181 760.551 C 736.246 765.514 720.899 769.429 705.281 772.26 L 692.167 772.26 C 687.103 772.523 682.023 772.129 677.086 771.089 L 675.774 771.089 L 677.741 773.431 L 689.544 786.312 L 694.134 789.825 L 696.757 792.167 L 697.413 792.752 L 699.38 793.923 L 708.56 799.778 L 722.986 810.317 C 730.69 817.193 735.939 825.954 738.067 835.493 L 738.723 840.177 L 738.723 841.348 C 738.723 843.105 739.378 844.275 740.69 845.446 C 740.69 846.617 740.69 847.203 742.001 847.788 L 742.657 848.374 C 745.28 850.13 748.558 850.13 751.181 850.13 L 755.115 850.13 L 757.738 848.959 C 759.974 848.296 762.164 847.514 764.295 846.617 L 764.951 846.617 L 766.263 845.446 C 806.845 832.212 848.797 822.602 891.504 816.757 C 906.585 815.587 921.666 816.757 936.092 819.099 C 957.075 822.612 978.058 830.809 995.106 842.519 C 992.483 834.908 988.549 827.882 982.648 820.856 C 970.42 806.722 955.287 794.8 938.059 785.727 L 937.404 784.556 L 936.748 783.97 C 936.181 782.312 936.685 780.511 938.059 779.286 L 939.371 778.701 L 940.026 778.115 L 945.928 775.188 C 957.537 770.048 970.346 767.44 983.303 767.576 L 986.582 767.576 L 987.238 767.576 Z  M 792.491 679.753 L 787.245 679.753 L 764.295 685.608 C 729.767 696.444 699.788 716.469 678.397 742.986 L 677.086 743.571 C 675.265 745.328 673.721 747.298 672.496 749.426 C 671.585 750.892 670.922 752.471 670.529 754.11 L 670.529 758.209 C 672.496 761.136 675.774 762.307 678.397 763.478 L 680.364 763.478 L 682.987 764.649 C 686.906 765.09 690.871 765.09 694.79 764.649 C 703.651 764.342 712.447 763.164 721.018 761.136 L 750.525 752.939 L 764.951 747.67 L 769.541 746.499 C 790.933 739.165 813.131 733.866 835.768 730.691 L 844.292 729.52 C 870.015 714.999 898.109 704.135 927.568 697.318 L 931.502 696.147 L 888.881 690.292 C 856.857 685.884 824.718 682.175 792.491 679.168 L 792.491 679.753 Z  M 703.97 672.727 L 700.036 672.727 L 662.66 670.971 L 631.841 670.971 C 612.316 671.317 592.829 672.686 573.483 675.069 C 563.388 676.992 553.511 679.736 543.976 683.266 L 541.353 685.022 L 538.73 686.193 C 533.89 688.964 530.204 693.079 528.239 697.903 L 527.583 701.416 C 527.259 704.641 527.94 707.883 529.55 710.784 L 530.862 710.784 C 542.665 713.711 554.467 714.297 566.27 714.297 C 598.229 713.816 629.466 705.732 656.759 690.877 C 671.959 683.769 687.741 677.702 703.97 672.727 Z  M 1165.592 589.002 L 1164.28 590.173 C 1159.597 594.556 1153.724 597.783 1147.232 599.541 L 1143.297 600.126 C 1139.036 601.46 1134.646 602.44 1130.183 603.054 C 1118.477 604.738 1106.631 605.521 1094.775 605.396 C 1068.748 606.112 1042.698 605.526 1016.745 603.639 L 980.025 601.883 L 970.189 601.297 L 966.255 601.297 L 957.075 600.126 L 908.552 594.272 C 840.454 586.696 772.255 579.865 703.97 573.779 C 675.601 572.001 647.165 571.219 618.727 571.438 C 593.903 572.614 569.394 576.951 545.943 584.318 C 533.632 588.926 522.483 595.696 513.158 604.225 C 511.663 605.657 510.344 607.227 509.223 608.909 L 508.568 610.08 L 508.568 611.251 C 507.19 616.646 507.19 622.249 508.568 627.644 C 508.568 630.572 509.223 633.499 511.19 635.256 L 511.846 635.841 L 512.502 637.012 C 519.234 644.15 521.455 653.849 518.403 662.774 L 516.436 666.872 C 515.109 670.883 514.23 675.002 513.813 679.168 C 513.116 686.693 514.942 694.234 519.059 700.831 L 519.059 698.489 C 519.617 695.793 520.729 693.212 522.338 690.877 C 526.272 684.437 533.485 679.168 540.697 676.24 C 544.039 674.577 547.553 673.204 551.189 672.142 C 566.755 667.068 583.145 664.299 599.712 663.945 C 627.201 661.83 654.842 661.83 682.331 663.945 C 738.411 667.089 794.385 671.58 850.194 677.411 L 889.537 683.266 L 938.715 689.121 C 954.159 691.517 969.686 693.47 985.271 694.976 C 1012.938 697.631 1040.724 699.194 1068.546 699.66 C 1085.321 699.056 1102.001 697.096 1118.38 693.805 C 1127.564 691.503 1136.379 688.158 1144.609 683.851 C 1146.991 682.523 1149.192 680.951 1151.166 679.168 L 1151.166 677.997 L 1150.51 675.655 C 1147.782 663.95 1148.689 651.803 1153.133 640.525 L 1155.756 632.328 L 1162.969 608.909 C 1164.28 603.054 1165.592 596.028 1165.592 589.588 L 1165.592 589.002 Z  M 981.992 670.971 L 979.369 670.971 C 978.058 670.971 978.058 670.971 978.058 669.8 L 979.369 656.333 C 979.369 655.748 979.369 655.162 980.681 655.162 L 983.303 655.162 L 984.615 656.333 L 984.615 659.261 C 985.926 665.116 989.205 668.629 995.106 669.214 C 997.729 669.214 1000.352 669.214 1001.663 667.458 C 1003.619 665.997 1004.807 663.876 1004.942 661.603 C 1004.942 659.846 1004.942 657.504 1002.975 655.748 C 1000.3 652.518 997.22 649.571 993.795 646.966 L 985.926 639.94 C 984.545 638.555 983.436 636.971 982.648 635.256 C 981.678 633.43 981.228 631.419 981.336 629.401 C 981.739 625.528 984.171 622.054 987.893 620.033 C 991.286 617.785 995.492 616.742 999.696 617.106 L 1006.253 618.862 L 1008.221 619.448 L 1013.466 619.448 C 1014.122 619.448 1014.778 619.448 1014.778 620.619 L 1013.466 632.328 L 1012.155 632.914 L 1009.532 632.914 L 1008.221 632.328 L 1007.565 629.401 C 1006.253 624.132 1003.631 621.79 999.696 621.204 C 997.073 621.204 995.762 621.204 993.795 622.375 C 992.706 623.309 992.011 624.55 991.828 625.888 C 991.828 627.644 991.828 629.401 993.139 631.743 L 1001.663 639.354 C 1007.565 643.453 1010.843 647.551 1012.81 650.479 C 1014.778 653.406 1015.433 656.333 1015.433 659.846 C 1015.433 663.945 1012.81 667.458 1008.876 670.385 C 1004.65 672.944 999.5 673.989 994.451 673.313 C 991.75 673.053 989.102 672.462 986.582 671.556 C 985.965 671.269 985.301 671.071 984.615 670.971 L 981.992 670.971 Z  M 970.189 657.504 C 969.894 661.409 967.434 664.924 963.632 666.872 C 959.647 668.87 955.057 669.69 950.518 669.214 C 945.693 668.963 941.091 667.319 937.404 664.53 C 933.812 662.271 931.818 658.489 932.158 654.577 L 936.092 618.862 C 936.092 617.691 936.092 616.52 934.781 615.935 L 932.814 614.178 L 932.814 612.422 L 934.781 612.422 L 952.485 613.593 L 953.796 614.178 L 953.796 615.935 C 953.796 616.52 953.141 617.106 951.829 617.106 L 949.206 620.033 L 945.928 656.333 C 945.272 661.017 947.239 663.945 952.485 664.53 C 959.042 664.53 961.665 662.188 962.321 656.333 L 966.255 621.204 C 966.37 619.953 965.579 618.775 964.288 618.277 C 962.976 618.277 962.976 617.106 962.976 616.52 L 962.976 615.349 C 962.976 614.764 962.976 614.178 964.288 614.764 L 977.402 615.349 L 978.058 616.52 L 978.058 618.277 L 976.746 619.448 C 974.779 619.448 974.123 620.619 974.123 621.79 L 970.189 656.919 L 970.189 657.504 Z  M 900.028 665.116 C 893.07 664.406 886.825 660.974 882.979 655.748 C 879.382 649.428 878.011 642.285 879.045 635.256 C 879.461 627.805 882.437 620.65 887.569 614.764 C 891.968 610.246 898.64 608.039 905.274 608.909 C 911.831 608.909 917.732 612.422 921.011 617.106 C 924.945 622.375 926.256 629.401 924.945 638.769 C 924.805 646.169 922.051 653.341 917.076 659.261 C 912.814 663.593 906.443 665.781 900.028 665.116 Z  M 838.391 652.235 L 842.981 611.251 C 842.981 609.494 842.981 608.323 841.014 607.738 L 839.702 605.981 L 839.702 604.81 L 841.67 604.225 L 859.374 605.396 C 860.029 605.396 860.685 605.396 860.685 606.567 L 860.685 607.738 L 858.718 609.494 C 857.407 609.494 856.751 610.665 856.095 611.836 L 851.505 655.748 L 862.652 655.748 C 864.899 654.333 866.523 652.262 867.242 649.893 L 867.898 648.137 L 872.488 648.137 C 873.799 648.137 873.799 648.722 873.799 649.308 L 872.488 661.603 L 836.424 658.675 C 835.112 658.675 834.457 658.675 834.457 657.504 L 834.457 656.333 C 834.457 655.748 835.112 655.162 836.424 655.162 C 838.391 654.577 839.047 653.406 839.047 652.235 L 838.391 652.235 Z  M 899.372 661.017 C 901.327 661.162 903.252 660.517 904.618 659.261 C 905.929 658.09 907.241 654.577 908.552 648.722 C 910.111 639.415 910.987 630.027 911.175 620.619 C 911.175 617.106 909.864 615.349 909.208 614.764 C 908.162 613.791 906.772 613.171 905.274 613.007 C 903.993 612.648 902.62 612.648 901.339 613.007 L 898.061 616.52 C 895.7 624.801 893.948 633.211 892.815 641.696 L 893.471 656.333 C 894.782 659.261 896.749 661.017 900.028 661.017 L 899.372 661.017 Z  M 828.555 645.209 C 828.26 649.114 825.8 652.629 821.998 654.577 C 817.826 656.7 812.982 657.524 808.228 656.919 C 803.404 656.668 798.801 655.024 795.114 652.235 C 791.972 649.962 790.261 646.47 790.524 642.867 L 794.458 606.567 C 794.458 605.396 794.458 604.225 792.491 603.639 L 791.18 601.883 L 791.18 600.712 C 791.18 600.126 791.835 599.541 793.147 600.126 L 810.851 601.297 C 811.507 601.297 812.162 601.297 811.507 602.468 L 811.507 603.639 C 811.507 604.225 811.507 604.81 810.195 605.396 C 808.228 605.396 807.572 606.567 807.572 607.738 L 803.638 644.038 C 803.638 649.308 805.605 651.65 810.195 652.235 C 816.752 652.235 819.375 649.893 820.031 644.624 L 823.965 609.494 C 823.965 607.738 823.965 607.152 821.998 605.981 L 820.687 604.81 L 820.687 603.054 L 822.654 602.468 L 835.768 603.639 L 836.424 604.225 L 836.424 605.981 C 836.424 605.981 835.768 607.152 834.457 607.152 C 833.145 607.738 832.49 608.323 831.834 610.08 L 828.555 645.209 Z  M 766.918 624.717 C 778.065 627.644 783.311 632.914 782.655 639.354 C 782.441 642.238 781.04 644.949 778.721 646.966 C 775.757 649.231 772.105 650.657 768.23 651.064 C 764.128 651.78 759.934 651.977 755.771 651.65 L 738.723 650.479 L 737.411 649.893 L 737.411 648.137 L 739.378 646.38 C 740.69 646.38 742.001 645.209 742.001 644.038 L 746.591 603.054 C 746.591 601.297 745.935 600.126 744.624 599.541 C 743.313 599.541 743.313 598.37 743.313 597.785 L 743.313 596.614 C 743.313 596.028 743.313 595.443 744.624 596.028 L 762.984 597.199 C 769.541 597.785 774.787 599.541 778.721 602.468 C 782.655 605.396 784.623 608.323 783.967 612.422 C 783.58 615.389 781.938 618.112 779.377 620.033 C 775.824 622.645 771.494 624.274 766.918 624.717 Z  M 708.56 599.541 L 708.56 595.443 L 719.051 593.686 L 720.363 593.686 L 730.854 642.867 L 731.51 645.209 L 733.477 646.38 C 734.788 646.38 734.788 646.966 734.788 647.551 L 734.788 649.308 L 733.477 649.893 L 714.461 648.137 L 713.15 647.551 L 713.15 645.795 C 713.15 645.795 713.806 644.624 715.117 644.624 C 717.084 644.624 717.74 643.453 717.74 642.867 L 717.74 641.696 L 716.428 634.67 L 701.347 632.914 L 698.068 639.94 L 698.068 640.525 C 698.068 641.111 698.068 642.282 700.036 643.453 C 701.347 643.453 702.003 644.624 701.347 644.624 L 701.347 646.38 L 700.036 646.966 L 687.577 645.795 C 686.266 645.795 685.61 645.795 686.266 645.209 L 686.266 643.453 C 686.266 642.867 686.266 642.282 687.577 642.282 L 690.856 639.354 L 708.56 599.541 Z  M 757.083 625.888 L 754.46 647.551 L 762.328 647.551 C 764.295 646.966 766.263 645.795 766.918 644.038 C 768.376 642.337 769.283 640.312 769.541 638.183 C 769.541 634.67 769.541 631.743 766.918 629.401 C 764.951 627.644 761.673 626.473 757.083 625.888 Z  M 673.151 593.686 L 670.529 614.764 L 677.741 614.764 L 679.709 612.422 C 679.709 611.251 680.364 610.665 681.02 610.665 L 684.299 610.665 C 685.61 610.665 686.266 611.251 686.266 611.836 L 684.954 623.546 C 684.954 624.717 684.299 624.717 683.643 624.717 L 679.053 624.717 L 679.053 622.961 C 678.397 621.204 677.741 620.033 676.43 620.033 C 675.646 619.499 674.756 619.102 673.807 618.862 L 670.529 618.862 L 667.906 637.598 C 667.906 638.769 668.561 639.94 669.873 640.525 C 671.184 641.111 671.184 641.696 671.184 642.282 L 671.184 644.038 L 669.873 644.038 L 652.169 642.867 L 650.857 642.282 L 650.857 640.525 C 650.857 640.525 651.513 639.354 652.824 639.354 C 654.115 638.856 654.907 637.678 654.791 636.427 L 659.381 595.443 C 659.381 593.686 659.381 593.101 657.414 591.93 L 656.103 590.759 L 656.103 589.002 L 657.414 588.417 L 686.921 590.759 L 692.823 590.759 L 694.79 591.344 L 694.79 592.515 L 693.478 603.054 L 692.167 603.639 L 688.888 603.639 L 688.888 601.297 C 688.233 598.955 687.577 597.199 685.61 596.028 C 683.637 594.935 681.374 594.328 679.053 594.272 L 673.807 594.272 L 673.151 593.686 Z  M 711.183 611.251 L 703.314 628.815 L 715.117 629.986 L 711.183 611.251 Z  M 759.705 601.297 L 757.738 621.79 C 765.607 622.375 770.197 619.448 770.853 612.422 C 770.989 610.402 770.538 608.385 769.541 606.567 C 769.053 604.886 767.885 603.426 766.263 602.468 C 764.18 601.71 761.955 601.312 759.705 601.297 Z  M 1162.313 573.194 C 1159.731 568.652 1155.597 564.961 1150.51 562.655 L 1147.232 561.484 L 1143.953 560.313 C 1142.452 559.668 1140.921 559.082 1139.363 558.557 L 1132.806 557.386 C 1121.762 555.63 1110.58 554.652 1099.365 554.458 L 1081.005 554.458 C 1075.337 570.725 1065.452 585.569 1052.153 597.785 C 1078.424 598.224 1104.7 597.247 1130.839 594.857 L 1137.396 593.686 L 1141.986 592.515 C 1146.66 591.435 1151.095 589.653 1155.1 587.246 C 1156.945 586.193 1158.511 584.795 1159.69 583.147 L 1159.69 581.391 C 1161.002 580.22 1161.657 575.536 1162.313 574.365 L 1162.313 573.194 Z  M 1077.07 480.101 C 1050.29 502.576 1021.569 523.132 991.172 541.578 C 983.303 545.676 975.435 548.603 967.566 551.531 L 936.748 562.07 C 913.798 569.096 890.848 575.536 867.242 581.391 L 886.258 583.733 L 929.535 589.002 L 960.353 592.515 L 966.911 593.101 L 974.123 593.101 L 987.238 594.272 L 1017.4 596.028 L 1039.695 597.199 L 1041.662 595.443 C 1049.349 589.323 1055.978 582.22 1061.333 574.365 C 1073.98 555.244 1080.343 533.331 1079.693 511.132 C 1079.488 502.307 1078.612 493.504 1077.07 484.785 L 1077.07 480.101 Z  M 1075.759 468.977 L 1077.07 468.391 C 1082.74 458.106 1087.775 447.552 1092.152 436.775 L 1096.086 426.236 L 1097.397 423.894 L 1097.397 422.138 L 1098.053 420.967 L 1098.709 418.625 L 1100.02 413.355 C 1104.228 395.069 1105.771 376.374 1104.61 357.734 C 1103.547 348.185 1101.349 338.764 1098.053 329.63 C 1095.164 320.318 1090.744 311.439 1084.939 303.283 L 1081.66 299.185 L 1081.66 305.04 C 1082.194 317.383 1081.315 329.742 1079.037 341.926 C 1076.76 351.999 1073.241 361.817 1068.546 371.2 C 1054.161 397.792 1033.062 421.04 1006.909 439.117 C 989.65 452.413 970.984 464.178 951.174 474.246 C 933.322 483.496 914.936 491.9 896.094 499.422 L 875.767 508.205 L 865.931 512.303 L 854.784 516.987 L 851.505 518.158 L 850.194 518.743 L 847.571 520.5 L 843.637 522.256 C 819.618 533.965 800.173 551.94 787.901 573.779 L 842.325 579.634 C 877.165 571.411 911.523 561.641 945.272 550.36 C 958.583 545.701 971.706 540.624 984.615 535.137 C 998.275 527.66 1011.413 519.448 1023.958 510.547 C 1041.662 497.666 1058.71 484.2 1075.103 469.562 L 1075.759 468.977 Z  M 823.965 181.502 C 814.546 187.696 804.164 192.627 793.147 196.139 L 778.065 200.823 L 775.443 201.994 L 772.164 203.75 L 770.853 204.921 L 770.853 206.678 L 770.197 207.263 L 771.508 207.849 L 786.59 217.217 C 796.425 223.657 804.95 231.268 811.507 240.636 C 819.079 250.488 824.22 261.664 826.588 273.423 C 831.012 299.867 824.735 326.853 808.884 349.537 C 808.376 350.241 807.706 350.84 806.917 351.294 C 805.803 351.904 804.45 352.061 803.198 351.726 C 801.946 351.39 800.914 350.594 800.36 349.537 L 800.36 343.682 C 799.637 325.13 793.779 307.027 783.311 290.988 C 790.763 312.021 791.893 334.432 786.59 355.977 C 785.278 363.003 783.311 369.444 780.033 375.884 C 773.678 391.081 762.515 404.302 747.903 413.941 L 746.591 414.526 L 746.591 415.697 L 747.903 417.454 L 747.903 420.381 C 748.7 423.085 749.357 425.82 749.87 428.578 C 751.323 444.695 747.927 460.865 740.034 475.417 L 733.477 484.2 L 728.231 490.054 C 715.786 504.971 705.23 521.072 696.757 538.065 C 693.204 546.934 690.998 556.189 690.2 565.583 L 694.134 565.583 C 722.385 567.605 750.587 570.142 778.721 573.194 L 783.967 564.412 C 797.548 543.844 817.01 526.87 840.358 515.231 L 841.014 514.645 L 839.702 512.889 L 838.391 511.132 C 833.809 505.287 830.474 498.737 828.555 491.811 C 826.016 482.225 824.913 472.381 825.277 462.537 C 827.869 430.981 835.145 399.873 846.915 370.029 L 851.505 358.905 L 853.472 353.05 C 859.724 336.663 864.332 319.813 867.242 302.698 C 871.87 277.222 869.622 251.128 860.685 226.584 C 856.502 217.214 850.993 208.359 844.292 200.237 C 838.391 193.211 831.178 186.771 824.621 181.502 L 823.965 181.502 Z  M 607.58 119.44 C 602.404 122.966 597.578 126.884 593.154 131.15 L 587.253 137.004 C 578.933 148.069 572.317 160.081 567.582 172.719 L 604.957 198.481 L 603.646 200.237 L 604.957 198.481 L 605.613 199.066 L 606.269 200.237 L 606.924 201.994 L 608.236 206.092 L 609.547 215.46 C 609.166 220.104 607.351 224.563 604.302 228.341 C 599.472 233.664 592.772 237.377 585.286 238.88 C 581.011 239.884 576.585 240.279 572.172 240.051 C 570.136 240.02 568.129 239.622 566.27 238.88 L 564.959 237.709 L 540.697 212.533 L 537.419 219.558 C 531.517 233.61 530.862 248.833 532.173 263.47 C 532.173 272.838 534.14 281.035 534.796 290.403 L 535.452 295.087 C 535.623 298.403 535.623 301.724 535.452 305.04 L 533.485 315.579 L 529.55 329.045 L 518.403 357.148 C 504.388 390.787 489.079 423.985 472.503 456.682 L 472.503 460.195 C 474.042 467.177 476.236 474.032 479.06 480.687 C 484.804 495.712 495.001 509.066 508.568 519.329 L 517.092 524.598 L 523.649 527.526 L 527.583 529.868 C 538.941 534.912 551.817 536.555 564.303 534.552 C 570.291 533.345 575.896 530.943 580.696 527.526 L 589.876 519.329 L 589.876 518.743 L 591.187 517.572 C 596.917 510.433 601.343 502.529 604.302 494.153 C 608.194 479.96 608.641 465.187 605.613 450.827 L 609.547 446.728 L 614.137 449.656 C 615.555 458.379 616.213 467.188 616.104 476.003 L 616.76 475.417 C 631.832 457.148 650.495 441.476 671.84 429.164 L 669.217 429.164 L 664.627 427.993 C 663.346 427.748 662.193 427.13 661.349 426.236 L 662.66 420.381 L 669.217 421.552 L 668.561 420.967 L 669.217 420.967 L 675.774 422.138 L 689.544 422.138 C 704.627 420.976 719.433 417.819 733.477 412.77 L 734.788 410.428 C 735.444 410.428 736.1 410.428 736.756 409.257 L 738.723 409.257 C 751.531 402.262 761.783 392.09 768.23 379.983 C 777.298 361.575 781.343 341.509 780.033 321.434 C 778.494 299.601 770.334 278.553 756.427 260.543 L 754.46 258.201 C 742.166 247.126 728.531 237.308 713.806 228.926 L 705.937 224.828 L 702.003 223.071 L 699.38 221.9 L 695.446 221.315 C 679.652 217.015 664.634 210.705 650.857 202.579 C 637.654 194.787 626.655 184.365 618.727 172.134 C 616.728 168.324 614.977 164.414 613.482 160.424 C 607.439 147.47 605.842 133.206 608.892 119.44 L 607.58 119.44 Z  M 1035.105 169.206 L 1030.515 165.693 C 1003.187 139.29 972.612 115.722 939.371 95.435 C 928.336 89.082 916.956 83.22 905.274 77.87 C 872.488 63.818 836.424 54.45 800.36 52.694 C 776.616 51.743 752.869 54.517 730.198 60.891 C 724.619 62.835 719.333 65.392 714.461 68.502 C 713.483 69.4 712.604 70.38 711.838 71.43 C 709.216 73.772 709.871 76.114 709.871 76.114 L 705.281 80.212 L 700.036 80.212 C 685.04 81.133 670.257 83.891 656.103 88.409 C 644.956 92.507 633.809 97.777 625.94 105.974 C 622.33 109.945 619.654 114.525 618.072 119.44 C 614.67 130.421 615.128 142.071 619.383 152.813 C 621.209 158.928 623.851 164.825 627.252 170.377 L 632.497 177.403 C 637.743 183.258 643.644 188.528 650.201 193.211 C 663.237 201.882 677.889 208.423 693.478 212.533 L 705.281 215.46 L 705.937 215.46 L 711.183 218.387 C 727.376 226.417 742.359 236.255 755.771 247.662 C 757.083 247.662 757.738 248.833 758.394 249.418 C 778.065 265.812 793.147 285.719 802.327 307.967 L 808.884 331.387 L 808.884 331.972 L 813.474 320.263 C 819.375 302.698 821.342 284.548 815.441 266.983 C 811.733 255.866 805.229 245.653 796.425 237.123 C 789.868 230.097 782 224.242 773.475 218.973 L 760.361 209.605 C 759.178 208.931 758.079 208.146 757.083 207.263 L 755.115 205.507 L 753.148 203.165 L 751.181 200.237 C 750.057 199.09 748.964 197.918 747.903 196.724 L 744.624 192.04 C 739.184 184.452 734.151 176.637 729.543 168.621 L 722.986 158.082 L 722.986 157.497 L 722.33 156.326 C 722.33 154.569 722.33 153.398 723.641 152.227 L 728.887 144.616 C 733.479 140.256 739.409 137.201 745.935 135.834 C 753.269 134.31 760.896 134.31 768.23 135.834 L 776.754 137.004 L 782 138.175 C 799.79 140.163 817.845 138.969 835.112 134.663 C 837.2 134.15 839.189 133.36 841.014 132.321 L 841.014 131.735 L 841.67 130.564 C 842.424 129.581 843.621 128.939 844.948 128.808 L 846.26 128.808 C 847.901 129.125 849.46 129.722 850.849 130.564 C 853.066 131.642 854.888 133.268 856.095 135.248 C 858.718 140.517 857.407 146.372 854.128 151.056 L 853.472 152.813 L 850.849 156.326 L 848.227 159.839 C 843.143 165.776 837.434 171.266 831.178 176.232 L 831.834 176.818 L 837.735 181.502 C 854.546 196.098 866.564 214.523 872.488 234.781 C 879.611 259.69 880.283 285.72 874.455 310.895 C 871.193 327.811 866.368 344.457 860.029 360.661 L 855.439 372.371 L 852.817 378.226 C 842.743 404.55 836.356 431.885 833.801 459.609 C 833.569 471.063 835.113 482.491 838.391 493.567 C 840.613 499.308 843.941 504.658 848.227 509.376 L 848.882 509.961 L 861.997 504.106 L 892.159 492.396 L 900.028 488.884 C 929.224 476.189 957.284 461.508 983.959 444.972 C 992.821 439.311 1001.356 433.253 1009.532 426.822 C 1032.722 408.597 1051.088 385.999 1063.3 360.661 C 1069.425 346.649 1072.754 331.787 1073.136 316.75 L 1073.136 291.574 C 1073.07 290.403 1073.07 289.231 1073.136 288.061 L 1073.792 288.061 L 1073.792 285.719 C 1071.004 256.356 1063.267 227.537 1050.842 200.237 C 1046.195 189.278 1040.943 178.531 1035.105 168.035 L 1035.105 169.206 Z  M 538.075 477.174 L 540.042 477.174 C 542.413 478 544.463 479.424 545.943 481.272 L 546.599 481.858 L 547.91 483.614 C 550.436 487.203 552.213 491.17 553.156 495.324 C 554.467 498.837 554.467 503.521 551.845 507.034 L 549.877 508.79 L 543.32 508.79 L 543.976 502.935 L 545.287 500.593 L 545.287 498.251 C 544.459 493.966 542.429 489.937 539.386 486.542 L 539.386 488.298 L 538.73 489.469 C 538.084 491.124 537.202 492.698 536.107 494.153 C 532.737 498.627 527.94 502.094 522.338 504.106 L 515.78 501.764 L 519.059 497.08 L 520.37 496.495 L 521.026 495.909 C 524.843 493.949 528.011 491.121 530.206 487.713 L 530.862 484.785 L 530.862 483.029 L 531.517 482.443 L 532.173 480.687 C 532.83 479.387 533.996 478.346 535.452 477.759 C 536.104 477.671 536.767 477.671 537.419 477.759 L 538.075 477.759 L 538.075 477.174 Z  M 690.2 263.47 C 690.856 265.227 689.544 267.569 688.888 269.911 L 681.02 286.304 C 679.053 289.232 675.119 292.159 673.151 293.916 L 666.594 297.429 C 665.939 298.6 663.971 299.185 662.66 299.77 C 656.103 300.356 637.743 302.112 631.186 301.527 C 627.782 301.249 624.456 300.458 621.35 299.185 C 620.039 298.014 616.104 293.33 616.76 290.988 C 617.416 289.232 623.973 288.061 625.94 287.475 L 627.907 287.475 L 629.874 288.646 L 634.464 289.232 L 654.791 288.646 L 658.726 286.89 C 659.865 286.376 660.961 285.789 662.004 285.133 L 665.939 282.206 L 671.184 275.18 C 672.496 271.667 673.807 264.056 675.774 261.128 C 677.741 258.201 682.331 255.273 684.299 255.273 C 686.921 255.859 689.544 261.128 690.856 262.885 L 690.2 263.47 Z  M 572.172 231.268 L 572.827 231.854 L 574.795 231.854 C 578.34 231.983 581.885 231.588 585.286 230.683 C 591.039 229.23 595.96 225.882 599.056 221.315 L 600.367 218.387 L 601.023 213.704 C 601.23 210.343 600.786 206.976 599.712 203.75 L 442.341 93.678 L 570.86 231.268 L 572.172 231.268 Z  M 841.67 141.103 C 835.781 143.313 829.617 144.886 823.31 145.787 C 806.568 148.196 789.486 147.997 772.82 145.201 L 766.263 144.03 L 762.984 144.03 C 755.182 142.724 747.115 143.753 740.034 146.958 C 737.884 148.1 735.902 149.477 734.133 151.056 C 733.001 152.492 732.117 154.071 731.51 155.74 L 748.558 183.258 C 752.616 189.295 756.992 195.156 761.673 200.823 L 762.328 200.823 L 762.328 199.652 L 763.64 199.066 C 764.017 198.447 764.456 197.859 764.951 197.31 C 768.299 194.992 772.07 193.21 776.098 192.04 L 786.59 188.528 C 794.458 186.186 801.671 182.673 808.884 179.16 C 822.731 171.546 834.583 161.362 843.637 149.3 L 844.292 148.129 C 830.477 164.189 808.557 172.986 785.934 171.548 L 764.295 171.548 C 763.179 171.618 762.077 171.815 761.017 172.134 C 761.017 173.305 762.328 173.89 762.984 175.061 L 769.541 179.16 L 770.853 184.429 L 765.607 185.015 C 763.058 183.639 760.645 182.072 758.394 180.331 C 756.925 179.091 755.607 177.718 754.46 176.232 C 753.877 175.314 753.436 174.329 753.148 173.305 L 753.148 169.792 L 753.804 168.621 C 755.587 166.331 758.551 165.007 761.673 165.108 L 764.951 165.108 L 767.574 164.522 L 784.623 164.522 C 791.643 164.727 798.668 164.335 805.605 163.351 C 809.967 162.277 814.155 160.702 818.064 158.668 C 827.244 154.569 835.112 148.129 841.67 141.103 Z  M 574.139 102.461 C 562 116.822 554.311 133.785 551.845 151.642 L 550.533 161.01 L 558.402 166.864 C 562.554 153.249 570.442 140.773 581.352 130.564 C 578.385 126.054 576.383 121.091 575.45 115.927 C 574.529 111.486 574.09 106.977 574.139 102.461 Z  M 1018.056 143.445 C 979.802 82.95 912.167 41.823 835.112 32.202 C 800.232 27.481 764.68 28.473 730.198 35.129 C 715.723 38.561 701.666 43.268 688.233 49.181 C 682.987 51.523 671.184 58.549 662.66 64.404 L 683.643 65.575 L 698.068 66.16 L 703.97 66.746 C 705.247 65 706.792 63.423 708.56 62.062 L 710.527 60.891 L 712.494 59.72 L 715.773 57.963 L 719.707 56.207 C 726.92 52.694 735.444 50.352 743.968 48.596 C 757.966 45.847 772.258 44.473 786.59 44.497 L 789.213 44.497 C 821.592 44.327 853.687 49.899 883.635 60.891 C 900.03 66.441 915.831 73.3 930.846 81.383 C 963.632 97.777 992.483 118.854 1018.712 142.859 L 1018.056 143.445 Z  M 616.76 102.461 C 612.17 96.606 606.924 90.751 601.023 85.481 C 596.574 81.675 591.486 78.514 585.942 76.114 C 584.145 83.829 583.048 91.661 582.663 99.533 L 583.319 111.243 C 583.974 115.927 585.286 120.611 587.909 124.709 L 591.187 121.196 C 597.467 115.617 604.79 111.059 612.826 107.73 C 613.997 105.893 615.312 104.133 616.76 102.461 Z  M 682.987 73.186 L 650.201 72.015 L 648.234 72.015 C 636.411 72.585 624.725 74.554 613.482 77.87 L 608.236 79.627 C 614.111 84.797 619.384 90.485 623.973 96.606 C 633.153 88.409 644.956 83.139 657.414 79.041 C 665.939 76.699 674.463 74.943 683.643 73.772 L 684.299 73.772 L 682.987 73.186 Z " fill-rule="evenodd" fill="rgb(0,0,0)"/></g></g></svg>