<?xml version="1.0" encoding="UTF-8" standalone="no"?><!-- Generator: Gravit.io --><svg xmlns="http://www.w3.org/2000/svg" xmlns:xlink="http://www.w3.org/1999/xlink" style="isolation:isolate" viewBox="0 0 1440 900" width="1440pt" height="900pt"><defs><clipPath id="_clipPath_v2dyvgtDgeSHMEWzaaXhPq1zDELsvAmN"><rect width="1440" height="900"/></clipPath></defs><g clip-path="url(#_clipPath_v2dyvgtDgeSHMEWzaaXhPq1zDELsvAmN)"><g><path d=" M 1366.667 28.755 L 1371.429 29.82 C 1374.286 31.95 1377.143 35.145 1378.095 40.469 L 1378.095 55.379 C 1377.218 232.75 1322.859 404.603 1223.81 543.143 C 1133.192 670.29 1009.334 762.625 869.524 807.259 C 554.094 905.058 221.114 737.68 77.143 408.954 C 27.93 299.15 1.866 178.198 0.952 55.379 L 0 50.054 L 0 42.599 C 0 39.404 1.905 37.274 2.857 35.145 C 4.567 32.68 6.884 30.829 9.524 29.82 L 14.286 28.755 L 1366.667 28.755 Z " fill-rule="evenodd" fill="rgb(0,0,0)" fill-opacity="0.2"/><mask id="_mask_zjrgdnULEDlJXpfCCX1RE7QEfkARX85z" x="-200%" y="-200%" width="400%" height="400%"><rect x="-200%" y="-200%" width="400%" height="400%" style="fill:white;"/><path d=" M 1428.571 0 L 1432.381 1.065 C 1435.238 3.195 1438.095 6.39 1439.048 10.65 L 1440 15.975 L 1440 26.625 C 1438.852 204.122 1384.153 375.989 1284.762 514.388 C 1194.395 641.353 1070.892 733.671 931.429 778.505 C 615.759 876.14 282.699 708.274 139.048 379.135 C 89.175 269.507 62.458 148.546 60.952 25.56 L 60.952 13.845 C 61.495 9.578 63.555 5.738 66.667 3.195 L 71.429 1.065 L 1428.571 1.065 L 1428.571 0 Z " fill-rule="evenodd" fill="black" stroke="none"/></mask><path d=" M 1428.571 0 L 1432.381 1.065 C 1435.238 3.195 1438.095 6.39 1439.048 10.65 L 1440 15.975 L 1440 26.625 C 1438.852 204.122 1384.153 375.989 1284.762 514.388 C 1194.395 641.353 1070.892 733.671 931.429 778.505 C 615.759 876.14 282.699 708.274 139.048 379.135 C 89.175 269.507 62.458 148.546 60.952 25.56 L 60.952 13.845 C 61.495 9.578 63.555 5.738 66.667 3.195 L 71.429 1.065 L 1428.571 1.065 L 1428.571 0 Z " fill-rule="evenodd" fill="rgb(255,255,255)"/><path d=" M 1428.571 0 L 1432.381 1.065 C 1435.238 3.195 1438.095 6.39 1439.048 10.65 L 1440 15.975 L 1440 26.625 C 1438.852 204.122 1384.153 375.989 1284.762 514.388 C 1194.395 641.353 1070.892 733.671 931.429 778.505 C 615.759 876.14 282.699 708.274 139.048 379.135 C 89.175 269.507 62.458 148.546 60.952 25.56 L 60.952 13.845 C 61.495 9.578 63.555 5.738 66.667 3.195 L 71.429 1.065 L 1428.571 1.065 L 1428.571 0 Z " fill-rule="evenodd" fill="rgb(255,255,255)" mask="url(#_mask_zjrgdnULEDlJXpfCCX1RE7QEfkARX85z)" vector-effect="non-scaling-stroke" stroke-width="4.875" stroke="rgb(207,207,207)" stroke-linejoin="round" stroke-linecap="butt" stroke-miterlimit="1.41"/><path d=" M 126.667 51.119 C 126.918 235.083 192.643 411.369 309.328 541.051 C 426.013 670.733 584.06 743.144 748.571 742.295 C 913.083 742.861 1071.03 670.179 1187.536 540.297 C 1304.042 410.415 1369.525 234.018 1369.524 50.054 L 126.667 50.054 L 126.667 51.119 Z " fill-rule="evenodd" fill="rgb(113,207,81)"/><path d=" M 1329.524 57.509 C 1330.476 45.794 1000 56.444 693.333 56.444 C 417.143 56.444 161.905 43.664 162.857 53.249 C 183.442 399.361 436.562 670.865 746.667 679.461 C 1055.409 671.505 1307.968 402.005 1329.524 57.509 Z " fill-rule="evenodd" fill="rgb(243,238,164)"/><path d=" M 1295.238 59.639 C 1297.143 39.404 1021.905 50.054 749.524 48.989 C 485.714 48.989 224.762 37.274 227.619 55.379 C 270.476 381.265 493.333 630.472 760.952 630.472 C 1027.619 630.472 1249.524 383.395 1294.286 59.639 L 1295.238 59.639 Z " fill-rule="evenodd" fill="rgb(249,74,135)"/><path d=" M 1371.429 37.274 L 1376.19 37.274 C 1379.048 39.404 1380.952 42.599 1381.905 46.859 L 1382.857 51.119 L 1382.857 59.639 C 1382.483 89.556 1380.575 119.425 1377.143 149.098 C 1352.58 347.898 1252.638 525.238 1102.857 635.796 C 923.983 771.441 695.547 795.539 497.143 699.696 C 272.347 590.8 123.438 347.241 114.286 73.484 L 114.286 48.989 L 117.143 42.599 L 120 39.404 L 122.857 37.274 L 1372.381 37.274 L 1371.429 37.274 Z  M 748.571 66.029 L 139.048 66.029 C 141.3 158.023 160.085 248.57 194.286 332.276 C 317.309 631.79 614.82 789.379 900 706.085 C 1162.343 630.877 1348.674 370.859 1357.143 68.159 L 1357.143 64.964 L 747.619 64.964 L 748.571 66.029 Z " fill="rgb(55,41,40)"/><path d=" M 821.905 497.348 C 833.333 502.673 835.238 522.908 826.667 544.208 C 819.048 564.442 803.81 576.157 793.333 570.832 C 781.905 566.572 780 545.273 787.619 525.038 C 796.19 503.738 811.429 492.023 821.905 497.348 Z  M 648.571 473.919 L 654.286 474.984 C 664.762 480.309 666.667 501.608 659.048 521.843 C 652.381 538.883 640 550.598 630.476 550.598 L 624.762 550.598 C 614.286 544.208 611.429 523.973 620 502.673 C 626.667 485.633 639.048 473.919 648.571 473.919 Z  M 941.905 407.89 C 953.333 413.214 955.238 433.449 947.619 454.749 C 939.048 474.984 923.81 486.698 913.333 481.374 C 902.857 476.049 900 455.814 908.571 435.579 C 916.19 414.279 931.429 402.565 941.905 407.89 Z  M 758.095 387.655 C 768.571 392.98 770.476 414.279 762.857 434.514 C 754.286 455.814 739.048 467.529 728.571 462.204 C 718.095 456.879 715.238 436.644 723.81 415.344 C 731.429 395.11 746.667 383.395 758.095 387.655 Z  M 612.381 321.626 C 623.81 326.951 625.714 347.185 618.095 368.485 C 609.524 388.72 594.286 400.435 583.81 396.175 C 573.333 390.85 570.476 369.55 579.048 349.315 C 586.667 328.016 601.905 316.301 612.381 321.626 Z  M 1072.381 315.236 C 1083.81 320.561 1085.714 341.86 1078.095 362.095 C 1069.524 383.395 1054.286 395.11 1043.81 389.785 C 1032.381 384.46 1030.476 363.16 1039.048 342.925 C 1046.667 321.626 1061.905 310.976 1072.381 315.236 Z  M 467.619 290.741 C 479.048 296.066 480.952 317.366 473.333 337.6 C 464.762 358.9 449.524 370.615 439.048 365.29 C 427.619 359.965 425.714 339.73 434.286 318.431 C 441.905 298.196 457.143 286.481 467.619 290.741 Z  M 882.857 273.701 C 893.333 279.026 895.238 300.326 887.619 320.561 C 879.048 341.86 863.81 352.51 853.333 348.25 C 842.857 342.925 840 321.626 848.571 301.391 C 856.19 280.091 871.429 268.376 882.857 273.701 Z  M 718.095 250.272 C 728.571 255.597 730.476 275.831 722.857 297.131 C 715.238 317.366 700 329.081 688.571 323.756 C 678.095 318.431 676.19 298.196 683.81 277.961 C 691.429 256.662 707.619 244.947 718.095 250.272 Z  M 556.19 202.347 C 566.667 207.672 568.571 228.972 560.952 249.207 C 553.333 269.441 538.095 281.156 526.667 276.896 C 516.19 271.571 514.286 250.272 521.905 230.037 C 529.524 208.737 545.714 197.022 556.19 202.347 Z  M 1016.19 195.957 C 1026.667 201.282 1028.571 222.582 1020.952 242.817 C 1012.381 264.116 997.143 275.831 986.667 270.506 C 976.19 265.181 973.333 244.947 981.905 223.647 C 989.524 203.412 1004.762 191.697 1016.19 195.957 Z  M 823.81 142.708 C 834.286 148.033 837.143 169.333 828.571 189.567 C 820.952 209.802 805.714 221.517 795.238 217.257 C 783.81 211.932 781.905 190.632 789.524 170.398 C 798.095 149.098 813.333 137.383 823.81 142.708 Z  M 366.667 132.058 C 376.19 137.383 379.048 158.683 371.429 178.918 C 362.857 200.217 347.619 210.867 337.143 206.607 C 326.667 201.282 323.81 179.983 332.381 159.748 C 340 138.448 355.238 127.798 365.714 132.058 L 366.667 132.058 Z  M 674.286 110.759 C 684.762 115.018 686.667 136.318 679.048 156.553 C 670.476 177.853 655.238 189.567 644.762 184.243 C 634.286 178.918 631.429 158.683 640 137.383 C 647.619 117.148 662.857 105.434 674.286 109.694 L 674.286 110.759 Z  M 491.429 106.499 C 502.857 111.823 504.762 133.123 496.19 153.358 C 488.571 174.658 473.333 186.372 462.857 181.048 C 451.429 175.723 449.524 155.488 457.143 134.188 C 465.714 113.953 480.952 102.239 491.429 106.499 Z  M 1133.333 104.369 C 1144.762 109.694 1146.667 130.993 1139.048 151.228 C 1130.476 171.463 1115.238 183.178 1104.762 178.918 C 1093.333 173.593 1091.429 152.293 1100 132.058 C 1107.619 110.759 1122.857 99.044 1133.333 104.369 Z  M 942.857 94.784 C 953.333 100.109 956.19 121.408 947.619 141.643 C 940 162.943 924.762 174.658 913.333 169.333 C 903.81 164.008 900.952 143.773 908.571 122.473 C 917.143 102.239 932.381 90.524 942.857 94.784 Z " fill-rule="evenodd" fill="rgb(238,231,231)"/><path d=" M 829.524 500.543 C 840 505.868 842.857 526.103 834.286 547.403 C 826.667 567.637 811.429 579.352 800.952 574.027 C 789.524 568.702 787.619 548.468 795.238 527.168 C 803.81 506.933 819.048 495.218 829.524 500.543 Z  M 657.143 477.114 L 662.857 478.179 C 672.381 483.503 675.238 504.803 667.619 525.038 C 660.952 542.078 648.571 553.793 639.048 553.793 L 633.333 552.728 C 622.857 547.403 620 526.103 628.571 505.868 C 635.238 488.828 647.619 477.114 657.143 477.114 Z  M 950.476 411.084 C 961.905 416.409 963.81 436.644 956.19 456.879 C 947.619 478.179 932.381 489.893 921.905 484.568 C 910.476 479.244 908.571 459.009 916.19 437.709 C 924.762 417.474 940 405.76 950.476 410.019 L 950.476 411.084 Z  M 766.667 390.85 C 776.19 396.175 779.048 417.474 771.429 437.709 C 762.857 459.009 747.619 470.724 737.143 465.399 C 726.667 460.074 723.81 438.774 732.381 418.539 C 740 397.24 755.238 386.59 766.667 390.85 Z  M 619.048 324.821 C 630.476 330.146 632.381 350.38 624.762 371.68 C 616.19 391.915 600.952 403.63 590.476 398.305 C 579.048 392.98 577.143 372.745 585.714 352.51 C 593.333 331.211 608.571 319.496 619.048 324.821 Z  M 1079.048 318.431 C 1090.476 323.756 1092.381 345.055 1083.81 365.29 C 1076.19 386.59 1060.952 397.24 1050.476 392.98 C 1039.048 387.655 1037.143 366.355 1044.762 346.12 C 1053.333 324.821 1068.571 314.171 1079.048 318.431 Z  M 476.19 293.936 C 487.619 299.261 489.524 320.561 480.952 340.795 C 473.333 362.095 458.095 373.81 447.619 368.485 C 436.19 363.16 434.286 341.86 441.905 321.626 C 450.476 300.326 465.714 289.676 476.19 293.936 Z  M 891.429 276.896 C 900.952 282.221 903.81 302.456 896.19 323.756 C 887.619 343.99 872.381 355.705 861.905 351.445 C 851.429 346.12 848.571 324.821 857.143 304.586 C 864.762 283.286 880 271.571 890.476 276.896 L 891.429 276.896 Z  M 726.667 253.467 C 737.143 258.792 739.048 279.026 731.429 299.261 C 722.857 320.561 707.619 332.276 697.143 326.951 C 686.667 321.626 683.81 301.391 692.381 280.091 C 700 259.856 715.238 248.142 726.667 253.467 Z  M 564.762 205.542 C 575.238 210.867 577.143 231.102 569.524 252.402 C 560.952 272.636 545.714 284.351 535.238 280.091 C 524.762 274.766 521.905 253.467 530.476 233.232 C 538.095 211.932 553.333 200.217 564.762 205.542 Z  M 1024.762 199.152 C 1034.286 204.477 1037.143 225.777 1029.524 246.012 C 1020.952 267.311 1005.714 279.026 995.238 273.701 C 984.762 268.376 981.905 247.077 990.476 226.842 C 998.095 205.542 1013.333 194.892 1024.762 199.152 Z  M 832.381 145.903 C 842.857 151.228 845.714 171.463 837.143 192.762 C 829.524 212.997 814.286 224.712 802.857 220.452 C 792.381 215.127 790.476 193.827 798.095 173.593 C 806.667 152.293 821.905 140.578 832.381 145.903 Z  M 375.238 135.253 C 384.762 140.578 387.619 161.878 379.048 182.113 C 371.429 203.412 356.19 214.062 345.714 209.802 C 334.286 204.477 332.381 183.178 340 162.943 C 348.571 141.643 363.81 129.928 374.286 135.253 L 375.238 135.253 Z  M 682.857 113.953 C 692.381 118.213 695.238 139.513 687.619 159.748 C 679.048 181.048 663.81 192.762 653.333 187.437 C 642.857 182.113 640 160.813 648.571 140.578 C 656.19 119.278 671.429 108.629 681.905 112.888 L 682.857 113.953 Z  M 500 109.694 C 510.476 115.018 513.333 136.318 504.762 156.553 C 497.143 177.853 481.905 189.567 470.476 184.243 C 460.952 178.918 458.095 157.618 465.714 137.383 C 474.286 116.083 489.524 105.434 500 109.694 Z  M 1141.905 107.564 C 1153.333 112.888 1155.238 133.123 1147.619 154.423 C 1139.048 174.658 1123.81 186.372 1113.333 182.113 C 1101.905 176.788 1100 155.488 1107.619 135.253 C 1116.19 113.953 1131.429 102.239 1141.905 107.564 Z  M 951.429 97.979 C 961.905 103.304 964.762 124.603 956.19 144.838 C 948.571 166.138 933.333 177.853 921.905 172.528 C 911.429 167.203 909.524 145.903 917.143 125.668 C 925.714 104.369 940.952 93.719 951.429 97.979 Z " fill-rule="evenodd" fill="rgb(55,41,40)"/></g></g></svg>