<?xml version="1.0" encoding="UTF-8" standalone="no"?><!-- Generator: Gravit.io --><svg xmlns="http://www.w3.org/2000/svg" xmlns:xlink="http://www.w3.org/1999/xlink" style="isolation:isolate" viewBox="0 0 1440 900" width="1440pt" height="900pt"><defs><clipPath id="_clipPath_6c0o5yvBuDH7H7dnSf50Ie6S5y03o1zs"><rect width="1440" height="900"/></clipPath></defs><g clip-path="url(#_clipPath_6c0o5yvBuDH7H7dnSf50Ie6S5y03o1zs)"><g><path d=" M 418.576 481.105 C 418.576 481.105 351.576 206.863 535.999 75.062 C 721.803 -56.74 719.731 240.553 719.731 240.553 C 719.731 240.553 917.278 201.544 1021.577 310.295 C 1021.577 310.295 1067.165 371.172 948.36 408.407 C 948.36 408.407 868.237 443.87 862.02 475.786 C 862.02 475.786 920.041 569.17 1074.763 606.996 C 1229.485 644.823 1189.423 884.784 971.845 890.695 C 754.267 896.605 573.298 764.803 573.298 764.803 C 573.298 764.803 606.453 913.745 488.339 898.969 C 369.535 883.602 239.679 726.386 362.627 522.478 C 388.184 479.923 418.576 481.105 418.576 481.105 Z " fill-rule="evenodd" fill="rgb(0,0,0)" fill-opacity="0.2"/><path d=" M 450.349 445.643 C 450.349 445.643 383.349 171.401 567.772 39.6 C 752.886 -91.611 751.504 205.09 751.504 205.09 C 751.504 205.09 949.051 166.673 1052.66 274.833 C 1052.66 274.833 1098.938 335.71 980.134 372.945 C 980.134 372.945 900.01 408.407 893.793 440.323 C 893.793 440.323 951.123 533.707 1105.845 571.534 C 1260.567 609.36 1221.196 849.322 1003.618 855.232 C 786.04 861.143 605.071 729.341 605.071 729.341 C 605.071 729.341 638.226 878.283 519.421 863.507 C 401.308 848.14 270.761 690.924 394.401 487.015 C 419.957 444.461 449.658 445.643 449.658 445.643 L 450.349 445.643 Z " fill-rule="evenodd" fill="rgb(255,255,255)"/><path d=" M 652.731 0.591 L 661.71 0.591 L 663.092 1.182 L 666.545 1.182 L 667.927 1.773 L 669.308 1.773 L 670.69 2.955 L 673.453 2.955 L 674.834 4.137 L 676.216 4.137 L 677.597 4.728 L 678.978 4.728 L 680.36 6.501 L 681.741 6.501 L 682.432 7.683 L 683.813 7.683 L 685.195 8.866 L 686.576 8.866 L 687.958 10.048 L 688.649 10.639 L 690.03 11.23 L 691.411 12.412 L 692.793 12.412 L 693.484 13.594 L 694.865 14.776 L 696.246 14.776 L 696.937 15.958 L 698.319 17.14 L 699.009 17.731 L 700.391 18.913 L 701.082 19.504 L 702.463 20.686 L 703.154 21.277 L 704.535 22.459 L 705.226 23.642 L 706.607 24.233 L 707.298 25.415 L 708.68 26.597 L 709.37 27.188 L 710.061 28.37 L 711.442 29.552 L 712.133 30.734 L 712.824 31.916 L 713.515 32.507 L 714.896 33.689 L 715.587 34.871 L 716.277 36.053 L 716.968 37.235 L 718.35 38.417 L 718.35 39.009 L 719.731 40.191 L 720.422 41.373 L 721.113 42.555 L 721.803 43.737 L 722.494 44.919 L 723.185 46.101 L 723.875 47.283 L 725.257 49.056 L 725.257 50.238 L 726.638 51.42 L 726.638 52.602 L 728.02 53.784 L 728.02 54.967 L 728.71 56.74 L 729.401 57.922 L 730.783 60.286 L 732.164 63.241 L 733.546 66.196 L 734.236 68.56 L 735.618 71.516 L 736.308 74.471 L 737.69 76.835 L 738.381 79.79 L 739.762 82.745 L 740.453 85.701 L 741.834 88.656 L 741.834 91.611 L 743.216 93.975 L 743.906 96.93 L 744.597 99.885 L 745.288 102.841 L 745.979 105.796 L 746.669 108.751 L 747.36 111.706 L 748.051 114.661 L 748.741 117.617 L 749.432 119.981 L 749.432 122.936 L 750.814 125.891 L 750.814 128.846 L 751.504 131.21 L 751.504 134.166 L 752.195 137.121 L 752.886 140.076 L 752.886 142.44 L 753.576 145.395 L 753.576 147.76 L 754.267 150.715 L 754.267 153.079 L 754.958 155.443 L 754.958 160.762 L 756.339 165.491 L 756.339 174.356 L 757.03 178.494 L 757.03 186.177 L 757.721 189.723 L 757.721 197.998 L 763.937 197.998 L 766.7 197.407 L 769.463 197.407 L 772.226 196.816 L 775.68 196.225 L 779.133 196.225 L 783.278 195.634 L 787.422 195.043 L 791.566 195.043 L 795.711 194.452 L 799.855 194.452 L 804.69 193.861 L 811.597 193.861 L 814.36 193.269 L 863.401 193.269 L 866.855 193.861 L 872.381 193.861 L 875.834 194.452 L 878.597 194.452 L 882.051 195.043 L 884.814 195.043 L 888.267 196.225 L 894.484 196.225 L 897.247 197.407 L 900.7 197.407 L 903.463 197.998 L 906.917 197.998 L 910.371 199.18 L 913.133 199.18 L 916.587 200.362 L 919.35 200.362 L 922.804 201.544 L 926.257 202.135 L 929.02 202.726 L 932.474 203.908 L 935.927 203.908 L 938.69 205.09 L 942.144 206.272 L 945.597 206.863 L 948.36 208.045 L 951.814 208.636 L 955.268 209.819 L 958.03 211.001 L 961.484 211.592 L 964.247 212.774 L 967.701 213.956 L 971.154 215.138 L 973.917 216.32 L 977.371 217.502 L 980.134 219.275 L 983.587 220.457 L 986.35 221.639 L 989.804 222.821 L 991.185 224.003 L 992.567 224.595 L 994.639 225.186 L 996.02 226.368 L 997.402 226.368 L 998.783 227.55 L 1000.165 228.141 L 1002.237 229.323 L 1003.618 229.914 L 1005 231.096 L 1006.381 231.687 L 1007.763 232.278 L 1009.835 233.46 L 1011.216 234.051 L 1012.598 235.233 L 1013.979 235.824 L 1015.36 237.006 L 1016.742 237.597 L 1018.123 238.779 L 1020.196 239.961 L 1021.577 240.553 L 1022.958 241.735 L 1024.34 242.917 L 1025.721 243.508 L 1027.103 244.69 L 1028.484 245.872 L 1029.866 246.463 L 1031.247 247.645 L 1032.629 248.827 L 1034.01 250.009 L 1035.391 251.191 L 1036.773 251.782 L 1038.154 252.964 L 1039.536 254.146 L 1040.917 255.328 L 1042.299 256.511 L 1043.68 257.693 L 1045.062 258.875 L 1046.443 260.057 L 1047.824 261.239 L 1049.206 262.421 L 1050.587 263.603 L 1051.969 264.785 L 1053.35 265.967 L 1054.041 267.149 L 1055.422 268.922 L 1056.804 270.104 L 1058.185 271.287 L 1058.876 271.878 L 1058.876 272.469 L 1059.567 273.651 L 1060.948 274.833 L 1060.948 276.015 L 1061.639 276.606 L 1061.639 277.788 L 1062.33 278.379 L 1063.02 279.561 L 1063.02 280.743 L 1064.402 281.925 L 1064.402 283.107 L 1065.093 284.289 L 1065.093 286.062 L 1065.783 287.245 L 1066.474 289.018 L 1066.474 290.2 L 1067.165 291.973 L 1067.165 294.337 L 1067.855 295.519 L 1067.855 312.659 L 1067.165 313.841 L 1067.165 315.023 L 1066.474 316.205 L 1066.474 317.387 L 1065.783 317.979 L 1065.783 319.161 L 1065.093 320.343 L 1065.093 321.525 L 1064.402 322.707 L 1063.711 323.889 L 1063.711 325.071 L 1062.33 325.662 L 1062.33 326.844 L 1060.948 328.026 L 1060.948 329.208 L 1060.257 330.39 L 1058.876 331.572 L 1058.876 332.754 L 1057.495 333.937 L 1056.804 335.119 L 1056.113 335.71 L 1054.732 336.892 L 1054.732 338.074 L 1053.35 339.256 L 1051.969 340.438 L 1051.278 341.62 L 1049.897 342.802 L 1048.515 343.984 L 1047.824 345.166 L 1046.443 345.757 L 1045.062 346.939 L 1043.68 348.121 L 1042.299 349.304 L 1040.917 350.486 L 1039.536 351.668 L 1038.154 352.259 L 1036.773 353.441 L 1034.701 354.623 L 1033.319 355.805 L 1031.938 356.987 L 1029.866 358.169 L 1028.484 358.76 L 1026.412 359.942 L 1024.34 361.124 L 1022.958 362.306 L 1020.886 362.897 L 1018.814 364.08 L 1016.742 365.262 L 1014.67 365.853 L 1012.598 367.035 L 1010.525 368.217 L 1007.763 369.399 L 1005.69 369.99 L 1003.618 371.172 L 1000.855 372.354 L 998.783 372.945 L 996.02 374.127 L 993.257 374.718 L 990.494 375.9 L 987.732 376.491 L 984.969 377.673 L 982.897 378.264 L 980.134 380.038 L 978.061 380.629 L 975.989 381.811 L 973.226 382.993 L 971.154 384.175 L 967.701 385.357 L 964.938 387.13 L 961.484 388.903 L 958.03 390.676 L 955.958 391.858 L 954.577 393.04 L 952.505 393.631 L 950.433 394.813 L 949.051 395.996 L 946.979 397.178 L 944.907 398.36 L 943.525 399.542 L 941.453 400.724 L 939.381 401.906 L 937.309 403.088 L 935.237 404.27 L 933.855 405.452 L 931.783 406.634 L 929.711 408.407 L 928.329 409.589 L 926.257 410.772 L 924.876 411.954 L 922.804 413.727 L 921.422 414.909 L 919.35 416.091 L 917.969 417.864 L 916.587 419.046 L 914.515 420.228 L 913.133 422.001 L 911.752 423.183 L 911.752 423.774 L 910.371 424.365 L 910.371 424.956 L 908.989 426.139 L 908.298 427.321 L 907.608 427.912 L 906.917 428.503 L 906.917 429.094 L 906.226 430.276 L 905.536 430.276 L 905.536 431.458 L 904.154 432.049 L 904.154 433.231 L 903.463 433.822 L 903.463 434.413 L 902.773 435.595 L 902.082 436.777 L 901.391 437.959 L 901.391 439.141 L 900.7 439.141 L 900.7 439.732 L 902.082 441.506 L 902.773 442.688 L 903.463 443.87 L 904.845 445.052 L 905.536 446.234 L 906.917 447.416 L 907.608 449.189 L 908.989 450.371 L 910.371 452.144 L 911.752 453.917 L 913.824 455.69 L 915.206 458.055 L 917.278 459.828 L 918.659 461.601 L 920.731 463.965 L 922.804 465.738 L 924.876 468.102 L 927.639 470.466 L 929.711 472.831 L 932.474 475.195 L 935.237 477.559 L 938 479.923 L 939.381 481.105 L 940.762 482.287 L 942.144 484.06 L 943.525 485.242 L 944.907 486.424 L 946.288 487.606 L 948.36 488.789 L 949.742 489.971 L 951.123 491.744 L 953.195 492.926 L 954.577 494.108 L 956.649 495.29 L 958.03 497.063 L 960.103 498.245 L 961.484 499.427 L 963.556 500.609 L 965.628 502.382 L 967.01 503.565 L 969.082 504.747 L 971.154 505.929 L 973.226 507.702 L 975.299 508.884 L 977.371 510.066 L 979.443 511.248 L 981.515 513.021 L 983.587 514.203 L 985.659 515.385 L 987.732 517.158 L 989.804 518.34 L 991.876 519.523 L 994.639 520.705 L 996.711 522.478 L 998.783 523.66 L 1001.546 524.842 L 1003.618 526.024 L 1006.381 527.206 L 1008.453 528.979 L 1011.216 530.161 L 1013.979 531.343 L 1016.051 532.525 L 1018.814 533.707 L 1021.577 535.481 L 1024.34 536.663 L 1026.412 537.845 L 1029.175 539.027 L 1031.938 540.209 L 1034.701 541.391 L 1037.464 542.573 L 1040.917 543.755 L 1043.68 544.937 L 1046.443 546.119 L 1049.206 547.301 L 1051.969 548.483 L 1055.422 549.665 L 1058.185 550.848 L 1061.639 552.03 L 1064.402 553.212 L 1067.855 554.394 L 1070.618 554.985 L 1074.072 556.167 L 1077.526 557.349 L 1080.288 558.531 L 1083.742 559.122 L 1087.196 560.304 L 1090.649 561.486 L 1094.103 562.077 L 1097.557 563.259 L 1101.01 564.441 L 1104.464 565.032 L 1107.917 566.215 L 1109.99 566.215 L 1112.062 566.806 L 1113.443 567.397 L 1115.515 567.397 L 1117.587 568.579 L 1118.969 568.579 L 1121.041 569.761 L 1122.423 569.761 L 1124.495 570.943 L 1125.876 571.534 L 1127.948 572.125 L 1129.33 572.716 L 1131.402 573.307 L 1132.783 574.489 L 1134.165 574.489 L 1136.237 575.671 L 1137.618 576.853 L 1139 576.853 L 1141.072 578.035 L 1142.453 578.626 L 1143.835 579.808 L 1145.216 580.399 L 1146.598 581.582 L 1148.67 582.173 L 1150.051 583.355 L 1151.433 583.946 L 1152.814 585.128 L 1154.196 586.31 L 1155.577 586.901 L 1156.959 588.083 L 1158.34 588.674 L 1159.722 589.856 L 1161.103 591.038 L 1161.794 592.22 L 1163.175 592.811 L 1164.557 593.993 L 1165.938 595.175 L 1167.32 596.358 L 1168.01 597.54 L 1169.392 598.722 L 1170.773 599.904 L 1171.464 601.086 L 1172.845 601.677 L 1174.227 602.859 L 1174.917 604.041 L 1176.299 605.223 L 1176.99 606.405 L 1178.371 607.587 L 1179.062 608.769 L 1180.443 610.542 L 1181.134 611.725 L 1181.825 612.907 L 1183.206 614.089 L 1183.897 615.271 L 1184.588 616.453 L 1185.969 618.226 L 1185.969 619.408 L 1187.35 620.59 L 1188.041 621.772 L 1189.423 622.954 L 1189.423 624.727 L 1190.804 625.909 L 1190.804 627.091 L 1192.186 628.865 L 1192.186 630.047 L 1193.567 631.229 L 1193.567 633.002 L 1194.948 634.184 L 1194.948 635.366 L 1196.33 637.139 L 1196.33 638.321 L 1197.021 640.094 L 1197.711 641.276 L 1197.711 642.458 L 1199.093 644.232 L 1199.093 645.414 L 1199.783 647.187 L 1199.783 647.778 L 1200.474 649.551 L 1201.165 650.733 L 1201.165 652.506 L 1201.856 653.688 L 1201.856 655.461 L 1202.546 656.643 L 1202.546 658.417 L 1203.237 660.19 L 1203.237 661.372 L 1203.928 663.145 L 1203.928 666.1 L 1204.619 667.282 L 1204.619 670.828 L 1205.309 672.01 L 1205.309 678.512 L 1206 680.285 L 1206 702.744 L 1205.309 704.517 L 1205.309 706.882 L 1204.619 708.655 L 1204.619 711.61 L 1203.928 713.383 L 1203.928 715.156 L 1203.237 716.338 L 1203.237 718.111 L 1202.546 719.884 L 1202.546 721.067 L 1201.856 722.84 L 1201.856 724.613 L 1201.165 726.386 L 1201.165 727.568 L 1199.783 729.341 L 1199.783 731.114 L 1199.093 732.296 L 1199.093 734.069 L 1197.711 735.843 L 1197.711 737.025 L 1197.021 738.798 L 1197.021 740.571 L 1195.639 741.753 L 1195.639 743.526 L 1194.258 744.708 L 1194.258 746.481 L 1192.876 748.254 L 1192.876 749.436 L 1191.495 751.21 L 1191.495 752.983 L 1190.113 754.165 L 1190.113 755.938 L 1188.732 757.12 L 1188.041 758.893 L 1187.35 760.666 L 1186.66 761.848 L 1185.278 763.621 L 1185.278 764.803 L 1183.897 766.577 L 1183.206 767.759 L 1181.825 769.532 L 1181.134 770.714 L 1180.443 772.487 L 1179.062 773.669 L 1178.371 775.442 L 1176.99 776.624 L 1176.299 778.397 L 1174.917 779.579 L 1174.227 780.761 L 1172.845 782.535 L 1172.155 783.717 L 1170.773 785.49 L 1169.392 786.672 L 1168.701 787.854 L 1167.32 789.627 L 1165.938 790.809 L 1165.247 791.991 L 1163.866 793.764 L 1162.484 794.946 L 1161.103 796.128 L 1160.412 797.31 L 1159.031 799.084 L 1157.649 800.266 L 1156.268 801.448 L 1154.887 802.63 L 1153.505 804.403 L 1152.124 805.585 L 1150.742 806.767 L 1149.361 807.949 L 1147.979 809.131 L 1146.598 810.313 L 1145.216 811.495 L 1143.835 812.677 L 1141.763 813.86 L 1140.381 815.042 L 1139 816.224 L 1137.618 817.406 L 1136.237 818.588 L 1134.165 819.77 L 1132.783 820.952 L 1131.402 822.134 L 1129.33 823.316 L 1127.948 824.498 L 1126.567 825.68 L 1124.495 826.271 L 1123.113 827.453 L 1121.041 828.636 L 1119.66 829.818 L 1117.587 830.409 L 1116.206 831.591 L 1114.134 832.773 L 1112.062 833.364 L 1110.68 834.546 L 1108.608 835.728 L 1107.227 836.319 L 1105.154 837.501 L 1103.082 838.092 L 1101.01 839.274 L 1099.629 839.865 L 1097.557 841.047 L 1095.484 841.638 L 1093.412 842.229 L 1091.34 843.411 L 1089.268 844.003 L 1087.196 844.594 L 1085.123 845.776 L 1083.051 846.367 L 1080.979 846.958 L 1078.907 847.549 L 1076.835 848.731 L 1074.763 848.731 L 1072.69 849.913 L 1070.618 850.504 L 1068.546 851.095 L 1066.474 851.686 L 1064.402 852.277 L 1061.639 852.868 L 1059.567 852.868 L 1057.495 854.05 L 1055.422 854.05 L 1052.66 854.641 L 1050.587 855.232 L 1048.515 855.823 L 1045.752 855.823 L 1043.68 856.414 L 1040.917 857.005 L 1038.845 857.005 L 1036.082 857.596 L 1034.01 858.187 L 1031.247 858.187 L 1029.175 858.778 L 1024.34 858.778 L 1021.577 859.369 L 1018.814 859.369 L 1016.742 859.961 L 1006.381 859.961 L 1003.618 860.552 L 962.866 860.552 L 960.103 859.961 L 952.505 859.961 L 950.433 859.369 L 944.907 859.369 L 942.835 858.778 L 938 858.778 L 933.164 857.596 L 927.639 857.596 L 922.804 857.005 L 917.969 856.414 L 913.133 855.232 L 908.298 855.232 L 903.463 854.05 L 898.628 853.459 L 893.793 852.868 L 888.958 851.686 L 884.814 851.095 L 879.979 849.913 L 875.144 849.322 L 870.309 848.14 L 866.164 846.958 L 861.329 846.367 L 856.494 845.185 L 852.35 844.003 L 847.515 842.82 L 843.37 842.229 L 838.535 841.047 L 834.391 839.865 L 829.556 838.683 L 825.412 837.501 L 821.267 836.319 L 816.432 834.546 L 812.288 833.364 L 808.144 832.182 L 803.999 831 L 799.855 829.818 L 795.711 828.044 L 791.566 826.862 L 787.422 825.68 L 783.278 823.907 L 779.133 822.725 L 774.989 821.543 L 771.535 819.77 L 767.391 818.588 L 763.247 816.815 L 759.793 815.633 L 755.649 813.86 L 752.195 812.677 L 748.051 810.904 L 744.597 809.722 L 741.143 807.949 L 736.999 806.767 L 733.546 804.994 L 730.092 803.812 L 726.638 802.039 L 723.185 800.266 L 719.731 799.084 L 716.277 797.31 L 712.824 796.128 L 709.37 794.355 L 705.917 792.582 L 703.154 791.4 L 699.7 789.627 L 696.937 788.445 L 693.484 786.672 L 690.721 785.49 L 687.267 783.717 L 684.504 782.535 L 681.741 780.761 L 678.288 779.579 L 675.525 777.806 L 672.762 776.624 L 669.999 774.851 L 667.236 773.669 L 665.164 771.896 L 659.638 769.532 L 654.803 766.577 L 649.968 763.621 L 645.133 761.257 L 640.989 758.893 L 636.844 755.938 L 632.7 753.574 L 629.246 751.801 L 625.793 749.436 L 622.339 747.072 L 618.886 745.299 L 616.123 743.526 L 614.05 742.344 L 614.05 745.89 L 614.741 748.845 L 614.741 754.165 L 615.432 756.529 L 615.432 792.582 L 614.741 794.355 L 614.741 797.902 L 614.05 799.084 L 614.05 802.63 L 613.36 804.403 L 613.36 806.176 L 612.669 807.949 L 611.978 809.722 L 611.978 811.495 L 611.288 813.269 L 610.597 815.042 L 610.597 816.224 L 609.215 817.997 L 609.215 819.77 L 608.525 821.543 L 607.834 823.316 L 607.143 825.089 L 606.453 826.271 L 605.762 828.044 L 605.071 829.818 L 604.38 831 L 602.999 832.773 L 602.999 834.546 L 601.617 835.728 L 600.927 837.501 L 599.545 838.683 L 598.855 840.456 L 597.473 841.638 L 596.782 843.411 L 595.401 844.594 L 594.02 846.367 L 593.329 847.549 L 591.947 848.731 L 591.257 849.322 L 590.566 849.913 L 589.875 851.095 L 589.184 851.095 L 588.494 852.277 L 587.803 852.277 L 587.112 853.459 L 586.422 853.459 L 585.731 854.641 L 585.04 854.641 L 584.349 855.823 L 582.968 855.823 L 582.968 857.005 L 581.586 857.005 L 581.586 858.187 L 580.205 858.187 L 579.514 858.778 L 578.133 859.369 L 578.133 859.961 L 576.751 859.961 L 576.061 861.143 L 574.679 861.143 L 574.679 861.734 L 573.298 862.325 L 571.916 862.325 L 571.916 862.916 L 570.535 863.507 L 569.153 863.507 L 568.463 864.689 L 566.391 864.689 L 565.7 865.28 L 564.318 865.871 L 563.628 865.871 L 562.246 866.462 L 561.556 866.462 L 560.174 867.053 L 559.483 867.053 L 558.102 867.644 L 556.03 867.644 L 554.648 868.235 L 553.958 868.235 L 552.576 868.826 L 549.123 868.826 L 547.741 869.417 L 542.906 869.417 L 541.525 870.008 L 522.875 870.008 L 521.494 869.417 L 518.731 869.417 L 517.349 868.826 L 513.896 868.826 L 512.514 868.235 L 511.133 868.235 L 509.751 867.644 L 507.679 867.644 L 506.298 867.053 L 504.916 866.462 L 503.535 866.462 L 501.463 865.871 L 500.081 865.871 L 498.7 865.28 L 497.318 865.28 L 495.937 864.098 L 493.865 864.098 L 492.483 863.507 L 491.102 863.507 L 489.72 862.325 L 486.957 862.325 L 485.576 861.734 L 484.195 861.734 L 482.813 860.552 L 481.432 860.552 L 480.05 859.961 L 478.669 859.369 L 477.287 858.778 L 475.906 858.187 L 474.524 857.596 L 473.143 857.005 L 471.762 856.414 L 469.689 855.823 L 468.308 855.232 L 466.926 854.641 L 465.545 854.05 L 464.164 853.459 L 462.782 852.277 L 461.401 852.277 L 460.019 851.095 L 458.638 850.504 L 457.256 849.913 L 455.875 849.322 L 454.493 848.14 L 453.112 847.549 L 451.731 846.958 L 450.349 845.776 L 448.968 845.776 L 447.586 844.594 L 446.205 843.411 L 444.823 842.82 L 443.442 842.229 L 442.06 841.047 L 440.679 840.456 L 439.298 839.274 L 437.916 838.683 L 436.535 837.501 L 435.153 836.91 L 434.463 835.728 L 433.081 835.137 L 431.7 833.955 L 430.318 833.364 L 428.937 832.182 L 427.555 831 L 426.174 830.409 L 424.792 829.227 L 423.411 828.044 L 422.72 827.453 L 421.339 826.271 L 419.957 825.089 L 418.576 823.907 L 417.194 823.316 L 415.813 822.134 L 415.122 820.952 L 413.741 819.77 L 412.359 818.588 L 410.978 817.406 L 409.596 816.815 L 408.906 815.633 L 407.524 814.451 L 406.143 813.269 L 404.761 812.086 L 404.071 810.904 L 402.689 809.722 L 401.308 808.54 L 400.617 807.358 L 399.236 806.176 L 397.854 804.994 L 397.163 803.812 L 395.782 802.63 L 394.401 800.857 L 393.71 799.675 L 392.328 798.493 L 391.638 797.31 L 390.256 796.128 L 388.875 794.946 L 388.184 793.173 L 386.803 791.991 L 386.112 790.809 L 384.73 789.627 L 384.04 787.854 L 382.658 786.672 L 381.968 785.49 L 380.586 783.717 L 379.895 782.535 L 378.514 781.352 L 377.823 779.579 L 376.442 778.397 L 376.442 777.215 L 375.06 775.442 L 373.679 774.26 L 372.988 772.487 L 372.297 771.305 L 370.916 769.532 L 370.225 768.35 L 369.535 766.577 L 368.153 765.394 L 368.153 763.621 L 366.772 762.439 L 366.081 760.666 L 364.7 758.893 L 364.7 757.711 L 363.318 755.938 L 362.627 754.756 L 361.937 752.983 L 360.555 751.21 L 360.555 750.027 L 359.174 748.254 L 359.174 746.481 L 357.792 744.708 L 357.102 743.526 L 356.411 741.753 L 355.72 739.98 L 355.029 738.207 L 354.339 737.025 L 353.648 735.251 L 352.957 733.478 L 352.266 731.705 L 351.576 729.932 L 351.576 728.159 L 350.194 726.386 L 350.194 725.204 L 348.813 723.431 L 348.813 721.658 L 348.122 719.884 L 347.431 718.111 L 347.431 716.338 L 346.05 714.565 L 346.05 712.792 L 345.359 711.019 L 345.359 709.246 L 344.669 706.882 L 343.978 705.109 L 343.978 703.335 L 343.287 701.562 L 343.287 699.198 L 341.906 697.425 L 341.906 693.879 L 341.215 692.106 L 341.215 690.333 L 340.524 688.559 L 340.524 686.195 L 339.833 684.422 L 339.833 680.876 L 339.143 679.103 L 339.143 674.966 L 338.452 673.192 L 338.452 669.055 L 337.761 667.282 L 337.761 657.234 L 337.071 655.461 L 337.071 629.456 L 337.761 627.091 L 337.761 622.954 L 338.452 621.181 L 338.452 616.453 L 339.143 614.68 L 339.143 612.316 L 339.833 610.542 L 339.833 605.814 L 340.524 604.041 L 341.215 601.677 L 341.215 599.313 L 341.906 597.54 L 341.906 595.175 L 342.596 592.811 L 343.287 590.447 L 343.287 588.674 L 344.669 586.31 L 344.669 583.946 L 345.359 582.173 L 346.05 579.808 L 346.05 576.853 L 347.431 574.489 L 347.431 572.125 L 348.813 570.352 L 348.813 567.988 L 350.194 565.624 L 350.194 563.259 L 351.576 560.895 L 351.576 559.122 L 352.957 557.349 L 353.648 554.985 L 354.339 552.621 L 355.029 550.257 L 356.411 547.892 L 357.102 545.528 L 357.792 543.164 L 359.174 540.8 L 359.174 538.436 L 360.555 536.663 L 361.937 534.299 L 362.627 531.934 L 364.009 529.57 L 364.7 527.206 L 366.081 524.842 L 366.772 522.478 L 368.153 520.114 L 369.535 517.749 L 370.225 515.385 L 371.607 513.021 L 372.988 510.657 L 373.679 508.293 L 375.06 505.929 L 376.442 503.565 L 377.823 501.2 L 379.205 498.836 L 380.586 496.472 L 381.968 493.517 L 383.349 491.153 L 384.73 488.789 L 386.112 486.424 L 387.493 484.06 L 388.875 482.287 L 390.256 479.923 L 390.947 478.15 L 392.328 476.377 L 393.71 474.604 L 395.091 472.831 L 396.473 471.057 L 397.854 469.284 L 399.236 468.102 L 399.926 466.329 L 401.308 465.147 L 402.689 463.374 L 404.071 462.192 L 405.452 461.01 L 406.834 459.828 L 408.215 458.646 L 409.596 457.464 L 410.978 456.281 L 411.669 455.099 L 413.05 453.917 L 414.432 453.326 L 415.813 452.144 L 417.194 451.553 L 418.576 450.371 L 419.267 449.78 L 420.648 449.189 L 422.03 448.007 L 423.411 448.007 L 424.102 446.825 L 425.483 446.825 L 426.865 445.643 L 427.555 445.643 L 428.937 444.461 L 430.318 444.461 L 431.009 443.87 L 432.39 443.87 L 433.081 443.279 L 434.463 442.688 L 435.153 442.688 L 435.844 442.097 L 437.225 442.097 L 437.916 441.506 L 439.988 441.506 L 439.988 440.914 L 441.37 440.914 L 441.37 437.368 L 439.988 434.413 L 439.988 431.458 L 439.298 427.912 L 438.607 424.365 L 437.916 420.228 L 437.225 416.091 L 437.225 411.363 L 436.535 406.634 L 435.844 401.315 L 435.844 399.542 L 435.153 396.587 L 435.153 390.676 L 434.463 388.312 L 434.463 385.357 L 433.772 381.811 L 433.772 375.9 L 433.081 372.945 L 433.081 366.444 L 432.39 362.897 L 432.39 348.713 L 431.7 345.166 L 431.7 303.794 L 432.39 299.656 L 432.39 291.382 L 433.081 287.836 L 433.081 283.698 L 433.772 279.561 L 434.463 275.424 L 434.463 271.287 L 435.153 267.149 L 435.844 263.012 L 436.535 258.875 L 437.225 254.737 L 437.916 250.6 L 438.607 245.872 L 439.298 241.735 L 439.988 237.597 L 440.679 233.46 L 442.06 229.323 L 442.751 225.186 L 444.133 220.457 L 444.823 216.32 L 446.205 212.183 L 446.205 209.819 L 446.896 208.045 L 447.586 205.681 L 448.277 203.317 L 448.968 201.544 L 448.968 198.589 L 450.349 196.225 L 450.349 194.452 L 451.731 192.087 L 451.731 190.314 L 453.112 187.95 L 453.112 185.586 L 454.493 183.813 L 455.184 181.449 L 455.875 179.085 L 456.566 177.311 L 457.256 174.947 L 458.638 173.174 L 458.638 170.81 L 460.019 168.446 L 460.71 166.673 L 461.401 164.309 L 462.782 162.535 L 463.473 160.171 L 464.164 158.398 L 465.545 156.034 L 466.236 153.67 L 466.926 151.897 L 468.308 149.533 L 468.999 147.76 L 470.38 145.395 L 471.071 143.622 L 472.452 141.258 L 473.143 139.485 L 474.524 137.121 L 475.215 135.348 L 476.597 132.984 L 477.978 131.21 L 478.669 128.846 L 480.05 127.073 L 481.432 124.709 L 482.813 122.936 L 483.504 120.572 L 484.885 118.799 L 486.267 117.026 L 487.648 114.661 L 489.03 112.888 L 490.411 110.524 L 491.793 108.751 L 492.483 106.978 L 493.865 104.614 L 495.246 102.841 L 497.318 101.068 L 498.7 98.703 L 500.081 96.93 L 501.463 95.157 L 502.844 92.793 L 504.226 91.02 L 505.607 89.247 L 507.679 87.474 L 509.061 85.109 L 510.442 83.336 L 512.514 81.563 L 513.896 79.79 L 515.277 78.017 L 517.349 76.244 L 518.731 73.88 L 520.803 72.107 L 522.184 70.334 L 524.256 68.56 L 525.638 66.787 L 527.71 65.014 L 529.782 63.241 L 531.164 61.468 L 533.236 59.695 L 535.308 57.922 L 536.69 56.149 L 538.762 54.376 L 540.834 52.602 L 542.906 50.829 L 544.978 49.647 L 547.05 47.874 L 549.123 46.101 L 551.195 44.328 L 553.267 42.555 L 555.339 41.373 L 557.411 39.6 L 559.483 37.826 L 561.556 36.053 L 563.628 34.871 L 565.7 33.098 L 568.463 31.325 L 570.535 30.143 L 572.607 28.961 L 574.679 27.188 L 576.751 27.188 L 578.824 26.006 L 580.896 24.233 L 582.968 23.05 L 585.04 21.868 L 587.112 20.686 L 589.184 19.504 L 591.257 18.322 L 593.329 17.731 L 595.401 16.549 L 597.473 15.367 L 599.545 14.776 L 600.927 13.594 L 602.999 12.412 L 605.071 11.821 L 607.143 11.23 L 609.215 10.048 L 610.597 9.457 L 612.669 8.866 L 614.741 8.275 L 616.123 7.092 L 618.195 7.092 L 620.267 5.91 L 621.648 5.91 L 623.721 5.319 L 625.102 3.546 L 629.246 3.546 L 630.628 2.955 L 632.7 2.364 L 634.081 2.364 L 636.154 1.773 L 637.535 1.773 L 639.607 1.182 L 644.442 1.182 L 645.824 0 L 652.731 0 L 652.731 0.591 Z  M 649.277 6.501 L 640.298 6.501 L 638.916 7.683 L 635.463 7.683 L 634.081 8.275 L 632.7 8.866 L 630.628 8.866 L 629.246 9.457 L 625.102 9.457 L 623.721 10.639 L 621.648 10.639 L 620.267 11.821 L 618.195 11.821 L 618.195 13.594 L 616.123 13.594 L 614.05 14.776 L 612.669 15.367 L 610.597 15.958 L 608.525 17.14 L 607.143 17.731 L 605.071 18.913 L 602.999 19.504 L 601.617 20.686 L 599.545 21.277 L 597.473 22.459 L 595.401 23.642 L 594.02 24.824 L 591.947 25.415 L 589.875 26.597 L 587.803 27.779 L 585.731 28.961 L 583.659 30.734 L 581.586 31.916 L 579.514 33.098 L 577.442 34.28 L 575.37 36.053 L 573.298 37.235 L 569.844 39.009 L 568.463 39.009 L 565.7 40.782 L 563.628 42.555 L 561.556 43.737 L 559.483 45.51 L 557.411 47.283 L 555.339 48.465 L 553.267 50.238 L 551.885 52.011 L 549.813 53.784 L 547.741 54.967 L 545.669 56.74 L 543.597 58.513 L 542.215 60.286 L 540.143 62.059 L 538.071 63.832 L 536.69 65.605 L 534.617 67.378 L 532.545 69.151 L 531.164 70.925 L 529.092 72.698 L 527.71 74.471 L 525.638 76.244 L 524.256 78.017 L 522.875 79.79 L 520.803 81.563 L 519.421 83.336 L 517.349 85.109 L 515.968 86.883 L 514.586 88.656 L 513.205 90.429 L 511.823 92.202 L 509.751 94.566 L 508.37 96.339 L 506.988 98.112 L 505.607 99.885 L 504.226 102.25 L 502.844 104.023 L 501.463 105.796 L 500.081 107.569 L 498.7 109.933 L 497.318 111.706 L 495.937 113.479 L 494.555 115.252 L 493.174 117.617 L 492.483 119.39 L 491.102 121.754 L 489.72 123.527 L 488.339 125.3 L 487.648 127.664 L 486.267 129.437 L 484.885 131.21 L 484.195 133.575 L 482.813 135.348 L 481.432 137.712 L 480.741 139.485 L 479.36 141.849 L 478.669 143.622 L 477.287 145.986 L 476.597 147.76 L 475.215 149.533 L 474.524 151.897 L 473.834 153.67 L 472.452 156.034 L 471.762 157.807 L 471.071 160.171 L 469.689 161.944 L 468.999 164.309 L 468.308 166.673 L 466.926 168.446 L 466.926 170.81 L 465.545 172.583 L 464.854 174.947 L 464.164 176.72 L 463.473 179.085 L 462.091 180.858 L 462.091 183.222 L 460.71 185.586 L 460.71 187.359 L 459.329 189.723 L 459.329 191.496 L 457.947 193.861 L 457.947 195.634 L 456.566 197.998 L 456.566 200.362 L 455.875 202.135 L 455.184 204.499 L 454.493 206.272 L 453.803 208.636 L 453.112 210.41 L 453.112 212.774 L 451.731 216.911 L 450.349 221.048 L 449.658 225.186 L 448.277 229.914 L 448.277 234.051 L 446.896 238.188 L 446.205 242.326 L 445.514 246.463 L 444.823 250.6 L 444.133 254.737 L 443.442 258.875 L 442.751 263.012 L 442.751 267.149 L 441.37 271.287 L 441.37 279.561 L 440.679 283.698 L 440.679 287.245 L 439.988 291.382 L 439.988 295.519 L 439.298 299.656 L 439.298 307.34 L 438.607 310.886 L 438.607 362.306 L 439.298 365.262 L 439.298 374.718 L 439.988 378.264 L 439.988 381.22 L 440.679 384.175 L 440.679 390.085 L 441.37 392.449 L 441.37 395.405 L 442.06 398.36 L 442.06 400.724 L 443.442 406.043 L 443.442 410.772 L 444.823 415.5 L 444.823 419.637 L 445.514 423.774 L 446.205 427.321 L 446.896 430.867 L 446.896 433.822 L 448.277 436.186 L 448.277 438.55 L 448.968 440.914 L 448.968 442.688 L 449.658 445.052 L 449.658 445.643 L 444.823 445.643 L 443.442 446.234 L 442.06 446.234 L 442.06 446.825 L 439.988 446.825 L 439.298 447.416 L 438.607 447.416 L 437.225 448.007 L 436.535 448.007 L 435.844 448.598 L 434.463 448.598 L 433.772 449.189 L 433.081 449.78 L 431.7 449.78 L 431.009 450.962 L 429.627 450.962 L 428.937 452.144 L 427.555 452.144 L 426.174 453.326 L 425.483 453.326 L 424.102 454.508 L 423.411 455.099 L 422.03 455.69 L 420.648 456.873 L 419.957 457.464 L 418.576 458.646 L 417.194 459.237 L 415.813 460.419 L 415.122 461.601 L 413.741 462.783 L 412.359 463.374 L 410.978 464.556 L 410.287 465.738 L 408.906 467.511 L 407.524 468.693 L 406.143 469.875 L 405.452 471.648 L 404.071 472.831 L 402.689 474.604 L 401.308 475.786 L 399.926 477.559 L 399.236 479.332 L 397.854 481.105 L 396.473 482.878 L 395.091 484.651 L 394.401 487.015 L 393.019 489.38 L 391.638 491.744 L 390.256 494.108 L 388.875 496.472 L 387.493 498.836 L 386.112 501.2 L 384.73 503.565 L 383.349 505.929 L 381.968 508.293 L 380.586 510.657 L 379.895 513.021 L 378.514 515.385 L 377.133 517.749 L 376.442 520.114 L 375.06 522.478 L 373.679 524.251 L 372.988 526.615 L 371.607 528.979 L 370.916 531.343 L 369.535 533.707 L 368.844 536.072 L 368.153 538.436 L 366.772 540.8 L 366.081 543.164 L 365.39 544.937 L 364.009 547.301 L 363.318 549.665 L 362.627 552.03 L 361.937 554.394 L 360.555 556.758 L 360.555 558.531 L 359.174 560.895 L 359.174 563.259 L 357.792 565.624 L 357.102 567.397 L 357.102 569.761 L 355.72 572.125 L 355.72 574.489 L 354.339 576.262 L 354.339 578.626 L 353.648 580.991 L 352.957 583.355 L 352.266 585.128 L 352.266 587.492 L 351.576 589.856 L 350.885 591.629 L 350.885 593.993 L 349.504 596.358 L 349.504 600.495 L 348.813 602.268 L 348.813 604.632 L 348.122 606.996 L 348.122 608.769 L 347.431 611.133 L 347.431 612.907 L 346.741 615.271 L 346.741 617.044 L 346.05 619.408 L 346.05 625.318 L 345.359 627.683 L 345.359 635.957 L 344.669 637.73 L 344.669 667.282 L 345.359 669.055 L 345.359 674.966 L 346.05 676.739 L 346.05 680.876 L 346.741 682.649 L 346.741 684.422 L 347.431 686.195 L 347.431 687.968 L 348.122 689.742 L 348.122 691.515 L 348.813 693.879 L 348.813 695.652 L 349.504 697.425 L 349.504 699.198 L 350.194 700.971 L 350.194 702.744 L 351.576 704.517 L 351.576 708.064 L 352.957 709.837 L 352.957 712.792 L 354.339 714.565 L 354.339 716.338 L 355.029 718.111 L 355.72 719.884 L 355.72 721.658 L 357.102 723.431 L 357.102 725.204 L 357.792 726.386 L 358.483 728.159 L 359.174 729.932 L 359.864 731.705 L 360.555 733.478 L 361.246 734.66 L 361.937 736.434 L 362.627 738.207 L 363.318 739.98 L 364.009 741.162 L 364.7 742.935 L 365.39 744.708 L 366.081 745.89 L 366.772 747.663 L 367.462 748.845 L 368.844 750.618 L 368.844 752.392 L 370.225 753.574 L 370.916 755.347 L 371.607 756.529 L 372.297 758.302 L 373.679 759.484 L 373.679 761.257 L 375.06 762.439 L 375.751 764.212 L 377.133 765.394 L 377.133 767.168 L 378.514 768.35 L 379.895 770.123 L 379.895 771.305 L 381.277 772.487 L 382.658 774.26 L 382.658 775.442 L 384.04 776.624 L 385.421 778.397 L 386.112 779.579 L 387.493 780.761 L 388.184 782.535 L 388.875 783.717 L 390.256 784.899 L 390.947 786.081 L 392.328 787.263 L 393.019 789.036 L 394.401 790.218 L 395.091 791.4 L 396.473 792.582 L 397.163 793.764 L 398.545 794.946 L 399.926 796.128 L 400.617 797.902 L 401.999 799.084 L 402.689 800.266 L 404.071 801.448 L 405.452 802.63 L 406.143 803.812 L 407.524 804.994 L 408.906 806.176 L 409.596 806.767 L 410.978 807.949 L 412.359 809.131 L 413.05 810.313 L 414.432 811.495 L 415.813 812.677 L 416.504 813.86 L 417.885 815.042 L 419.267 815.633 L 420.648 816.815 L 421.339 817.997 L 422.72 819.179 L 424.102 819.77 L 425.483 820.952 L 426.174 822.134 L 427.555 822.725 L 428.937 823.907 L 430.318 825.089 L 431.7 825.68 L 432.39 826.862 L 433.772 828.044 L 435.153 828.636 L 436.535 829.818 L 437.916 830.409 L 439.298 831.591 L 440.679 832.182 L 441.37 833.364 L 442.751 833.955 L 444.133 834.546 L 445.514 835.728 L 446.896 836.319 L 448.277 837.501 L 449.658 838.092 L 451.04 838.683 L 452.421 839.865 L 453.803 840.456 L 454.493 841.047 L 455.875 842.229 L 457.256 842.229 L 458.638 843.411 L 460.019 844.003 L 461.401 844.594 L 462.782 845.776 L 464.164 845.776 L 465.545 846.958 L 466.926 846.958 L 468.308 848.14 L 469.689 848.731 L 471.071 849.322 L 472.452 849.913 L 473.834 850.504 L 475.215 851.095 L 476.597 851.686 L 477.978 852.277 L 479.36 852.868 L 480.741 852.868 L 482.122 854.05 L 483.504 854.05 L 484.885 854.641 L 486.267 855.232 L 487.648 855.823 L 489.03 855.823 L 490.411 857.005 L 491.793 857.005 L 493.174 857.596 L 494.555 857.596 L 495.937 858.187 L 497.318 858.778 L 498.7 858.778 L 500.081 859.369 L 501.463 859.369 L 502.844 859.961 L 504.226 860.552 L 505.607 860.552 L 506.988 861.143 L 508.37 861.143 L 509.751 861.734 L 512.514 861.734 L 513.896 862.325 L 515.277 862.325 L 516.659 862.916 L 519.421 862.916 L 520.803 863.507 L 526.329 863.507 L 527.71 864.098 L 547.741 864.098 L 549.123 863.507 L 551.885 863.507 L 553.267 862.916 L 553.958 862.916 L 555.339 862.325 L 557.411 862.325 L 558.102 861.734 L 559.483 861.734 L 560.174 861.143 L 560.865 861.143 L 562.246 860.552 L 562.937 860.552 L 563.628 859.961 L 565.009 859.961 L 565.009 859.369 L 566.391 859.369 L 567.081 858.187 L 568.463 858.187 L 569.844 857.596 L 570.535 857.005 L 571.226 857.005 L 571.916 855.823 L 573.298 855.823 L 573.298 855.232 L 574.679 855.232 L 575.37 854.05 L 576.061 854.05 L 576.751 853.459 L 577.442 853.459 L 578.133 852.277 L 578.824 852.277 L 579.514 851.095 L 580.205 851.095 L 580.896 850.504 L 581.586 849.913 L 582.277 849.322 L 582.968 848.731 L 582.968 848.14 L 584.349 848.14 L 584.349 846.958 L 585.04 846.958 L 585.731 845.776 L 586.422 845.776 L 587.803 844.003 L 588.494 842.82 L 589.875 841.638 L 590.566 840.456 L 591.947 838.683 L 592.638 837.501 L 594.02 836.319 L 594.71 834.546 L 595.401 833.364 L 596.092 832.182 L 597.473 830.409 L 597.473 829.227 L 598.855 827.453 L 598.855 825.68 L 600.236 824.498 L 600.236 822.725 L 601.617 821.543 L 601.617 819.77 L 602.308 817.997 L 602.999 816.815 L 602.999 815.042 L 603.69 813.269 L 604.38 811.495 L 604.38 810.313 L 605.071 808.54 L 605.762 806.767 L 605.762 804.994 L 606.453 803.812 L 606.453 800.266 L 607.143 798.493 L 607.143 796.719 L 607.834 794.946 L 607.834 790.218 L 608.525 788.445 L 608.525 780.17 L 609.215 778.988 L 609.215 754.756 L 608.525 752.392 L 608.525 747.072 L 607.834 745.299 L 607.834 742.935 L 607.143 740.571 L 607.143 737.025 L 606.453 735.843 L 606.453 732.887 L 605.071 731.114 L 605.071 729.341 L 607.143 730.523 L 609.906 732.296 L 611.288 733.478 L 613.36 734.66 L 615.432 736.434 L 617.504 737.616 L 620.267 739.389 L 623.03 741.162 L 626.483 743.526 L 629.246 745.299 L 632.7 747.663 L 636.844 749.436 L 640.298 751.801 L 644.442 754.756 L 649.277 757.12 L 653.422 759.484 L 658.257 762.439 L 663.092 764.803 L 668.618 767.759 L 671.38 768.941 L 673.453 770.714 L 676.216 771.896 L 678.978 773.669 L 681.741 774.851 L 685.195 776.624 L 687.958 777.806 L 690.721 779.579 L 693.484 780.761 L 696.937 782.535 L 699.7 783.717 L 703.154 785.49 L 705.917 786.672 L 709.37 788.445 L 712.824 789.627 L 716.277 791.4 L 719.04 793.173 L 722.494 794.355 L 725.948 796.128 L 729.401 797.31 L 732.855 799.084 L 736.308 800.266 L 740.453 802.039 L 743.906 803.221 L 747.36 804.994 L 750.814 806.176 L 754.958 807.949 L 758.412 809.131 L 762.556 810.904 L 766.01 812.086 L 770.154 813.86 L 773.607 815.042 L 777.752 816.815 L 781.896 817.997 L 786.04 819.179 L 789.494 820.952 L 793.638 822.134 L 797.783 823.316 L 801.927 824.498 L 806.071 826.271 L 810.216 827.453 L 814.36 828.636 L 819.195 829.818 L 823.34 831 L 827.484 832.182 L 831.628 833.364 L 836.463 834.546 L 840.608 835.728 L 844.752 836.91 L 849.587 838.092 L 853.731 839.274 L 858.566 840.456 L 862.711 841.047 L 867.546 842.229 L 872.381 843.411 L 876.525 844.003 L 881.36 845.185 L 886.195 845.776 L 890.34 846.958 L 895.175 847.549 L 900.01 848.14 L 904.845 848.731 L 909.68 849.913 L 914.515 849.913 L 919.35 851.095 L 924.185 851.095 L 929.02 852.277 L 933.855 852.277 L 938.69 852.868 L 943.525 853.459 L 948.36 853.459 L 950.433 854.05 L 956.649 854.05 L 958.721 854.641 L 968.391 854.641 L 970.463 855.232 L 1016.051 855.232 L 1018.814 854.641 L 1023.649 854.641 L 1025.721 854.05 L 1028.484 854.05 L 1030.556 853.459 L 1032.629 853.459 L 1035.391 852.868 L 1037.464 852.868 L 1040.227 852.277 L 1042.299 851.686 L 1044.371 851.686 L 1046.443 851.095 L 1049.206 850.504 L 1051.278 849.913 L 1053.35 849.913 L 1055.422 848.731 L 1057.495 848.731 L 1060.257 848.14 L 1062.33 847.549 L 1064.402 846.958 L 1066.474 846.367 L 1068.546 845.776 L 1070.618 845.185 L 1072.69 844.594 L 1074.763 843.411 L 1076.835 843.411 L 1078.907 842.229 L 1080.979 842.229 L 1083.051 841.047 L 1084.433 840.456 L 1086.505 839.274 L 1088.577 839.274 L 1090.649 838.092 L 1092.721 836.91 L 1094.103 836.319 L 1096.175 835.728 L 1098.247 834.546 L 1099.629 833.955 L 1101.701 832.773 L 1103.773 832.182 L 1105.154 831 L 1107.227 830.409 L 1108.608 829.227 L 1110.68 828.636 L 1112.062 827.453 L 1114.134 826.271 L 1115.515 825.68 L 1117.587 824.498 L 1118.969 823.316 L 1120.35 822.725 L 1122.423 821.543 L 1123.804 820.361 L 1125.185 819.179 L 1127.258 817.997 L 1128.639 817.406 L 1130.02 816.224 L 1131.402 815.042 L 1132.783 813.86 L 1134.856 812.677 L 1136.237 811.495 L 1137.618 810.313 L 1139 809.131 L 1140.381 807.949 L 1141.763 806.767 L 1143.144 805.585 L 1144.526 804.403 L 1145.907 803.221 L 1147.289 802.039 L 1148.67 800.857 L 1150.051 799.675 L 1151.433 798.493 L 1152.124 797.31 L 1153.505 795.537 L 1154.887 794.355 L 1156.268 793.173 L 1156.959 791.991 L 1158.34 790.809 L 1159.722 789.036 L 1161.103 787.854 L 1161.794 786.672 L 1163.175 785.49 L 1163.866 783.717 L 1165.247 782.535 L 1166.629 781.352 L 1167.32 780.17 L 1168.701 778.397 L 1169.392 777.215 L 1170.082 776.033 L 1171.464 774.26 L 1172.155 773.078 L 1173.536 771.305 L 1174.227 770.123 L 1174.917 768.941 L 1176.299 767.168 L 1176.99 765.985 L 1177.68 764.212 L 1178.371 763.03 L 1179.753 761.257 L 1179.753 760.075 L 1181.134 758.893 L 1181.825 757.12 L 1182.515 755.938 L 1183.206 754.165 L 1183.897 752.392 L 1184.588 751.21 L 1185.278 749.436 L 1185.969 748.254 L 1186.66 746.481 L 1187.35 745.299 L 1188.041 743.526 L 1188.732 742.344 L 1189.423 740.571 L 1189.423 739.389 L 1190.804 737.616 L 1190.804 735.843 L 1191.495 734.66 L 1191.495 732.887 L 1192.876 731.705 L 1192.876 729.932 L 1193.567 728.75 L 1193.567 726.977 L 1194.258 725.204 L 1194.258 724.022 L 1194.948 722.249 L 1194.948 721.067 L 1195.639 719.293 L 1195.639 717.52 L 1196.33 716.338 L 1196.33 714.565 L 1197.021 713.383 L 1197.021 711.61 L 1197.711 709.837 L 1197.711 706.882 L 1198.402 705.7 L 1198.402 699.198 L 1199.093 698.016 L 1199.093 671.419 L 1198.402 669.646 L 1198.402 666.691 L 1197.711 665.509 L 1197.711 662.554 L 1197.021 660.781 L 1197.021 659.599 L 1196.33 657.825 L 1196.33 656.643 L 1195.639 655.461 L 1195.639 653.688 L 1194.948 652.506 L 1194.258 650.733 L 1194.258 649.551 L 1193.567 648.369 L 1192.876 646.596 L 1192.876 645.414 L 1192.186 643.641 L 1191.495 642.458 L 1191.495 641.276 L 1190.113 639.503 L 1190.113 638.321 L 1189.423 637.139 L 1188.732 635.957 L 1188.041 634.184 L 1187.35 633.002 L 1186.66 631.82 L 1185.969 630.638 L 1185.278 628.865 L 1184.588 627.683 L 1183.897 626.5 L 1183.206 625.318 L 1182.515 624.136 L 1181.134 622.954 L 1181.134 621.181 L 1179.753 619.999 L 1179.062 618.817 L 1178.371 617.635 L 1176.99 616.453 L 1176.99 615.271 L 1175.608 614.089 L 1174.917 612.907 L 1173.536 611.725 L 1172.845 610.542 L 1171.464 609.36 L 1170.773 608.178 L 1170.082 606.996 L 1168.701 606.405 L 1167.32 605.223 L 1166.629 604.041 L 1165.247 602.859 L 1164.557 601.677 L 1163.175 600.495 L 1162.484 599.904 L 1161.103 598.722 L 1159.722 597.54 L 1158.34 596.358 L 1157.649 595.766 L 1156.268 594.584 L 1154.887 593.993 L 1153.505 592.811 L 1152.814 591.629 L 1151.433 591.038 L 1150.051 589.856 L 1148.67 589.265 L 1147.289 588.083 L 1145.907 587.492 L 1144.526 586.31 L 1143.144 585.719 L 1141.763 585.128 L 1140.381 583.946 L 1139 583.355 L 1137.618 582.764 L 1135.546 581.582 L 1134.165 580.991 L 1132.783 580.399 L 1131.402 579.808 L 1130.02 578.626 L 1127.948 578.626 L 1126.567 577.444 L 1125.185 576.853 L 1123.113 576.262 L 1121.732 575.671 L 1119.66 575.08 L 1118.278 574.489 L 1116.897 573.898 L 1114.825 573.307 L 1113.443 573.307 L 1111.371 572.125 L 1109.99 572.125 L 1107.917 571.534 L 1105.845 570.943 L 1102.392 569.761 L 1098.938 569.17 L 1095.484 567.988 L 1092.031 567.397 L 1088.577 566.215 L 1085.123 565.032 L 1081.67 564.441 L 1078.216 563.259 L 1074.763 562.077 L 1071.309 560.895 L 1068.546 560.304 L 1065.093 559.122 L 1061.639 557.94 L 1058.876 556.758 L 1055.422 555.576 L 1052.66 554.394 L 1049.206 553.212 L 1046.443 552.03 L 1043.68 550.848 L 1040.227 549.665 L 1037.464 548.483 L 1034.701 547.301 L 1031.938 546.119 L 1029.175 544.937 L 1026.412 543.755 L 1023.649 541.982 L 1020.886 540.8 L 1018.123 539.618 L 1015.36 538.436 L 1012.598 537.254 L 1009.835 536.072 L 1007.763 534.299 L 1005 533.116 L 1002.237 531.934 L 1000.165 530.752 L 997.402 528.979 L 995.33 527.797 L 992.567 526.615 L 990.494 525.433 L 988.422 523.66 L 985.659 522.478 L 983.587 521.296 L 981.515 519.523 L 979.443 518.34 L 977.371 517.158 L 975.299 515.385 L 973.226 514.203 L 971.154 513.021 L 969.082 511.248 L 967.01 510.066 L 964.938 508.884 L 962.866 507.111 L 960.793 505.929 L 959.412 504.747 L 957.34 503.565 L 955.268 501.791 L 953.886 500.609 L 951.814 499.427 L 949.742 497.654 L 948.36 496.472 L 946.979 495.29 L 944.907 494.108 L 943.525 492.335 L 942.144 491.153 L 940.072 489.971 L 938.69 488.789 L 937.309 487.606 L 935.927 485.833 L 934.546 484.651 L 933.164 483.469 L 929.711 481.105 L 927.639 478.741 L 924.876 476.377 L 922.113 474.013 L 920.041 471.648 L 917.969 469.284 L 915.896 466.92 L 913.824 464.556 L 911.752 462.783 L 909.68 461.01 L 908.298 458.646 L 906.226 456.873 L 904.845 455.099 L 903.463 453.326 L 902.082 451.553 L 900.7 450.371 L 900.01 448.598 L 898.628 447.416 L 898.628 446.825 L 897.247 445.643 L 896.556 444.461 L 895.175 442.688 L 894.484 441.506 L 893.793 440.914 L 893.793 437.368 L 894.484 437.368 L 894.484 436.186 L 895.175 435.595 L 895.175 434.413 L 895.865 433.822 L 895.865 433.231 L 896.556 432.049 L 897.938 430.867 L 897.938 429.094 L 899.319 428.503 L 899.319 427.912 L 900.01 426.73 L 900.7 426.73 L 900.7 425.547 L 902.082 424.956 L 902.082 423.183 L 903.463 423.183 L 903.463 422.001 L 904.845 421.41 L 904.845 420.228 L 906.226 419.637 L 906.226 419.046 L 908.298 417.273 L 909.68 416.091 L 911.061 414.318 L 913.133 413.136 L 914.515 411.363 L 916.587 410.18 L 917.969 408.998 L 920.041 407.225 L 922.113 406.043 L 923.494 404.861 L 925.567 403.088 L 927.639 401.906 L 929.711 400.724 L 931.092 399.542 L 933.164 397.769 L 935.237 396.587 L 937.309 395.405 L 939.381 394.222 L 941.453 393.04 L 942.835 391.858 L 944.907 390.676 L 946.979 389.494 L 949.051 388.312 L 950.433 387.721 L 952.505 386.539 L 954.577 385.357 L 958.03 383.584 L 961.484 381.811 L 964.247 380.038 L 967.701 378.855 L 970.463 377.082 L 972.536 375.9 L 974.608 375.309 L 976.68 374.127 L 979.443 372.945 L 980.134 372.945 L 982.897 371.763 L 985.659 370.581 L 988.422 369.99 L 990.494 368.808 L 993.257 368.217 L 996.02 367.035 L 998.092 366.444 L 1000.165 365.262 L 1002.927 364.671 L 1005 363.488 L 1007.072 362.306 L 1009.144 361.715 L 1011.216 360.533 L 1013.288 359.351 L 1015.36 358.76 L 1017.433 357.578 L 1018.814 356.396 L 1020.886 355.805 L 1022.958 354.623 L 1024.34 353.441 L 1026.412 352.85 L 1027.793 351.668 L 1029.175 350.486 L 1030.556 349.895 L 1032.629 348.713 L 1034.01 347.53 L 1035.391 346.348 L 1036.773 345.757 L 1038.154 344.575 L 1038.845 343.393 L 1040.227 342.211 L 1041.608 341.62 L 1042.299 340.438 L 1043.68 339.256 L 1045.062 338.665 L 1045.752 337.483 L 1047.134 336.301 L 1047.134 335.119 L 1048.515 334.528 L 1049.206 333.346 L 1050.587 332.163 L 1050.587 330.981 L 1051.969 330.39 L 1052.66 329.208 L 1053.35 328.026 L 1054.041 326.844 L 1054.041 326.253 L 1055.422 325.071 L 1055.422 323.889 L 1056.113 323.298 L 1056.804 322.116 L 1056.804 320.934 L 1057.495 320.343 L 1058.185 319.161 L 1058.185 317.979 L 1058.876 317.387 L 1058.876 316.796 L 1059.567 315.614 L 1059.567 313.841 L 1060.257 312.659 L 1060.257 310.886 L 1060.948 310.295 L 1060.948 304.385 L 1061.639 303.794 L 1061.639 295.519 L 1060.948 294.337 L 1060.948 291.382 L 1060.257 290.2 L 1059.567 289.018 L 1059.567 287.245 L 1058.876 286.062 L 1058.876 284.88 L 1057.495 283.698 L 1057.495 281.925 L 1056.113 280.743 L 1056.113 278.97 L 1054.732 278.379 L 1054.732 277.788 L 1054.041 276.606 L 1054.041 275.424 L 1053.35 275.424 L 1051.969 273.651 L 1050.587 272.469 L 1049.206 271.287 L 1047.824 270.104 L 1046.443 268.922 L 1045.752 267.74 L 1044.371 266.558 L 1042.989 265.376 L 1041.608 264.194 L 1040.227 263.012 L 1038.845 261.83 L 1037.464 260.648 L 1036.082 259.466 L 1035.391 258.284 L 1034.01 257.102 L 1032.629 256.511 L 1031.247 255.328 L 1029.866 254.146 L 1028.484 252.964 L 1027.103 252.373 L 1025.721 251.191 L 1024.34 250.009 L 1022.958 249.418 L 1021.577 248.236 L 1020.196 247.054 L 1018.814 246.463 L 1017.433 245.281 L 1016.051 244.099 L 1014.67 243.508 L 1013.288 242.326 L 1011.907 241.735 L 1009.835 240.553 L 1008.453 239.961 L 1007.072 239.37 L 1005.69 238.188 L 1004.309 237.597 L 1002.927 236.415 L 1001.546 235.824 L 1000.165 235.233 L 998.092 234.051 L 996.711 234.051 L 995.33 233.46 L 993.948 232.278 L 992.567 231.687 L 991.185 231.096 L 989.804 230.505 L 987.732 229.323 L 986.35 229.323 L 983.587 227.55 L 980.134 226.368 L 977.371 224.595 L 974.608 223.412 L 971.154 222.23 L 968.391 221.048 L 964.938 219.866 L 962.175 218.684 L 958.721 218.093 L 956.649 216.32 L 953.195 215.138 L 950.433 214.547 L 946.979 213.365 L 944.216 212.183 L 940.762 211.592 L 937.309 211.001 L 934.546 209.819 L 931.092 209.228 L 928.329 208.636 L 924.876 208.045 L 922.113 206.863 L 918.659 206.863 L 915.896 205.681 L 912.443 205.681 L 909.68 204.499 L 906.226 204.499 L 903.463 203.908 L 900.01 203.317 L 897.247 203.317 L 893.793 202.135 L 887.577 202.135 L 884.814 201.544 L 882.051 200.953 L 875.834 200.953 L 873.072 200.362 L 869.618 200.362 L 866.855 199.771 L 861.329 199.771 L 857.876 199.18 L 804.69 199.18 L 800.546 199.771 L 796.401 199.771 L 791.566 200.362 L 788.113 200.362 L 783.968 200.953 L 780.515 200.953 L 777.061 202.135 L 770.154 202.135 L 767.391 203.317 L 763.247 203.317 L 761.174 203.908 L 759.102 203.908 L 757.03 204.499 L 754.267 205.09 L 752.195 205.09 L 752.195 186.768 L 751.504 182.631 L 751.504 179.085 L 749.432 174.947 L 749.432 161.353 L 748.741 158.989 L 748.741 156.034 L 748.051 153.67 L 748.051 151.306 L 747.36 148.351 L 747.36 145.986 L 746.669 143.031 L 746.669 140.667 L 745.979 137.712 L 745.979 135.348 L 744.597 132.393 L 744.597 127.073 L 743.216 124.118 L 743.216 121.163 L 742.525 118.208 L 741.834 115.843 L 741.143 113.479 L 740.453 110.524 L 739.762 107.569 L 739.071 104.614 L 738.381 101.659 L 737.69 99.294 L 736.999 96.339 L 735.618 93.384 L 735.618 90.429 L 734.236 87.474 L 732.855 85.109 L 732.855 82.154 L 731.473 79.199 L 730.092 76.835 L 729.401 73.88 L 728.02 70.925 L 727.329 68.56 L 725.948 65.605 L 724.566 63.241 L 723.185 60.877 L 723.185 59.104 L 722.494 57.922 L 721.803 56.74 L 721.113 54.967 L 720.422 53.784 L 719.731 52.602 L 719.04 50.829 L 718.35 50.238 L 717.659 49.056 L 716.968 47.874 L 716.277 46.692 L 714.896 44.919 L 714.896 44.328 L 713.515 43.146 L 713.515 41.964 L 711.442 40.782 L 711.442 39.6 L 710.061 39.009 L 710.061 37.235 L 709.37 36.644 L 707.989 35.462 L 707.989 34.28 L 705.917 33.098 L 705.226 31.325 L 703.844 30.143 L 703.154 29.552 L 702.463 28.37 L 701.082 27.779 L 701.082 26.597 L 699.009 25.415 L 698.319 24.824 L 697.628 24.233 L 696.937 23.05 L 695.556 22.459 L 694.865 21.277 L 693.484 21.277 L 692.793 20.095 L 691.411 18.913 L 690.721 18.322 L 689.339 17.731 L 688.649 17.14 L 687.267 16.549 L 687.267 15.367 L 685.886 15.367 L 683.813 13.594 L 683.123 13.594 L 681.741 12.412 L 681.051 12.412 L 679.669 11.23 L 676.906 11.23 L 676.216 10.639 L 674.834 10.639 L 673.453 9.457 L 672.071 9.457 L 671.38 8.866 L 669.999 8.866 L 668.618 7.683 L 667.236 7.683 L 666.545 7.092 L 665.164 7.092 L 663.092 6.501 L 661.02 6.501 L 659.638 5.91 L 649.277 5.91 L 649.277 6.501 Z " fill-rule="evenodd" fill="rgb(207,207,207)"/><path d=" M 706.607 291.382 C 699.7 375.9 891.03 547.301 1063.711 604.632 C 1252.278 667.282 1109.99 791.4 1051.969 800.266 C 774.298 844.594 603.69 643.641 603.69 643.641 C 603.69 643.641 365.39 331.572 582.968 78.608 C 691.411 -48.465 713.515 208.636 707.298 291.382 L 706.607 291.382 Z " fill-rule="evenodd" fill="rgb(250,247,151)"/><path d=" M 687.958 471.648 C 715.587 452.735 748.051 444.461 754.958 411.363 C 760.484 381.811 694.174 306.749 703.154 293.155 C 747.36 224.003 823.34 229.914 862.02 235.824 C 899.319 241.735 1103.082 295.519 974.608 325.071 C 897.089 340.044 837.695 393.432 824.03 460.419 L 841.989 478.15 L 980.134 566.806 L 1061.639 602.268 L 1128.639 640.685 L 1161.103 693.879 L 1119.66 768.941 L 1048.515 802.039 L 889.649 802.039 L 725.257 742.935 L 605.071 639.503 L 559.483 562.668 L 556.72 555.576 C 524.256 600.495 515.277 656.052 533.927 721.067 C 565.009 831 522.184 826.271 522.184 826.271 C 385.421 776.033 401.308 600.495 401.308 600.495 C 437.916 378.855 653.422 479.332 653.422 479.332 L 646.514 482.878 C 660.329 480.514 674.143 476.968 687.958 471.057 L 687.958 471.648 Z " fill-rule="evenodd" fill="rgb(215,211,43)"/><path d=" M 499.39 453.917 C 490.659 423.446 484.883 392.409 482.122 361.124 C 476.204 297.711 485.609 233.933 509.751 173.765 C 526.124 136.031 548.935 100.578 577.442 68.56 C 588.415 56.186 602.298 45.917 618.195 38.417 C 629.116 33.954 641.81 33.954 652.731 38.417 C 663.092 41.964 671.38 49.647 677.597 57.922 C 680.247 61.706 682.556 65.658 684.504 69.743 C 690.886 81.058 695.752 92.954 699.009 105.205 C 705.663 126.12 710.284 147.47 712.824 169.037 C 716.84 198.466 718.915 228.064 719.04 257.693 C 735.638 243.871 756.084 233.902 778.443 228.732 C 806.108 221.996 835.283 221.185 863.401 226.368 C 870.386 227.445 877.302 228.826 884.123 230.505 C 920.198 239.35 955.322 250.818 989.113 264.785 C 994.532 267.365 999.832 270.126 1005 273.06 L 1009.835 276.015 L 1013.288 278.97 L 1016.051 280.743 C 1021.431 285.293 1025.253 291.016 1027.103 297.292 C 1027.817 300.017 1027.817 302.842 1027.103 305.567 C 1027.103 307.34 1025.721 309.704 1024.34 311.477 C 1022.538 314.168 1020.201 316.568 1017.433 318.57 C 1013.262 321.661 1008.613 324.247 1003.618 326.253 C 996.711 329.208 989.804 330.981 982.897 332.754 L 973.226 335.119 L 969.773 336.301 C 932.57 345.289 899.368 363.612 874.453 388.903 L 863.401 401.315 C 849.587 419.046 840.608 439.141 835.773 459.237 C 872.924 490.9 913.385 519.586 956.649 544.937 C 987.525 562.641 1020.107 578.064 1054.041 591.038 L 1064.402 594.584 L 1072.69 597.54 L 1076.835 598.722 C 1088.723 603.2 1100.259 608.333 1111.371 614.089 C 1131.446 624.276 1148.102 638.732 1159.722 656.052 C 1167.341 669.23 1170.454 683.982 1168.701 698.607 C 1167.32 716.338 1159.031 732.296 1147.979 747.072 L 1141.763 754.165 C 1135.641 761.609 1128.702 768.536 1121.041 774.851 C 1108.054 785.736 1093.418 795.079 1077.526 802.63 C 1068.053 806.918 1057.76 809.72 1047.134 810.904 C 986.234 819.358 923.963 817.146 864.092 804.403 C 763.837 780.085 674.361 730.689 607.143 662.554 L 595.401 650.142 L 594.71 648.96 C 578.656 627.769 564.79 605.422 553.267 582.173 C 542.051 603.163 535.941 625.886 535.308 648.96 C 534.319 674.324 538.049 699.661 546.36 724.022 L 547.05 728.75 C 551.531 747.27 554.531 766.03 556.03 784.899 C 556.286 793.825 555.359 802.748 553.267 811.495 C 551.25 819.105 546.402 825.949 539.452 831 C 536.943 832.573 534.14 833.772 531.164 834.546 C 527.366 835.567 523.333 835.77 519.421 835.137 C 518.04 835.137 517.349 835.137 515.968 833.955 L 512.514 832.773 C 498.577 827.422 485.562 820.462 473.834 812.086 C 462.782 803.812 453.112 794.355 443.442 784.308 C 432.39 770.714 422.72 756.529 415.813 741.162 C 403.197 714.534 395.282 686.447 392.328 657.825 C 389.911 638.79 389.218 619.622 390.256 600.495 L 390.256 599.313 L 393.019 583.946 C 399.387 554.262 412.026 525.821 430.318 500.018 C 443.547 483.613 461.044 470.058 481.432 460.419 L 497.318 454.508 L 499.39 453.917 Z  M 547.741 465.738 L 535.308 466.92 C 519.157 468.363 503.462 472.372 489.03 478.741 C 481.281 482.521 474.092 487.085 467.617 492.335 C 446.718 509.44 431.672 531.102 424.102 554.985 C 418.392 570.178 414.458 585.819 412.359 601.677 L 412.359 614.68 C 412.143 649.072 417.726 683.311 428.937 716.338 C 439.295 744.85 457.54 770.802 482.122 791.991 C 494.398 801.687 508.385 809.666 523.566 815.633 L 523.566 816.224 C 524.947 816.224 525.638 815.042 526.329 814.451 C 527.453 813.394 528.385 812.199 529.092 810.904 L 530.473 809.131 L 530.473 807.358 L 531.854 804.994 L 532.545 802.039 L 533.236 797.31 L 533.236 792.582 C 534.617 784.308 533.236 775.442 532.545 767.168 C 530.821 756.443 528.516 745.793 525.638 735.251 L 523.566 725.795 L 521.494 718.111 L 520.112 712.201 C 515.119 690.801 512.803 669.007 513.205 647.187 C 514.859 616.655 524.288 586.801 540.834 559.713 C 557.233 533.537 580.381 510.9 608.525 493.517 L 629.937 480.514 C 604.965 472.27 578.618 467.482 551.885 466.329 L 549.123 466.329 L 547.741 465.738 Z  M 656.185 491.153 C 619.24 506.782 588.138 530.939 566.391 560.895 C 579.909 587.316 595.366 612.978 612.669 637.73 C 620.941 647.103 629.941 655.988 639.607 664.327 C 708.906 729.678 800.927 774.228 902.082 791.4 C 948.866 798.79 996.814 798.99 1043.68 791.991 L 1048.515 791.4 C 1051.95 790.552 1055.404 789.764 1058.876 789.036 L 1067.165 785.49 C 1081.829 779.172 1095.14 770.779 1106.536 760.666 C 1112.496 755.27 1118.033 749.545 1123.113 743.526 C 1092.247 743.028 1061.591 739.054 1031.938 731.705 C 954.767 713.566 883.123 681.3 821.958 637.139 C 759.227 595.127 703.459 546.016 656.185 491.153 Z  M 764.628 420.819 L 763.937 422.001 L 762.556 423.774 L 761.865 426.139 C 753.862 439.325 742.819 450.987 729.401 460.419 C 714.205 471.648 696.937 479.332 678.978 485.242 L 684.504 491.153 C 705.49 515.454 728.579 538.372 753.576 559.713 C 795.351 595.596 841.161 627.866 890.34 656.052 C 953.028 690.751 1023.693 713.526 1097.557 722.84 C 1110.68 724.613 1123.804 725.204 1136.928 725.204 C 1144.164 712.961 1147.5 699.302 1146.598 685.604 C 1146.005 679.08 1144.137 672.687 1141.072 666.691 C 1133.043 652.948 1120.578 641.461 1105.154 633.593 C 1094.432 626.949 1082.842 621.395 1070.618 617.044 L 1054.041 611.133 L 1047.134 609.36 C 988.148 587.935 933.393 558.827 884.814 523.069 C 840.854 492.513 800.59 458.258 764.628 420.819 Z  M 750.814 405.452 C 734.002 385.078 719.654 363.294 707.989 340.438 C 701.777 326.79 697.825 312.467 696.246 297.883 L 696.246 286.062 C 698.926 250.782 697.77 215.364 692.793 180.267 C 690.232 160.424 686.544 140.699 681.741 121.163 C 677.067 103.422 670.118 86.178 661.02 69.743 C 658.533 66.083 655.516 62.707 652.04 59.695 C 650.027 57.833 647.698 56.239 645.133 54.967 C 642.994 53.982 640.645 53.379 638.226 53.193 C 633.313 53.182 628.506 54.416 624.411 56.74 C 623.468 57.095 622.546 57.49 621.648 57.922 L 618.195 59.695 C 615.451 61.456 612.907 63.435 610.597 65.605 C 606.039 69.212 601.877 73.169 598.164 77.426 C 591.698 84.213 585.701 91.317 580.205 98.703 C 542.146 147.132 517.355 202.287 507.679 260.057 C 502.041 293.921 500.882 328.22 504.226 362.306 C 506.988 391.858 513.205 420.819 521.494 449.189 C 550.373 445.337 579.898 447.156 607.834 454.508 C 625.177 458.497 642.055 463.839 658.257 470.466 L 666.545 468.693 C 689.347 462.46 709.992 451.496 726.638 436.777 C 732.677 430.872 737.786 424.314 741.834 417.273 L 743.906 413.727 L 744.597 412.545 C 746.344 410.164 748.433 407.98 750.814 406.043 L 750.814 405.452 Z  M 817.123 443.279 C 826.496 414.708 843.524 388.4 866.855 366.444 C 889.801 346.057 918.271 330.831 949.742 322.116 L 965.628 317.387 L 975.299 315.023 L 979.443 313.841 C 985.893 312.201 992.139 310.023 998.092 307.34 C 1000.629 306.271 1002.958 304.876 1005 303.203 L 1005 299.065 C 1003.67 297.293 1002.041 295.7 1000.165 294.337 L 989.113 287.245 C 981.222 282.721 972.904 278.767 964.247 275.424 C 936.248 263.805 906.827 254.884 876.525 248.827 C 860.704 245.372 844.493 243.39 828.175 242.917 L 824.721 242.917 C 810.265 242.868 795.864 244.458 781.896 247.645 C 755.925 254.683 733.518 269.063 718.35 288.427 L 718.35 292.564 C 718.002 300.125 718.933 307.69 721.113 315.023 C 724.902 328.691 730.949 341.826 739.071 354.032 C 751.456 336.541 768.202 321.607 788.113 310.295 C 796.401 305.97 805.198 302.404 814.36 299.656 L 815.051 299.656 L 822.649 317.387 C 821.267 317.387 820.577 317.387 819.195 318.57 L 815.742 319.161 C 787.232 329.487 764.641 349.029 752.886 373.536 C 771.222 398.743 792.766 422.133 817.123 443.279 Z " fill-rule="evenodd" fill="rgb(67,50,49)"/></g></g></svg>