<?xml version="1.0"?>
<svg xmlns:rdf="http://www.w3.org/1999/02/22-rdf-syntax-ns#" xmlns="http://www.w3.org/2000/svg" xmlns:cc="http://web.resource.org/cc/" xmlns:xlink="http://www.w3.org/1999/xlink" xmlns:dc="http://purl.org/dc/elements/1.1/" xmlns:svg="http://www.w3.org/2000/svg" space="preserve" viewBox="0 0 367.848 411.553" enable-background="new 0 0 367.848 411.553" overflow="visible">
  <g id="Layer_1">
    <g clip-rule="evenodd" fill-rule="evenodd">
      <path d="m192.13 0.72l-13.82-0.72-13.5 0.9-13.5 2.412-15.876 4.932-15.624 7.344-15.59 9.432-16.02 13.212-18.9 19.08-18.108 21.132-17.712 23.976-11.592 18.792-7.596 15.696-6.804 18-4.896 20.41-2.592 19.62v7.092l1.08 11.412 3.6 15.588 8.532 31.932 2.088 12.385 2.7 36.504 1.98 16.488 3.132 12.6 3.888 8.83 4.968 7.668 9 9.611 10.8 8.102 12.6 6.73 17.424 7.092 30.708 9.865 30.708 7.92 24.624 4.535 16.488 1.801 16.2 0.469 15.301-1.189 18.287-3.6 18.145-5.4 17.82-7.199 17.567-9 17.388-10.691 20.412-15.301 13.032-11.699 10.62-13.645 7.38-13.465 4.896-12.814 3.491-14.076 1.908-12.709 1.08-19.656-0.468-17.855-2.088-21.133-3.024-17.675-4.607-18-8.712-24.804-14.257-32.652-23.37-46.37-9.469-14.508-7.308-8.712-10.979-10.188-15.732-11.7-20.988-12.6-24.012-11.88-30.71-12.312z" fill="#F7F619"/>
      <path d="m36.792 124.31v-5.51l1.296-7.668 3.204-7.2 6.876-8.712 12.024-13.788 15.588-16.92 10.44-9.468 4.212-2.232 1.08 0.72v1.37l-5.4 11.412-20.232 36-6.48 14.22-2.412 7.668-0.9 4.5 0.324 5.832 1.656 5.4 5.4 8.208 13.5 13.104 8.064 7.92 3.456 5.076 1.044 5.112-1.224 6.156-4.5 10.224-5.328 8.1-6.012 6.408-4.968 3.203-3.312 0.865-2.988-1.08-3.42-4.465-5.688-13.536-7.524-25.776-5.688-27-2.088-16.128v-2z" fill="#F9F980"/>
      <path d="m38.988 348.84l0.504 3.707 2.376 4.537 6.12 6.156 9.324 6.299 13.068 6.408 23.652 9.324 32.976 10.691 24.3 6.121 21.744 3.889 18.288 1.979 15.3 0.289 16.092-1.369 12.889-2.699 13.428-4.5 10.8-5.508-24.84-7.992-23.58-9.611-17.1-8.209-11.376-7.523-27.144-21.275-7.776-4.393-5.4-1.477-3.6 0.756-3.744 4.033-3.888 8.566-7.092 24.588-2.088 3.926-1.8 0.611-1.908-2.016-2.592-5.689-5.508-21.887-7.524-34.201-4.968-14.688-8.388-19.225-6.624-11.016-5.04-5.291-3.6-1.621h-2.7l-5.076 2.377-6.804 6.119-8.496 11.232-6.3 10.98-3.6 8.711-3.024 11.701-1.19 11.09 0.108 11.699 1.8 14.4z" fill="#E8E800"/>
      <path d="m100.33 220.32l-2.844-17.101-2.268-25.776-1.188-32.004 0.468-24.516 1.512-19.8 2.7-18 4.5-17.28 4.896-12.924 4.824-8.388 7.38-9.288 8.496-7.2 9.504-5.832 13.896-6.192 14.22-4.176 11.88-1.656 10.62-0.288 9.18 1.332 11.124 3.168 21.996 9.72 18 9.9 14.112 9.504 11.52 9.396 11.88 12.784 12.42 17.712 14.399 24.408 17.101 34.488 12.42 30.312 7.199 22.32 4.681 19.08 2.52 20.232 0.288 17.389-0.72 16.523-2.376 25.309-3.024 18.467-3.456 11.809-5.832 11.736-7.38 8.568-10.439 8.494-11.988 6.805-10.979 4.32-12.744 3.492-11.7 1.799-10.656 0.396-12.744-1.475-11.195-3.133-12.024-5.725-14.868-9.467-23.508-17.676-39.744-32.258-16.668-15.479-12.312-13.896-10.008-14.4-5.868-11.088-4.932-14.543-2.28-9.9z" fill="#FFFFC7"/>
      <path d="m210.24 174.24l-49.32-39.42-35.1-29.808-5.4-6.3-4.5-9.468-2.232-8.532-0.288-7.668 1.188-6.444 2.124-5.076 6.408-9.216 10.08-10.296 7.02-5.58 6.912-3.6 3.888-0.9 3.492 0.468 4.176 2.7 4.824 6.624 5.328 11.52 8.388 22.968 16.2 45.72 8.28 28.512 0.899 3.708 7.63 20.09z" fill="#F7F619"/>
      <path d="m203.33 133.45l-7.2-27.252-7.021-21.276-17.1-38.016-2.376-9-0.18-4.464 1.368-3.744 3.312-3.6 6.588-3.6 8.388-1.98h6.444l5.4 1.188 7.487 4.536 6.588 6.768 4.393 5.976-1.98-0.288 3.168 0.144 7.92-0.612 3.313 0.612 2.268 1.476 3.313 6.3 1.512 7.704v12.096l-1.98 23.58-4.933 38.124-6.479 40.716-3.601-1.62-2.52 0.288-2.988 2.124-13.1-36.18z" fill="#F7F619"/>
      <path d="m235.62 166.43l0.899-10.584 6.732-33.624 5.796-26.82 4.5-24.876 2.412-6.48 1.8-1.944 1.98-0.792 3.42 1.512 6.479 6.768 10.8 13.212 12.889 15.012 5.544 8.82 3.456 10.476 1.044 7.812-0.612 5.868-2.412 5.652-3.42 4.788-9 7.416-15.876 9.864-18.792 9.612-14.22 6.12-1.8-0.288-1.188-2.124-0.43-5.41z" fill="#F7F619"/>
      <path d="m243.25 183.42l3.096-2.376 23.004-8.424 33.3-18.468 7.2-2.7 3.889-0.612 2.088 1.512 11.231 21.492 8.101 19.476 4.607 16.811 0.181 5.113-1.188 2.988-2.412 1.475h-3.888l-9.72-2.555-25.488-8.533-40.21-10.79-8.712-3.78-5.4-4.32-1.008-2.988 0.72-2.7 0.61-0.61z" fill="#F7F619"/>
      <path d="m241.74 197.24l2.88 0.396 16.308 7.092 23.22 10.62 12.78 3.781 22.645 4.5 8.676 2.986 5.111 3.602 3.421 4.822 2.411 6.408 2.557 10.98 0.432 9.9-0.432 7.92-2.7 14.221-2.7 5.074-2.268 1.225h-1.8l-5.221-1.943-10.512-7.057-14.4-12.527-11.699-13.213-14.221-17.279-12.6-11.232-9.9-9-11.088-14.292-2.412-4.788v-1.62l1.5-0.57z" fill="#F7F619"/>
      <path d="m198.72 178.02l-9.792-8.856-42.84-32.256-26.57-23.68-6.12-3.708-2.988-0.792-2.88 1.404-1.8 3.384-1.332 9-0.18 27.324 1.512 10.008 2.88 6.804 3.888 3.996 6.408 2.988 10.404 2.304 17.676 2.988 30.42 7.02 11.232 1.368 8.101-0.864 3.312-1.512 0.9-1.8-0.612-2.592-1.62-2.52z" fill="#F7F619"/>
      <path d="m211.75 202.64l-2.521-0.504-2.592-0.468-2.52-0.432-2.593-0.396-2.628-0.432-2.628-0.432-2.664-0.36-2.699-0.36-2.736-0.288-2.772-0.288-2.808-0.324-2.88-0.252-2.88-0.216-2.952-0.252-2.952-0.252-2.988-0.144-3.132-0.252-3.24-0.36-3.42-0.468-3.42-0.576-3.528-0.504-3.528-0.612-3.6-0.468-3.564-0.432-3.528-0.36-3.42-0.144h-3.348l-3.24 0.252-3.06 0.54-2.952 0.792-2.7 1.152-2.448 1.44-2.16 1.8-1.62 1.908-1.152 2.052-0.648 2.16-0.36 2.268v2.34l0.216 2.377 0.504 2.412 0.72 2.52 0.756 2.484 0.972 2.375 0.972 2.449 0.9 2.375 0.9 2.305 0.828 2.16 0.648 2.123 0.54 2.053 0.612 1.908 0.612 1.799 0.72 1.729 0.648 1.764 0.792 1.656 0.828 1.619 0.9 1.693 0.972 1.619 1.08 1.693 1.116 1.727 1.26 1.801 1.332 1.871 1.512 1.945 1.548 2.051 1.728 2.16 1.872 2.484 2.16 2.629 2.268 2.879 2.52 2.988 2.664 3.168 2.7 3.203 2.808 3.24 2.808 3.168 2.88 3.061 2.772 3.023 2.772 2.809 2.628 2.592 2.52 2.268 2.34 1.98 2.16 1.621 1.98 1.188 1.692 0.863 1.476 0.576 1.404 0.359 1.26 0.072 1.116-0.143 1.08-0.289 0.972-0.539 0.9-0.721 0.9-0.973 0.828-1.08 0.792-1.223 0.828-1.404 0.864-1.549 0.899-1.729 0.937-1.799 1.044-2.016 1.008-2.088 1.008-2.521 1.044-2.699 1.08-2.988 1.008-3.168 1.08-3.383 1.008-3.457 1.044-3.6 1.009-3.6 0.972-3.672 0.936-3.602 0.9-3.6 0.864-3.492 0.828-3.348 0.792-3.168 0.72-3.023 0.576-2.736 0.684-2.771 0.54-2.701 0.54-2.699 0.54-2.592 0.468-2.557 0.433-2.52 0.359-2.484 0.36-2.412 0.36-2.305 0.216-2.375 0.324-2.268 0.216-2.197 0.18-2.23 0.145-2.089 0.17-2.15z" fill="#F7F619"/>
      <path d="m217.15 232.63l-18 72.396-1.224 9 0.324 7.201 1.8 5.111 5.868 5.545 12.888 9.143 14.22 7.633 10.225 3.779 8.676 1.188 9.9-0.287 8.244-1.656 4.355-2.123 2.7-2.809v-3.492l-5.688-16.309-25.092-54.898-5.616-15.408-4.68-16.992-5.724-23.689-2.521-5.398-1.656-1.225-1.331 0.611-4.393 7.668-3.29 15.03z" fill="#F7F619"/>
      <path d="m240.12 221.83l7.308 27.287 13.5 36.541 11.124 26.1 7.021 12.779 7.955 10.332 4.933 4.213 4.392 1.656 3.708 0.145 4.968-2.412 8.425-8.102 7.92-11.088 3.275-6.119 0.792-4.68-1.367-3.457-18.145-20.988-25.776-27.719-4.212-6.156-2.699-6.336-10.692-11.52-19.728-19.656-5.293-6.301-0.72 0.288 0.145 2.987 3.18 12.22z" fill="#F7F619"/>
      <path d="m259.45 255.56l-0.324 0.287 1.512 6.588 6.12 16.201 7.092 13.318 11.7 17.605 1.476 1.295v-1.295l-4.5-14.113-6.588-14.904-9-15.119-7.38-9.863h-0.11z" fill="#FFFFC7"/>
      <path d="m283.86 273.96l5.58 5.725 13.933 18.289 3.888 6.912-0.288 2.375-1.944 1.512-2.556 0.289-3.6-1.621-3.42-5.076-7.813-16.811-3.6-9.793-0.288-1.801h0.11z" fill="#FFFFC7"/>
      <path d="m269.35 221.04h-0.18l11.556 9 11.124 13.393 4.32 5.221-2.232-6.012-5.688-9.396-6.48-5.617-12.023-6.406-0.4-0.17z" fill="#FFFFC7"/>
      <path d="m291.67 224.82l20.88 8.711 11.088 5.508-0.288 0.324-3.6-0.143-9-2.27-10.08-5.398-9-6.301-0.324-0.611 0.32 0.18z" fill="#FFFFC7"/>
      <path d="m270.83 177.23l1.332-0.576 0.18 0.18 4.32-0.612 38.268-11.988 0.72 0.108-7.02 4.392-15.769 7.2-20.808 6.408-5.724 1.08-0.756-0.9 3.455-4.068 1.81-1.22z" fill="#FFFFC7"/>
      <path d="m293.15 195.73l9.181 1.908 27.54 3.6 0.899-0.108-16.128-4.5-15.191-3.312h-4.177l-2.52 1.188v0.936l0.4 0.28z" fill="#FFFFC7"/>
      <path d="m248.65 155.84l5.076-2.592 17.101-11.412 22.031-19.116 3.313-3.816h-0.72l-12.313 6.912-16.992 11.232-11.52 11.088-5.977 7.092v0.62z" fill="#FFFFC7"/>
      <path d="m269.35 118.19l10.296-10.368 1.801-2.808-2.521 0.72-9.576 5.58-1.691 2.088-0.433 2.844 1.044 1.944h1.08z" fill="#FFFFC7"/>
      <path d="m225.54 63.612l0.611 14.832v22.68l-1.044 18.72-0.288 1.368-1.079-6.3-1.332-22.788 1.332-18.612 1.691-10.08 0.11 0.182z" fill="#FFFFC7"/>
      <path d="m194.83 42.12l5.076 23.868 3.42 20.736-0.576 0.396-3.601-7.02-4.319-12.78-1.08-11.412v-11.088l0.756-3.096 0.32 0.396z" fill="#FFFFC7"/>
      <path d="m203.33 99l-0.108 0.108 4.608 22.824 6.804 28.296 0.108 0.216-4.032-27.72-3.168-13.392-4.032-10.224-0.18-0.116z" fill="#FFFFC7"/>
      <path d="m170.21 84.312l8.712 24.3 9.612 31.752 0.575 4.464-7.956-17.028-9.324-24.3-2.376-10.656-0.42-8.234 0.432-1.08 0.76 0.792z" fill="#FFFFC7"/>
      <path d="m134.21 88.2l13.5 15.732 5.112 4.968-0.108-0.9-5.112-9.18-3.78-4.788-7.632-5.724-2.088-0.72 0.11 0.612z" fill="#FFFFC7"/>
      <path d="m137.99 59.724l6.444 10.584 2.088 2.016 0.612-0.936-0.324-2.556-6.12-7.02-2.7-2.304v0.216z" fill="#FFFFC7"/>
      <path d="m144.9 55.908l9.9 14.4 3.6 4.212v-1.62l-2.88-6.912-4.932-5.688-5.688-4.68v0.288z" fill="#FFFFC7"/>
      <path d="m167.94 163.44l-23.94-11.99-2.988-0.432-1.512 1.512 0.612 2.376 3.42 2.844 13.68 4.68 23.796 6.408h0.144l-13.21-5.4z" fill="#FFFFC7"/>
      <path d="m119.52 164.23l24.012 5.508 11.556 1.98-7.776-3.78-13.824-4.5-6.588-0.72-6.912 0.324-1.188 0.72 0.72 0.47z" fill="#FFFFC7"/>
      <path d="m125.71 204.12l9.288 0.108 36.828 2.735 2.88 0.758-1.476 1.043-8.1 1.367h-7.2l-19.62-3.023-12.6-2.879-0.18-0.108h0.18z" fill="#FFFFC7"/>
      <path d="m179.53 214.16h-1.404l-25.596 9.756-18.72 6.588-0.18 0.611 8.568-0.18 11.412-1.619 5.796-1.693 9.324-5.074 10.296-7.92 0.5-0.48z" fill="#FFFFC7"/>
      <path d="m199.44 222.55l-0.611 10.691-3.42 26.207-2.089 10.189-3.491 7.92-2.809 3.924-1.368 0.287-0.323-4.32 1.979-16.02 5.4-21.203 5.544-16.309 1.08-1.477 0.11 0.11z" fill="#FFFFC7"/>
      <path d="m219.42 268.63l-3.313 19.33-2.987 24.266 0.611 1.043 2.088-3.924 1.62-7.92 1.98-28.801v-4.176 0.18z" fill="#FFFFC7"/>
      <path d="m227.95 254.05l0.18 4.967 2.376 16.453 2.7 10.08 5.22 11.088 8.1 12.42 1.332 1.08-4.319-12.781-9.612-25.596-5.796-17.711-0.18-0.145v0.15z" fill="#FFFFC7"/>
      <path d="m31.392 264.85h-2.592l-5.508 3.168-0.18 0.721 4.68 1.691 0.9 2.34 0.576 4.5 1.332 0.289 4.068-2.088 1.332-1.8-0.9-3.564-2.52-4.355-1.188-0.91z" fill="#F9F980"/>
      <path d="m33.588 263.23l-1.908-0.18-5.4 2.592-0.9 1.295 4.608 1.801 0.9 2.412 0.792 4.5 1.512 0.287 4.32-2.375 0.9-2.018-1.512-4.428-2.988-3.779-0.324-0.1z" fill="#DBDB00"/>
      <path d="m31.968 164.34h-2.376l-5.112 2.88-0.18 0.72 4.5 1.8 0.9 3.6 0.468 2.412 1.332 0.468 3.6-1.8 1.188-2.268-1.8-4.788-2.376-3.024h-0.144z" fill="#F9F980"/>
      <path d="m34.2 162.72h-2.088l-5.544 2.988-0.18 0.72 4.392 1.512 0.9 2.412 0.612 3.888 1.296 0.324 3.6-1.8 1.404-2.232-1.512-4.5-2.7-3.312h-0.18z" fill="#DBDB00"/>
      <path d="m55.08 331.27l-1.8-0.324-5.58 2.125-3.888 2.988 0.468 0.611 5.688 1.98 1.332 2.699 0.792 6.121 1.188 1.08 2.412-0.469 4.32-2.52 1.476-2.592-1.296-4.934-3.78-5.867-1.332-0.91z" fill="#F9F980"/>
      <path d="m58.212 329.04l-1.8-0.287-6.444 2.52-3.168 2.701 1.08 0.791 4.788 1.297 1.512 1.799 1.188 7.488 1.332 0.793 2.988-0.9 3.78-2.557 1.044-2.412-1.512-5.11-3.42-5.221-1.368-0.9z" fill="#DBDB00"/>
      <path d="m72.18 181.44h-1.692l-3.708 2.268-0.18 0.324 3.312 1.188 0.756 3.6 0.432 0.9 2.88-1.08 1.188-1.62-1.8-4.5-1.188-1.08z" fill="#F9F980"/>
      <path d="m73.692 180.43h-1.692l-3.708 2.196-0.18 0.324 3.276 1.188 0.792 3.6 0.432 0.9 3.168-1.332 0.9-1.476-1.692-4.212-1.296-1.19z" fill="#DBDB00"/>
      <path d="m62.892 228.42l-0.18 0.145 4.068 4.787 1.908 1.08 2.304-1.801 0.576-1.799-2.556-1.512-5.544-1.08-0.576 0.18z" fill="#F9F980"/>
      <path d="m64.188 227.63l-0.108 0.217 4.032 4.789 1.98 1.008 2.196-1.801 0.612-1.801-2.52-1.475-5.58-1.045-0.612 0.09z" fill="#DBDB00"/>
      <path d="m112.61 330.08l-0.108 0.145 3.888 4.824 1.944 1.008 2.376-1.801 0.612-1.801-2.52-1.512-5.58-1.008-0.61 0.15z" fill="#F9F980"/>
      <path d="m114.01 329.36l-0.18 0.109 4.068 4.787 1.908 1.08 2.304-1.801 0.576-1.799-2.556-1.512-5.544-1.08-0.58 0.21z" fill="#DBDB00"/>
      <path d="m148.93 350.03l-0.144 0.145 3.024 4.5 5.4 4.969 1.476 0.432 3.132-2.125 1.692-3.6-1.404-1.477-9.288-2.844-3.888-0.143v0.13z" fill="#F9F980"/>
      <path d="m151.2 348.84l-0.18 0.107 2.7 4.213 5.868 5.291 1.512 0.434 2.808-1.945 1.944-3.455-0.72-1.656-8.244-2.664-5.58-0.611-0.11 0.29z" fill="#DBDB00"/>
      <path d="m67.5 296.64l-0.108 0.107 2.196 3.816 6.192 5.688 1.512 0.432 2.808-1.943 1.908-3.781-1.008-1.49-8.532-2.736-4.788-0.396-0.18 0.3z" fill="#F9F980"/>
      <path d="m69.768 295.27l-0.18 0.18 3.492 5.113 5.688 4.787h1.512l2.952-2.699 1.188-3.025-1.332-1.475-7.02-2.412-6.156-0.793-0.144 0.33z" fill="#DBDB00"/>
      <path d="m138.71 328.75l-0.108 0.107 3.888 4.824 1.944 1.08 2.376-1.801 0.612-1.799-2.52-1.512-5.58-1.08-0.61 0.18z" fill="#F9F980"/>
      <path d="m140.11 327.96l-0.18 0.182 4.068 4.932 1.908 1.08 1.98-1.693 0.9-2.088-1.656-1.008-6.444-1.691-0.58 0.29z" fill="#DBDB00"/>
      <path d="m96.012 274.86l-0.144 0.18-0.036 0.182-0.072 0.143v0.722l0.072 0.145 0.036 0.215 0.144 0.145 0.036 0.217 0.144 0.143 0.18 0.217 0.108 0.145 0.18 0.143 0.252 0.109 0.18 0.18 0.18 0.145 0.216 0.035 0.18 0.107 0.252 0.072 0.18 0.072h0.828l0.18-0.072 0.18-0.072 0.18-0.107 0.144-0.035 0.108-0.145 0.18-0.18 0.072-0.109 0.036-0.143v-0.145l0.072-0.217v-0.143l-0.072-0.217v-0.217l-0.036-0.18-0.072-0.18-0.072-0.252-0.108-0.18-0.108-0.18-0.144-0.18-0.18-0.182-0.108-0.107-0.18-0.18-0.252-0.107-0.18-0.145-0.216-0.072-0.18-0.035-0.252-0.072-0.252-0.037h-0.36l-0.216 0.037h-0.18l-0.18 0.072-0.18 0.035-0.18 0.145-0.144 0.072-0.108 0.107-0.11 0.12z" fill="#F9F980"/>
      <path d="m96.408 274.14l-0.108 0.18-0.108 0.107-0.072 0.217v0.143l-0.072 0.217v0.145l0.072 0.215 0.072 0.145 0.036 0.217 0.072 0.143 0.072 0.217 0.108 0.145 0.18 0.215 0.108 0.109 0.18 0.18 0.252 0.107 0.18 0.18 0.18 0.072 0.252 0.107 0.18 0.072 0.216 0.037 0.18 0.07h0.864l0.18-0.07 0.18-0.037 0.18-0.072 0.108-0.107 0.108-0.072 0.18-0.18 0.072-0.107 0.072-0.18v-0.182l0.036-0.18v-0.18l-0.036-0.18v-0.18l-0.072-0.252-0.072-0.18-0.036-0.182-0.144-0.18-0.108-0.18-0.108-0.18-0.18-0.18-0.144-0.18-0.18-0.182-0.216-0.107-0.18-0.072-0.252-0.107-0.18-0.072-0.252-0.035h-0.756l-0.254 0.02-0.108 0.072-0.18 0.035-0.18 0.072-0.144 0.145-0.108 0.107-0.072 0.11z" fill="#DBDB00"/>
      <path d="m68.112 122.72l-0.144 0.144-0.036 0.144v0.36l-0.072 0.18 0.072 0.18v0.18l0.036 0.18 0.072 0.18 0.072 0.18 0.108 0.18 0.108 0.18 0.144 0.18 0.18 0.108 0.108 0.18 0.252 0.108 0.18 0.216 0.18 0.036 0.216 0.108 0.18 0.072 0.252 0.072 0.18 0.072h0.828l0.144-0.072 0.18-0.072 0.18-0.072 0.108-0.108 0.108-0.036 0.144-0.216 0.036-0.108 0.144-0.18 0.036-0.108v-0.18l0.072-0.18v-0.18l-0.072-0.18v-0.18l-0.108-0.17-0.072-0.18-0.036-0.18-0.144-0.18-0.18-0.18-0.108-0.18-0.18-0.144-0.18-0.144-0.252-0.144-0.18-0.108-0.216-0.072-0.18-0.108-0.252-0.072-0.18-0.072h-0.828l-0.18 0.072-0.18 0.072-0.18 0.108-0.144 0.072-0.108 0.108-0.108 0.13z" fill="#F9F980"/>
      <path d="m68.58 121.93l-0.108 0.18-0.144 0.18-0.036 0.108v0.18l-0.072 0.18v0.18l0.072 0.18v0.18l0.036 0.18 0.144 0.18 0.036 0.18 0.144 0.18 0.108 0.18 0.18 0.18 0.108 0.144 0.252 0.108 0.18 0.18 0.18 0.108 0.252 0.072 0.216 0.108 0.18 0.072 0.252 0.072h0.792l0.18-0.072 0.18-0.072 0.18-0.108 0.108-0.07 0.108-0.108 0.18-0.18 0.072-0.108 0.072-0.144 0.036-0.18v-0.72l-0.036-0.18-0.072-0.18-0.108-0.18-0.072-0.18-0.108-0.18-0.18-0.18-0.144-0.108-0.18-0.18-0.18-0.18-0.216-0.144-0.18-0.036-0.252-0.108-0.18-0.072-0.252-0.072-0.18-0.072h-0.18l-0.216-0.036-0.18 0.036h-0.18l-0.18 0.072-0.18 0.072-0.144 0.072-0.108 0.108-0.108 0.036-0.072 0.14z" fill="#DBDB00"/>
      <path d="m212.65 361.15l-0.144 0.18-0.036 0.107v0.362l-0.072 0.18 0.072 0.18v0.18l0.036 0.18 0.072 0.18 0.071 0.18 0.108 0.182 0.108 0.18 0.144 0.18 0.18 0.145 0.108 0.143 0.252 0.145 0.18 0.18 0.181 0.037 0.216 0.143 0.18 0.072 0.252 0.037 0.181 0.072h0.828l0.145-0.072 0.18-0.037 0.181-0.072 0.107-0.143 0.108-0.037 0.144-0.18 0.036-0.145 0.144-0.143 0.036-0.145v-0.18l0.072-0.18v-0.182l-0.072-0.18v-0.18l-0.107-0.18-0.072-0.18-0.036-0.18-0.144-0.18-0.181-0.182-0.107-0.18-0.18-0.107-0.181-0.18-0.252-0.109-0.18-0.143-0.216-0.072-0.181-0.107-0.252-0.037-0.18-0.072h-0.829l-0.18 0.072-0.181 0.037-0.18 0.107-0.144 0.072-0.108 0.143-0.12 0.11z" fill="#F9F980"/>
      <path d="m213.12 360.36l-0.108 0.18-0.144 0.182-0.036 0.107v0.215l-0.072 0.145v0.217l0.072 0.143v0.217l0.036 0.145 0.144 0.215 0.036 0.145 0.144 0.217 0.108 0.143 0.18 0.217 0.108 0.107 0.252 0.109 0.18 0.18 0.181 0.107 0.252 0.072 0.216 0.145 0.18 0.035 0.252 0.072h0.793l0.181-0.072 0.18-0.035 0.18-0.145 0.108-0.072 0.107-0.107 0.181-0.18 0.071-0.109 0.072-0.107 0.036-0.217v-0.72l-0.036-0.145-0.072-0.217-0.107-0.143-0.072-0.217-0.108-0.145-0.18-0.215-0.144-0.107-0.181-0.182-0.18-0.18-0.216-0.107-0.18-0.072-0.252-0.107-0.18-0.06-0.252-0.037-0.18-0.07h-0.18l-0.217-0.072-0.18 0.072h-0.18l-0.181 0.07-0.18 0.037-0.144 0.072-0.108 0.107-0.108 0.072-0.07 0.11z" fill="#DBDB00"/>
      <path d="m66.168 73.188l-0.216 0.324-0.144 0.252-0.036 0.288-0.072 0.288-0.072 0.288 0.072 0.324 0.072 0.36 0.036 0.288 0.144 0.36 0.18 0.324 0.18 0.288 0.18 0.288 0.288 0.288 0.252 0.324 0.288 0.288 0.36 0.252 0.288 0.216 0.36 0.252 0.36 0.108 0.36 0.216 0.36 0.036 0.36 0.072 0.36 0.036h0.36l0.324-0.036 0.36-0.072 0.288-0.036 0.288-0.144 0.324-0.18 0.216-0.18 0.252-0.18 0.252-0.288 0.108-0.252 0.108-0.216 0.072-0.324 0.072-0.288v-0.612l-0.072-0.36-0.072-0.288-0.108-0.36-0.108-0.288-0.18-0.324-0.252-0.288-0.252-0.324-0.216-0.288-0.324-0.288-0.288-0.288-0.432-0.216-0.36-0.216-0.36-0.18-0.396-0.108-0.36-0.144-0.36-0.072h-0.36l-0.36-0.036-0.324 0.036-0.36 0.072-0.288 0.072-0.288 0.108-0.252 0.18-0.252 0.18-0.18 0.252-0.18 0.216z" fill="#F9F980"/>
      <path d="m66.6 71.82l-0.18 0.288-0.108 0.324-0.072 0.288-0.072 0.324v0.288l0.072 0.288 0.072 0.288 0.108 0.36 0.108 0.324 0.18 0.36 0.18 0.288 0.18 0.324 0.252 0.288 0.288 0.288 0.324 0.252 0.36 0.252 0.288 0.288 0.36 0.18 0.36 0.18 0.36 0.108 0.36 0.108 0.36 0.144h0.36l0.36 0.072 0.288-0.072h0.36l0.324-0.144 0.288-0.108 0.288-0.108 0.252-0.18 0.252-0.18 0.216-0.288 0.144-0.252 0.108-0.324 0.072-0.288 0.036-0.36v-0.648l-0.036-0.288-0.072-0.36-0.18-0.324-0.108-0.288-0.18-0.36-0.252-0.324-0.252-0.288-0.288-0.288-0.36-0.252-0.288-0.288-0.36-0.252-0.36-0.18-0.36-0.18-0.36-0.108-0.36-0.108-0.36-0.072h-1.044l-0.36 0.072-0.288 0.108-0.288 0.108-0.324 0.144-0.216 0.144-0.252 0.252-0.18 0.18z" fill="#DBDB00"/>
      <path d="m90.9 242.03l-0.18 0.324-0.108 0.289-0.072 0.322-0.072 0.289v0.576l0.072 0.324 0.072 0.359 0.108 0.289 0.18 0.359 0.18 0.324 0.252 0.287 0.216 0.289 0.324 0.287 0.288 0.252 0.36 0.252 0.288 0.289 0.36 0.18 0.36 0.18 0.36 0.145 0.36 0.107 0.36 0.035h1.08l0.324-0.035 0.288-0.107 0.288-0.145 0.324-0.107 0.216-0.182 0.252-0.252 0.252-0.252 0.108-0.215 0.108-0.289 0.072-0.324 0.072-0.287v-0.611l-0.072-0.289-0.072-0.359-0.108-0.289-0.18-0.359-0.18-0.324-0.252-0.287-0.216-0.324-0.324-0.289-0.288-0.215-0.288-0.324-0.36-0.252-0.36-0.145-0.36-0.215-0.36-0.109-0.36-0.107-0.36-0.145h-0.36l-0.36-0.035-0.36 0.035-0.324 0.072-0.288 0.072-0.288 0.107-0.324 0.18-0.216 0.182-0.252 0.252-0.18 0.23z" fill="#F9F980"/>
      <path d="m91.512 240.73l-0.18 0.287-0.144 0.252-0.036 0.289-0.072 0.324v0.574l0.072 0.361 0.036 0.287 0.144 0.361 0.108 0.322 0.18 0.289 0.252 0.324 0.216 0.287 0.252 0.289 0.288 0.287 0.36 0.252 0.36 0.252 0.36 0.217 0.36 0.215 0.36 0.109 0.36 0.107 0.432 0.072 0.36 0.072h0.648l0.324-0.072 0.36-0.072 0.216-0.107 0.324-0.109 0.216-0.215 0.18-0.217 0.252-0.252 0.108-0.252 0.18-0.287 0.072-0.289 0.072-0.359v-0.648l-0.072-0.324-0.072-0.35-0.108-0.289-0.18-0.359-0.18-0.324-0.252-0.287-0.216-0.289-0.252-0.287-0.288-0.324-0.324-0.287-0.36-0.182-0.36-0.252-0.36-0.107-0.36-0.18-0.36-0.072-0.36-0.035-0.36-0.072h-0.36l-0.36 0.072-0.288 0.035-0.288 0.072-0.324 0.107-0.288 0.18-0.252 0.182-0.216 0.18-0.18 0.25z" fill="#DBDB00"/>
      <path d="m27.792 222.12l-0.252 0.324-0.108 0.217-0.072 0.287-0.072 0.324-0.036 0.289 0.036 0.324 0.072 0.359 0.072 0.287 0.108 0.361 0.18 0.287 0.18 0.289 0.18 0.322 0.288 0.289 0.252 0.324 0.288 0.287 0.36 0.217 0.324 0.252 0.36 0.252 0.36 0.18 0.36 0.107 0.36 0.145 0.396 0.035 0.36 0.072h0.684l0.36-0.072 0.288-0.035 0.288-0.145 0.324-0.107 0.216-0.18 0.18-0.252 0.252-0.252 0.108-0.217 0.18-0.287 0.072-0.324 0.072-0.289v-0.683l-0.072-0.287-0.072-0.361-0.108-0.36-0.18-0.287-0.18-0.361-0.252-0.287-0.216-0.324-0.252-0.287-0.288-0.324-0.324-0.289-0.36-0.18-0.36-0.18-0.36-0.18-0.36-0.109-0.36-0.07-0.396-0.072-0.36-0.037h-0.684l-0.36 0.037-0.288 0.143-0.288 0.109-0.324 0.107-0.216 0.217-0.18 0.143-0.18 0.25z" fill="#F9F980"/>
      <path d="m28.368 220.75l-0.216 0.287-0.144 0.324-0.036 0.289-0.072 0.287-0.072 0.289 0.072 0.359 0.072 0.324 0.036 0.359 0.144 0.289 0.18 0.324 0.18 0.359 0.18 0.287 0.288 0.289 0.252 0.252 0.288 0.287 0.36 0.18 0.288 0.289 0.36 0.215 0.36 0.145 0.36 0.145 0.36 0.107 0.36 0.107h0.36l0.36 0.072 0.324-0.072h0.36l0.288-0.107 0.288-0.107 0.324-0.145 0.216-0.145 0.252-0.215 0.252-0.289 0.108-0.215 0.108-0.252 0.072-0.324 0.072-0.289v-0.647l-0.072-0.361-0.072-0.287-0.18-0.359-0.108-0.324-0.18-0.361-0.252-0.287-0.216-0.324-0.324-0.217-0.36-0.287-0.288-0.252-0.36-0.18-0.36-0.252-0.36-0.18-0.36-0.109-0.36-0.107-0.36-0.072-0.288-0.072h-0.72l-0.324 0.072-0.288 0.072-0.288 0.107-0.252 0.109-0.252 0.18-0.18 0.252-0.18 0.18z" fill="#DBDB00"/>
      <path d="m99 361.26l-0.252 0.287-0.108 0.324-0.072 0.289-0.036 0.324-0.072 0.287 0.072 0.359 0.036 0.289 0.072 0.359 0.108 0.289 0.18 0.324 0.18 0.359 0.18 0.287 0.324 0.324 0.216 0.217 0.324 0.287 0.36 0.217 0.288 0.287 0.36 0.18 0.36 0.182 0.36 0.107 0.36 0.107 0.36 0.145h0.36l0.36 0.072 0.288-0.072h0.36l0.324-0.145 0.288-0.107 0.288-0.107 0.252-0.182 0.252-0.18 0.216-0.287 0.144-0.252 0.108-0.252 0.072-0.289 0.036-0.359v-0.611l-0.036-0.361-0.072-0.359-0.18-0.287-0.108-0.361-0.18-0.324-0.252-0.359-0.252-0.287-0.288-0.289-0.36-0.252-0.288-0.287-0.36-0.18-0.36-0.182-0.36-0.18-0.36-0.143-0.36-0.037-0.36-0.072-0.324-0.035h-0.72l-0.288 0.035-0.288 0.072-0.324 0.107-0.216 0.145-0.252 0.145-0.18 0.252-0.178 0.17z" fill="#F9F980"/>
      <path d="m99.432 359.96l-0.18 0.289-0.144 0.217-0.036 0.322-0.072 0.29v0.683l0.072 0.359 0.108 0.289 0.108 0.359 0.144 0.359 0.18 0.289 0.216 0.287 0.252 0.361 0.288 0.324 0.36 0.252 0.36 0.215 0.324 0.252 0.36 0.18 0.36 0.182 0.36 0.107 0.36 0.072 0.36 0.072 0.36 0.035h0.648l0.36-0.035 0.288-0.072 0.324-0.145 0.288-0.107 0.252-0.18 0.216-0.217 0.252-0.252 0.108-0.252 0.144-0.289 0.036-0.287 0.072-0.324v-0.287l-0.072-0.324-0.036-0.289-0.144-0.359-0.108-0.287-0.18-0.361-0.18-0.287-0.18-0.324-0.252-0.289-0.288-0.322-0.288-0.217-0.324-0.287-0.36-0.254-0.36-0.18-0.36-0.18-0.36-0.107-0.36-0.145-0.36-0.107h-0.36l-0.288-0.072-0.36 0.072h-0.36l-0.288 0.107-0.324 0.145-0.288 0.107-0.252 0.18-0.216 0.18-0.18 0.27z" fill="#DBDB00"/>
      <path d="m128.23 309.67l-0.144 0.18-0.036 0.18-0.072 0.109-0.072 0.18v0.36l0.072 0.18 0.072 0.18 0.036 0.182 0.144 0.18 0.036 0.18 0.18 0.18 0.144 0.18 0.18 0.18 0.108 0.109 0.252 0.143 0.18 0.182 0.18 0.107 0.216 0.072 0.18 0.107 0.252 0.072 0.18 0.035h0.792l0.18-0.035 0.108-0.072 0.18-0.107 0.108-0.072 0.18-0.107 0.144-0.182 0.036-0.143 0.072-0.109 0.072-0.18 0.036-0.18v-0.36l-0.036-0.18-0.072-0.182-0.072-0.18-0.108-0.18-0.072-0.18-0.18-0.18-0.108-0.18-0.18-0.109-0.108-0.18-0.18-0.18-0.252-0.107-0.18-0.072-0.252-0.145-0.18-0.035-0.216-0.072-0.18-0.037h-0.18l-0.18-0.072-0.252 0.072h-0.18l-0.18 0.037-0.108 0.072-0.18 0.035-0.144 0.145-0.18 0.072-0.04 0.12z" fill="#F9F980"/>
      <path d="m128.52 308.95l-0.108 0.182-0.072 0.107v0.36l-0.072 0.18 0.072 0.18v0.182l0.072 0.18 0.036 0.18 0.072 0.18 0.108 0.18 0.144 0.18 0.108 0.182 0.18 0.143 0.108 0.145 0.252 0.145 0.18 0.18 0.18 0.035 0.252 0.145 0.18 0.072 0.216 0.035 0.18 0.072h0.864l0.108-0.072 0.18-0.035 0.18-0.072 0.108-0.145 0.144-0.035 0.108-0.18 0.072-0.145 0.036-0.145 0.072-0.143 0.072-0.182v-0.36l-0.072-0.18-0.072-0.18-0.036-0.18-0.144-0.182-0.036-0.18-0.18-0.18-0.144-0.18-0.18-0.18-0.108-0.107-0.18-0.182-0.18-0.107-0.18-0.145-0.252-0.072-0.18-0.107-0.18-0.035-0.216-0.072h-0.79l-0.18 0.072-0.18 0.035-0.18 0.107-0.108 0.072-0.144 0.145-0.11 0.13z" fill="#DBDB00"/>
      <path d="m99.108 49.32l-0.108 0.18-0.108 0.18-0.072 0.108v0.216l-0.072 0.144v0.216l0.072 0.144 0.072 0.216 0.036 0.144 0.072 0.216 0.072 0.144 0.108 0.216 0.18 0.144 0.108 0.216 0.18 0.108 0.252 0.108 0.18 0.18 0.18 0.108 0.252 0.072 0.18 0.144 0.216 0.036 0.18 0.072h0.864l0.18-0.072 0.18-0.036 0.18-0.144 0.108-0.072 0.108-0.108 0.18-0.18 0.072-0.108 0.072-0.108v-0.216l0.036-0.144v-0.216l-0.036-0.144v-0.216l-0.072-0.144-0.072-0.216-0.036-0.144-0.144-0.216-0.108-0.144-0.108-0.216-0.18-0.108-0.144-0.18-0.18-0.18-0.216-0.108-0.18-0.072-0.252-0.108-0.18-0.072-0.252-0.036-0.18-0.072h-0.216l-0.18-0.072-0.18 0.072h-0.25l-0.108 0.072-0.18 0.036-0.18 0.072-0.144 0.108-0.108 0.072-0.072 0.108z" fill="#F9F980"/>
      <path d="m99.432 48.6l-0.144 0.18-0.036 0.144-0.072 0.144-0.072 0.216v0.36l0.072 0.144 0.072 0.216 0.036 0.144 0.072 0.216 0.108 0.144 0.144 0.216 0.108 0.144 0.108 0.144 0.18 0.18 0.18 0.108 0.18 0.18 0.18 0.072 0.252 0.108 0.18 0.072 0.252 0.072 0.18 0.036h0.828l0.18-0.036 0.18-0.072 0.18-0.072 0.108-0.108 0.144-0.072 0.18-0.18 0.036-0.108 0.072-0.18v-0.144l0.072-0.144v-0.216l-0.072-0.144v-0.216l-0.072-0.144-0.036-0.216-0.072-0.144-0.108-0.216-0.144-0.144-0.108-0.216-0.18-0.144-0.108-0.144-0.18-0.18-0.252-0.108-0.18-0.144-0.252-0.036-0.18-0.108-0.216-0.072-0.18-0.072h-0.862l-0.108 0.072-0.18 0.072-0.18 0.108-0.108 0.036-0.144 0.144-0.036 0.108z" fill="#DBDB00"/>
    </g>
  </g>
  <metadata>
    <rdf:RDF>
      <cc:Work>
        <dc:format>image/svg+xml</dc:format>
        <dc:type rdf:resource="http://purl.org/dc/dcmitype/StillImage"/>
        <cc:license rdf:resource="http://creativecommons.org/licenses/publicdomain/"/>
        <dc:publisher>
          <cc:Agent rdf:about="http://openclipart.org/">
            <dc:title>Openclipart</dc:title>
          </cc:Agent>
        </dc:publisher>
        <dc:title>Lemon Variations</dc:title>
        <dc:date>2007-11-16T03:07:15</dc:date>
        <dc:description>clip art, clipart, food, food, fruit, fruit, image, lemon, lemon, media, png, public domain, svg, </dc:description>
        <dc:source>http://openclipart.org/detail/8604/lemon-variations-by-gerald_g-8604</dc:source>
        <dc:creator>
          <cc:Agent>
            <dc:title>Gerald_G</dc:title>
          </cc:Agent>
        </dc:creator>
        <dc:subject>
          <rdf:Bag>
            <rdf:li>clip art</rdf:li>
            <rdf:li>clipart</rdf:li>
            <rdf:li>food</rdf:li>
            <rdf:li>fruit</rdf:li>
            <rdf:li>image</rdf:li>
            <rdf:li>lemon</rdf:li>
            <rdf:li>media</rdf:li>
            <rdf:li>png</rdf:li>
            <rdf:li>public domain</rdf:li>
            <rdf:li>svg</rdf:li>
          </rdf:Bag>
        </dc:subject>
      </cc:Work>
      <cc:License rdf:about="http://creativecommons.org/licenses/publicdomain/">
        <cc:permits rdf:resource="http://creativecommons.org/ns#Reproduction"/>
        <cc:permits rdf:resource="http://creativecommons.org/ns#Distribution"/>
        <cc:permits rdf:resource="http://creativecommons.org/ns#DerivativeWorks"/>
      </cc:License>
    </rdf:RDF>
  </metadata>
</svg>
