<?xml version="1.0" encoding="UTF-8" standalone="no"?><!-- Generator: Gravit.io --><svg xmlns="http://www.w3.org/2000/svg" xmlns:xlink="http://www.w3.org/1999/xlink" style="isolation:isolate" viewBox="0 0 1024 768" width="1024pt" height="768pt"><defs><clipPath id="_clipPath_NDljsypeAiqLlQHNHczJwwYAWwhEZ6Lg"><rect width="1024" height="768"/></clipPath></defs><g clip-path="url(#_clipPath_NDljsypeAiqLlQHNHczJwwYAWwhEZ6Lg)"><g><path d=" M 939.013 361.308 L 916.517 440.682 L 917.711 440.682 L 869.534 622.612 C 869.534 630.864 867.344 638.526 863.362 645.206 L 808.615 768 L 752.673 768 L 779.35 724.973 L 779.35 622.809 L 779.549 622.809 L 779.549 622.612 L 778.952 622.612 L 730.774 522.806 L 514.174 522.806 L 487.696 622.612 C 487.696 630.864 485.307 638.723 481.326 645.206 L 426.578 768 L 370.836 768 L 397.513 724.973 L 397.513 622.809 L 397.712 622.809 L 397.712 622.612 L 397.114 622.612 L 348.937 522.806 L 343.164 522.806 C 273.485 522.806 217.145 496.086 217.145 427.322 L 217.145 52.85 L 695.139 52.85 C 697.727 52.85 700.116 52.85 702.704 53.047 C 862.168 57.566 975.644 208.258 939.013 361.308 Z " fill="rgb(132,112,79)"/><path d=" M 347.941 127.902 C 322.061 83.107 273.087 52.85 216.946 52.85 C 160.805 52.85 112.03 83.107 86.15 127.902 C 114.818 142.637 135.92 173.876 134.328 216.706 C 133.531 240.872 155.43 289.4 155.231 340.285 C 154.833 425.553 132.934 518.287 132.934 518.287 L 217.145 537.345 L 301.357 518.287 C 301.357 518.287 285.629 425.553 285.43 340.285 C 285.231 289.203 300.958 240.872 299.963 216.706 C 298.171 173.876 319.274 142.637 347.941 127.902 L 347.941 127.902 Z " fill="rgb(193,173,128)"/><path d=" M 730.774 522.806 L 761.433 586.462 L 751.877 622.612 C 751.877 630.864 749.488 638.723 745.506 645.206 L 690.759 768 L 635.016 768 L 661.693 724.973 L 661.693 622.809 L 661.892 622.809 L 661.892 622.612 L 661.295 622.612 L 613.117 522.806 L 730.774 522.806 L 730.774 522.806 Z  M 348.937 522.806 L 343.164 522.806 C 340.177 522.806 337.191 522.806 334.006 522.609 C 331.617 548.936 305.736 550.508 302.352 550.705 C 298.996 571.972 287.618 591.201 270.499 604.537 L 279.259 622.612 L 279.856 622.612 L 279.856 622.809 L 279.657 622.809 L 279.657 724.973 L 252.98 768 L 308.723 768 L 363.47 645.206 C 367.451 638.526 369.84 630.864 369.84 622.612 L 379.396 586.462 L 348.937 522.806 Z  M 1021.034 512.589 C 949.166 463.865 943.393 370.149 943.99 334.588 C 942.795 343.429 941.203 352.467 939.013 361.308 L 925.675 408.264 C 928.263 426.339 933.24 445.593 942.198 464.258 C 959.319 500.408 989.779 516.912 1015.062 524.574 C 1022.627 526.932 1027.405 516.912 1021.034 512.589 L 1021.034 512.589 Z " fill="rgb(119,96,64)"/><path d=" M 217.145 452.273 C 264.925 452.273 303.546 490.388 303.546 537.541 C 303.546 584.694 264.925 622.809 217.145 622.809 C 169.366 622.809 130.744 584.694 130.744 537.541 C 130.744 490.388 169.366 452.273 217.145 452.273 Z  M 134.328 216.706 C 135.92 173.876 114.818 142.637 86.15 127.902 C 65.149 164.306 60.673 207.762 73.823 247.592 C 86.973 287.422 116.53 319.935 155.231 337.142 C 154.435 287.435 133.531 240.282 134.328 216.706 L 134.328 216.706 Z  M 338.983 113.952 C 340.775 116.507 342.566 118.864 344.159 121.615 C 344.159 121.811 344.358 121.811 344.358 122.008 C 345.553 123.972 346.946 125.937 347.941 128.098 C 319.274 142.833 298.171 174.072 299.963 216.903 L 299.963 225.154 C 299.963 225.744 299.963 226.137 299.764 226.726 C 299.764 227.119 299.764 227.512 299.565 227.905 C 299.565 228.494 299.366 229.084 299.366 229.673 C 299.366 230.066 299.366 230.459 299.167 230.852 C 299.167 231.441 298.968 232.031 298.968 232.62 C 298.968 233.013 298.968 233.406 298.768 233.602 C 298.768 234.192 298.569 234.978 298.569 235.567 C 298.569 235.96 298.569 236.157 298.37 236.55 C 298.171 237.335 298.171 238.121 297.972 238.711 C 297.972 238.907 297.972 239.3 297.773 239.497 C 297.574 240.282 297.574 241.265 297.375 242.051 L 297.375 242.64 C 297.176 243.622 296.977 244.605 296.778 245.784 C 292.796 269.753 286.027 301.188 285.231 333.998 C 334.006 309.44 367.65 259.34 367.65 201.381 C 367.85 168.767 357.099 138.511 338.983 113.952 L 338.983 113.952 Z  M 430.361 0 C 405.675 1.768 371.433 9.823 338.187 43.616 C 311.908 70.336 290.805 69.354 283.041 67.782 C 310.303 80.933 332.918 101.883 347.941 127.902 C 345.752 129.081 343.761 130.259 341.571 131.438 C 366.058 131.045 391.938 124.955 407.467 104.915 C 443.5 58.155 430.361 0 430.361 0 Z  M 152.444 67.193 C 149.259 68.371 125.369 75.248 94.511 43.616 C 61.265 9.823 27.023 1.572 2.337 0 C 2.337 0 -10.802 58.155 25.231 104.915 C 41.158 125.544 67.635 131.438 92.521 131.438 C 90.53 130.063 88.34 128.884 86.15 127.902 C 101.454 101.465 124.587 80.28 152.444 67.193 L 152.444 67.193 Z " fill="rgb(175,156,110)"/><path d=" M 113.623 210.812 C 120.451 210.812 126.76 214.407 130.174 220.243 C 133.588 226.078 133.588 233.268 130.174 239.104 C 126.76 244.939 120.451 248.534 113.623 248.534 C 103.068 248.534 94.511 240.09 94.511 229.673 C 94.511 219.256 103.068 210.812 113.623 210.812 L 113.623 210.812 Z  M 320.866 210.812 C 327.694 210.812 334.004 214.407 337.418 220.243 C 340.832 226.078 340.832 233.268 337.418 239.104 C 334.004 244.939 327.694 248.534 320.866 248.534 C 310.311 248.534 301.755 240.09 301.755 229.673 C 301.755 219.256 310.311 210.812 320.866 210.812 L 320.866 210.812 Z " fill="rgb(123,103,65)"/><path d=" M 922.688 406.496 C 922.688 470.545 869.932 522.609 805.031 522.609 C 739.932 522.609 687.375 470.545 687.375 406.496 C 687.375 342.25 740.131 290.382 805.031 290.382 C 869.932 290.382 922.688 342.447 922.688 406.496 Z  M 356.104 104.129 C 356.104 104.129 346.747 63.853 376.211 39.687 C 376.211 39.687 422 15.521 422 15.521 C 422 15.521 432.551 94.502 356.104 104.129 Z  M 76.395 104.129 C 76.395 104.129 85.752 63.853 56.288 39.687 C 27.023 15.325 10.698 15.325 10.698 15.325 C 10.698 15.325 0.147 94.502 76.395 104.129 L 76.395 104.129 Z  M 182.306 521.627 C 190.468 521.627 197.038 528.111 197.038 536.166 C 197.038 544.221 190.468 550.705 182.306 550.705 C 174.144 550.705 167.574 544.221 167.574 536.166 C 167.574 528.111 174.144 521.627 182.306 521.627 Z  M 245.614 521.627 C 253.776 521.627 260.346 528.111 260.346 536.166 C 260.346 544.221 253.776 550.705 245.614 550.705 C 237.452 550.705 230.882 544.221 230.882 536.166 C 230.882 528.111 237.452 521.627 245.614 521.627 Z  M 132.934 518.287 C 132.934 518.287 154.833 425.553 155.231 340.285 L 155.231 337.142 C 101.206 313.106 66.464 260.061 66.441 201.578 C 66.441 201.578 63.057 301.974 25.43 350.305 L 53.302 369.559 L 38.57 393.725 C 38.57 393.725 69.626 400.209 95.706 463.079 C 117.804 516.519 131.54 554.437 135.124 564.457 C 130.178 549.546 129.421 533.59 132.934 518.287 Z  M 368.049 201.578 L 367.85 201.774 C 367.85 259.536 334.205 309.44 285.43 333.998 C 285.43 332.23 285.43 330.462 285.629 328.89 C 285.43 332.623 285.43 336.553 285.43 340.285 C 285.629 425.553 301.357 518.287 301.357 518.287 C 305.059 534.48 304.023 551.377 298.37 567.012 L 298.37 567.208 C 298.37 567.208 312.704 525.949 338.784 463.079 C 364.863 400.209 395.92 393.725 395.92 393.725 L 381.188 369.559 L 409.059 350.305 C 371.632 301.974 368.049 201.578 368.049 201.578 Z " fill="rgb(158,138,95)"/><path d=" M 131.74 550.705 C 131.74 550.705 101.678 550.705 99.687 521.627 C 98.294 499.622 114.22 465.24 121.985 449.916 C 123.179 447.558 126.563 448.344 126.962 450.898 L 132.934 518.483 C 132.934 518.287 147.268 535.576 131.74 550.705 L 131.74 550.705 Z  M 302.153 550.705 C 302.153 550.705 332.214 550.705 334.205 521.627 C 335.598 499.622 319.672 465.24 311.908 449.916 C 310.713 447.558 307.329 448.344 306.931 450.898 L 300.958 518.483 C 300.958 518.287 286.625 535.576 302.153 550.705 L 302.153 550.705 Z " fill="rgb(234,217,183)"/></g></g></svg>