<?xml version="1.0" encoding="UTF-8"?>
<!DOCTYPE svg PUBLIC "-//W3C//DTD SVG 1.1//EN" "http://www.w3.org/Graphics/SVG/1.1/DTD/svg11.dtd">
<!-- Creator: CorelDRAW X7 -->
<svg xmlns="http://www.w3.org/2000/svg" xml:space="preserve" width="147.72mm" height="181.942mm" version="1.1" style="shape-rendering:geometricPrecision; text-rendering:geometricPrecision; image-rendering:optimizeQuality; fill-rule:evenodd; clip-rule:evenodd"
viewBox="0 0 14772 18194"
 xmlns:xlink="http://www.w3.org/1999/xlink">
 <defs>
  <style type="text/css">
   <![CDATA[
    .fil0 {fill:black}
    .fil11 {fill:#276B05}
    .fil4 {fill:#2D7807}
    .fil5 {fill:#339800}
    .fil10 {fill:#8A0404}
    .fil8 {fill:#A60707}
    .fil6 {fill:#CC0000}
    .fil13 {fill:#D91111}
    .fil7 {fill:#DEB204}
    .fil12 {fill:#DEB6A9}
    .fil9 {fill:#E32D2D}
    .fil1 {fill:#F2C8BA}
    .fil3 {fill:#FFCC00}
    .fil14 {fill:white}
    .fil2 {fill:black}
   ]]>
  </style>
 </defs>
 <g id="Layer_x0020_1">
  <metadata id="CorelCorpID_0Corel-Layer"/>
  <g id="_780994176">
   <path class="fil0" d="M12016 5076c22,-37 39,-74 48,-110 54,-205 -145,-365 -271,-583 -126,-219 -180,-498 -193,-810 -13,-311 13,-656 -179,-822 -192,-166 -604,-153 -842,-219 -239,-66 -306,-212 -1062,-571 -756,-358 -2202,-928 -3243,-1320 -1042,-391 -1679,-603 -2143,-636 -464,-34 -756,112 -1101,404 -345,292 -743,730 -1028,1360 -116,255 -213,542 -283,800 -647,27 -1163,560 -1163,1214 0,670 544,1214 1214,1214 671,0 1215,-544 1215,-1214 0,-525 -333,-972 -798,-1142 46,-59 93,-117 140,-169 318,-351 637,-444 895,-424 259,20 458,152 551,650 93,497 79,1360 60,2069 -20,710 -47,1267 6,1632 53,365 186,537 491,703 59,32 124,64 193,94 -47,-6 -96,-12 -145,-17 -935,-105 -2146,-166 -3035,-165 -889,1 -1456,65 -1324,141 133,75 966,162 1732,652 766,490 1466,1383 1967,1997 501,614 804,949 1254,1037 450,88 1047,-72 1479,-287 184,-91 281,-36 307,75 22,92 -5,222 -72,338 -51,89 -78,74 -291,2 -367,-123 -792,-36 -1074,247 -158,159 -304,416 -354,635 -66,288 -22,596 136,847 29,47 63,92 102,134 -84,141 -120,243 -153,353 -51,172 -94,366 -70,562 15,117 53,234 115,351 -188,-210 -332,-511 -308,-872 24,-370 225,-804 123,-834 -102,-30 -505,343 -800,697 -295,354 -482,688 -598,1024 -115,336 -161,675 -30,940 131,265 438,456 613,824 176,368 220,913 426,1293 206,379 575,593 949,613 374,20 755,-153 1020,-351 120,-89 216,-184 292,-282 44,-57 40,-45 159,46 102,78 312,201 616,312 282,102 645,193 1039,239l416 416c42,42 110,42 152,0l388 -388c148,-8 293,-22 431,-42 401,-56 740,-158 1001,-260 261,-103 443,-205 543,-304 34,-34 89,-74 143,-72 32,1 64,19 90,63 125,217 320,399 624,530 304,130 714,210 1074,103 359,-107 667,-402 779,-819 112,-417 28,-957 112,-1356 85,-399 338,-656 403,-945 66,-288 -57,-606 -249,-906 -191,-300 -450,-581 -820,-856 -369,-275 -849,-544 -941,-491 -91,53 205,428 315,782 110,354 34,687 -106,938 -51,91 -110,172 -175,248 305,-642 255,-1422 -172,-2027 21,-15 42,-32 61,-50 309,-284 321,-598 267,-984 -51,-359 -341,-688 -659,-843 -138,-67 -276,-103 -412,-109 -213,-11 -419,51 -606,174 -150,100 -164,79 -194,27 -51,-88 -66,-143 -84,-190 -13,-33 -24,-65 -52,-127 -2,-28 -1,-35 22,-46 134,-65 415,-286 493,-361 488,-469 854,-1088 854,-1871 0,-147 -6,-277 -16,-393 89,-240 187,-499 300,-761 346,-802 827,-1629 1093,-2178 266,-548 317,-818 -135,-620 -354,156 -1018,600 -1522,1047z"/>
   <path class="fil1" d="M12858 11337c46,325 61,639 -242,918 -92,84 -222,154 -359,136 -155,-21 -211,-159 -235,-308 -104,92 -259,207 -434,184 -338,-46 -414,-397 -285,-662 -454,25 -511,-536 -164,-864 732,-691 1634,-10 1719,596zm-5923 346c0,208 -39,314 -334,382 158,237 145,602 -191,696 -210,59 -378,-95 -479,-122 46,95 -18,359 -239,359 -395,0 -788,-532 -651,-1130 50,-219 198,-461 334,-598 355,-356 903,-349 1253,-93 135,99 307,284 307,506z"/>
   <path class="fil1" d="M11475 5627c141,357 182,758 269,955 97,219 269,581 320,803 231,997 -168,1950 -945,2564 -699,552 -1407,792 -2339,792 -239,0 -432,-36 -631,-86 -231,-58 -321,-102 -513,-180 -226,-92 -686,-423 -820,-591 -69,-88 -131,-164 -188,-239 -2,137 -7,227 20,309 54,164 237,298 24,409 -212,110 -820,196 -1264,169 -444,-27 -723,-167 -1084,-533 -360,-365 -801,-957 -1221,-1412 -420,-454 -818,-772 -1143,-989 -325,-218 -578,-337 -336,-381 242,-44 979,-15 1662,93 683,107 1313,293 1729,516 417,223 622,484 762,537 139,52 215,-104 246,-421 18,-184 21,-423 42,-548 12,-72 56,-74 188,-74 260,0 594,-16 1016,-104 422,-89 934,-251 1533,-487 600,-237 1289,-549 1792,-794 311,-151 552,-277 741,-386 55,-31 100,-24 140,78z"/>
   <path class="fil2" d="M8986 8383c0,1309 -1328,948 -1077,-189 55,113 160,190 280,190 178,0 322,-168 322,-375 0,-196 -130,-358 -296,-373 285,-66 454,-94 648,251 75,133 123,285 123,496z"/>
   <path class="fil2" d="M11344 7540c0,1027 -1020,770 -873,-96 43,40 98,64 157,64 139,0 251,-130 251,-292 0,-123 -66,-229 -159,-271 233,-55 369,-80 525,198 60,107 99,229 99,397z"/>
   <path class="fil2" d="M10399 9924c-28,17 -236,74 -415,136 -180,62 -332,130 -508,120 -175,-11 -375,-99 -399,-163 -24,-65 126,-105 331,-112 204,-7 461,19 665,21 204,3 354,-19 326,-2z"/>
   <path class="fil0" d="M2660 7604c269,50 921,226 1327,380 407,154 567,285 662,428 94,143 123,298 181,388 59,90 147,116 276,123 129,6 299,-7 457,49 157,55 304,180 349,287 45,108 -11,199 -183,228 -171,29 -457,-3 -671,-73 -213,-70 -354,-178 -460,-354 -106,-177 -177,-423 -346,-614 -169,-192 -436,-330 -607,-369 -172,-38 -247,24 -222,135 26,111 153,271 315,421 163,151 360,292 356,332 -5,40 -211,-21 -449,-180 -238,-160 -507,-417 -683,-612 -176,-195 -260,-329 -359,-435 -99,-105 -212,-183 57,-134z"/>
   <path class="fil1" d="M12144 5294c123,-114 254,-262 424,-416 169,-153 376,-312 574,-433 198,-121 386,-204 457,-154 72,50 26,232 -183,635 -208,402 -579,1023 -812,1471 -233,448 -327,722 -414,721 -87,-2 -168,-279 -215,-476 -47,-198 -61,-316 -85,-482 -24,-165 -59,-378 -20,-524 39,-147 152,-228 274,-342z"/>
   <path class="fil3" d="M1770 2738c578,0 1045,467 1045,1045 0,577 -467,1044 -1045,1044 -577,0 -1044,-467 -1044,-1044 0,-578 467,-1045 1044,-1045z"/>
   <path class="fil4" d="M12882 12642c60,114 122,226 175,344 28,63 54,128 74,194 105,336 60,691 -111,997 -108,193 -259,347 -412,501 -65,93 -139,181 -221,264l-184 183c-125,159 -240,328 -327,500 -127,250 -195,513 -201,793 -6,242 34,491 154,705 132,237 341,391 587,497 307,131 695,197 1022,100 362,-108 630,-403 727,-765 53,-196 60,-414 63,-615 4,-241 -1,-502 48,-737 42,-195 122,-362 217,-535 69,-127 155,-270 187,-411 66,-291 -87,-610 -239,-849 -211,-332 -487,-602 -801,-836 -55,-41 -111,-81 -168,-120 -142,-96 -292,-190 -445,-268 -182,-92 -256,-155 -145,58zm-8088 -117c-49,35 -99,76 -118,93 -131,111 -255,237 -370,365 -47,50 -92,102 -136,155 -251,301 -455,628 -584,1000 -92,268 -165,614 -33,881 64,130 180,249 277,356 133,147 250,290 336,469 104,218 159,473 219,706 51,195 108,405 205,583 179,330 509,554 886,574 341,18 702,-136 970,-336 215,-160 382,-359 455,-621 65,-231 95,-605 -87,-787l-1032 -1032c-138,-138 -252,-292 -342,-458 -139,-89 -271,-185 -385,-308 -238,-258 -365,-592 -342,-944 5,-69 15,-138 27,-206 24,-126 58,-250 90,-375 26,-105 78,-197 -36,-115z"/>
   <path class="fil5" d="M11468 5275c221,-138 363,-232 413,-334 50,-103 7,-213 -62,-341 -69,-127 -163,-273 -218,-430 -55,-157 -71,-327 -74,-521 -3,-193 8,-411 -19,-563 -27,-152 -91,-238 -207,-300 -115,-62 -282,-99 -438,-132 -156,-32 -301,-59 -312,-36 -11,23 113,95 -43,250 -156,155 -592,392 -1198,662 -607,270 -1384,574 -2098,804 -714,230 -1365,386 -1820,486 -454,99 -713,142 -925,139 -212,-2 -379,-51 -463,-21 -83,29 -83,137 -86,360 -2,224 -8,562 14,829 21,266 70,460 172,605 102,145 258,242 578,317 320,76 804,129 1256,135 452,5 872,-38 1369,-154 498,-115 1073,-304 1644,-524 570,-221 1135,-473 1566,-691 432,-218 730,-401 951,-540z"/>
   <path class="fil6" d="M4004 4767c86,69 256,101 577,78 322,-23 795,-101 1392,-251 597,-151 1318,-374 1918,-589 600,-216 1078,-423 1467,-603 389,-180 687,-333 857,-440 169,-106 210,-165 226,-224 16,-59 8,-119 -104,-218 -111,-100 -327,-239 -723,-432 -397,-192 -975,-437 -1531,-667 -555,-230 -1088,-445 -1589,-632 -502,-187 -973,-346 -1342,-460 -370,-114 -639,-184 -849,-222 -210,-37 -360,-43 -521,-9 -160,33 -329,106 -494,215 -166,109 -327,254 -480,418 -154,164 -299,347 -432,545 -133,198 -254,410 -338,593 -83,183 -129,336 -164,446 -35,111 -59,178 -55,212 4,33 36,33 73,37 36,4 76,12 113,20 36,9 68,17 113,-9 44,-26 100,-85 178,-165 78,-81 178,-183 299,-260 121,-77 264,-128 429,-156 165,-28 354,-34 546,-12 192,21 389,70 565,89 176,19 332,8 477,-30 145,-37 280,-102 431,-234 150,-132 317,-331 382,-379 64,-48 26,54 -49,167 -75,113 -188,236 -312,333 -124,97 -258,167 -409,213 -150,45 -317,67 -360,97 -43,29 38,67 175,96 137,30 331,51 527,41 196,-11 395,-54 476,-54 81,0 43,43 -70,78 -113,35 -301,62 -476,81 -175,18 -336,29 -476,5 -140,-24 -258,-83 -371,-143 -113,-59 -221,-118 -296,-150 -75,-33 -118,-38 -94,19 24,56 115,174 169,333 54,159 70,358 73,613 2,256 -8,568 -14,799 -5,231 -5,382 -4,510 2,128 4,232 90,301z"/>
   <path class="fil4" d="M7562 4217c27,-2 50,-2 67,1 122,26 -66,225 -335,431 -269,206 -619,418 -873,554 -254,136 -413,195 -355,206 58,10 332,-27 393,39 60,66 -93,235 -219,361 -127,127 -226,210 -358,312 -132,103 -296,224 -387,320 -92,97 -111,170 -54,238 56,69 188,134 418,179 230,46 558,73 999,31 441,-41 995,-152 1385,-238 390,-86 616,-148 642,-123 1,0 1,1 2,2 -549,210 -1101,389 -1580,500 -497,116 -917,159 -1369,154 -452,-6 -936,-59 -1256,-135 -320,-75 -476,-172 -578,-317 -102,-145 -151,-339 -172,-605 -22,-267 -16,-605 -14,-829 3,-223 3,-331 86,-360 84,-30 251,19 463,21 212,3 471,-40 925,-139 455,-100 1106,-256 1820,-486 115,-37 232,-76 350,-117z"/>
   <path class="fil4" d="M9593 3453c174,-75 370,-159 537,-245 167,-86 304,-175 391,-255 88,-81 125,-154 137,-203 12,-50 -1,-77 70,-69 72,8 228,51 354,93 126,42 223,82 284,137 60,55 84,125 98,272 13,146 16,370 21,543 6,173 14,297 54,424 41,126 113,255 167,365 54,111 89,202 97,281 8,80 -11,147 -112,240 -101,93 -284,211 -471,324 -186,113 -377,221 -537,305 -160,85 -290,147 -199,53 90,-94 399,-345 605,-549 205,-204 308,-363 335,-487 26,-124 -22,-212 -116,-216 -94,-4 -234,76 -246,-6 -12,-82 103,-327 161,-536 58,-210 58,-385 59,-509 2,-123 4,-196 -31,-269 -35,-72 -107,-145 -212,-138 -105,7 -242,93 -444,180 -202,87 -468,176 -725,256 -257,79 -504,149 -552,150 -49,2 102,-66 275,-141z"/>
   <path class="fil7" d="M1959 2997c24,85 46,206 44,379 -1,174 -25,400 -86,573 -60,174 -157,295 -254,382 -97,88 -194,141 -299,155 -104,13 -217,-14 -305,-34 -41,-9 -76,-17 -112,-26 191,244 489,401 823,401 578,0 1045,-467 1045,-1044 0,-507 -361,-930 -840,-1025 -29,18 -46,39 -52,60 -15,46 12,94 36,179z"/>
   <path class="fil8" d="M3482 1974c194,-7 403,-9 584,-22 262,-19 467,-62 644,-142 178,-81 329,-199 471,-346 143,-146 277,-321 340,-321 64,0 55,175 41,317 -15,143 -37,253 -120,359 -83,106 -229,209 -335,274 -106,66 -173,96 -98,116 75,20 293,31 546,31 253,0 541,-11 792,-32 252,-22 467,-54 304,24 -163,78 -703,266 -1111,389 -407,122 -682,178 -822,328 -139,149 -145,391 -60,552 85,162 259,243 413,295 153,52 285,77 489,106 205,30 482,65 814,58 332,-7 719,-55 1144,-141 425,-86 888,-210 1032,-209 111,1 32,77 -148,202 -160,63 -330,128 -511,193 -600,215 -1321,438 -1918,589 -597,150 -1070,228 -1392,251 -321,23 -491,-9 -577,-78 -86,-69 -88,-173 -90,-301 -1,-128 -1,-279 4,-510 6,-231 16,-543 14,-799 -3,-255 -19,-454 -73,-613 -54,-159 -145,-277 -169,-333 -24,-57 19,-52 94,-19 75,32 183,91 296,150 113,60 231,119 371,143 140,24 301,13 476,-5 175,-19 363,-46 476,-81 113,-35 151,-78 70,-78 -81,0 -280,43 -476,54 -196,10 -390,-11 -527,-41 -137,-29 -218,-67 -175,-96 43,-30 210,-52 360,-97 151,-46 285,-116 409,-213 124,-97 237,-220 312,-333 75,-113 113,-215 49,-167 -65,48 -232,247 -382,379 -151,132 -286,197 -431,234 -145,38 -301,49 -477,30 -176,-19 -373,-68 -565,-89 -29,-3 -59,-6 -88,-8z"/>
   <path class="fil9" d="M5732 518c-437,-26 -868,-49 -1196,-56 -412,-8 -662,11 -953,116 -290,105 -621,296 -895,535 -217,189 -398,409 -513,488 61,-108 129,-219 201,-325 133,-198 278,-381 432,-545 153,-164 314,-309 480,-418 165,-109 334,-182 494,-215 161,-34 311,-28 521,9 210,38 479,108 849,222 173,54 369,117 580,189z"/>
   <path class="fil9" d="M8579 1628c216,137 446,283 624,420 365,281 507,528 510,714 3,185 -134,309 -251,414 -117,105 -214,191 -276,269 -14,18 -27,36 -35,52 72,-33 141,-64 207,-95 389,-180 687,-333 857,-440 169,-106 210,-165 226,-224 16,-59 8,-119 -104,-218 -111,-100 -327,-239 -723,-432 -279,-135 -648,-296 -1035,-460z"/>
   <path class="fil6" d="M7003 11591c559,-57 1139,128 1565,554l522 522 511 -511c383,-384 891,-571 1396,-563 57,45 125,72 197,83 -87,295 39,620 384,666 148,20 282,-40 398,-124 42,125 121,229 271,248 104,14 205,-13 294,-63 535,753 466,1811 -208,2485 -1074,1074 -2147,2147 -3221,3221 -12,12 -32,12 -44,0 -1078,-1078 -2154,-2154 -3232,-3232 -517,-516 -678,-1258 -485,-1916 101,69 217,113 341,113 130,0 232,-72 288,-187 18,-35 32,-79 38,-124 27,14 54,27 82,39 107,46 216,65 331,32 337,-94 415,-439 284,-721 100,-32 196,-83 248,-176 43,-77 48,-168 48,-254 0,-31 -2,-62 -8,-92z"/>
   <path class="fil0" d="M10288 8640c57,-25 321,-91 498,-69 177,23 268,134 294,253 25,119 -14,246 -137,352 -123,106 -329,192 -542,197 -213,4 -432,-72 -477,-107 -46,-34 83,-26 217,-27 135,-2 275,-13 408,-55 132,-42 258,-115 318,-203 61,-88 56,-191 -11,-250 -67,-60 -196,-77 -336,-78 -139,-2 -289,13 -232,-13z"/>
   <path class="fil5" d="M10705 10382c-138,40 -386,158 -616,243 -230,85 -442,136 -576,343 -135,207 -191,570 -249,830 -58,259 -117,415 -175,326 -58,-88 -114,-422 -163,-675 -48,-253 -89,-425 -254,-534 -165,-109 -456,-154 -730,-227 -275,-72 -533,-172 -704,-247 -170,-76 -254,-127 -312,-124 -57,3 -90,59 -94,117 -4,58 20,117 30,196 9,80 4,179 -23,259 -27,79 -75,138 -74,208 1,70 53,151 98,216 46,66 86,117 145,147 60,30 138,38 267,48 129,11 309,25 481,72 172,47 336,128 502,228 165,101 332,222 462,341 131,118 225,234 281,297 57,63 76,74 124,37 49,-36 127,-119 240,-229 113,-111 260,-248 411,-356 151,-107 304,-185 449,-243 146,-58 283,-95 396,-120 113,-24 201,-35 230,-59 28,-24 -4,-62 -22,-118 -17,-57 -20,-132 -9,-209 10,-76 35,-154 70,-221 35,-68 80,-124 107,-163 27,-39 35,-61 27,-96 -8,-35 -32,-83 -55,-127 -23,-45 -44,-85 -70,-124 -26,-39 -55,-77 -194,-36z"/>
   <path class="fil8" d="M11419 15948c-342,310 -1049,1025 -1391,1383 -341,358 -317,358 -240,347 76,-11 205,-32 372,-67 167,-35 371,-84 573,-154 202,-70 401,-161 537,-236 135,-76 208,-135 252,-201 45,-66 61,-138 69,-274 8,-136 8,-335 27,-498 19,-162 56,-289 87,-400 31,-112 55,-209 -286,100zm-4168 475c254,233 765,732 1028,990 263,257 277,274 263,280 -14,7 -57,4 -171,-19 -115,-22 -300,-65 -488,-118 -187,-52 -377,-114 -529,-183 -152,-70 -266,-146 -334,-209 -68,-62 -90,-111 -90,-182 0,-71 22,-165 41,-261 19,-95 35,-192 40,-270 4,-78 -3,-137 -7,-183 -5,-46 -8,-78 247,155z"/>
   <path class="fil10" d="M11435 16124c-139,177 -279,414 -357,594 -78,180 -94,304 -46,487 10,37 23,76 36,117 -103,47 -219,95 -335,135 -202,70 -406,119 -573,154 -167,35 -296,56 -372,67 -77,11 -101,11 240,-347 342,-358 1049,-1073 1391,-1383 273,-247 312,-235 301,-163 -91,117 -188,213 -285,339z"/>
   <path class="fil10" d="M7031 16273c214,203 299,529 519,801 193,237 489,433 725,580 -110,-24 -250,-58 -392,-98 -187,-52 -377,-114 -529,-183 -152,-70 -266,-146 -334,-209 -68,-62 -90,-111 -90,-182 0,-71 22,-165 41,-261 19,-95 35,-192 40,-270 4,-78 -3,-137 -7,-183 -1,-8 -2,-15 -1,-20 10,8 19,16 28,25z"/>
   <path class="fil11" d="M12945 12546c70,256 317,600 436,993 118,392 107,834 -14,1224 -121,390 -352,728 -463,1032 -110,304 -99,573 38,729 137,156 401,199 613,151 213,-49 374,-188 533,-457 49,-84 98,-180 148,-267 -6,131 -6,263 -8,389 -3,201 -10,419 -63,615 -97,362 -365,657 -727,765 -327,97 -715,31 -1022,-100 -246,-106 -455,-260 -587,-497 -120,-214 -160,-463 -154,-705 6,-280 74,-543 201,-793 87,-172 202,-341 327,-500l184 -183c82,-83 156,-171 221,-264 153,-154 304,-308 412,-501 171,-306 216,-661 111,-997 -20,-66 -46,-131 -74,-194 -53,-118 -115,-230 -175,-344 -92,-177 -57,-164 61,-101l2 5z"/>
   <path class="fil11" d="M3758 15296c-12,-239 15,-494 85,-692 113,-318 339,-490 498,-775 158,-285 250,-683 341,-1033 21,-80 43,-159 57,-230 -28,22 -51,42 -63,52 -131,111 -255,237 -370,365 -47,50 -92,102 -136,155 -251,301 -455,628 -584,1000 -92,268 -165,614 -33,881 48,99 127,191 205,277z"/>
   <path class="fil11" d="M5127 14237c208,462 519,1149 650,1666 137,541 78,896 -78,1113 -156,218 -409,299 -689,229 -152,-38 -312,-121 -447,-165 9,18 18,36 27,53 179,330 509,554 886,574 341,18 702,-136 970,-336 215,-160 382,-359 455,-621 65,-231 95,-605 -87,-787l-1032 -1032c-138,-138 -252,-292 -342,-458 -110,-71 -217,-146 -313,-236z"/>
   <path class="fil12" d="M9226 6556c-260,259 -569,466 -964,676 -492,260 -1116,524 -1428,785 -312,261 -312,519 -199,823 113,304 339,654 611,947 271,293 589,530 925,721 149,85 303,160 400,223 -149,-14 -285,-42 -422,-76 -231,-58 -321,-102 -513,-180 -226,-92 -686,-423 -820,-591 -69,-88 -131,-164 -188,-239 -2,137 -7,227 20,309 54,164 237,298 24,409 -212,110 -820,196 -1264,169 -444,-27 -723,-167 -1084,-533 -216,-219 -460,-519 -712,-822 165,76 382,208 605,333 422,236 863,446 1221,519 358,72 632,8 729,-205 97,-212 16,-573 -204,-885 -221,-312 -581,-575 -974,-815 -393,-239 -818,-454 -1291,-589 -473,-134 -995,-188 -1539,-263 -147,-21 -295,-42 -433,-67 309,-25 955,10 1560,105 683,107 1313,293 1729,516 417,223 622,484 762,537 139,52 215,-104 246,-421 18,-184 21,-423 42,-548 12,-72 56,-74 188,-74 260,0 594,-16 1016,-104 422,-89 934,-251 1533,-487 138,-55 280,-113 424,-173z"/>
   <path class="fil12" d="M10708 5879c171,36 325,31 443,62 196,51 293,201 344,336 51,134 57,253 89,371 32,118 91,237 153,438 62,202 127,487 129,807 3,320 -56,675 -166,995 -111,320 -272,606 -412,872 -15,28 -29,56 -43,84 693,-615 1037,-1517 819,-2459 -51,-222 -223,-584 -320,-803 -87,-197 -128,-598 -269,-955 -40,-102 -85,-109 -140,-78 -165,95 -370,203 -627,330z"/>
   <path class="fil12" d="M11924 6391c16,26 34,44 53,50 32,10 68,-15 109,-66 1,-43 3,-88 8,-134 22,-217 91,-447 342,-780 251,-333 684,-769 813,-853 32,-20 45,-20 45,-4 72,-74 123,-123 174,-168 74,-67 148,-128 80,-160 -90,-3 -245,71 -406,169 -198,121 -405,280 -574,433 -170,154 -301,302 -424,416 -122,114 -235,195 -274,342 -39,146 -4,359 20,524 12,83 22,155 34,231z"/>
   <path class="fil0" d="M13249 4608c-129,84 -562,520 -813,853 -251,333 -320,563 -342,780 -22,217 2,421 60,462 59,40 153,-84 224,-265 71,-180 120,-416 225,-655 105,-240 266,-481 434,-736 167,-255 342,-523 212,-439z"/>
   <path class="fil12" d="M10915 11248c49,9 86,71 127,122 66,82 141,133 225,154 83,22 174,14 199,53 24,39 -19,125 -38,211 -19,86 -14,172 23,235 36,63 103,104 162,116 60,12 111,-4 187,-30 77,-25 179,-60 234,-86 56,-25 64,-42 76,-8 12,34 28,117 94,160 66,43 181,46 282,-21 101,-68 187,-205 244,-374 52,-156 78,-339 98,-572 14,43 24,87 30,129 46,325 61,639 -242,918 -92,84 -222,154 -359,136 -155,-21 -211,-159 -235,-308 -104,92 -259,207 -434,184 -338,-46 -414,-397 -285,-662 -251,14 -380,-151 -388,-357zm-3980 435c0,208 -39,314 -334,382 158,237 145,602 -191,696 -210,59 -378,-95 -479,-122 46,95 -18,359 -239,359 -395,0 -788,-532 -651,-1130 50,-219 198,-461 334,-598 71,-71 149,-127 232,-170 -30,127 -191,299 -264,500 -74,201 -61,433 -30,621 31,188 79,333 145,425 66,91 150,129 218,122 69,-7 122,-58 149,-111 27,-54 27,-111 104,-112 77,-1 230,52 346,51 115,-1 193,-58 242,-125 48,-67 67,-145 48,-234 -19,-89 -75,-188 -55,-250 20,-62 117,-86 194,-122 76,-37 133,-85 195,-174 11,-16 22,-34 34,-51 1,14 2,29 2,43z"/>
   <path class="fil4" d="M8048 10715c-97,11 -267,17 -412,14 -199,-4 -350,-25 -444,-2 -94,23 -132,90 -141,145 -10,55 9,98 88,136 80,37 220,70 349,109 129,39 247,84 219,125 -28,40 -203,75 -205,121 -1,46 171,102 376,230 33,20 67,43 100,67 -73,-33 -147,-60 -222,-80 -172,-47 -352,-61 -481,-72 -129,-10 -207,-18 -267,-48 -59,-30 -99,-81 -145,-147 -45,-65 -97,-146 -98,-216 -1,-70 47,-129 74,-208 27,-80 32,-179 23,-259 -10,-79 -34,-138 -30,-196 4,-58 37,-114 94,-117 58,-3 142,48 312,124 171,75 429,175 704,247 35,9 71,18 106,27z"/>
   <path class="fil4" d="M10719 10378c27,131 63,232 33,327 -37,114 -169,219 -275,319 -106,99 -187,194 -160,234 27,40 162,27 151,75 -11,49 -167,159 -349,271 -181,111 -388,224 -555,338 -167,115 -293,230 -390,284 -97,54 -164,46 -274,-27 -96,-63 -224,-175 -220,-86 14,12 27,24 40,36 131,118 225,234 281,297 57,63 76,74 124,37 49,-36 127,-119 240,-229 113,-111 260,-248 411,-356 151,-107 304,-185 449,-243 146,-58 283,-95 396,-120 113,-24 201,-35 230,-59 28,-24 -4,-62 -22,-118 -17,-57 -20,-132 -9,-209 10,-76 35,-154 70,-221 35,-68 80,-124 107,-163 27,-39 35,-61 27,-96 -8,-35 -32,-83 -55,-127 -23,-45 -44,-85 -70,-124 -25,-38 -53,-74 -180,-40z"/>
   <path class="fil13" d="M9866 11934c203,12 410,27 591,72 325,80 568,258 729,548 161,291 242,694 126,1278 -115,583 -427,1347 -842,2009 -414,662 -930,1221 -1234,1482 -304,261 -395,223 -802,-172 -406,-396 -1127,-1149 -1551,-1783 -425,-635 -555,-1152 -611,-1501 -57,-350 -40,-533 70,-646 110,-113 315,-156 452,-253 137,-96 207,-247 228,-387 22,-140 -5,-269 54,-355 59,-86 205,-129 277,-312 35,-88 53,-210 85,-318 414,50 814,233 1130,549l522 522 511 -511c83,-83 172,-157 265,-222z"/>
   <path class="fil14" d="M8189 7635c178,0 322,168 322,374 0,207 -144,375 -322,375 -178,0 -322,-168 -322,-375 0,-206 144,-374 322,-374z"/>
   <path class="fil14" d="M10628 6924c139,0 251,131 251,292 0,162 -112,292 -251,292 -139,0 -251,-130 -251,-292 0,-161 112,-292 251,-292z"/>
  </g>
 </g>
</svg>
