<?xml version="1.0" encoding="utf-8"?>

<!DOCTYPE svg PUBLIC "-//W3C//DTD SVG 1.1//EN" "http://www.w3.org/Graphics/SVG/1.1/DTD/svg11.dtd">
<svg version="1.1" xmlns="http://www.w3.org/2000/svg" xmlns:xlink="http://www.w3.org/1999/xlink" x="0px" y="0px"
	 viewBox="0 0 2793.7864 1657.1458" enable-background="new 0 0 2793.7864 1657.1458" xml:space="preserve">
<g id="Baby_Seal_-_Sit_-_Flipper_Orig">
</g>
<g id="Baby_Seal_-_Sit_-_Flipper_Left">
</g>
<g id="Baby_Seal_-_Sit_-_Body">
</g>
<g id="Baby_Seal_-_Sit_-_Head">
</g>
<g id="Baby_Seal_-_Sit_-_Flipper_Right">
</g>
<g id="Baby_Seal_-_Sit_-_Spots">
</g>
<g id="Baby_Seal_-_Sit_-_Eye_RIght">
</g>
<g id="Baby_Seal_-_Sit_-_Eye_Left">
</g>
<g id="Baby_Seal_-_Sit_-_Mouth">
</g>
<g id="Baby_Seal_-_Sit_-_Lip">
</g>
<g id="Baby_Seal_-_Sit_-_Nose">
</g>
<g id="Baby_Seal_-_Sit_-_Whiskers">
	<g>
		<path fill="#61666D" d="M468.6364,1087.0909c0,82.3287-38.1579,68.7363-38.1579,68.7363s-140.4394-139.2411-382.3074,13.5924
			c143.0402-8.391,223.6628,121.6455,223.6628,121.6455s-106.63,124.8351-119.6336,304.2855
			c80.6226-124.8351,228.5895-137.7368,316.4361-130.0366c237.5195,20.8059,437.7758-10.4028,437.7758-10.4028L468.6364,1087.0909z"
			/>
		<path fill="#61666D" d="M2745.6152,1195.2043c0,52.4203-98.5823,94.9059-220.1882,94.9059
			c-121.6248,0-220.209-42.4856-220.209-94.9059c0-52.4224,98.5842-94.9266,220.209-94.9266
			C2647.033,1100.2777,2745.6152,1142.782,2745.6152,1195.2043z"/>
		<path fill="#61666D" d="M843.1415,622.6775c-206.8289,0-374.5052,167.6868-374.5052,374.5052v83.2233
			c0,206.8185,167.6763,374.5052,374.5052,374.5052h1250.2813c287.2578,0,520.146-232.8673,520.146-520.1461V622.5756
			L843.1415,622.6775z"/>
		<path fill="#61666D" d="M2613.5688,694.0748c0,262.5323-202.7966,475.3448-452.9744,475.3448l0,0
			c-250.1779,0-452.9745-212.8126-452.9745-475.3448V503.9177c0-262.5115,202.7966-475.3448,452.9745-475.3448l0,0
			c250.1777,0,452.9744,212.8334,452.9744,475.3448V694.0748z"/>
		<path fill="#61666D" d="M1683.868,1593.4199c-34.9475-59.3695,48.3778-173.2523,186.1354-254.3224
			c137.6951-81.1116,277.708-98.7257,312.6555-39.3563c34.9478,59.3488-48.3569,173.2336-186.1144,254.3431
			C1858.8473,1635.1938,1718.8364,1652.7706,1683.868,1593.4199z"/>
		<path fill="#ACB0B5" d="M815.376,773.5406c0,34.4586-27.9464,62.4175-62.4175,62.4175c-34.4691,0-62.4175-27.9589-62.4175-62.4175
			c0-34.4815,27.9485-62.4175,62.4175-62.4175C787.4296,711.1231,815.376,739.0591,815.376,773.5406z"/>
		<path fill="#ACB0B5" d="M655.8576,846.3403c0,24.8901-20.1858,45.0863-45.0757,45.0863
			c-24.8901,0-45.0759-20.1962-45.0759-45.0863c0-24.89,20.1858-45.0862,45.0759-45.0862
			C635.6718,801.254,655.8576,821.4503,655.8576,846.3403z"/>
		<path fill="#ACB0B5" d="M922.2203,745.2967c0,18.8564-15.311,34.1757-34.1757,34.1757c-18.8749,0-34.186-15.3193-34.186-34.1757
			c0-18.8751,15.3112-34.1736,34.186-34.1736C906.9092,711.1231,922.2203,726.4216,922.2203,745.2967z"/>
		<path fill="#ACB0B5" d="M726.8097,879.4382c0,13.0453-10.586,23.65-23.6417,23.65c-13.0432,0-23.6292-10.6047-23.6292-23.65
			c0-13.0432,10.586-23.6292,23.6292-23.6292C716.2237,855.809,726.8097,866.3951,726.8097,879.4382z"/>
		<path fill="#ACB0B5" d="M1852.225,835.6732c31.7578-13.4094,68.3699,1.4626,81.7793,33.2207
			c13.4114,31.7372-1.4626,68.3701-33.2185,81.7794c-31.7582,13.4114-68.3723-1.4626-81.7816-33.2186
			C1805.5947,885.6967,1820.4668,849.0825,1852.225,835.6732z"/>
		<path fill="#ACB0B5" d="M1784.6454,748.2241c17.3728-7.3362,37.4276,0.8114,44.7825,18.1843
			c7.334,17.3916-0.8135,37.4672-18.1843,44.8013c-17.3937,7.3361-37.4464-0.8115-44.7825-18.2051
			C1759.1062,775.6129,1767.2539,755.579,1784.6454,748.2241z"/>
		<path fill="#ACB0B5" d="M1984.2317,876.0448c12.009-5.0579,25.9053,0.5701,30.9862,12.598
			c5.0786,12.007-0.5702,25.8845-12.598,30.9653c-12.0071,5.0787-25.8846-0.5701-30.9653-12.5771
			C1966.5966,895.0218,1972.2246,881.1256,1984.2317,876.0448z"/>
		<path fill="#ACB0B5" d="M565.7059,939.9874c0,10.4424-8.4618,18.8958-18.9063,18.8958c-10.4424,0-18.9063-8.4534-18.9063-18.8958
			c0-10.4446,8.4638-18.9167,18.9063-18.9167C557.2441,921.0707,565.7059,929.5428,565.7059,939.9874z"/>
		<circle fill="#231F20" cx="2367.4534" cy="381.6626" r="69.3469"/>
		<path fill="#FFFFFF" d="M2401.2224,351.6938c0,10.3821-8.4119,18.8147-18.7939,18.8147s-18.7939-8.4326-18.7939-18.8147
			s8.4119-18.7939,18.7939-18.7939S2401.2224,341.3117,2401.2224,351.6938z"/>
		<circle fill="#231F20" cx="1966.7985" cy="381.6626" r="69.3459"/>
		<path fill="#FFFFFF" d="M2000.5684,351.6938c0,10.3821-8.4117,18.8147-18.796,18.8147c-10.3821,0-18.7938-8.4326-18.7938-18.8147
			s8.4117-18.7939,18.7938-18.7939C1992.1566,332.8999,2000.5684,341.3117,2000.5684,351.6938z"/>
		<path fill="#231F20" d="M2261.1492,571.597c0,32.4488-63.7783,58.7411-100.5547,58.7411
			c-35.5781,0-100.5547-26.2924-100.5547-58.7411s45.0447-34.6417,100.5547-34.6417
			C2216.1023,536.9553,2261.1492,539.1483,2261.1492,571.597z"/>
		<path fill="#ACB0B5" d="M2173.9829,507.9208c5.9941,33.951-34.5813,69.4666-90.6592,79.3826
			c-56.0385,9.8745-106.3866-9.631-112.3599-43.582c-5.9943-33.953,34.6229-69.4894,90.6802-79.3847
			C2117.7031,454.4622,2168.0098,473.9677,2173.9829,507.9208z"/>
		<path fill="#ACB0B5" d="M2350.2231,543.7214c-5.9941,33.951-56.2798,53.4565-112.3599,43.5612
			c-56.0364-9.8745-96.6724-45.4108-90.6802-79.3618c5.9941-33.9531,56.3235-53.4585,112.3806-43.5633
			C2315.6021,474.232,2356.1965,509.7683,2350.2231,543.7214z"/>
		<path fill="#231F20" d="M2219.3335,467.081c0,32.4467-37.2632,58.7391-58.739,58.7391c-20.7852,0-58.741-26.2924-58.741-58.7391
			c0-32.4488,26.313-34.6438,58.741-34.6438S2219.3335,434.6322,2219.3335,467.081z"/>
		
			<line fill="none" stroke="#231F20" stroke-width="10.4029" stroke-miterlimit="10" x1="2264.7651" y1="551.9293" x2="2440.9448" y2="567.3298"/>
		
			<line fill="none" stroke="#231F20" stroke-width="10.4029" stroke-miterlimit="10" x1="2264.7651" y1="507.3923" x2="2440.9448" y2="491.9897"/>
		
			<line fill="none" stroke="#231F20" stroke-width="10.4029" stroke-miterlimit="10" x1="2051.4658" y1="551.9293" x2="1875.286" y2="567.3298"/>
		
			<line fill="none" stroke="#231F20" stroke-width="10.4029" stroke-miterlimit="10" x1="2051.4658" y1="507.3923" x2="1875.286" y2="491.9897"/>
		
			<line fill="none" stroke="#231F20" stroke-width="10.4029" stroke-miterlimit="10" x1="2279.3938" y1="529.6816" x2="2456.2434" y2="529.6816"/>
		
			<line fill="none" stroke="#231F20" stroke-width="10.4029" stroke-miterlimit="10" x1="2036.8352" y1="529.6816" x2="1859.9855" y2="529.6816"/>
	</g>
</g>
</svg>
