<?xml version="1.0"?>
<svg xmlns:rdf="http://www.w3.org/1999/02/22-rdf-syntax-ns#" xmlns="http://www.w3.org/2000/svg" xmlns:cc="http://creativecommons.org/ns#" xmlns:dc="http://purl.org/dc/elements/1.1/" xmlns:svg="http://www.w3.org/2000/svg" id="svg2" viewBox="0 0 584.35 1513.5" version="1.1">
  <g id="layer1" transform="translate(1435.4 -279.91)">
    <g id="g3951">
      <path id="path2959" transform="translate(-694.74 66.75)" fill="#f5d5ae" d="m-516.06 307.16c-7.1829 0-13.031 5.0675-13.031 11.344 0 6.2763 5.8484 11.375 13.031 11.375 7.1829 0 13-5.0987 13-11.375s-5.8171-11.344-13-11.344zm2.2812 47.969c-7.1829 0-13 5.0987-13 11.375s5.8171 11.344 13 11.344 13-5.0675 13-11.344c0-6.2763-5.8171-11.375-13-11.375zm2.1562 45.688c-7.1829 0-13 5.0675-13 11.344 0 6.2763 5.8171 11.375 13 11.375s13-5.0987 13-11.375-5.8171-11.344-13-11.344z"/>
      <path id="path2966" fill="#f5d5ae" d="m-1075.7 373.91c7.1828 0 13.031 5.0675 13.031 11.344 0 6.2763-5.8484 11.375-13.031 11.375-7.1829 0-13-5.0987-13-11.375s5.8171-11.344 13-11.344zm-2.2813 47.969c7.1829 0 13 5.0987 13 11.375s-5.8171 11.344-13 11.344c-7.1828 0-13-5.0675-13-11.344 0-6.2763 5.8172-11.375 13-11.375zm-2.1562 45.688c7.1828 0 13 5.0675 13 11.344 0 6.2763-5.8172 11.375-13 11.375-7.1829 0-13-5.0987-13-11.375s5.8171-11.344 13-11.344z"/>
      <path id="path2922" transform="translate(-694.74 66.75)" fill="#e8a45b" d="m-448.5 971.16c-162.02 0-210.38 64.536-216.31 130.44-5.0563 56.174 30.797 117.94 28.906 150-3.8185 64.754-110.42 119.07-104.53 269.72 6.818 174.33 157.45 205.31 291.94 205.31 134.48 0 285.12-30.982 291.94-205.31 5.892-150.65-100.74-204.96-104.56-269.72-1.8907-32.062 33.994-93.826 28.938-150-5.9318-65.902-54.294-130.44-216.31-130.44z"/>
      <rect id="rect2949" rx="0" ry="0" height="11.835" width="116.9" y="467.08" x="-1201.7" fill="#ccc"/>
      <rect id="rect2951" rx="0" ry="0" height="11.835" width="121.49" y="421.41" x="-1204" fill="#ccc"/>
      <rect id="rect2953" rx="0" ry="0" height="11.835" width="126.32" y="373.42" x="-1206.4" fill="#ccc"/>
      <path id="path3866" transform="translate(-694.74 66.75)" fill="#e8a45b" d="m-448.5 213.16c-18.913 0-54.345 11.792-58.312 26.938l10 210 4.6562 4.6562 6.0625 9.2812h75.156l6.0625-9.2812 4.6562-4.6562 10-210c-3.9672-15.145-39.368-26.938-58.281-26.938zm-34.156 70.281c4.0867-0.14969 8.0633 2.4009 8.375 8.0938l6.7812 123.94c0.8243 15.054-18.266 17.268-18.938 1.7812l-5.3438-123.56c-0.2788-6.4306 4.4934-10.08 9.125-10.25zm67.5 0c4.868-0.2539 10.233 3.4411 9.9375 10.25l-5.375 123.56c-0.6714 15.487-19.731 13.273-18.906-1.7812l6.7812-123.94c0.29094-5.3133 3.7763-7.8963 7.5625-8.0938z"/>
      <path id="path2916" transform="matrix(.98404 0 0 .98404 -701.9 86.279)" fill="#c2682c" d="m-353.55 1223.8c0 52.442-42.513 94.954-94.954 94.954-52.442 0-94.954-42.512-94.954-94.954s42.513-94.954 94.954-94.954c52.442 0 94.954 42.512 94.954 94.954z"/>
      <path id="path2918" transform="matrix(.78191 0 0 .78191 -792.55 333.65)" fill="#ecab6b" d="m-353.55 1223.8c0 52.442-42.513 94.954-94.954 94.954-52.442 0-94.954-42.512-94.954-94.954s42.513-94.954 94.954-94.954c52.442 0 94.954 42.512 94.954 94.954z"/>
      <path id="path2920" transform="matrix(.71277 0 0 .71277 -823.57 418.27)" d="m-353.55 1223.8c0 52.442-42.513 94.954-94.954 94.954-52.442 0-94.954-42.512-94.954-94.954s42.513-94.954 94.954-94.954c52.442 0 94.954 42.512 94.954 94.954z"/>
      <rect id="rect2929" rx="7.1429" ry="10.714" height="42.5" width="286.79" y="1536.9" x="-1286.6" fill="#380b00"/>
      <rect id="rect2931" rx="3.1578" ry="8.5534" height="33.929" width="126.79" y="1541.1" x="-1206.6" fill="#754410"/>
      <path id="rect2933" fill="#ccc" transform="translate(-694.74 66.75)" d="m-511.91 1489.4v7.125h126.78v-7.125h-126.78z"/>
      <path id="path2945" transform="translate(-694.74 66.75)" fill="#b88a70" d="m-486.09 464.03-13.25 715.09h0.0625c12.403-14.081 30.542-22.969 50.781-22.969s38.379 8.888 50.781 22.969c0.004 0.01 0.0268-0.01 0.0312 0l-13.25-715.09h-75.156z"/>
      <path id="rect2968" fill="#fff" transform="translate(-694.74 66.75)" d="m-486.25 473.03-0.15625 7.8125h75.781l-0.15625-7.8125h-75.469zm-1.0938 58.594-0.0625 3.7812h77.781l-0.0625-3.7812h-77.656zm-0.9375 50.75-0.0625 3.7812h79.656l-0.0625-3.7812h-79.531zm-0.875 47.719-0.0937 3.8125h81.469l-0.0937-3.8125h-81.281zm-0.875 45.969-0.0625 3.7812h83.156l-0.0625-3.7812h-83.031zm-0.8125 44.438-0.0625 3.8125h84.781l-0.0625-3.8125h-84.656zm-0.75 39.906-0.0625 3.7812h86.281l-0.0625-3.7812h-86.156zm-0.6875 37.625-0.0625 3.8125h87.656l-0.0625-3.8125h-87.531zm-0.6875 37.656-0.0937 3.7812h89.094l-0.0937-3.7812h-88.906zm-0.65625 35.094-0.0625 3.7812h90.344l-0.0625-3.7812h-90.219zm-0.625 33.062-0.0625 3.8125h91.594l-0.0625-3.8125h-91.469zm-0.59375 32.344-0.0625 3.7812h92.781l-0.0625-3.7812h-92.656zm-0.53125 28.656-0.0625 3.7812h93.844l-0.0625-3.7812h-93.719zm-0.5 27.75-0.0937 3.8125h94.906l-0.0937-3.8125h-94.719zm-0.5 25.781-0.0625 3.7812h95.844l-0.0625-3.7812h-95.719zm-0.46875 26-0.0625 3.7812h96.781l-0.0625-3.7812h-96.656zm-0.4375 24-0.0937 3.7812h97.719l-0.0937-3.7812h-97.531zm-0.40625 21.719-0.0625 3.7812h98.469l-0.0625-3.7812h-98.344zm-0.375 20.437-0.0937 3.8126h99.281l-0.0937-3.8126h-99.094zm-0.375 19.719-0.0625 3.7812h99.969l-0.0625-3.7812h-99.844z"/>
      <g id="g3021" stroke-linejoin="round" transform="matrix(-1 0 0 1 -2285.3 0)" stroke="#000" stroke-linecap="round" stroke-width="2" fill="none">
        <path id="path3023" transform="translate(-694.74 66.75)" d="m-495.86 1496.5 0.25254-7.125 16.776-1008.6v-7.8262l-0.73956-60.864v-11.835"/>
        <path id="path3025" transform="translate(-694.74 66.75)" d="m-477.04 1496.5v-7.125l11.424-1008.6v-7.8262l-7.1312-106.83v-12.374"/>
        <path id="path3027" transform="translate(-694.74 66.75)" d="m-457.6 1496.5 0.12627-7.125 5.3467-1008.6v-7.8262l-25.017-154.52v-11.835"/>
      </g>
      <g id="g3029" stroke-linejoin="round" transform="translate(-.39193 .35714)" stroke="#000" stroke-linecap="round" stroke-width="2" fill="none">
        <path id="path3031" transform="translate(-694.74 66.75)" d="m-495.86 1496.5 0.25254-7.125 16.776-1008.6v-7.8262l-0.73956-60.864v-11.835"/>
        <path id="path3033" transform="translate(-694.74 66.75)" d="m-477.04 1496.5v-7.125l11.424-1008.6v-7.8262l-7.1312-106.83v-12.374"/>
        <path id="path3035" transform="translate(-694.74 66.75)" d="m-457.6 1496.5 0.12627-7.125 5.3467-1008.6v-7.8262l-25.017-154.52v-11.835"/>
      </g>
    </g>
  </g>
  <metadata>
    <rdf:RDF>
      <cc:Work>
        <dc:format>image/svg+xml</dc:format>
        <dc:type rdf:resource="http://purl.org/dc/dcmitype/StillImage"/>
        <cc:license rdf:resource="http://creativecommons.org/licenses/publicdomain/"/>
        <dc:publisher>
          <cc:Agent rdf:about="http://openclipart.org/">
            <dc:title>Openclipart</dc:title>
          </cc:Agent>
        </dc:publisher>
        <dc:title>Guitar by Rones</dc:title>
        <dc:date>2011-02-08T14:42:23</dc:date>
        <dc:description>a guitar</dc:description>
        <dc:source>http://openclipart.org/detail/117445/guitar-by-rones-by-rones</dc:source>
        <dc:creator>
          <cc:Agent>
            <dc:title>rones</dc:title>
          </cc:Agent>
        </dc:creator>
        <dc:subject>
          <rdf:Bag>
            <rdf:li>clip art</rdf:li>
            <rdf:li>clipart</rdf:li>
            <rdf:li>guitar</rdf:li>
            <rdf:li>music</rdf:li>
            <rdf:li>strings</rdf:li>
            <rdf:li>wood</rdf:li>
            <rdf:li>&#x433;&#x438;&#x442;&#x430;&#x440;&#x430;</rdf:li>
            <rdf:li>&#x43C;&#x443;&#x437;&#x44B;&#x43A;&#x430;</rdf:li>
          </rdf:Bag>
        </dc:subject>
      </cc:Work>
      <cc:License rdf:about="http://creativecommons.org/licenses/publicdomain/">
        <cc:permits rdf:resource="http://creativecommons.org/ns#Reproduction"/>
        <cc:permits rdf:resource="http://creativecommons.org/ns#Distribution"/>
        <cc:permits rdf:resource="http://creativecommons.org/ns#DerivativeWorks"/>
      </cc:License>
    </rdf:RDF>
  </metadata>
</svg>
