<?xml version="1.0" encoding="UTF-8" standalone="no"?>
<!-- Created with Inkscape (http://www.inkscape.org/) -->
<svg xmlns:inkscape="http://www.inkscape.org/namespaces/inkscape" xmlns:rdf="http://www.w3.org/1999/02/22-rdf-syntax-ns#" xmlns="http://www.w3.org/2000/svg" xmlns:xlink="http://www.w3.org/1999/xlink" xmlns:ns1="http://sozi.baierouge.fr" xmlns:cc="http://creativecommons.org/ns#" xmlns:sodipodi="http://sodipodi.sourceforge.net/DTD/sodipodi-0.dtd" xmlns:dc="http://purl.org/dc/elements/1.1/" id="svg2" xml:space="preserve" viewBox="0 0 30.278 19.9" version="1.1" inkscape:version="0.91 r13725">
  <defs id="defs6">
    <clipPath id="clipPath98">
      <path id="path100" d="m1 0.92h22v15h-22v-15z" inkscape:connector-curvature="0"/>
    </clipPath>
    <mask id="mask102">
      <g id="g104">
        <g id="g106" clip-path="url(#clipPath98)">
          <path id="path108" style="fill:#000000;fill-opacity:.60160" d="m1 0.92h22v15h-22v-15z" inkscape:connector-curvature="0"/>
        </g>
      </g>
    </mask>
    <clipPath id="clipPath114">
      <path id="path116" d="m1 0.92h22v15h-22v-15z" inkscape:connector-curvature="0"/>
    </clipPath>
    <clipPath id="clipPath118">
      <path id="path120" d="m1 1h22v15h-22v-15z" inkscape:connector-curvature="0"/>
    </clipPath>
    <clipPath id="clipPath122">
      <path id="path124" d="m21.797 10.781c0.027-0.226 0-0.441-0.074-0.644l-0.078-0.727-0.036-0.035h0.036l-0.036-0.039c0.098-0.152 0.047-0.332-0.152-0.535l0.035-0.113 0.153-0.266c0.382-0.254 0.507-0.434 0.382-0.535l-0.23-0.114c0.152-0.406 0.23-0.75 0.23-1.027 0.153-0.535 0.153-1.066 0-1.601l-0.039-0.036c-0.074-0.41-0.293-0.812-0.648-1.218-1.395-1.575-4.582-2.364-9.559-2.364h-1.14l-0.383 0.039h-0.649l-0.187 0.039c-2.184 0.176-3.961 0.571-5.332 1.18-1.32 0.582-2.133 1.309-2.438 2.172v0.035l-0.078 0.192v0.039l-0.074 0.343c-0.129 0.582-0.051 1.102 0.227 1.559l-0.075 0.152v0.153l-0.039 0.078c-0.129-0.051-0.203-0.078-0.226-0.078-0.078 0.027-0.168 0.129-0.27 0.304-0.051 0.051-0.012 0.168 0.117 0.344 0 0.152 0.204 0.406 0.61 0.762l-0.039 0.078 0.113 0.187c-0.051 0.204-0.063 0.344-0.039 0.422 0 0.098-0.09 0.403-0.266 0.914-0.152 0.457-0.164 0.762-0.039 0.914v0.036c0.203 1.168 1.207 2.195 3.012 3.086 2.031 1.015 4.48 1.523 7.348 1.523 2.945 0 5.343-0.547 7.199-1.637 1.472-0.863 2.347-1.89 2.629-3.086l0.074 0.078-0.039-0.574z" inkscape:connector-curvature="0"/>
    </clipPath>
    <clipPath id="clipPath126">
      <path id="path128" d="m-0.10546-19.693h28.884v19.693h-28.884v-19.693z" inkscape:connector-curvature="0"/>
    </clipPath>
    <linearGradient id="linearGradient130" y2="-9.5" gradientUnits="userSpaceOnUse" x2="30.212" y1="-9.5" x1="-2.5127">
      <stop id="stop132" style="stop-color:#ffffff" offset="0"/>
      <stop id="stop134" style="stop-color:#ffffff;stop-opacity:.71371" offset=".0863"/>
      <stop id="stop136" style="stop-color:#ffffff;stop-opacity:.40389" offset=".2"/>
      <stop id="stop138" style="stop-color:#ffffff;stop-opacity:.17650" offset=".31760"/>
      <stop id="stop140" style="stop-color:#ffffff;stop-opacity:.043091" offset=".4314"/>
      <stop id="stop142" style="stop-color:#ffffff;stop-opacity:0" offset=".54120"/>
      <stop id="stop144" style="stop-color:#ffffff;stop-opacity:.11369" offset=".62350"/>
      <stop id="stop146" style="stop-color:#ffffff;stop-opacity:.42350" offset=".77250"/>
      <stop id="stop148" style="stop-color:#ffffff;stop-opacity:.91760" offset=".97250"/>
      <stop id="stop150" style="stop-color:#ffffff" offset="1"/>
    </linearGradient>
    <mask id="mask152">
      <g id="g154">
        <g id="g156" clip-path="url(#clipPath126)">
          <path id="path158" style="fill:url(#linearGradient130)" d="m-0.10546-19.693h28.884v19.693h-28.884v-19.693z" inkscape:connector-curvature="0"/>
        </g>
      </g>
    </mask>
    <linearGradient id="linearGradient160" y2="-9.5" gradientUnits="userSpaceOnUse" x2="30.212" y1="-9.5" x1="-2.5127">
      <stop id="stop162" style="stop-color:#40240a" offset="0"/>
      <stop id="stop164" style="stop-color:#5a391d" offset=".0863"/>
      <stop id="stop166" style="stop-color:#775031" offset=".2"/>
      <stop id="stop168" style="stop-color:#8b6140" offset=".31760"/>
      <stop id="stop170" style="stop-color:#986b49" offset=".4314"/>
      <stop id="stop172" style="stop-color:#9c6e4c" offset=".54120"/>
      <stop id="stop174" style="stop-color:#906545" offset=".62350"/>
      <stop id="stop176" style="stop-color:#6f4d32" offset=".77250"/>
      <stop id="stop178" style="stop-color:#3b2614" offset=".97250"/>
      <stop id="stop180" style="stop-color:#33200f" offset="1"/>
    </linearGradient>
  </defs>
  <g id="g10" transform="matrix(1.25,0,0,-1.25,0,19.9)">
    <g id="g12">
      <path id="path14" style="fill-rule:evenodd;fill:#c5c5c5" d="m22.09 6.057 2.133-0.457c-0.914-1.27-1.75-2.16-2.516-2.668-0.48-0.328-1.152-0.914-2.016-1.75-0.433-0.434-0.824-0.824-1.183-1.184-2.18 0-3.871 0.129-5.063 0.383l-8.113 1.676c-2.539 0.508-4.316 1.093-5.332 1.754 1.27 0.863 2.105 1.316 2.512 1.371l19.578 0.875z" inkscape:connector-curvature="0"/>
      <path id="path16" style="fill-rule:evenodd;fill:#e2e2e2" d="m20.566 2.283c-0.863-0.66-1.461-1.078-1.789-1.254-0.203-0.101-0.304-0.304-0.304-0.609 0-0.152 0.011-0.293 0.035-0.422l-5.063 0.918 3.809 0.379c0.836 0.078 1.941 0.406 3.312 0.988z" inkscape:connector-curvature="0"/>
      <path id="path18" style="fill-rule:evenodd;fill:#e09046" d="m12.758 9.826c3.785 0 6.449-0.508 8-1.523 1.269-0.813 1.715-1.891 1.332-3.238-0.711-2.411-4.125-3.618-10.246-3.618-2.817-0.023-5.168 0.305-7.047 0.993-1.727 0.632-2.754 1.457-3.082 2.472-1.067 3.278 2.613 4.914 11.043 4.914z" inkscape:connector-curvature="0"/>
      <path id="path20" style="fill-rule:evenodd;fill:#c9813f" d="m22.051 5.025c-0.176-1.066-1.153-1.914-2.93-2.55-1.855-0.684-4.293-1.028-7.316-1.028-2.867-0.023-5.215 0.344-7.043 1.106-1.625 0.66-2.668 1.523-3.125 2.59-0.102 0.254-0.102 0.582 0 0.988l0.265-0.074 0.153-0.574c0.254-0.43 0.812-0.786 1.675-1.067 0.129-0.051 0.293-0.226 0.497-0.531 0.203-0.281 0.632-0.457 1.296-0.535 0.329-0.051 1.051-0.176 2.168-0.379 0.711-0.153 1.27-0.219 1.676-0.192 0.305 0 0.778-0.023 1.41-0.074 0.61-0.078 1.231-0.105 1.868-0.078 3.121 0.203 5.152 0.418 6.093 0.648 0.735 0.176 1.485 0.649 2.246 1.411 0.383 0.355 0.684 0.711 0.914 1.066l0.192 0.305c0.051-0.332 0.039-0.672-0.039-1.032z" inkscape:connector-curvature="0"/>
      <path id="path22" style="fill-rule:evenodd;fill:#9c6431" d="m22.051 5.025c-0.254-1.089-1.254-1.953-3.008-2.585-1.805-0.661-4.215-0.993-7.238-0.993-2.793-0.023-5.114 0.317-6.969 1.028-1.648 0.636-2.691 1.449-3.121 2.437l0.418-0.379c0.051-0.027 0.277-0.254 0.687-0.687 0.352-0.356 0.696-0.594 1.028-0.723 0.582-0.176 1.574-0.254 2.968-0.226 0.356-0.028 1.067-0.192 2.133-0.497 1.016-0.281 1.789-0.433 2.324-0.457 0.434 0 1.141 0.114 2.133 0.344 0.992 0.254 1.856 0.379 2.59 0.379 1.727 0 3.188 0.242 4.379 0.727 0.434 0.199 0.828 0.519 1.184 0.949 0.175 0.254 0.355 0.535 0.531 0.84l-0.039-0.157z" inkscape:connector-curvature="0"/>
      <path id="path24" style="fill-rule:evenodd;fill:#c9813f" d="m2.512 5.182-0.227 0.644 18.965-0.113 0.27-0.383c-0.231-0.203-0.762-0.418-1.602-0.644-1.676-0.434-4.012-0.7-7.008-0.801-3.324-0.102-6.055 0.074-8.187 0.531-1.067 0.258-1.801 0.508-2.211 0.766z" inkscape:connector-curvature="0"/>
      <path id="path26" style="fill-rule:evenodd;fill:#42180e" d="m2.207 5.483c-0.277 0.179-0.391 0.636-0.34 1.371l0.153 1.066 19.5 0.383 0.457-0.953c0.226-0.711 0.113-1.305-0.344-1.789-0.559-0.582-1.332-0.965-2.324-1.141-1.118-0.203-3.454-0.344-7.008-0.422-5.254-0.074-8.621 0.418-10.094 1.485z" inkscape:connector-curvature="0"/>
      <path id="path28" style="fill-rule:evenodd;fill:#832f1d" d="m21.328 5.674c-0.226-0.406-1.219-0.75-2.969-1.027-1.828-0.305-4.015-0.457-6.55-0.457-2.618 0-4.801 0.14-6.551 0.418-1.754 0.281-2.742 0.636-2.973 1.066-0.226 0.484-0.242 0.953-0.035 1.41 0.203 0.508 0.609 0.824 1.219 0.953 2.843 0.559 5.722 0.836 8.644 0.836 1.27 0 2.766-0.152 4.492-0.457 0.942-0.152 2.122-0.379 3.543-0.683 0.637-0.125 1.055-0.407 1.258-0.84 0.199-0.407 0.176-0.813-0.078-1.219z" inkscape:connector-curvature="0"/>
      <path id="path30" style="fill-rule:evenodd;fill:#9e3923" d="m12.684 5.33c-0.18-0.176-0.485-0.265-0.914-0.265-0.458 0.027-0.739 0.128-0.84 0.304-0.102-0.051-0.227-0.074-0.379-0.074h-0.422c-0.051 0-0.137-0.051-0.266-0.152-0.074-0.051-0.175-0.051-0.304 0 0.05 0.125 0.253 0.226 0.609 0.304 0.332 0.075 0.609 0.102 0.84 0.075l-0.344-0.036h1.18c0-0.332 0.281-0.382 0.84-0.156z" inkscape:connector-curvature="0"/>
      <path id="path32" style="fill-rule:evenodd;fill:#9e3923" d="m17.254 5.447c-0.738-0.027-1.195-0.05-1.371-0.078-0.485-0.074-0.891-0.086-1.219-0.039-0.687-0.047-1.105-0.012-1.258 0.117 0.078 0.075 0.305 0.141 0.688 0.192 0.304 0.023 0.558 0.023 0.761 0 0.325 0.047 0.809 0.047 1.446 0 0.687-0.028 1.359 0.023 2.019 0.148-0.027-0.176-0.382-0.289-1.066-0.34z" inkscape:connector-curvature="0"/>
      <path id="path34" style="fill-rule:evenodd;fill:#632316" d="m7.961 5.369c1.387 0.399 2.492 0.578 3.312 0.535-0.304-0.203-0.824-0.355-1.562-0.457-0.406-0.152-0.734-0.254-0.988-0.304-0.485-0.129-0.813-0.141-0.993-0.039 0.028 0.101 0.102 0.191 0.231 0.265z" inkscape:connector-curvature="0"/>
      <path id="path36" style="fill-rule:evenodd;fill:#632316" d="m19.082 5.943h-0.27c0.254 0.149 0.626 0.278 1.106 0.379 0.535 0.102 0.953 0.141 1.258 0.118-0.153-0.051-0.305-0.231-0.457-0.536-0.125-0.254-0.281-0.394-0.457-0.418-0.125-0.027-0.242-0.011-0.344 0.039-0.074 0.102-0.141 0.165-0.188 0.188-0.281 0.129-0.496 0.203-0.648 0.23z" inkscape:connector-curvature="0"/>
      <path id="path38" style="fill-rule:evenodd;fill:#632316" d="m2.02 6.701c0.507 0.153 0.835 0.242 0.988 0.27 0.484 0.074 0.738-0.028 0.762-0.305 0-0.152-0.227-0.269-0.684-0.344-0.383-0.078-0.473-0.304-0.266-0.683l0.075-0.192c-0.075 0.024-0.129 0.039-0.153 0.039-0.074 0.024-0.101 0.086-0.074 0.188-0.305-0.024-0.496 0.09-0.574 0.344-0.051 0.129-0.074 0.355-0.074 0.683z" inkscape:connector-curvature="0"/>
      <path id="path40" style="fill-rule:evenodd;fill:#632316" d="m20.758 5.561c0.176 0.125 0.355 0.152 0.531 0.078-0.305-0.41-1.309-0.75-3.008-1.031-1.804-0.278-3.961-0.418-6.476-0.418-2.614 0-4.797 0.14-6.547 0.418-1.754 0.281-2.746 0.636-2.973 1.066v0.039h0.078l-0.117 0.078-0.074 0.152v0.075c0.226 0.027 0.43-0.012 0.609-0.114-0.027-0.23 0.114-0.355 0.418-0.382 0.254-0.024 0.469 0.039 0.649 0.191 0.582-0.637 1.117-0.914 1.597-0.84l0.039 0.231c0.102-0.028 0.192-0.039 0.266-0.039 0.027-0.024 0.078-0.09 0.152-0.192 0.203 0 0.676 0.016 1.41 0.039 0.661 0.028 1.028 0.012 1.106-0.039 0.203 0.051 0.508 0.051 0.914 0 0.356-0.051 0.66-0.023 0.914 0.078l0.035 0.227c0.028 0 0.117-0.024 0.27-0.074 0.051 0 0.101-0.051 0.152-0.153l0.34 0.039c0.18-0.281 0.613-0.418 1.297-0.418 0.125 0 0.648 0.047 1.562 0.149l-0.457 0.344c0.735 0.179 1.207 0.242 1.41 0.191l-0.23-0.305 0.875 0.074v-0.226c0.508 0.023 1.27 0.152 2.285 0.383 0.535 0.074 0.852 0.113 0.953 0.113 0.125 0 0.293 0.012 0.496 0.039 0.176 0.051 0.317 0.152 0.418 0.305 0.102-0.028 0.305-0.016 0.61 0.039 0.254 0.047 0.418 0.008 0.496-0.117z" inkscape:connector-curvature="0"/>
      <path id="path42" style="fill-rule:evenodd;fill:#632316" d="m20.148 7.733c0.481-0.102 0.848-0.293 1.106-0.575 0.226-0.277 0.316-0.582 0.266-0.914l-0.954-0.187c-0.812-0.231-1.421-0.371-1.828-0.418-0.203-0.028-0.531-0.016-0.988 0.035-0.535 0.027-0.902 0.039-1.105 0.039-1.118-0.074-1.981-0.102-2.59-0.074-0.61 0-0.953-0.016-1.028-0.039-0.254-0.231-0.468-0.371-0.648-0.418-0.18 0.203-0.469 0.304-0.875 0.304-0.457-0.027-0.789-0.027-0.992 0-1.09 0.176-1.664 0.266-1.715 0.266-0.887-0.051-1.625-0.062-2.207-0.039-1.094 0.027-1.676 0.203-1.754 0.535-0.328-0.101-0.734-0.078-1.215 0.074-0.664 0.203-1.082 0.305-1.258 0.305-0.051 0.129-0.051 0.231 0 0.305l-0.078 0.226c0.203 0.457 0.598 0.75 1.18 0.879 2.844 0.559 5.726 0.836 8.644 0.836 1.27 0 2.77-0.152 4.496-0.457 0.938-0.152 2.122-0.379 3.543-0.683z" inkscape:connector-curvature="0"/>
      <path id="path44" style="fill-rule:evenodd;fill:#42180e" d="m21.062 7.389c0.024-0.102 0.075-0.231 0.153-0.383 0.051-0.152 0.039-0.289-0.039-0.418-0.203-0.051-0.332-0.102-0.383-0.152l-0.113-0.379c-0.407-0.407-0.926-0.524-1.563-0.344-0.508 0.125-1.191 0.125-2.055 0-0.941-0.152-1.828-0.191-2.667-0.117-1.168 0.254-2.118 0.332-2.856 0.23-0.305-0.027-1.484-0.281-3.543-0.761-0.609-0.153-1.016-0.215-1.219-0.192-0.277 0-0.672 0.141-1.179 0.418l-0.989 0.649c-0.101 0.078-0.304 0.168-0.609 0.269-0.305 0.102-0.484 0.188-0.535 0.266-0.735 0-1.192 0.023-1.371 0.074v0.078c-0.043 0.055-0.055 0.145-0.039 0.266 0.05 0.23 0.066 0.367 0.039 0.418 0.941-0.328 1.726-0.493 2.363-0.493 0.457-0.027 1.231-0.039 2.32-0.039 0.993 0.024 1.754 0.012 2.285-0.039 4.75-0.406 8.75-0.191 12 0.649z" inkscape:connector-curvature="0"/>
      <path id="path46" style="fill-rule:evenodd;fill:#ffe797" d="m18.965 6.018c-1.016 0.175-1.559 0.265-1.637 0.265-1.598 0.153-3.644 0.039-6.133-0.343-0.379-0.051-1.433-0.266-3.16-0.649-0.789-0.176-1.461-0.203-2.019-0.074-0.457 0.328-0.926 0.609-1.411 0.836-0.406 0.18-0.875 0.355-1.406 0.535l-0.726 0.227c3.937-0.153 7.148-0.137 9.636 0.039 2.516 0.152 5.395 0.179 8.649 0.078 0.226-0.61 0.074-0.953-0.457-1.032-0.305-0.023-0.75 0.016-1.336 0.118z" inkscape:connector-curvature="0"/>
      <path id="path48" style="fill-rule:evenodd;fill:#e7d289" d="m4.074 6.397c0.738 0.027 1.5 0.05 2.285 0.078 1.602 0.078 2.579 0.152 2.934 0.226 0.559 0.078 1.547-0.062 2.969-0.418l-1.067-0.265c-0.531 0.179-0.976 0.242-1.332 0.191-0.175-0.027-0.265-0.09-0.265-0.191-0.028-0.125-0.129-0.203-0.305-0.227-0.992-0.152-1.754-0.293-2.285-0.418-0.356-0.078-0.598-0.051-0.723 0.074-0.332 0.282-0.535 0.446-0.609 0.496-0.281 0.153-0.621 0.278-1.031 0.379l-0.571 0.075z" inkscape:connector-curvature="0"/>
      <path id="path50" style="fill-rule:evenodd;fill:#e7d289" d="m18.738 6.209 2.055 0.531c-0.074-0.355-0.277-0.558-0.609-0.609-0.176-0.051-0.469-0.051-0.875 0l-0.571 0.078z" inkscape:connector-curvature="0"/>
      <path id="path52" style="fill-rule:evenodd;fill:#b0a069" d="m8.266 6.74 2.629 0.039c0.203-0.078 0.57-0.254 1.101-0.531l0.383-0.078c0.281 0.023 0.305 0 0.078-0.078l-0.879-0.074-0.379 0.191-1.336 0.074c-0.277 0-0.672-0.023-1.179-0.074-0.532-0.051-0.926-0.066-1.18-0.039-0.559-0.102-0.953-0.141-1.18-0.117 0.102 0.051 0.149 0.09 0.149 0.117-0.989-0.051-1.852 0.012-2.586 0.188l-0.309 0.117c0.203 0.074 0.613 0.062 1.219-0.039 0.078 0 1.031 0.078 2.859 0.226l0.61 0.078z" inkscape:connector-curvature="0"/>
      <path id="path54" style="fill-rule:evenodd;fill:#b0a069" d="m18.281 6.17-0.152 0.039c-0.203-0.027-0.215 0-0.039 0.074l0.269 0.153c1.215 0.382 2.032 0.558 2.438 0.535l0.074-0.418c-0.328-0.153-0.785-0.293-1.371-0.422-0.711-0.152-1.117-0.141-1.219 0.039z" inkscape:connector-curvature="0"/>
      <path id="path56" style="fill-rule:evenodd;fill:#994748" d="m1.715 8.342c4.035-0.508 7.195-0.621 9.48-0.344 2.262 0.254 5.45 0.649 9.563 1.18l0.265-0.797c-1.878-0.762-4.785-1.348-8.722-1.754-2.664-0.277-5.09-0.367-7.274-0.266-1.8 0.079-2.832 0.215-3.086 0.418-0.175 0.129-0.265 0.418-0.265 0.875l0.039 0.688z" inkscape:connector-curvature="0"/>
      <path id="path58" style="fill-rule:evenodd;fill:#803b3c" d="m1.941 6.779c-0.175 0.129-0.265 0.598-0.265 1.411l0.875-0.497c-0.559-0.226-0.367-0.546 0.574-0.949 0.352-0.152 1.078-0.168 2.168-0.039 0.508 0.074 1.539 0.102 3.086 0.074 1.726-0.023 2.629-0.136 2.703-0.339-1.141 0.046-1.863 0.035-2.168-0.04-1.828-0.078-3.469-0.066-4.914 0.04-1.195 0.074-1.879 0.187-2.059 0.339z" inkscape:connector-curvature="0"/>
      <path id="path60" style="fill-rule:evenodd;fill:#6b3132" d="m7.961 7.158c1.219-0.074 1.953-0.265 2.207-0.57-0.102-0.102-0.344-0.164-0.723-0.191-0.457 0.027-0.75 0.039-0.875 0.039h-1.715c0.204 0.101 0.344 0.179 0.418 0.23-0.128 0.102-0.406 0.141-0.835 0.113-0.485-0.05-0.801-0.078-0.954-0.078-0.726 0-1.422 0.047-2.093 0.137 0.664-0.039 1.515 0.02 2.55 0.172 0.864 0.101 1.536 0.148 2.02 0.148z" inkscape:connector-curvature="0"/>
      <path id="path62" style="fill-rule:evenodd;fill:#59292a" d="m1.598 7.807 0.879 0.269 7.007-1.449c-0.941 0.051-1.55 0.063-1.828 0.039-0.457-0.078-1.375-0.09-2.742-0.039-1.117-0.078-1.793-0.051-2.019 0.074-0.153 0.078-0.204 0.219-0.153 0.422 0.051 0.199 0.063 0.317 0.039 0.34-0.051 0.051-0.269 0.078-0.648 0.078h-0.535v0.266z" inkscape:connector-curvature="0"/>
      <path id="path64" style="fill-rule:evenodd;fill:#b35255" d="m9.332 7.389 0.379 0.113 11.73 1.066-0.226-1.484c-0.051-0.152-0.281-0.316-0.688-0.496-0.812-0.355-2.117-0.582-3.922-0.684-1.8-0.101-3.515 0-5.14 0.305l-1.906 0.535-0.227 0.645z" inkscape:connector-curvature="0"/>
      <path id="path66" style="fill-rule:evenodd;fill:#d96859" d="m12.531 7.158 6.817 0.879h1.867c-0.992-0.738-2.403-1.183-4.227-1.336-1.144-0.101-2.222-0.047-3.238 0.153l-1.219 0.304z" inkscape:connector-curvature="0"/>
      <path id="path68" style="fill-rule:evenodd;fill:#994748" d="m20.527 6.588c-0.812-0.355-2.117-0.582-3.922-0.684-2.132-0.152-4.164 0.024-6.093 0.532 0.05 0.101 0.203 0.164 0.457 0.191 0.129 0.023 0.355 0.063 0.687 0.113 0.149 0.028 0.391 0.078 0.723 0.153 0.277 0.078 0.508 0.101 0.683 0.078l0.192-0.117c-0.281-0.047-0.418-0.153-0.418-0.305 1.98-0.379 3.453-0.492 4.418-0.34 1.32 0.203 2.652 0.543 3.996 1.027l-0.039-0.152c-0.047-0.152-0.277-0.316-0.684-0.496z" inkscape:connector-curvature="0"/>
      <path id="path70" style="fill-rule:evenodd;fill:#994748" d="m18.891 7.158c0.406 0.129 1.218 0.434 2.437 0.918 0.078-0.179 0.063-0.422-0.039-0.726-0.101-0.254-0.242-0.442-0.418-0.571-0.531-0.304-1.152-0.418-1.867-0.343 0.18 0.464 0.301 0.738 0.363 0.82l-0.476-0.098z" inkscape:connector-curvature="0"/>
      <path id="path72" style="fill-rule:evenodd;fill:#f07362" d="m13.062 6.971 0.649-0.078c0.609-0.024 1.332-0.051 2.172-0.075 1.32-0.05 2.297 0 2.929 0.149-0.757-0.25-1.699-0.379-2.816-0.379-0.684 0-1.383 0.062-2.094 0.191l-0.84 0.192z" inkscape:connector-curvature="0"/>
      <path id="path74" style="fill-rule:evenodd;fill:#6b3132" d="m18.738 7.615 2.742 0.457-0.039-0.457h-0.531c-0.609 0-0.953-0.011-1.031-0.035-0.024 0-0.102-0.14-0.227-0.422-0.125-0.226-0.343-0.39-0.648-0.492-0.328-0.101-0.734-0.101-1.219 0-0.508 0.125-0.863 0.203-1.066 0.227-0.508 0.078-1.614 0-3.313-0.227l-2.398-0.383-1.336 0.231 2.094 0.379c0.382 0.078 2.707 0.32 6.972 0.722z" inkscape:connector-curvature="0"/>
      <path id="path76" style="fill-rule:evenodd;fill:#90a148" d="m16.832 8.303c1.195 0.281 2.172 0.57 2.934 0.875 1.855-0.66 2.629-1.117 2.324-1.371-0.18-0.125-0.367-0.153-0.57-0.074-0.309 0.101-0.586 0.125-0.84 0.074-0.227-0.051-0.457-0.215-0.684-0.492-0.203-0.254-0.535-0.407-0.992-0.457-0.43-0.051-0.848-0.028-1.258 0.074-0.555 0.129-0.988 0.203-1.293 0.23-0.531 0.024-1.461-0.051-2.781-0.23-1.422-0.203-2.336-0.328-2.742-0.379-0.43-0.051-0.938-0.016-1.524 0.113-0.734 0.152-1.281 0.242-1.636 0.266-2.161-0.102-3.696-0.125-4.61-0.074-0.457 0.023-0.531 0.125-0.226 0.304 0.304 0.153 0.226 0.254-0.231 0.305-0.406 0.051-0.773 0.023-1.101-0.078-0.129-0.051-0.27 0.039-0.422 0.265-0.102 0.129 0.129 0.422 0.687 0.879l0.836 0.649c0.383-0.231 0.965-0.473 1.754-0.727 1.598-0.48 3.465-0.773 5.598-0.875 2.133-0.078 4.39 0.164 6.777 0.723z" inkscape:connector-curvature="0"/>
      <path id="path78" style="fill-rule:evenodd;fill:#849443" d="m21.328 8.912c0.484-0.508 0.57-0.851 0.266-1.027-0.203-0.102-0.492-0.102-0.875 0l-0.531 0.191c-0.309-0.484-0.817-0.789-1.524-0.918-0.355-0.047-0.902-0.035-1.641 0.039-0.863 0.051-1.585 0.063-2.168 0.039-2.386-0.328-3.875-0.468-4.457-0.418-1.625 0.204-2.73 0.317-3.312 0.344-0.457 0.051-1.664 0.035-3.621-0.039-0.457-0.027-0.633 0.102-0.531 0.383l0.265 0.418c-1.269-0.129-1.902-0.102-1.902 0.074 0 0.102 0.176 0.332 0.531 0.688l0.535 0.492 18.965-0.266z" inkscape:connector-curvature="0"/>
      <path id="path80" style="fill-rule:evenodd;fill:#555e29" d="m2.094 9.256c1.246-0.203 3.277-0.383 6.094-0.535 2.843-0.153 7.25-0.039 13.218 0.344l0.153-0.457c-0.332-0.305-0.981-0.598-1.946-0.875-1.953-0.61-4.543-0.903-7.769-0.879-4.164 0.027-7.082 0.371-8.758 1.031-0.813 0.305-1.219 0.621-1.219 0.949l0.227 0.422z" inkscape:connector-curvature="0"/>
      <path id="path82" style="fill-rule:evenodd;fill:#e09046" d="m11.996 15.92c3.684 0 6.449-0.801 8.305-2.398 1.547-1.348 2.015-2.59 1.406-3.735-0.508-0.914-1.445-1.597-2.816-2.054-1.496-0.508-3.629-0.778-6.399-0.801-2.996 0-5.293 0.215-6.894 0.648-1.727 0.457-2.946 1.242-3.657 2.36-0.836 1.246-0.289 2.527 1.637 3.847 2.086 1.422 4.891 2.133 8.418 2.133z" inkscape:connector-curvature="0"/>
      <path id="path84" style="fill-rule:evenodd;fill:#42180e" d="m20.336 5.447c0.484 0.153 0.852 0.243 1.105 0.266-1.269-1.422-4.418-2.172-9.445-2.246-2.41-0.051-4.609 0.203-6.59 0.762-1.676 0.507-2.652 1.039-2.929 1.597l-0.079 0.153 0.04 0.039c0.281-0.051 0.722-0.243 1.332-0.571 0.789-0.281 1.218-0.433 1.296-0.457 1.219-0.281 2.336-0.418 3.352-0.418 0.836 0 2.094-0.027 3.77-0.078 1.472-0.027 2.718 0.039 3.734 0.192l3.273 0.457c0.176 0.023 0.559 0.125 1.141 0.304z" inkscape:connector-curvature="0"/>
      <path id="path86" style="fill-rule:evenodd;fill:#632316" d="m4.074 5.6c0.078-0.051 0.192-0.102 0.344-0.153-0.051 0.176-0.027 0.317 0.074 0.418 0.102 0.102 0.231 0.078 0.383-0.078l-0.305-0.34c0.153 0.024 0.266 0.012 0.344-0.039 0.102-0.078 0.125-0.179 0.074-0.304-0.304-0.18-0.558-0.164-0.761 0.039-0.161 0.179-0.309 0.281-0.438 0.304h0.363c-0.078 0.024-0.101 0.075-0.078 0.153z" inkscape:connector-curvature="0"/>
      <path id="path88" style="fill-rule:evenodd;fill:#c9813f" d="m21.707 9.33c0-0.558-0.812-1.09-2.437-1.597-1.879-0.61-4.137-0.915-6.778-0.915-3.023-0.027-5.535 0.204-7.543 0.684-2.133 0.484-3.137 1.129-3.008 1.941 0 0.102-0.089 0.407-0.265 0.915-0.153 0.457-0.164 0.761-0.039 0.917l1.066 1.446c-0.176-0.535-0.305-1.078-0.379-1.637-0.152-1.117 0.035-1.789 0.571-2.019 0.457-0.204 1.128-0.344 2.015-0.418 1.117-0.075 1.805-0.141 2.059-0.192 2.156-0.457 4.203-0.683 6.133-0.683 0.683 0 1.496 0.14 2.437 0.418 0.508 0.152 1.242 0.394 2.207 0.722 0.559 0.129 1.066 0.317 1.524 0.574 0.585 0.329 0.925 0.52 1.031 0.571 0.176 0.074 0.469 0.265 0.875 0.57 0.379 0.305 0.621 0.52 0.722 0.648 0.051-0.179-0.011-0.828-0.191-1.945z" inkscape:connector-curvature="0"/>
      <path id="path90" style="fill-rule:evenodd;fill:#9c6431" d="m21.707 9.291c-0.047-0.531-0.887-1.066-2.512-1.598-1.879-0.582-4.113-0.875-6.703-0.875-2.691-0.027-5.015 0.149-6.969 0.532-2.031 0.406-3.214 0.953-3.543 1.636 0.711-0.429 1.817-0.796 3.313-1.101 1.805-0.356 3.82-0.535 6.055-0.535 5.129 0 8.582 0.648 10.359 1.941z" inkscape:connector-curvature="0"/>
      <path id="path92" style="fill-rule:evenodd;fill:#784c25" d="m21.672 9.256c0.277-0.508-0.547-1.043-2.477-1.602-2.031-0.582-4.265-0.863-6.703-0.836-3.097 0.047-5.613 0.29-7.543 0.723-2.133 0.481-3.137 1.117-3.008 1.902l0.536-0.722c0.609-0.531 1.472-0.914 2.589-1.141 1.344-0.254 3.059-0.422 5.141-0.496 2.031-0.051 3.566-0.012 4.605 0.113 2.211 0.282 3.95 0.637 5.219 1.067 0.457 0.152 0.828 0.316 1.106 0.496 0.027 0.023 0.203 0.191 0.535 0.496z" inkscape:connector-curvature="0"/>
      <g id="g94">
        <g id="g110" mask="url(#mask102)">
          <g id="g182">
            <g id="g184" clip-path="url(#clipPath114)">
              <g id="g186" transform="translate(0 -0.08)">
                <g id="g190">
                  <g id="g192" clip-path="url(#clipPath118)">
                    <g id="g194">
                      <g id="g196">
                        <g id="g198" clip-path="url(#clipPath122)">
                          <g id="g200" transform="matrix(.76168 0 0 .76168 1.0803 16)">
                            <g id="g204" mask="url(#mask152)">
                              <path id="path206" style="fill-rule:evenodd;fill:url(#linearGradient160)" d="m21.797 10.781c0.027-0.226 0-0.441-0.074-0.644l-0.078-0.727-0.036-0.035h0.036l-0.036-0.039c0.098-0.152 0.047-0.332-0.152-0.535l0.035-0.113 0.153-0.266c0.382-0.254 0.507-0.434 0.382-0.535l-0.23-0.114c0.152-0.406 0.23-0.75 0.23-1.027 0.153-0.535 0.153-1.066 0-1.601l-0.039-0.036c-0.074-0.41-0.293-0.812-0.648-1.218-1.395-1.575-4.582-2.364-9.559-2.364h-1.14l-0.383 0.039h-0.649l-0.187 0.039c-2.184 0.176-3.961 0.571-5.332 1.18-1.32 0.582-2.133 1.309-2.438 2.172v0.035l-0.078 0.192v0.039l-0.074 0.343c-0.129 0.582-0.051 1.102 0.227 1.559l-0.075 0.152v0.153l-0.039 0.078c-0.129-0.051-0.203-0.078-0.226-0.078-0.078 0.027-0.168 0.129-0.27 0.304-0.051 0.051-0.012 0.168 0.117 0.344 0 0.152 0.204 0.406 0.61 0.762l-0.039 0.078 0.113 0.187c-0.051 0.204-0.063 0.344-0.039 0.422 0 0.098-0.09 0.403-0.266 0.914-0.152 0.457-0.164 0.762-0.039 0.914v0.036c0.203 1.168 1.207 2.195 3.012 3.086 2.031 1.015 4.48 1.523 7.348 1.523 2.945 0 5.343-0.547 7.199-1.637 1.472-0.863 2.347-1.89 2.629-3.086l0.074 0.078-0.039-0.574z" inkscape:connector-curvature="0"/>
                            </g>
                          </g>
                        </g>
                      </g>
                    </g>
                  </g>
                </g>
              </g>
            </g>
          </g>
        </g>
      </g>
      <path id="path208" style="fill-rule:evenodd;fill:#ffc3a3" d="m15.539 13.9c0.125 0.153 0.328 0.118 0.609-0.113 0.282-0.23 0.329-0.418 0.153-0.57-0.203-0.152-0.446-0.141-0.723 0.035-0.254 0.18-0.269 0.395-0.039 0.648z" inkscape:connector-curvature="0"/>
      <path id="path210" style="fill-rule:evenodd;fill:#ffc3a3" d="m14.93 12.033c0.23 0.106 0.433 0.067 0.609-0.113 0.18-0.203 0.18-0.379 0-0.531-0.152-0.129-0.328-0.078-0.531 0.152-0.207 0.254-0.231 0.418-0.078 0.492z" inkscape:connector-curvature="0"/>
      <path id="path212" style="fill-rule:evenodd;fill:#ffc3a3" d="m5.637 12.033c-0.203 0.383 0.051 0.688 0.761 0.918 0.688 0.203 1.118 0.086 1.297-0.343 0.203-0.434-0.05-0.723-0.761-0.879-0.711-0.153-1.145-0.047-1.297 0.304z" inkscape:connector-curvature="0"/>
      <path id="path214" style="fill-rule:evenodd;fill:#ffc3a3" d="m9.711 10.662c0.254 0.078 0.418-0.062 0.496-0.418 0.102-0.328-0.051-0.508-0.457-0.531-0.43-0.027-0.648 0.102-0.648 0.379 0.027 0.281 0.23 0.469 0.609 0.57z" inkscape:connector-curvature="0"/>
      <path id="path216" style="fill-rule:evenodd;fill:#ffc3a3" d="m12.797 13.9c0.23 0.18 0.469 0.18 0.723 0 0.253-0.175 0.242-0.406-0.04-0.683-0.304-0.281-0.57-0.305-0.796-0.078-0.231 0.254-0.192 0.508 0.113 0.761z" inkscape:connector-curvature="0"/>
      <path id="path218" style="fill-rule:evenodd;fill:#ffc3a3" d="m8.34 14.662c0.281-0.277 0.242-0.508-0.113-0.683-0.356-0.153-0.649-0.141-0.875 0.035-0.231 0.179-0.192 0.406 0.113 0.687 0.277 0.254 0.57 0.242 0.875-0.039z" inkscape:connector-curvature="0"/>
      <path id="path220" style="fill-rule:evenodd;fill:#ffc3a3" d="m18.93 13.217c0.254 0.101 0.468 0.074 0.648-0.078 0.176-0.176 0.188-0.356 0.035-0.531-0.175-0.204-0.406-0.18-0.683 0.074-0.305 0.254-0.305 0.433 0 0.535z" inkscape:connector-curvature="0"/>
      <path id="path222" style="fill-rule:evenodd;fill:#ffc3a3" d="m4.305 13.217c0.203-0.051 0.254-0.192 0.152-0.422-0.102-0.227-0.23-0.289-0.383-0.187-0.152 0.074-0.203 0.214-0.152 0.417 0.027 0.204 0.152 0.266 0.383 0.192z" inkscape:connector-curvature="0"/>
    </g>
  </g>
<metadata><rdf:RDF><cc:Work><dc:format>image/svg+xml</dc:format><dc:type rdf:resource="http://purl.org/dc/dcmitype/StillImage"/><cc:license rdf:resource="http://creativecommons.org/licenses/publicdomain/"/><dc:publisher><cc:Agent rdf:about="http://openclipart.org/"><dc:title>Openclipart</dc:title></cc:Agent></dc:publisher></cc:Work><cc:License rdf:about="http://creativecommons.org/licenses/publicdomain/"><cc:permits rdf:resource="http://creativecommons.org/ns#Reproduction"/><cc:permits rdf:resource="http://creativecommons.org/ns#Distribution"/><cc:permits rdf:resource="http://creativecommons.org/ns#DerivativeWorks"/></cc:License></rdf:RDF></metadata></svg>
