<?xml version="1.0" encoding="UTF-8" standalone="no"?><!-- Generator: Gravit.io --><svg xmlns="http://www.w3.org/2000/svg" xmlns:xlink="http://www.w3.org/1999/xlink" style="isolation:isolate" viewBox="0 0 1024 768" width="1024pt" height="768pt"><defs><clipPath id="_clipPath_JysmcKmWk42aBa846mcAo1OimX5DK6Sk"><rect width="1024" height="768"/></clipPath></defs><g clip-path="url(#_clipPath_JysmcKmWk42aBa846mcAo1OimX5DK6Sk)"><g><path d=" M 311.978 194.92 C 310.983 195.169 309.739 195.169 308.744 195.418 C 308.993 193.925 309.241 192.183 308.993 190.442 C 309.988 192.183 310.983 193.676 311.978 194.92 L 311.978 194.92 Z  M 347.554 182.481 L 347.057 179.495 L 346.808 182.73 C 346.808 186.213 345.813 189.447 344.32 191.935 C 346.808 191.686 349.296 191.686 352.032 191.686 C 349.793 189.198 348.301 186.213 347.554 182.481 L 347.554 182.481 Z  M 385.867 183.973 C 385.121 186.959 383.628 189.696 381.887 191.686 C 384.126 191.686 386.365 191.935 388.355 191.935 C 387.111 189.696 386.365 187.208 385.867 183.973 Z  M 273.168 202.632 C 272.919 202.135 272.67 201.637 272.172 201.14 C 272.421 201.637 272.421 202.135 272.67 202.632 C 272.919 202.881 272.919 202.632 273.168 202.632 L 273.168 202.632 Z  M 423.434 190.442 C 422.687 192.183 421.692 193.676 420.448 195.169 C 421.443 195.418 422.687 195.418 423.682 195.666 C 423.682 193.925 423.434 192.183 423.434 190.442 Z  M 460.254 201.637 C 460.005 201.886 459.756 202.384 459.507 202.632 L 460.005 202.632 C 460.005 202.632 460.254 202.135 460.254 201.637 Z  M 521.206 705.675 C 493.591 716.87 495.084 741.749 521.206 741.749 C 533.645 741.749 546.582 735.529 556.782 729.061 C 567.978 721.846 575.69 714.383 575.69 714.383 C 575.69 714.383 563.251 704.929 546.582 702.69 C 538.621 701.695 529.913 701.943 521.206 705.675 L 521.206 705.675 Z  M 849.104 657.66 C 842.387 657.162 835.172 657.908 827.958 661.143 C 800.343 672.338 801.835 697.216 827.958 697.216 C 845.621 697.216 864.031 684.777 874.48 676.816 C 879.456 672.835 882.441 669.85 882.441 669.85 C 882.441 669.85 868.012 658.904 849.104 657.66 Z  M 239.333 604.42 C 228.365 595.877 216.62 588.381 204.254 582.029 C 215.45 590.488 227.142 597.951 239.333 604.42 Z  M 476.176 481.769 C 425.424 441.963 365.964 441.963 365.964 441.963 C 365.964 441.963 306.505 441.963 255.753 481.769 C 235.104 497.94 212.215 512.121 195.547 525.306 C 205.747 507.642 212.464 486.247 192.313 465.847 C 152.756 425.792 162.458 376.035 209.728 345.932 C 257.245 316.078 309.49 350.908 324.666 373.299 C 334.866 388.723 352.281 396.187 362.481 399.172 L 369.945 399.172 C 379.896 395.938 397.311 388.723 407.76 373.299 C 422.687 350.908 475.181 315.829 522.699 345.932 C 570.217 375.786 579.919 425.792 540.114 465.847 C 507.772 498.686 544.592 533.516 553.548 552.175 C 552.553 553.17 551.807 554.165 550.811 555.16 C 550.811 534.014 512.996 510.628 476.176 481.769 L 476.176 481.769 Z  M 300.285 421.812 C 300.285 405.143 286.851 391.958 270.431 391.958 C 254.011 391.958 240.577 405.392 240.577 421.812 C 240.577 438.231 254.011 451.666 270.431 451.666 C 286.851 451.666 300.285 438.231 300.285 421.812 Z  M 487.371 421.812 C 487.371 405.392 473.937 391.958 457.517 391.958 C 441.097 391.958 427.663 405.392 427.663 421.812 C 427.663 438.231 441.097 451.666 457.517 451.666 C 473.937 451.666 487.371 438.231 487.371 421.812 Z  M 290.583 702.192 C 283.865 701.695 276.651 702.441 269.436 705.675 C 241.821 716.87 243.313 741.749 269.436 741.749 C 287.597 741.749 307.002 728.314 316.954 720.353 C 320.437 717.617 322.676 715.626 323.422 714.631 L 323.671 714.383 C 323.422 714.134 308.993 703.436 290.583 702.192 L 290.583 702.192 Z " fill="rgb(248,229,205)"/><path d=" M 550.811 555.16 C 550.811 534.014 512.996 510.877 476.176 481.769 C 425.424 441.963 365.964 441.963 365.964 441.963 C 365.964 441.963 306.505 441.963 255.753 481.769 C 235.104 497.94 212.215 512.121 195.547 525.306 C 185.844 541.975 173.156 555.658 177.883 561.877 C 177.883 561.877 176.639 561.38 174.649 560.136 C 176.888 566.356 183.605 572.326 196.044 578.049 C 198.781 579.292 201.518 580.785 204.254 582.278 C 217.091 588.877 229.256 596.709 240.577 605.664 C 240.826 605.912 241.074 605.912 241.074 606.161 C 259.236 620.591 274.163 637.259 287.348 657.66 C 290.831 663.133 294.314 668.606 297.797 674.577 C 307.251 690.997 319.193 700.699 330.139 706.421 C 348.798 716.124 365.716 714.383 365.716 714.383 C 365.716 714.383 408.258 718.861 433.634 674.577 C 449.058 647.459 465.976 627.557 486.874 609.893 C 500.059 598.698 514.986 588.746 532.401 578.297 C 545.338 570.585 550.811 562.873 550.811 555.16 L 550.811 555.16 Z  M 365.716 685.524 C 365.716 685.524 320.437 661.64 320.437 638.006 C 320.437 638.006 365.716 615.615 365.716 615.615 C 365.716 615.615 410.994 614.371 410.994 638.006 C 410.994 661.889 365.716 685.524 365.716 685.524 L 365.716 685.524 Z " fill="rgb(232,220,196)"/><path d=" M 410.994 638.006 C 410.994 661.889 365.716 685.524 365.716 685.524 C 365.716 685.524 320.437 661.64 320.437 638.006 C 320.437 614.371 365.716 615.615 365.716 615.615 C 365.716 615.615 410.994 614.371 410.994 638.006 Z  M 270.431 391.958 C 254.011 391.958 240.577 405.392 240.577 421.812 C 240.577 438.231 254.011 451.666 270.431 451.666 C 286.851 451.666 300.285 438.231 300.285 421.812 C 300.285 405.143 286.851 391.958 270.431 391.958 Z  M 457.517 391.958 C 441.097 391.958 427.663 405.392 427.663 421.812 C 427.663 438.231 441.097 451.666 457.517 451.666 C 473.937 451.666 487.371 438.231 487.371 421.812 C 487.371 405.392 473.937 391.958 457.517 391.958 Z " fill="rgb(65,45,34)"/><path d=" M 939.911 177.256 C 995.39 229.75 1019.771 294.931 1020.019 344.688 C 1020.019 385.738 1013.551 421.314 1002.356 452.412 C 1001.858 451.915 951.355 455.646 844.626 451.417 C 803.079 449.676 757.552 455.398 717.497 462.861 C 709.785 471.569 689.882 473.808 669.731 473.31 C 690.38 479.281 708.043 488.486 705.556 501.174 C 702.57 516.101 675.95 514.111 650.823 508.886 C 666.496 517.096 678.936 527.794 674.706 539.487 C 669.233 553.916 646.842 548.692 626.442 540.482 C 633.159 547.697 636.642 555.907 631.915 564.614 C 619.227 586.756 582.656 555.409 573.948 547.697 C 572.704 546.702 572.207 545.955 572.207 545.955 L 566.982 539.487 C 560.763 531.775 571.709 512.369 581.163 514.857 C 573.948 505.901 581.412 488.237 593.105 489.979 C 580.914 482.764 585.392 462.364 600.071 462.364 L 600.32 462.364 C 590.119 454.9 592.607 435.744 606.29 433.256 L 619.476 431.017 C 619.476 431.017 621.964 430.768 626.193 430.519 L 626.193 429.773 C 622.959 429.773 621.217 429.524 621.217 429.524 L 606.788 427.534 C 589.373 425.295 587.632 400.914 604.549 396.187 L 609.525 394.694 L 599.822 394.197 C 585.392 392.953 581.163 376.035 589.622 367.328 C 577.929 362.85 574.197 346.679 583.402 337.722 C 569.47 336.727 561.012 320.805 567.231 308.863 L 569.47 305.38 C 570.217 304.385 571.212 303.39 572.456 302.644 C 571.958 302.893 571.709 302.893 571.212 303.141 L 597.085 264.828 C 605.274 252.693 609.05 238.115 607.783 223.53 C 606.29 206.115 597.832 189.198 582.905 177.754 L 579.422 175.017 L 571.212 169.544 C 559.021 161.334 545.089 157.851 531.406 158.597 C 512.001 159.841 493.342 169.793 481.649 187.208 L 461.995 216.564 C 459.756 212.832 459.01 208.354 460.005 203.379 L 459.507 203.379 C 449.307 218.057 426.917 212.335 423.931 196.164 C 422.936 195.915 421.692 195.915 420.697 195.666 C 411.99 205.867 394.823 204.125 388.604 192.681 C 386.365 192.681 384.374 192.432 382.135 192.432 C 374.423 201.14 359.745 201.14 352.281 192.432 C 349.793 192.432 347.057 192.681 344.569 192.681 C 338.1 204.125 320.934 206.115 312.227 195.666 C 311.232 195.915 309.988 195.915 308.993 196.164 C 305.758 212.086 283.617 218.057 273.416 203.379 C 273.168 203.379 273.168 203.379 272.919 203.627 C 273.914 208.852 272.919 213.579 270.68 217.311 L 250.777 187.705 C 230.862 158.186 190.846 150.294 161.214 170.042 L 153.005 175.515 C 151.761 176.261 150.766 177.007 149.77 178.003 C 134.843 189.447 126.385 206.115 124.643 223.53 C 123.399 237.711 126.882 252.389 135.341 265.077 L 161.214 303.39 C 160.966 303.39 160.717 303.141 160.468 303.141 C 160.966 303.39 161.214 303.888 161.712 304.136 L 165.941 310.356 L 166.19 310.107 C 171.663 322.049 163.454 337.225 149.522 338.22 C 158.727 347.176 154.995 363.596 143.302 367.825 C 151.761 376.533 147.531 393.45 133.102 394.694 L 118.424 395.938 L 118.175 395.938 L 127.877 398.177 C 144.795 401.909 144.297 426.539 127.131 429.524 L 114.443 431.763 L 126.633 433.753 C 140.565 436.241 142.804 455.398 132.604 462.861 L 132.853 462.861 C 147.531 462.861 152.258 483.262 139.819 490.476 C 151.512 488.735 158.975 506.398 151.761 515.355 C 160.966 512.867 172.161 532.272 165.941 539.984 L 160.717 546.453 C 160.717 546.453 159.971 547.199 158.727 548.194 C 165.693 554.414 171.415 558.395 174.898 560.385 C 176.888 561.629 178.132 562.126 178.132 562.126 C 173.405 555.907 186.342 542.472 195.796 525.555 C 205.996 507.891 212.713 486.496 192.561 466.095 C 153.005 426.041 162.707 376.284 209.976 346.181 C 257.494 316.327 309.739 351.157 324.915 373.547 C 335.115 388.972 352.53 396.436 362.73 399.421 L 370.194 399.421 C 380.145 396.187 397.56 388.972 408.009 373.547 C 422.936 351.157 475.43 316.078 522.948 346.181 C 570.465 376.035 580.168 426.041 540.362 466.095 C 508.02 498.935 544.841 533.765 553.797 552.424 C 552.802 553.419 552.055 554.414 551.06 555.409 C 551.06 563.37 545.587 570.834 532.899 578.297 C 515.484 588.497 500.557 598.698 487.371 609.893 C 490.357 609.893 493.591 610.142 496.825 610.142 L 496.576 610.142 C 496.576 610.142 547.328 626.313 546.582 685.026 C 546.582 691.992 546.582 697.963 546.831 702.938 C 563.499 705.178 575.939 714.631 575.939 714.631 C 575.939 714.631 568.226 722.095 557.031 729.31 C 560.514 729.061 564.743 726.822 569.47 726.324 C 583.153 725.08 621.964 662.884 626.442 603.922 L 626.193 603.673 C 695.355 597.205 767.752 587.005 825.47 577.8 C 837.66 589.244 849.602 607.654 849.104 636.264 C 849.104 644.972 849.104 651.938 849.353 657.66 C 868.012 658.904 882.69 669.85 882.69 669.85 C 882.69 669.85 879.705 672.835 874.729 676.816 C 889.656 669.353 922.745 614.122 928.467 560.385 C 935.433 559.141 939.164 558.395 939.164 558.395 C 989.17 511.872 1024 445.197 1024 349.415 C 1023.751 298.166 998.375 230.745 939.911 177.256 L 939.911 177.256 Z  M 185.844 289.956 L 162.707 255.623 C 150.019 236.716 154.995 210.842 173.903 198.154 C 192.81 185.466 218.684 190.442 231.372 209.35 L 254.758 243.682 L 185.844 289.956 Z  M 546.333 289.956 L 477.42 243.682 L 500.806 209.35 C 513.494 190.442 539.367 185.466 558.275 198.154 C 577.183 210.842 582.158 236.716 569.47 255.623 L 546.333 289.956 Z " fill="rgb(254,231,220)"/><path d=" M 330.388 706.173 C 328.149 709.407 325.91 711.895 323.671 714.134 C 323.173 713.885 308.993 703.187 290.583 701.943 C 290.334 696.221 290.085 689.006 290.334 680.299 C 290.334 671.592 289.339 664.128 287.597 657.162 C 291.08 662.635 294.563 668.109 298.046 674.079 C 307.5 690.748 319.442 700.451 330.388 706.173 Z  M 323.671 714.631 C 322.925 715.378 320.437 717.617 317.203 720.353 C 318.944 719.109 321.183 717.119 323.671 714.631 Z  M 240.328 605.664 C 240.328 605.664 240.577 605.664 241.323 605.912 C 241.074 605.664 240.826 605.664 240.826 605.415 L 240.328 605.664 L 240.328 605.664 Z  M 939.911 177.256 C 930.706 168.549 921.003 160.339 910.057 152.627 C 912.296 147.9 912.544 143.67 910.057 139.69 C 905.827 132.973 896.622 132.973 885.427 136.456 C 881.944 134.465 878.461 132.475 874.729 130.485 C 878.958 124.265 880.202 118.543 876.968 113.319 C 871.246 104.362 856.817 107.348 840.894 114.811 C 839.65 114.314 838.655 113.816 837.411 113.319 C 843.631 105.855 846.119 98.64 842.387 92.669 C 835.421 81.723 815.518 88.689 795.367 99.635 C 795.118 99.635 794.869 99.387 794.62 99.387 C 805.318 89.435 811.289 79.484 806.313 71.772 C 797.357 57.591 766.508 73.264 742.127 89.435 C 741.629 89.435 741.132 89.435 740.883 89.186 C 749.839 79.981 754.815 71.025 750.088 63.81 C 740.385 48.386 705.307 68.04 680.428 84.957 L 675.453 84.957 C 684.906 72.02 689.633 60.079 682.667 53.113 C 671.472 41.917 647.34 60.576 627.686 79.981 C 636.891 60.327 640.871 42.166 629.676 35.698 C 612.012 25 586.636 61.82 569.719 91.923 C 568.475 92.172 567.48 92.421 566.236 92.421 C 579.67 66.298 587.134 40.922 572.704 32.215 C 551.558 19.527 521.206 64.059 501.303 99.884 C 507.274 74.011 508.02 51.122 493.093 45.898 L 492.596 45.898 C 492.596 45.898 492.347 45.898 492.347 45.649 C 473.688 39.181 457.02 70.776 445.078 103.616 C 449.805 69.035 449.805 33.459 430.4 30.224 C 410.994 27.239 399.799 60.079 393.331 93.913 C 392.336 59.332 386.613 25 366.959 25 C 346.31 25 340.837 63.562 340.588 100.133 C 334.369 64.059 322.925 26.99 302.275 30.224 C 282.621 33.459 282.621 69.035 287.597 103.616 C 275.655 70.776 258.987 39.181 240.328 45.649 C 221.42 52.118 227.142 87.196 237.591 120.782 C 220.425 90.182 199.03 61.571 181.615 70.776 C 164.2 79.981 175.146 113.319 190.82 144.665 C 169.176 117.299 143.551 93.167 127.629 105.109 C 111.955 117.05 128.126 147.9 148.278 176.261 C 122.653 152.875 93.545 133.47 80.111 147.651 C 66.427 161.832 87.325 189.944 111.955 214.325 C 82.847 195.418 51.003 180.988 40.056 197.159 C 28.861 213.579 54.735 238.209 83.345 258.609 C 51.252 244.428 16.919 234.726 8.461 252.638 C 0.748 269.307 25.627 287.965 54.486 302.893 C 28.861 297.917 5.973 297.668 1.743 312.346 C -2.486 327.273 18.412 339.464 43.788 348.42 C 24.88 348.669 9.705 352.65 8.212 364.094 C 6.47 378.026 27.617 385.738 51.5 390.216 C 25.129 390.714 0.251 395.192 0.002 410.119 C -0.247 424.797 23.139 430.519 48.764 432.261 C 28.363 435.246 11.446 441.466 11.944 454.651 C 12.69 470.325 37.817 473.808 62.945 473.31 C 42.295 479.281 24.632 488.486 27.12 501.174 C 30.105 516.101 56.725 514.111 81.852 508.886 C 66.179 517.096 53.739 527.794 57.969 539.487 C 63.193 553.916 85.833 548.692 105.984 540.482 C 99.267 547.697 95.784 555.907 100.76 564.614 C 113.448 586.507 149.522 555.907 158.478 547.697 C 159.722 546.453 160.468 545.955 160.468 545.955 L 165.693 539.487 C 171.912 531.775 160.717 512.369 151.512 514.857 C 158.727 505.901 151.263 488.237 139.57 489.979 C 151.761 482.764 147.283 462.364 132.604 462.364 L 132.355 462.364 C 142.556 454.9 140.068 435.744 126.385 433.256 L 114.194 431.265 L 126.882 429.026 C 144.048 426.041 144.546 401.411 127.629 397.68 L 117.926 395.44 L 118.175 395.44 L 132.853 394.197 C 147.283 392.953 151.512 376.035 143.053 367.328 C 154.746 362.85 158.478 346.679 149.273 337.722 C 163.205 336.727 171.415 321.551 165.941 309.61 L 165.693 309.859 L 161.463 303.639 C 161.214 303.39 160.717 302.893 160.219 302.644 C 160.468 302.644 160.717 302.893 160.966 302.893 L 135.092 264.58 C 126.633 251.892 123.15 237.213 124.394 223.033 C 125.887 205.618 134.595 188.7 149.522 177.505 L 152.756 175.017 L 160.966 169.544 C 190.597 149.797 230.613 157.689 250.528 187.208 L 270.431 216.813 C 272.67 213.081 273.914 208.354 272.67 203.13 C 272.67 202.632 272.421 202.135 272.172 201.637 C 272.421 202.135 272.67 202.632 273.168 203.13 C 283.368 217.808 305.51 211.837 308.744 195.915 C 308.993 194.422 309.241 192.681 308.993 190.939 C 309.739 192.681 310.734 194.174 311.978 195.418 C 320.686 205.867 337.852 203.876 344.32 192.432 C 345.813 189.944 346.808 186.71 346.808 183.227 L 347.057 179.993 L 347.554 182.978 C 348.301 186.71 349.793 189.696 352.032 192.183 C 359.745 200.891 374.423 201.14 381.887 192.183 C 383.628 190.193 385.121 187.456 385.867 184.471 C 386.116 187.456 387.111 190.193 388.355 192.432 C 394.823 203.876 411.741 205.867 420.448 195.418 C 421.692 194.174 422.687 192.432 423.434 190.691 C 423.434 192.432 423.434 194.174 423.682 195.666 C 426.917 211.837 449.058 217.808 459.259 202.881 C 459.507 202.632 459.756 202.135 460.005 201.886 C 460.005 202.384 459.756 202.632 459.756 203.13 C 458.761 208.106 459.756 212.584 461.746 216.315 L 481.4 186.959 C 493.093 169.544 511.752 159.593 531.157 158.349 C 544.841 157.602 558.773 161.085 570.963 169.295 L 579.173 174.768 C 580.417 175.515 581.661 176.51 582.656 177.505 C 597.334 188.949 606.042 205.618 607.534 223.281 C 608.778 237.462 605.295 251.892 596.837 264.58 L 570.963 302.893 C 571.461 302.644 571.709 302.644 572.207 302.395 C 571.212 303.39 570.217 304.136 569.221 305.132 L 566.982 308.615 C 560.763 320.556 568.973 336.479 583.153 337.474 C 573.948 346.43 577.68 362.85 589.373 367.079 C 580.914 375.786 585.144 392.704 599.573 393.948 L 609.276 394.694 L 604.3 396.187 C 587.383 400.914 589.124 425.295 606.539 427.534 L 620.969 429.524 C 620.969 429.524 622.71 429.524 625.944 429.773 L 625.944 430.519 C 621.715 430.768 619.227 431.017 619.227 431.017 L 606.042 433.256 C 592.11 435.744 589.871 454.9 600.071 462.364 L 599.822 462.364 C 585.144 462.364 580.417 482.764 592.856 489.979 C 581.163 488.237 573.7 505.901 580.914 514.857 C 571.461 512.369 560.514 531.775 566.734 539.487 L 571.958 545.955 L 573.7 547.697 C 582.407 555.658 618.978 586.756 631.666 564.614 C 636.393 555.907 632.91 547.697 626.193 540.482 C 646.345 548.692 668.984 553.916 674.457 539.487 C 678.936 527.794 666.248 517.096 650.574 508.886 C 675.453 514.111 702.321 516.101 705.307 501.174 C 708.043 488.486 690.131 479.53 669.482 473.31 C 689.633 473.808 709.536 471.569 717.248 462.861 C 757.303 455.398 802.83 449.924 844.377 451.417 C 951.106 455.646 1001.609 451.915 1002.107 452.412 C 1013.302 421.314 1019.771 385.738 1019.771 344.688 C 1019.522 295.18 995.141 229.999 939.911 177.256 Z  M 173.903 198.154 C 154.995 210.842 150.019 236.716 162.707 255.623 L 185.844 289.956 L 254.758 243.682 L 231.372 209.35 C 218.684 190.442 192.81 185.466 173.903 198.154 Z  M 558.275 198.154 C 539.367 185.466 513.494 190.442 500.806 209.35 L 477.42 243.682 L 546.333 289.956 L 569.47 255.623 C 582.158 236.716 577.183 210.842 558.275 198.154 Z " fill="rgb(201,180,157)"/></g></g></svg>