<?xml version="1.0" encoding="UTF-8" standalone="no"?><!-- Generator: Gravit.io --><svg xmlns="http://www.w3.org/2000/svg" xmlns:xlink="http://www.w3.org/1999/xlink" style="isolation:isolate" viewBox="0 0 1024 768" width="1024pt" height="768pt"><defs><clipPath id="_clipPath_ALv4KCoDDHVz1Sw0OV6Nqe4gTQSW8Ooi"><rect width="1024" height="768"/></clipPath></defs><g clip-path="url(#_clipPath_ALv4KCoDDHVz1Sw0OV6Nqe4gTQSW8Ooi)"><g><path d=" M 576.889 445.895 L 351.3 445.895 C 356.403 451.23 361.992 456.242 368.139 460.671 L 368.139 466.026 C 364.521 488.674 337.685 529.562 321.75 546.553 L 321.75 606.947 L 391.333 606.947 C 424.664 596.882 532.68 534.594 553.694 486.158 L 576.889 486.158 L 576.889 445.895 Z " fill="rgb(122,79,52)"/><path d=" M 321.75 506.289 L 507.306 506.289 L 391.333 606.947 L 391.333 727.737 L 321.75 687.474 L 321.75 506.289 Z " fill="rgb(122,79,52)"/><path d=" M 321.75 687.474 L 368.139 687.474 C 406.569 687.474 437.722 714.513 437.722 747.868 L 391.333 747.868 C 353.063 747.868 321.75 720.691 321.75 687.474 Z " fill="rgb(122,79,52)"/><path d=" M 205.778 707.605 L 252.167 707.605 C 290.596 707.605 321.75 734.645 321.75 768 L 275.361 768 C 237.09 768 205.778 740.822 205.778 707.605 Z " fill="rgb(161,106,74)"/><path d=" M 646.472 687.474 L 692.861 687.474 C 731.291 687.474 762.444 714.513 762.444 747.868 L 716.056 747.868 C 677.785 747.868 646.472 720.691 646.472 687.474 Z " fill="rgb(122,79,52)"/><path d=" M 646.472 506.289 L 762.444 506.289 L 716.056 586.816 L 716.056 727.737 L 646.472 687.474 L 646.472 506.289 Z " fill="rgb(122,79,52)"/><path d=" M 543.303 496.224 L 429.697 496.224 L 426.867 502.746 C 408.288 545.526 309.155 605.216 273.32 617.013 L 217.375 617.013 L 217.375 570.167 C 234.724 550.498 259.914 510.94 263.648 487.547 L 263.764 476.072 L 259.566 473.052 C 232.877 453.987 217.402 425.567 217.375 395.566 C 217.375 390.211 217.978 384.614 219.207 378.454 L 220.599 371.509 L 213.571 368.006 C 169.339 345.982 124.597 296.518 124.597 244.579 C 124.597 186.64 185.413 133.855 252.167 133.855 L 279.652 133.996 C 315.534 133.996 366.028 131.58 390.034 110.784 C 398.361 103.598 402.931 93.914 402.931 83.526 C 402.931 66.314 417.891 53.329 437.722 53.329 C 457.229 53.329 472.514 66.898 472.514 84.251 C 472.514 112.335 460.476 139.512 440.343 156.926 C 401.771 190.304 341.883 194.592 294.009 194.592 C 286.726 194.592 279.884 194.492 273.645 194.411 L 252.167 194.25 C 225.076 194.25 194.181 221.065 194.181 244.579 C 194.123 278.351 221.742 307.387 259.96 313.731 L 264.668 314.496 L 268.612 312.181 C 287.701 300.91 310.26 294.891 333.347 294.908 L 646.472 294.908 C 663.381 294.908 673.308 287.077 680.661 267.891 L 701.768 176.715 L 842.628 211.644 L 820.5 384.373 C 810.573 464.577 760.496 516.355 692.861 516.355 L 663.868 516.355 L 590.806 600.908 L 522.73 674.73 L 543.303 496.224 Z " fill="rgb(255,196,156)"/><path d=" M 437.722 63.395 C 450.734 63.395 460.917 72.555 460.917 84.251 C 460.917 109.718 450.154 134.218 432.156 149.799 C 396.598 180.581 339.656 184.526 294.033 184.526 C 286.819 184.526 280.023 184.426 273.853 184.345 C 268.565 184.265 263.718 184.184 259.334 184.184 L 252.167 184.184 C 218.349 184.184 182.583 215.227 182.583 244.579 C 182.512 283.198 214.116 316.395 257.826 323.616 L 267.22 325.146 L 275.129 320.495 C 292.304 310.373 312.587 304.965 333.347 304.974 L 646.472 304.974 C 675.326 304.974 686.088 285.627 691.678 271.072 L 692.142 269.884 L 692.42 268.656 L 710.674 189.398 L 830.01 218.992 L 808.973 383.346 C 799.718 458.034 754.164 506.289 692.861 506.289 L 658.069 506.289 L 651.111 514.342 L 581.968 594.365 L 538.177 641.876 L 553.578 508.303 L 556.13 486.158 L 421.672 486.158 L 416.012 499.203 C 399.127 538.138 306.047 594.566 271.117 606.947 L 228.972 606.947 L 228.972 573.489 C 245.649 553.579 271.001 514.745 275.129 488.936 L 275.361 487.547 L 275.361 471.341 L 266.965 465.302 C 242.94 448.145 229.006 422.568 228.972 395.566 C 228.972 390.795 229.506 385.762 230.619 380.185 L 233.402 366.294 L 219.323 359.269 C 178.014 338.694 136.194 292.693 136.194 244.579 C 136.194 192.841 192.557 143.921 252.167 143.921 L 259.496 143.921 L 265.921 143.981 C 269.957 144.022 274.573 144.082 279.629 144.082 C 317.575 144.082 371.154 141.364 398.199 117.931 C 408.733 108.825 414.616 96.43 414.528 83.526 C 414.528 72.051 424.501 63.395 437.722 63.395 Z  M 437.722 43.263 C 411.628 43.263 391.333 60.878 391.333 83.526 C 391.333 93.733 385.72 100.316 381.847 103.658 C 360.717 121.958 311.521 123.93 279.652 123.93 C 271.627 123.93 264.715 123.81 259.612 123.789 L 252.167 123.789 C 179.359 123.789 113 181.386 113 244.579 C 113 297.746 157.093 351.478 207.773 376.743 C 206.484 382.956 205.817 389.253 205.778 395.566 C 205.778 429.749 223.869 460.45 252.167 480.803 L 252.167 486.158 C 248.548 508.806 221.712 549.693 205.778 566.684 L 205.778 627.079 L 275.361 627.079 C 308.692 617.013 416.708 554.726 437.722 506.289 L 530.5 506.289 L 507.306 707.605 L 600.083 606.947 L 669.667 526.421 L 692.861 526.421 C 759.545 526.421 820.431 479.233 832.028 385.5 L 855.222 204.316 L 692.861 164.053 L 669.667 264.711 C 663.149 281.702 656.26 284.842 646.472 284.842 L 333.347 284.842 C 307.946 284.836 283.128 291.457 262.117 303.846 C 229.277 298.542 205.54 273.571 205.778 244.579 C 205.778 226.581 231.431 204.316 252.167 204.316 L 259.334 204.316 C 268.797 204.316 280.673 204.658 294.009 204.658 C 341.025 204.658 406.317 200.571 448.508 164.053 C 471.818 143.901 484.111 114.086 484.111 84.251 C 484.111 61.603 463.816 43.263 437.722 43.263 Z " fill="rgb(161,106,74)"/><path d=" M 576.889 727.737 L 507.306 707.605 L 530.5 566.684 L 658 506.41 L 600.083 606.947 L 576.889 727.737 Z " fill="rgb(161,106,74)"/><path d=" M 507.306 707.605 L 553.694 707.605 C 592.124 707.605 623.278 734.645 623.278 768 L 576.889 768 C 538.618 768 507.306 740.822 507.306 707.605 Z  M 716.056 103.658 L 623.278 3 L 623.278 164.053 L 739.25 164.053 C 739.25 138.888 730.39 125.46 716.056 103.658 Z  M 855.222 103.658 L 948 3 L 948 164.053 L 832.028 164.053 C 832.028 138.888 840.888 125.46 855.222 103.658 Z " fill="rgb(161,106,74)"/><path d=" M 785.639 294.908 C 700.724 294.908 634.875 224.568 634.875 164.053 C 634.875 102.994 702.51 53.329 785.639 53.329 C 868.768 53.329 936.403 102.994 936.403 164.053 C 936.403 224.568 870.554 294.908 785.639 294.908 Z " fill="rgb(255,196,156)"/><path d=" M 785.639 63.395 C 862.366 63.395 924.806 108.55 924.806 164.053 C 924.806 218.77 862.737 284.842 785.639 284.842 C 708.541 284.842 646.472 218.77 646.472 164.053 C 646.472 108.55 708.912 63.395 785.639 63.395 Z  M 785.639 43.263 C 695.969 43.263 623.278 97.337 623.278 164.053 C 623.278 230.769 695.969 304.974 785.639 304.974 C 875.309 304.974 948 230.769 948 164.053 C 948 97.337 875.309 43.263 785.639 43.263 Z " fill="rgb(161,106,74)"/><path d=" M 693.232 124.112 C 693.232 144.505 691.168 164.576 703.322 175.105 C 716.775 186.781 736.165 183.862 762.073 183.862 C 762.073 159.503 763.233 142.613 751.984 132.869 C 738.554 121.193 726.447 124.112 693.232 124.112 Z  M 878.277 124.112 C 878.277 144.505 879.136 165.623 868.188 175.105 C 854.758 186.781 835.345 183.862 809.436 183.862 C 809.436 159.503 808.277 142.613 819.526 132.869 C 832.979 121.193 845.086 124.112 878.277 124.112 Z " fill="rgb(161,106,74)"/><path d=" M 785.639 224.447 L 765.251 213.657 L 770.006 204.316 L 801.133 204.316 L 806.12 213.596 L 785.639 224.447 Z " fill="rgb(161,106,74)"/><path d=" M 803.035 214.382 L 768.243 214.382 C 765.041 214.382 762.444 212.128 762.444 209.349 C 762.444 206.569 765.041 204.316 768.243 204.316 L 803.035 204.316 C 806.237 204.316 808.833 206.569 808.833 209.349 C 808.833 212.128 806.237 214.382 803.035 214.382 Z " fill="rgb(161,106,74)"/><ellipse vector-effect="non-scaling-stroke" cx="727.6527777777777" cy="153.98684210526372" rx="11.597222222222172" ry="10.06578947368422" fill="rgb(54,64,77)"/><ellipse vector-effect="non-scaling-stroke" cx="843.6249999999993" cy="153.98684210526372" rx="11.597222222222172" ry="10.06578947368422" fill="rgb(54,64,77)"/><path d=" M 275.361 727.737 L 205.778 707.605 L 205.778 566.684 L 228.972 573.489 L 275.361 606.947 L 275.361 727.737 Z " fill="rgb(161,106,74)"/></g></g></svg>