<?xml version="1.0" encoding="UTF-8" standalone="no"?><!-- Generator: Gravit.io --><svg xmlns="http://www.w3.org/2000/svg" xmlns:xlink="http://www.w3.org/1999/xlink" style="isolation:isolate" viewBox="0 0 1024 768" width="1024pt" height="768pt"><defs><clipPath id="_clipPath_zmYUSAXzDdhSsgFLR5u2syDmQEmupXFm"><rect width="1024" height="768"/></clipPath></defs><g clip-path="url(#_clipPath_zmYUSAXzDdhSsgFLR5u2syDmQEmupXFm)"><g><path d=" M 634.156 660.409 L 599.716 768 L 565.276 768 L 581.823 730.757 L 581.823 642.539 L 634.156 660.409 L 634.156 660.409 Z  M 316.693 660.409 L 282.253 768 L 247.813 768 L 264.36 730.757 L 264.36 642.539 L 316.693 660.409 L 316.693 660.409 Z  M 386.728 660.409 L 352.288 768 L 317.848 768 L 334.394 730.757 L 334.394 642.539 L 386.728 660.409 L 386.728 660.409 Z  M 704.19 660.409 L 669.751 768 L 635.311 768 L 651.857 730.757 L 651.857 642.539 L 704.19 660.409 L 704.19 660.409 Z " fill="rgb(155,103,40)"/><path d=" M 904.481 694.454 C 784.037 646.866 777.688 528.176 762.873 485.29 C 757.101 468.738 747.288 452.938 737.091 439.583 L 737.091 497.517 C 737.091 502.971 735.167 508.05 731.896 512.188 L 707.269 642.539 C 707.269 663.794 694.955 680.911 679.563 680.911 C 664.363 680.911 651.857 663.794 651.857 642.539 L 651.472 642.539 L 638.966 531.374 L 405.39 560.905 L 389.806 642.539 C 389.806 663.794 377.492 680.911 362.1 680.911 C 346.9 680.911 334.394 663.794 334.394 642.539 L 334.009 642.539 L 325.929 570.874 C 284.562 576.141 247.813 544.541 247.813 503.912 L 247.813 411.556 C 236.654 413.437 227.034 413.625 225.11 413.625 L 224.725 413.625 C 219.53 413.625 162.964 412.685 162.964 383.154 C 162.964 340.456 120.636 340.267 91.583 340.079 C 91.583 340.079 44.252 341.208 13.468 318.636 L 26.744 304.717 C 11.352 294.372 0.192 285.719 0.192 285.719 C 0.192 285.719 56.181 230.419 71.573 137.875 C 71.573 137.875 75.229 49.281 112.555 0 C 112.555 0 166.812 25.017 183.744 103.453 L 265.899 103.453 C 282.831 25.017 337.088 0 337.088 0 C 374.414 49.281 378.069 137.875 378.069 137.875 C 393.462 230.419 449.451 285.719 449.451 285.719 C 449.451 285.719 438.291 294.372 423.091 304.717 L 423.476 305.093 L 607.412 305.093 C 638.004 305.093 665.902 315.439 688.029 332.744 C 700.342 341.772 801.931 417.575 853.687 510.495 C 908.713 609.622 955.082 630.313 1001.644 628.244 C 1048.205 626.175 1024.924 741.855 904.481 694.454 L 904.481 694.454 Z " fill="rgb(244,158,35)"/><path d=" M 139.684 226.845 C 150.266 226.845 158.731 235.121 158.731 245.467 C 158.731 255.812 150.266 264.088 139.684 264.088 C 129.102 264.088 120.636 255.812 120.636 245.467 C 120.636 235.121 129.102 226.845 139.684 226.845 Z  M 309.959 226.845 C 320.541 226.845 329.007 235.121 329.007 245.467 C 329.007 255.812 320.541 264.088 309.959 264.088 C 299.377 264.088 290.911 255.812 290.911 245.467 C 290.911 235.121 299.377 226.845 309.959 226.845 Z " fill="rgb(170,86,38)"/><path d=" M 449.451 285.719 C 388.844 266.533 356.136 294.372 325.736 301.143 C 296.876 307.727 279.56 308.479 273.21 347.791 C 267.246 384.846 229.15 380.52 224.918 379.956 L 224.533 379.956 C 220.3 380.52 182.204 385.035 176.24 347.791 C 169.891 308.479 152.575 307.727 123.714 301.143 C 93.507 294.184 60.607 266.345 0 285.719 C 0 285.719 11.159 294.372 26.551 304.717 L 13.276 318.636 C 44.06 341.208 91.391 340.079 91.391 340.079 C 120.443 340.267 162.772 340.456 162.772 383.154 C 162.772 419.268 220.877 414.001 224.725 413.625 C 228.573 414.001 286.679 419.268 286.679 383.154 C 286.679 340.644 329.007 340.267 358.06 340.079 C 358.06 340.079 405.39 341.208 436.175 318.636 L 422.899 304.717 C 438.291 294.372 449.451 285.719 449.451 285.719 L 449.451 285.719 Z " fill="rgb(248,229,205)"/><path d=" M 148.342 107.591 C 148.342 107.591 149.304 53.796 112.555 27.086 C 112.555 27.086 92.738 60.191 92.738 107.591 C 92.93 107.591 104.282 136.558 148.342 107.591 Z  M 301.301 107.591 C 301.301 107.591 300.339 53.796 337.088 27.086 C 337.088 27.086 356.905 60.191 356.905 107.591 C 356.713 107.591 345.169 136.558 301.301 107.591 Z  M 265.899 103.453 L 183.744 103.453 C 137.182 124.144 112.555 176.623 112.555 176.623 C 112.555 176.623 134.489 187.533 162.579 198.442 C 190.863 209.54 196.442 250.733 193.556 300.391 C 190.863 346.851 220.685 349.86 224.533 350.048 L 224.918 350.048 C 228.766 349.86 258.588 346.851 255.894 300.391 C 253.008 250.733 258.78 209.54 286.871 198.442 C 314.962 187.345 336.895 176.623 336.895 176.623 C 336.895 176.623 312.268 124.144 265.899 103.453 L 265.899 103.453 Z  M 638.966 531.374 L 646.277 595.515 L 637.427 642.539 C 637.427 663.794 625.113 680.911 609.721 680.911 C 594.521 680.911 582.015 663.794 582.015 642.539 L 581.631 642.539 L 570.086 540.026 L 638.966 531.374 L 638.966 531.374 Z  M 325.929 570.874 L 328.622 595.515 L 319.772 642.539 C 319.772 663.794 307.458 680.911 292.066 680.911 C 276.866 680.911 264.36 663.794 264.36 642.539 L 263.975 642.539 L 250.315 522.157 C 259.646 554.501 291.846 575.247 325.929 570.874 Z " fill="rgb(213,131,40)"/><path d=" M 224.918 340.079 L 224.533 340.079 C 194.326 340.267 195.288 357.76 195.288 357.76 C 208.756 372.62 222.224 379.015 224.533 380.144 L 224.533 380.332 L 224.918 380.332 L 224.918 380.144 C 227.226 379.015 240.695 372.62 254.163 357.76 C 254.163 357.76 255.125 340.267 224.918 340.079 Z " fill="rgb(90,69,60)"/></g></g></svg>