<?xml version="1.0" encoding="UTF-8" standalone="no"?><!-- Generator: Gravit.io --><svg xmlns="http://www.w3.org/2000/svg" xmlns:xlink="http://www.w3.org/1999/xlink" style="isolation:isolate" viewBox="0 0 1024 768" width="1024pt" height="768pt"><defs><clipPath id="_clipPath_qbgH6rYLMENpqC7TL5Y323R4dCn3eUBw"><rect width="1024" height="768"/></clipPath></defs><g clip-path="url(#_clipPath_qbgH6rYLMENpqC7TL5Y323R4dCn3eUBw)"><g><path d=" M 517.136 757.911 C 503.942 757.856 492.112 750.47 487.26 739.257 L 297.388 293.065 L 736.862 293.065 L 546.99 739.237 C 542.168 750.465 530.335 757.867 517.136 757.911 Z " fill="rgb(245,206,133)"/><path d=" M 720.697 303.171 L 536.707 735.578 C 533.545 742.996 525.849 747.806 517.136 747.806 C 508.423 747.806 500.727 742.996 497.565 735.578 L 313.575 303.171 L 720.697 303.171 Z  M 753.028 282.96 L 281.244 282.96 L 476.955 742.895 C 483.407 758.032 499.361 768 517.136 768 C 534.911 768 550.865 758.032 557.317 742.895 L 753.028 282.96 Z " fill="rgb(150,122,68)"/><ellipse vector-effect="non-scaling-stroke" cx="534.5177375330813" cy="137.15993264890727" rx="139.00957848341875" ry="127.04443536925221" fill="rgb(255,238,163)"/><path d=" M 534.518 20.221 C 605.154 20.288 662.397 72.604 662.47 137.16 C 662.397 201.716 605.154 254.032 534.518 254.099 C 463.882 254.032 406.638 201.716 406.565 137.16 C 406.638 72.604 463.882 20.288 534.518 20.221 M 534.518 0.01 C 480.474 -0.589 430.252 25.417 403.039 68.095 C 375.826 110.772 375.826 163.527 403.039 206.205 C 430.252 248.882 480.474 274.889 534.518 274.29 C 616.681 273.378 682.763 212.246 682.763 137.15 C 682.763 62.053 616.681 0.922 534.518 0.01 L 534.518 0.01 Z " fill="rgb(186,155,72)"/><path d=" M 346.481 380.497 L 384.451 415.198 L 435.159 368.855 L 384.451 322.512 L 339.36 363.742 L 346.481 380.497 Z " fill="rgb(224,175,83)"/><path d=" M 450.794 354.566 L 501.501 308.223 L 495.973 303.171 L 405.614 303.171 L 400.086 308.223 L 450.794 354.566 Z " fill="rgb(224,175,83)"/><path d=" M 376.512 451.052 L 404.907 517.768 L 435.159 490.12 L 384.451 443.776 L 376.512 451.052 Z " fill="rgb(224,175,83)"/><rect x="416.46" y="395.276" width="68.699" height="68.422" transform="matrix(0.738,-0.675,0.741,0.677,-200.276,442.709)" fill="rgb(224,175,83)"/><path d=" M 450.794 504.408 L 413.642 538.362 L 430.913 578.925 L 450.794 597.095 L 501.501 550.752 L 450.794 504.408 Z " fill="rgb(224,175,83)"/><path d=" M 583.478 504.408 L 532.771 550.752 L 583.478 597.095 L 603.359 578.925 L 620.63 538.362 L 583.478 504.408 Z " fill="rgb(224,175,83)"/><rect x="549.145" y="395.276" width="68.699" height="68.422" transform="matrix(0.738,-0.675,0.741,0.677,-165.533,532.223)" fill="rgb(224,175,83)"/><path d=" M 657.76 451.052 L 649.821 443.776 L 599.113 490.12 L 629.365 517.768 L 657.76 451.052 Z " fill="rgb(224,175,83)"/><rect x="482.802" y="334.644" width="68.699" height="68.422" transform="matrix(0.738,-0.675,0.741,0.677,-137.966,467.902)" fill="rgb(224,175,83)"/><path d=" M 368.816 429.487 L 366.384 427.264 L 367.755 430.458 L 368.816 429.487 Z " fill="rgb(224,175,83)"/><rect x="482.802" y="577.173" width="68.699" height="68.422" transform="matrix(0.738,-0.675,0.741,0.677,-317.72,546.155)" fill="rgb(224,175,83)"/><path d=" M 583.456 625.693 L 532.771 672.016 L 555.062 692.388 L 583.456 625.693 Z " fill="rgb(224,175,83)"/><path d=" M 450.816 625.693 L 479.21 692.388 L 501.501 672.016 L 450.816 625.693 Z " fill="rgb(224,175,83)"/><path d=" M 517.136 686.305 L 487.967 712.963 L 497.587 735.558 C 500.727 742.996 508.423 747.806 517.136 747.806 C 525.849 747.806 533.545 742.996 536.707 735.578 L 546.327 712.983 L 517.136 686.305 Z " fill="rgb(224,175,83)"/><path d=" M 703.669 343.147 L 720.697 303.171 L 670.984 303.171 L 665.456 308.223 L 703.669 343.147 Z " fill="rgb(224,175,83)"/><path d=" M 666.517 430.458 L 667.888 427.264 L 665.456 429.487 L 666.517 430.458 Z " fill="rgb(224,175,83)"/><rect x="482.802" y="455.909" width="68.699" height="68.422" transform="matrix(0.738,-0.675,0.741,0.677,-227.843,507.029)" fill="rgb(224,175,83)"/><path d=" M 599.113 368.855 L 649.821 415.198 L 687.791 380.497 L 694.912 363.742 L 649.821 322.512 L 599.113 368.855 Z " fill="rgb(224,175,83)"/><path d=" M 532.771 308.223 L 583.478 354.566 L 634.186 308.223 L 628.658 303.171 L 538.299 303.171 L 532.771 308.223 Z " fill="rgb(224,175,83)"/><path d=" M 330.603 343.147 L 368.816 308.223 L 363.288 303.171 L 313.575 303.171 L 330.603 343.147 Z " fill="rgb(224,175,83)"/><path d=" M 560.635 542.324 C 535.911 542.324 530.803 516.838 525.871 477.953 C 522.333 450.123 518.971 423.828 500.772 412.025 C 484.562 401.516 460.502 396.2 429.254 396.2 C 395.42 396.2 361.541 402.365 345.375 405.76 L 297.388 293.065 L 736.862 293.065 L 693.519 394.907 C 684.231 384.094 669.657 372.635 649.467 372.635 C 644.29 372.664 639.147 373.399 634.208 374.818 C 599.401 384.68 594.801 428.113 590.334 470.091 C 585.69 513.726 581.112 542.324 560.635 542.324 Z " fill="rgb(166,113,78)"/><path d=" M 720.697 303.171 L 689.472 376.576 C 678.835 368.471 665.434 362.55 649.489 362.55 C 643.364 362.55 637.105 363.439 630.935 365.197 C 589.118 377.061 583.899 425.991 579.321 469.141 C 576.645 494.263 572.62 532.239 560.635 532.239 C 546.327 532.239 541.727 515.14 536.84 476.801 C 533.014 446.667 529.387 418.21 507.163 403.82 C 489.029 392.077 462.802 386.135 429.232 386.135 C 399.975 386.135 370.762 390.582 352.253 394.078 L 313.575 303.171 L 720.697 303.171 Z  M 753.028 282.96 L 281.244 282.96 L 338.586 417.705 C 338.586 417.705 384.385 406.326 429.232 406.326 C 453.801 406.326 478.06 409.742 494.381 420.292 C 528.569 442.422 498.361 552.429 560.635 552.429 C 622.908 552.429 580.25 400.707 637.481 384.478 C 641.705 383.286 645.708 382.74 649.489 382.74 C 680.029 382.74 695.686 417.684 695.686 417.684 L 753.028 282.96 Z " fill="rgb(122,79,52)"/><ellipse vector-effect="non-scaling-stroke" cx="654.5533710055593" cy="246.86359080740266" rx="139.00957848341875" ry="127.0444353692522" fill="rgb(255,181,210)"/><path d=" M 654.553 129.945 C 725.189 130.012 782.433 182.328 782.506 246.884 C 782.421 311.432 725.181 363.736 654.553 363.803 C 583.917 363.736 526.674 311.42 526.601 246.864 C 526.698 182.32 583.931 130.023 654.553 129.945 M 654.553 109.734 C 593.855 109.734 539.134 143.152 515.908 194.404 C 492.682 245.655 505.525 304.648 548.448 343.87 C 591.371 383.093 655.921 394.822 711.997 373.588 C 768.072 352.353 804.629 302.337 804.62 246.864 C 804.62 210.491 788.809 175.609 760.665 149.891 C 732.522 124.174 694.351 109.729 654.553 109.734 L 654.553 109.734 Z " fill="rgb(234,76,137)"/><ellipse vector-effect="non-scaling-stroke" cx="384.4510815374594" cy="233.1607388856153" rx="154.0029755899664" ry="140.74728729103916" fill="rgb(247,143,143)"/><path d=" M 384.451 102.499 C 463.266 102.499 527.397 161.11 527.397 233.141 C 527.397 305.171 463.266 363.803 384.451 363.803 C 305.636 363.803 241.505 305.192 241.505 233.161 C 241.505 161.13 305.636 102.499 384.451 102.499 Z  M 384.451 82.288 C 293.285 82.288 219.38 149.831 219.38 233.151 C 219.38 316.47 293.285 384.013 384.451 384.013 C 475.623 384.013 549.533 316.465 549.533 233.141 C 549.533 149.816 475.623 82.268 384.451 82.268 L 384.451 82.288 Z " fill="rgb(199,67,67)"/></g></g></svg>