<?xml version="1.0" encoding="UTF-8" standalone="no"?><!-- Generator: Gravit.io --><svg xmlns="http://www.w3.org/2000/svg" xmlns:xlink="http://www.w3.org/1999/xlink" style="isolation:isolate" viewBox="0 0 1024 768" width="1024pt" height="768pt"><defs><clipPath id="_clipPath_Fb1vHrtb7ZHZk8qsQiq00FDCm7EY2hOQ"><rect width="1024" height="768"/></clipPath></defs><g clip-path="url(#_clipPath_Fb1vHrtb7ZHZk8qsQiq00FDCm7EY2hOQ)"><g><path d=" M 382.762 541.226 L 383.629 541.443 L 383.629 690.803 C 378.427 697.523 373.658 703.376 369.539 708.362 C 325.75 716.166 320.547 760.172 319.897 767.326 C 316.862 768.193 313.61 768.626 310.358 768.626 C 309.058 768.626 307.54 768.626 306.239 768.409 L 206.955 768.409 C 206.955 768.409 209.34 707.278 270.688 707.278 L 270.688 514.779 C 276.541 514.996 282.394 514.996 288.68 514.996 C 288.68 514.779 288.897 514.562 288.897 514.345 C 317.295 528.869 349.162 538.408 382.762 541.226 L 382.762 541.226 Z  M 784.453 563.554 C 754.971 573.743 723.321 579.379 690.371 579.379 C 684.301 579.379 678.231 579.162 672.378 578.728 L 672.378 707.061 C 611.03 707.061 608.645 768.193 608.645 768.193 L 707.93 768.193 C 709.23 768.409 710.748 768.409 712.049 768.409 C 733.943 768.409 751.719 750.634 751.719 728.739 L 751.936 728.739 C 751.936 728.739 780.767 702.942 810.249 653.3 L 784.453 563.554 L 784.453 563.554 Z " fill="rgb(150,90,37)"/><path d=" M 58.462 93.145 C 82.091 72.985 105.936 110.704 105.936 110.704 L 105.72 110.921 C 99.65 115.256 93.797 119.809 88.377 124.795 L 88.16 125.011 C 84.258 128.697 80.356 132.382 76.671 136.501 C 76.454 136.717 76.238 136.934 76.021 137.368 L 71.035 143.004 C 70.601 143.437 70.385 143.871 69.951 144.305 L 70.168 144.088 C 68.867 142.787 35.917 112.655 58.462 93.145 L 58.462 93.145 Z  M 355.231 93.145 C 331.819 72.985 307.974 110.27 307.757 110.704 C 306.89 110.054 306.023 109.62 305.156 108.97 C 320.547 119.375 334.204 131.948 345.693 146.472 L 343.742 143.871 C 346.343 141.486 377.56 112.221 355.231 93.145 Z  M 976.952 292.798 C 976.952 302.986 976.301 313.175 975.434 323.147 C 975.434 322.93 975.434 322.713 975.217 322.496 C 974.134 316.86 972.616 311.224 970.882 305.804 C 970.448 304.07 970.015 302.119 969.364 300.385 L 968.931 300.602 C 950.286 252.426 903.962 220.653 852.304 220.611 C 783.152 220.611 727.223 276.539 727.223 345.692 C 727.223 353.712 728.09 361.516 729.391 369.104 L 728.957 369.321 L 784.453 563.337 C 754.971 573.526 723.321 579.162 690.371 579.162 C 673.948 579.083 657.56 577.633 641.379 574.826 L 561.604 564.421 C 574.828 523.883 583.933 476.192 583.933 421.781 C 583.933 366.502 539.059 321.629 483.781 321.629 C 428.502 321.629 383.629 366.502 383.629 421.781 L 383.629 541.226 L 382.762 541.009 C 349.162 538.191 317.295 528.653 288.897 513.912 C 299.303 478.794 320.33 459.934 345.043 436.522 C 370.839 412.026 375.392 397.502 387.748 364.985 C 399.671 333.552 398.153 290.63 394.902 266.568 C 391.433 236.869 379.294 205.653 370.406 186.143 C 366.172 176.728 361.32 167.603 355.882 158.829 C 361.735 153.409 405.524 111.354 367.588 79.054 C 330.519 46.971 299.519 89.893 293.45 99.215 C 283.911 94.012 273.94 89.46 263.751 85.991 C 305.062 57.948 353.859 42.991 403.79 43.069 C 424.384 43.069 444.111 45.67 463.187 50.223 L 621.002 14.454 C 643.33 9.035 666.525 6 690.587 6 C 848.836 6.217 976.952 134.55 976.952 292.798 L 976.952 292.798 Z  M 395.335 269.386 C 395.335 268.735 395.119 268.085 395.119 267.435 C 395.119 268.085 395.119 268.735 395.335 269.386 Z  M 395.986 275.022 C 395.986 274.588 395.769 273.938 395.769 273.288 C 395.769 272.637 395.552 271.987 395.552 271.337 C 395.552 271.987 395.769 272.637 395.769 273.288 C 395.769 273.938 395.986 274.588 395.986 275.022 Z  M 396.202 277.19 C 396.202 276.973 396.202 276.756 395.986 276.323 C 396.202 276.756 396.202 276.973 396.202 277.19 Z  M 292.366 101.166 C 290.848 100.299 289.331 99.431 287.813 98.781 C 290.198 100.082 292.799 101.382 295.184 102.9 C 294.317 102.25 293.233 101.599 292.366 101.166 Z  M 206.955 432.403 C 109.405 432.403 30.281 353.279 30.281 255.729 C 30.281 237.736 32.882 220.611 37.868 204.352 C 40.252 196.548 43.071 188.961 46.539 181.59 C 50.007 174.003 54.126 166.633 58.679 159.696 C 147.341 159.696 169.669 265.484 174.221 295.833 C 172.704 295.833 171.62 296.049 170.536 296.266 C 122.845 299.084 138.67 337.454 146.04 345.475 C 153.844 353.929 180.074 377.125 193.298 377.125 C 206.738 377.125 206.738 358.698 206.738 358.698 C 206.738 358.698 206.738 377.125 220.178 377.125 C 233.619 377.125 260.066 353.712 267.87 345.475 C 275.24 337.454 291.065 299.301 243.591 296.266 C 242.94 296.049 242.073 296.049 240.989 296.049 C 246.625 260.715 269.821 159.913 355.231 159.913 C 373.224 187.66 383.629 220.611 383.629 255.945 C 383.629 353.279 304.505 432.403 206.955 432.403 L 206.955 432.403 Z  M 132.817 232.75 C 132.817 224.296 125.88 217.576 117.426 217.359 C 108.971 217.359 102.034 224.296 102.034 232.75 C 102.034 241.205 108.971 248.141 117.426 248.141 C 125.88 248.141 132.817 241.205 132.817 232.75 Z  M 311.659 232.75 C 311.659 224.296 304.939 217.576 296.268 217.359 C 287.813 217.359 280.876 224.296 280.876 232.75 C 280.876 241.205 287.813 248.141 296.268 248.141 C 304.722 248.141 311.659 241.205 311.659 232.75 Z " fill="rgb(186,121,42)"/><path d=" M 394.902 266.784 C 391.433 237.086 379.294 205.87 370.406 186.36 C 366.172 176.945 361.32 167.82 355.882 159.046 C 361.735 153.626 405.524 111.571 367.588 79.271 C 330.519 47.188 299.519 90.11 293.45 99.431 C 283.911 94.229 273.94 89.676 263.751 86.208 C 258.115 84.257 252.478 82.74 246.842 81.439 C 203.909 71.765 158.917 78.248 120.46 99.648 C 114.607 90.544 83.608 47.188 46.322 79.271 C 8.82 111.138 50.658 152.325 57.595 158.829 C 55.644 161.864 53.909 164.899 52.609 167.933 C 50.441 172.486 48.49 177.038 46.539 181.59 C 50.007 174.003 54.126 166.633 58.679 159.696 C 147.341 159.696 169.669 265.484 174.221 295.833 L 240.989 295.833 C 246.625 260.498 269.821 159.696 355.231 159.696 C 390.401 214.032 393.047 283.248 362.13 340.111 C 331.212 396.973 271.68 432.381 206.955 432.403 C 109.405 432.403 30.281 353.279 30.281 255.729 C 30.281 237.736 32.882 220.611 37.868 204.352 C 37.001 206.954 36.134 209.555 35.267 211.939 C 30.064 227.764 25.295 246.19 23.127 264.4 C 19.875 288.245 23.561 333.769 35.483 365.202 C 47.84 397.718 71.469 436.305 106.153 460.801 C 142.572 486.598 181.158 511.527 270.688 514.562 C 276.541 514.779 282.394 514.779 288.68 514.779 C 288.68 514.562 288.897 514.345 288.897 514.128 C 299.303 479.01 320.33 460.151 345.043 436.739 C 370.839 412.243 375.392 397.718 387.748 365.202 C 399.671 333.769 398.153 290.847 394.902 266.784 L 394.902 266.784 Z  M 105.72 110.921 C 99.65 115.256 93.797 119.809 88.377 124.795 L 88.16 125.011 C 84.258 128.697 80.356 132.382 76.671 136.501 C 76.454 136.717 76.238 136.934 76.021 137.368 L 71.035 143.004 C 70.601 143.437 70.385 143.871 69.951 144.305 L 70.168 144.088 C 68.867 142.787 35.917 112.655 58.462 93.145 C 82.091 72.985 105.936 110.704 105.936 110.704 L 105.72 110.921 Z  M 287.813 98.564 C 289.331 99.431 290.848 100.082 292.366 100.949 C 293.233 101.382 294.1 102.033 295.184 102.466 C 292.799 101.382 290.198 99.865 287.813 98.564 L 287.813 98.564 Z  M 343.742 143.871 L 345.693 146.472 C 334.187 131.963 320.514 119.314 305.156 108.97 C 306.023 109.62 306.89 110.054 307.757 110.704 C 307.974 110.27 331.603 73.201 355.231 93.145 C 377.56 112.221 346.343 141.486 343.742 143.871 Z  M 394.902 267.001 L 394.902 266.784 L 394.902 267.001 Z  M 396.202 277.19 C 396.202 276.973 396.202 276.756 395.986 276.323 C 396.202 276.756 396.202 276.973 396.202 277.19 Z  M 395.986 275.022 C 395.986 274.588 395.769 273.938 395.769 273.288 C 395.986 273.938 395.986 274.588 395.986 275.022 Z  M 395.769 273.288 C 395.769 272.637 395.552 271.987 395.552 271.337 C 395.552 272.204 395.769 272.854 395.769 273.288 Z  M 395.335 269.386 C 395.335 268.735 395.119 268.085 395.119 267.435 C 395.119 268.302 395.119 268.952 395.335 269.386 Z  M 163.166 303.203 C 161.432 308.623 163.166 322.496 175.089 332.468 C 175.089 332.468 194.599 326.832 192.431 347.209 C 192.431 347.209 200.018 353.712 207.172 353.712 C 214.325 353.712 221.913 347.209 221.913 347.209 C 219.745 326.832 239.255 332.468 239.255 332.468 C 251.178 322.496 252.912 308.623 251.178 303.203 C 249.877 299.084 248.36 296.917 243.591 296.266 C 291.065 299.518 275.457 337.454 267.87 345.475 C 260.066 353.712 233.619 377.125 220.178 377.125 C 206.738 377.125 206.738 358.698 206.738 358.698 C 206.738 358.698 206.738 377.125 193.298 377.125 C 180.074 377.125 153.844 353.929 146.04 345.475 C 138.67 337.454 122.845 299.084 170.536 296.266 C 165.767 296.917 164.466 299.084 163.166 303.203 L 163.166 303.203 Z " fill="rgb(244,158,35)"/><path d=" M 132.817 232.75 C 132.817 241.205 125.88 248.141 117.426 248.141 C 108.971 248.141 102.034 241.205 102.034 232.75 C 102.034 224.296 108.971 217.359 117.426 217.359 C 125.88 217.576 132.817 224.296 132.817 232.75 Z  M 296.268 217.359 C 287.813 217.359 280.876 224.296 280.876 232.75 C 280.876 241.205 287.813 248.141 296.268 248.141 C 304.722 248.141 311.659 241.205 311.659 232.75 C 311.659 224.296 304.939 217.576 296.268 217.359 Z  M 243.591 296.266 C 242.94 296.049 242.073 296.049 240.989 296.049 L 174.221 296.049 C 172.704 296.049 171.62 296.266 170.536 296.483 C 165.767 297.35 164.466 299.301 163.166 303.42 C 161.432 308.839 163.166 322.713 175.089 332.685 C 175.089 332.685 194.599 327.049 192.431 347.426 C 192.431 347.426 200.018 353.929 207.172 353.929 C 214.325 353.929 221.913 347.426 221.913 347.426 C 219.745 327.049 239.255 332.685 239.255 332.685 C 251.178 322.713 252.912 308.839 251.178 303.42 C 249.877 299.084 248.36 296.917 243.591 296.266 L 243.591 296.266 Z " fill="rgb(143,108,63)"/><path d=" M 583.933 421.998 C 583.933 476.409 574.828 524.1 561.604 564.638 C 526.703 671.943 463.187 728.739 463.187 728.739 L 462.97 728.739 C 462.97 750.634 445.194 768.409 423.3 768.409 C 421.999 768.409 420.482 768.409 419.181 768.193 L 319.897 768.193 L 319.897 767.109 C 320.547 759.955 325.75 716.166 369.539 708.145 C 373.874 707.278 378.643 706.844 383.629 706.844 L 383.629 421.564 C 383.629 366.286 428.502 321.413 483.781 321.413 C 539.059 321.413 583.933 366.719 583.933 421.998 Z  M 1006 522.149 C 1004.699 481.178 988.441 396.418 988.441 396.418 L 988.441 396.635 C 985.84 373.006 981.504 348.51 975.434 323.147 C 975.434 322.93 975.434 322.713 975.217 322.496 C 974.134 316.86 972.616 311.224 970.882 305.804 C 970.448 304.07 970.015 302.119 969.364 300.385 L 968.931 300.602 C 950.286 252.426 903.962 220.653 852.304 220.611 C 783.152 220.611 727.223 276.539 727.223 345.692 C 727.223 353.712 728.09 361.516 729.391 369.104 L 728.957 369.321 L 784.453 563.337 L 810.249 653.3 L 826.508 710.53 C 782.285 720.285 779.467 769.277 779.467 769.277 L 882.653 770.36 L 882.87 770.36 C 910.401 770.36 932.512 748.683 932.946 721.152 C 932.946 716.383 932.295 711.83 931.211 707.278 C 934.68 701.425 943.568 685.167 953.756 660.237 L 961.777 660.237 C 968.064 641.377 975.001 594.987 975.001 594.987 L 988.441 599.539 C 994.728 569.19 991.909 518.681 991.909 518.681 L 1006 522.149 L 1006 522.149 Z " fill="rgb(209,135,52)"/></g></g></svg>