<?xml version="1.0" encoding="UTF-8" standalone="no"?><!-- Generator: Gravit.io --><svg xmlns="http://www.w3.org/2000/svg" xmlns:xlink="http://www.w3.org/1999/xlink" style="isolation:isolate" viewBox="0 0 1024 768" width="1024pt" height="768pt"><defs><clipPath id="_clipPath_q4q7dKEsLjcyvUm85Ec5oPEnbYHsSEeO"><rect width="1024" height="768"/></clipPath></defs><g clip-path="url(#_clipPath_q4q7dKEsLjcyvUm85Ec5oPEnbYHsSEeO)"><g><path d=" M 268.9 41.987 L 727.1 41.987 L 727.1 707.013 L 268.9 707.013 L 268.9 41.987 Z " fill="rgb(255,255,255)"/><path d=" M 719.2 50.974 L 719.2 698.026 L 276.8 698.026 L 276.8 50.974 L 719.2 50.974 Z  M 735 33 L 261 33 L 261 716 L 735 716 L 735 33 Z " fill="rgb(71,136,199)"/><path d=" M 521.7 113.882 L 663.9 113.882 L 663.9 347.539 L 521.7 347.539 L 521.7 113.882 Z " fill="rgb(152,204,253)"/><path d=" M 656 122.868 L 656 338.553 L 529.6 338.553 L 529.6 122.868 L 656 122.868 Z  M 671.8 104.895 L 513.8 104.895 L 513.8 356.526 L 671.8 356.526 L 671.8 104.895 Z " fill="rgb(71,136,199)"/><path d=" M 521.7 401.461 L 663.9 401.461 L 663.9 635.118 L 521.7 635.118 L 521.7 401.461 Z " fill="rgb(152,204,253)"/><path d=" M 656 410.447 L 656 626.132 L 529.6 626.132 L 529.6 410.447 L 656 410.447 Z  M 671.8 392.474 L 513.8 392.474 L 513.8 644.105 L 671.8 644.105 L 671.8 392.474 Z " fill="rgb(71,136,199)"/><path d=" M 332.1 113.882 L 474.3 113.882 L 474.3 347.539 L 332.1 347.539 L 332.1 113.882 Z " fill="rgb(152,204,253)"/><path d=" M 466.4 122.868 L 466.4 338.553 L 340 338.553 L 340 122.868 L 466.4 122.868 Z  M 482.2 104.895 L 324.2 104.895 L 324.2 356.526 L 482.2 356.526 L 482.2 104.895 Z " fill="rgb(71,136,199)"/><path d=" M 332.1 401.461 L 474.3 401.461 L 474.3 635.118 L 332.1 635.118 L 332.1 401.461 Z " fill="rgb(152,204,253)"/><path d=" M 466.4 410.447 L 466.4 626.132 L 340 626.132 L 340 410.447 L 466.4 410.447 Z  M 482.2 392.474 L 324.2 392.474 L 324.2 644.105 L 482.2 644.105 L 482.2 392.474 Z " fill="rgb(71,136,199)"/></g></g></svg>