<?xml version="1.0" encoding="UTF-8" standalone="no"?><!-- Generator: Gravit.io --><svg xmlns="http://www.w3.org/2000/svg" xmlns:xlink="http://www.w3.org/1999/xlink" style="isolation:isolate" viewBox="0 0 1024 768" width="1024pt" height="768pt"><defs><clipPath id="_clipPath_YmK6qLRmMSkjZhPMRCFTJ9hdhAqsK6Zp"><rect width="1024" height="768"/></clipPath></defs><g clip-path="url(#_clipPath_YmK6qLRmMSkjZhPMRCFTJ9hdhAqsK6Zp)"><g><path d=" M 733.053 569.154 C 733.053 569.154 665.125 707 571.625 707 C 475.297 707 504.422 570.442 504.422 570.442 L 733.053 569.154 Z  M 706.031 154.738 C 706.031 154.738 643.947 20.317 571.625 22.016 C 475.297 24.372 499.677 139.093 499.677 139.093 L 706.031 154.738 Z  M 253.491 268.829 C 252.673 269.158 182.01 -6.452 441.59 155.588 C 441.59 155.588 262.631 269.021 253.515 268.829 L 253.491 268.829 Z  M 253.141 484.38 C 252.323 484.051 182.735 763.854 442.338 601.677 C 442.338 601.677 262.28 484.161 253.141 484.38 Z  M 80.75 378.208 C 80.75 304.997 95.172 270.638 115.438 258.226 C 74.626 241.32 34 255.212 34 378.208 C 34 502.245 75.374 516.3 116.444 499.806 C 95.733 487.339 80.75 452.679 80.75 378.208 Z " fill="rgb(55,71,79)"/><path d=" M 442.338 601.047 C 231.589 644.392 251.411 494.326 253.047 483.75 C 266.02 494.765 360.058 570.633 442.338 601.019 L 442.338 601.047 Z  M 441.777 155.478 C 234.137 112.68 251.598 253.404 253.865 267.87 C 270.391 252.773 347.272 189.097 441.8 155.478 L 441.777 155.478 Z  M 571.625 624.802 C 546.777 624.802 523.239 622.007 500.495 617.404 L 500.401 617.514 C 500.401 617.514 527.049 653.489 572.911 652.201 C 656.827 649.845 713.418 594.937 724.1 583.703 C 672.371 608.527 619.006 624.802 571.625 624.802 Z  M 571.625 131.613 C 613.91 131.613 660.824 140.82 707.2 155.807 C 700.725 148.519 648.225 74.157 575.926 76.815 C 520.294 78.842 502.692 132.572 500.775 139.011 C 523.683 134.408 547.338 131.613 571.625 131.613 Z " fill="rgb(230,74,25)"/><path d=" M 197.625 323.409 C 197.625 323.409 156.438 275.131 115.438 258.226 C 95.172 270.638 80.75 304.997 80.75 378.208 C 80.75 452.707 95.71 487.367 116.444 499.806 C 157.093 483.421 197.555 437.061 197.625 437.171 C 197.625 437.171 221 378.317 197.625 323.409 Z  M 442.969 155.04 C 323.897 197.016 232.22 287.351 253.515 268.829 C 247.501 304.864 244.441 341.49 244.375 378.208 C 244.489 413.585 247.361 448.876 252.954 483.64 C 236.615 470.133 347.833 566.386 442.876 601.266 C 419.797 530.01 407.98 454.425 408 378.208 C 408 299.654 420.412 224.415 442.969 155.04 Z  M 969 350.808 C 969 296.859 868.371 219.374 753.062 172.493 C 726.077 226.634 711.862 288.214 711.875 350.918 C 711.875 428.842 733.614 500.765 769.845 559.427 C 877.954 496.025 969 402.045 969 350.808 Z " fill="rgb(255,87,34)"/><path d=" M 707.2 155.807 C 660.847 140.82 613.934 131.613 571.625 131.613 C 546.871 131.613 522.958 134.49 499.677 139.093 C 470.141 214.058 454.814 295.635 454.75 378.208 C 454.75 463.611 471.113 544.412 499.77 617.322 C 522.678 621.925 546.52 624.802 571.625 624.802 C 619.754 624.802 673.984 608.088 726.484 582.607 C 686.5 514.445 665.104 433.665 665.125 350.945 C 665.125 280.31 680.366 213.839 707.2 155.834 L 707.2 155.807 Z " fill="rgb(255,87,34)"/><path d=" M 499.677 139.093 L 499.49 139.093 C 491.355 140.82 483.501 142.847 475.577 144.984 L 469.266 146.601 C 460.5 149.176 451.735 151.944 443.25 154.958 C 443.156 154.958 442.969 154.958 442.969 155.04 C 419.8 226.307 407.949 301.941 408 378.208 C 408 456.652 420.412 531.781 442.876 601.238 L 442.969 601.238 C 461.516 608.062 480.429 613.435 499.583 617.322 L 499.77 617.322 C 470.142 542.389 454.78 460.797 454.75 378.208 C 454.75 292.913 471.112 212.085 499.677 139.093 Z  M 244.375 378.208 C 244.375 340.862 247.648 304.229 253.491 268.829 C 237.361 282.808 221.8 297.665 206.858 313.353 C 203.819 316.559 201.482 319.107 200.009 320.751 C 198.424 339.847 197.628 359.022 197.625 378.208 C 197.625 398.867 198.56 419.197 200.196 439.308 C 202.09 440.952 204.1 442.541 206.04 444.24 C 221.187 456.871 236.614 470.133 252.954 483.64 C 247.361 448.876 244.489 413.585 244.375 378.208 Z  M 753.062 172.493 C 737.959 166.277 722.669 160.703 707.223 155.78 C 679.503 215.692 665.03 282.79 665.125 350.945 C 665.125 436.787 687.869 516.629 726.484 582.662 C 729.126 581.374 731.861 580.086 734.525 578.689 C 739.364 576.332 744.296 573.565 749.228 571.017 C 756.171 567.236 763.02 563.51 769.845 559.427 C 732.194 498.86 711.898 425.858 711.875 350.918 C 711.875 285.762 727.022 224.963 753.062 172.548 L 753.062 172.493 Z " fill="rgb(255,255,255)"/><path d=" M 852.125 309.709 C 852.125 332.408 836.427 350.808 817.063 350.808 C 797.698 350.808 782 332.408 782 309.709 C 782 287.011 797.698 268.61 817.063 268.61 C 836.427 268.61 852.125 287.011 852.125 309.709 Z " fill="rgb(62,39,35)"/></g></g></svg>