<?xml version="1.0" encoding="UTF-8" standalone="no"?><!-- Generator: Gravit.io --><svg xmlns="http://www.w3.org/2000/svg" xmlns:xlink="http://www.w3.org/1999/xlink" style="isolation:isolate" viewBox="0 0 1440 900" width="1440pt" height="900pt"><defs><clipPath id="_clipPath_5tKm2888deksF6rqXOxwA72YgJBjrAEl"><rect width="1440" height="900"/></clipPath></defs><g clip-path="url(#_clipPath_5tKm2888deksF6rqXOxwA72YgJBjrAEl)"><g><path d=" M 431.325 697.387 C -39.066 286.943 429.348 -234.431 711.978 144.813 C 949.808 -187.979 1491.35 196.119 984.725 702.933 C 949.808 737.599 909.621 767.412 870.092 796.531 C 821.887 831.892 772.207 864.973 721.201 895.675 L 717.907 897.755 L 713.954 899.835 C 711.738 900.198 709.47 899.959 707.366 899.142 L 705.39 897.755 L 690.896 889.436 C 641.485 858.93 592.074 826.344 545.958 790.985 C 506.429 761.865 468.877 729.279 431.984 697.387 L 431.325 697.387 Z " fill-rule="evenodd" fill="rgb(0,0,0)" fill-opacity="0.2"/><mask id="_mask_z9hqdheRY4IymdDl3AlJsr9SKqHF86XD" x="-200%" y="-200%" width="400%" height="400%"><rect x="-200%" y="-200%" width="400%" height="400%" style="fill:white;"/><path d=" M 464.924 684.214 C -5.466 274.463 462.948 -248.297 744.918 131.64 C 982.09 -201.152 1524.291 182.946 1017.666 690.454 C 982.749 725.119 942.561 754.239 903.033 783.358 C 854.94 818.717 805.529 851.996 754.142 882.502 L 750.848 885.276 L 746.895 886.662 C 744.678 887.025 742.411 886.786 740.307 885.969 L 738.33 885.276 L 723.836 876.262 C 632.6 819.947 545.994 755.708 464.924 684.214 L 464.924 684.214 Z " fill-rule="evenodd" fill="black" stroke="none"/></mask><path d=" M 464.924 684.214 C -5.466 274.463 462.948 -248.297 744.918 131.64 C 982.09 -201.152 1524.291 182.946 1017.666 690.454 C 982.749 725.119 942.561 754.239 903.033 783.358 C 854.94 818.717 805.529 851.996 754.142 882.502 L 750.848 885.276 L 746.895 886.662 C 744.678 887.025 742.411 886.786 740.307 885.969 L 738.33 885.276 L 723.836 876.262 C 632.6 819.947 545.994 755.708 464.924 684.214 L 464.924 684.214 Z " fill-rule="evenodd" fill="rgb(255,255,255)"/><path d=" M 464.924 684.214 C -5.466 274.463 462.948 -248.297 744.918 131.64 C 982.09 -201.152 1524.291 182.946 1017.666 690.454 C 982.749 725.119 942.561 754.239 903.033 783.358 C 854.94 818.717 805.529 851.996 754.142 882.502 L 750.848 885.276 L 746.895 886.662 C 744.678 887.025 742.411 886.786 740.307 885.969 L 738.33 885.276 L 723.836 876.262 C 632.6 819.947 545.994 755.708 464.924 684.214 L 464.924 684.214 Z " fill-rule="evenodd" fill="rgb(255,255,255)" mask="url(#_mask_z9hqdheRY4IymdDl3AlJsr9SKqHF86XD)" vector-effect="non-scaling-stroke" stroke-width="3.375" stroke="rgb(207,207,207)" stroke-linejoin="round" stroke-linecap="butt" stroke-miterlimit="1.41"/><path d=" M 744.918 205.825 C 834.516 27.643 1014.372 27.643 1103.97 108.761 C 1194.227 189.879 1194.227 351.422 1103.97 513.658 C 1041.383 634.988 879.974 756.319 744.259 837.437 C 609.862 756.319 447.795 634.988 385.208 513.658 C 294.951 351.422 294.951 189.879 385.208 108.761 C 474.806 27.643 654.661 27.643 744.918 205.825 Z " fill-rule="evenodd" fill="rgb(231,47,47)"/><path d=" M 527.511 44.976 C 607.114 45.423 681.552 86.53 727.13 155.213 L 744.259 181.559 L 744.259 182.946 L 747.554 177.399 L 750.189 173.932 C 762.459 154.636 776.35 136.538 791.694 119.854 C 817.812 93.145 849.026 72.584 883.268 59.535 C 960.314 31.688 1045.505 46.544 1109.899 99.054 C 1136.097 121.674 1155.918 151.404 1167.215 185.026 C 1182.947 230.959 1187.256 280.363 1179.733 328.542 C 1175.823 360.863 1168.077 392.541 1156.675 422.833 C 1145.167 456.24 1130.836 488.493 1113.852 519.204 L 1110.558 524.751 C 1095.405 552.484 1076.3 578.83 1055.877 603.096 C 1034.136 628.748 1009.76 653.014 985.384 675.201 C 912.831 739.005 835.001 795.852 752.824 845.063 L 750.189 847.143 L 746.236 848.53 L 740.965 847.836 L 738.989 847.143 L 725.813 839.517 C 682.331 811.784 639.509 784.051 598.004 752.852 C 563.746 726.506 529.487 699.467 497.865 669.654 C 473.195 647.393 450.078 623.296 428.69 597.549 C 408.634 573.389 390.974 547.138 375.985 519.204 L 371.373 511.578 C 347.982 466.912 329.842 419.418 317.351 370.141 C 313.619 353.448 310.76 336.552 308.786 319.529 C 302.95 270.993 308.608 221.691 325.256 176.012 C 338.319 144.02 358.686 115.918 384.549 94.201 C 417.204 67.303 456.56 50.929 497.865 47.056 C 505.77 45.669 514.335 45.669 522.241 44.976 L 526.852 44.976 L 527.511 44.976 Z  M 751.506 214.145 L 750.189 215.532 C 749.168 216.175 748.056 216.643 746.895 216.918 L 743.601 216.918 L 740.307 216.225 C 738.498 215.534 736.903 214.335 735.695 212.758 L 733.719 209.292 L 733.06 207.212 L 731.083 203.052 C 720.247 183.797 707.671 165.687 693.531 148.973 C 670.571 122.293 642.506 101.028 611.18 86.575 C 577.869 71.999 541.719 66.055 505.77 69.242 C 462.031 73.545 420.619 91.946 387.184 121.934 C 368.182 140.726 353.338 163.685 343.703 189.185 C 327.812 232.428 323.483 279.426 331.186 325.076 C 335.037 355.915 342.334 386.168 352.926 415.207 C 364.057 447.213 377.95 478.079 394.431 507.418 L 397.725 513.658 C 412.219 540.004 430.007 564.963 449.771 587.843 C 500.749 643.829 556.793 694.45 617.109 738.986 C 657.955 769.492 700.119 797.224 743.601 823.57 L 744.918 823.57 C 825.748 774.628 902.45 718.496 974.184 655.788 C 997.901 633.602 1020.301 610.029 1042.042 585.069 C 1062.149 561.202 1079.814 535.175 1094.746 507.418 L 1098.699 500.485 C 1119.9 460.324 1136.698 417.759 1148.769 373.608 C 1154.695 349.537 1158.445 324.93 1159.969 300.116 C 1163.217 256.335 1155.731 212.41 1138.228 172.546 C 1120.644 136.77 1092.415 108.037 1057.853 90.734 C 1016.635 69.358 969.962 62.549 924.773 71.322 C 872.222 81.019 824.746 110.307 791.035 153.826 C 776.372 171.607 763.766 191.156 753.483 212.065 L 752.165 213.452 L 751.506 214.838 L 751.506 214.145 Z " fill="rgb(67,50,49)"/><path d=" M 744.918 268.224 C 815.411 127.48 957.714 127.48 1028.207 191.959 C 1099.358 255.051 1099.358 383.314 1028.207 510.884 C 978.796 606.562 850.987 702.933 744.918 766.718 C 638.191 702.933 510.382 607.256 460.971 510.884 C 389.82 383.314 389.82 255.744 460.971 191.959 C 531.464 127.48 673.767 127.48 744.259 268.224 L 744.918 268.224 Z " fill-rule="evenodd" fill="rgb(197,23,23)"/><path d=" M 744.918 336.862 C 793.011 241.184 889.856 241.184 937.95 284.17 C 986.702 327.849 986.702 415.207 937.95 502.565 C 904.35 567.736 817.387 632.908 744.259 676.587 C 671.79 632.908 584.827 567.736 551.228 502.565 C 502.476 415.207 502.476 327.849 551.228 284.17 C 599.321 241.184 696.166 241.184 744.259 336.862 L 744.918 336.862 Z " fill-rule="evenodd" fill="rgb(167,19,19)"/><path d=" M 744.918 389.554 C 777.859 322.996 845.716 322.996 879.316 353.502 C 912.256 383.314 912.256 443.633 879.316 504.645 C 844.462 555.895 798.354 597.52 744.918 625.975 C 691.243 597.613 644.901 555.981 609.862 504.645 C 576.922 444.326 576.922 384.008 609.862 353.502 C 643.462 322.996 711.319 322.996 744.259 389.554 L 744.918 389.554 Z " fill-rule="evenodd" fill="rgb(138,16,16)"/></g></g></svg>