<?xml version="1.0" encoding="UTF-8" standalone="no"?><!-- Generator: Gravit.io --><svg xmlns="http://www.w3.org/2000/svg" xmlns:xlink="http://www.w3.org/1999/xlink" style="isolation:isolate" viewBox="0 0 1024 768" width="1024pt" height="768pt"><defs><clipPath id="_clipPath_EtoYxmUW2HIKo9CLzYvGb7F1nsGYrP6c"><rect width="1024" height="768"/></clipPath></defs><g clip-path="url(#_clipPath_EtoYxmUW2HIKo9CLzYvGb7F1nsGYrP6c)"><g><path d=" M 641.519 710.377 L 619.81 740.11 L 617.342 743.337 C 588.478 748.178 555.42 757.628 534.943 767.77 L 474.008 767.77 C 455.752 758.78 427.627 750.252 401.23 745.181 L 400.983 744.951 L 382.234 717.983 L 373.599 705.537 L 449.584 413.273 C 469.567 417.191 490.537 419.496 511.753 419.496 C 525.569 419.496 539.137 418.574 552.459 416.96 L 641.519 710.377 L 641.519 710.377 Z  M 500.405 245.244 C 503.612 240.634 507.559 236.255 512 231.875 C 516.441 236.255 520.388 240.864 523.595 245.244 C 568.742 119.856 691.847 55.318 777.7 24.663 C 829.261 6.223 867.5 0 867.5 0 L 156.5 0 L 156.747 0 C 160.201 0.461 196.959 7.145 246.053 24.432 C 331.906 55.318 455.505 119.625 500.405 245.244 L 500.405 245.244 Z " fill="rgb(214,180,139)"/><path d=" M 512 231.875 L 512 367.174 C 512 367.174 457.972 304.25 500.405 245.244 C 503.612 240.864 507.559 236.255 512 231.875 Z " fill="rgb(137,111,81)"/><path d=" M 373.846 705.537 L 382.481 717.983 C 321.791 633.854 220.396 461.215 306.496 341.589 C 345.475 376.855 394.816 402.439 449.831 413.273 L 373.846 705.537 L 373.846 705.537 Z  M 641.519 710.377 L 619.81 740.11 C 675.071 668.658 805.084 475.736 714.297 344.355 C 670.877 382.848 614.629 408.893 552.459 416.96 L 641.519 710.377 Z  M 474.254 767.77 L 421.46 767.77 L 421.706 768 L 597.113 768 L 597.359 767.77 L 474.254 767.77 L 474.254 767.77 Z  M 867.5 0.23 C 867.5 0.23 829.261 6.454 777.7 24.893 C 785.841 40.336 792.255 56.701 796.943 73.758 C 840.363 64.538 867.5 0.23 867.5 0.23 L 867.5 0.23 Z  M 156.747 0.23 C 157.24 1.383 184.131 64.307 226.811 73.527 C 231.498 56.471 237.912 40.106 245.807 24.663 C 196.959 7.376 160.201 0.922 156.747 0.23 L 156.747 0.23 Z  M 512 367.174 C 512 367.174 566.275 304.25 523.595 245.244 C 520.388 240.634 516.441 236.255 512 231.875 L 512 367.174 Z  M 380.014 143.827 C 367.41 143.827 355.763 150.109 349.461 160.307 C 343.159 170.505 343.159 183.07 349.461 193.268 C 355.763 203.466 367.41 209.748 380.014 209.748 C 399.497 209.748 415.292 194.991 415.292 176.788 C 415.292 158.584 399.497 143.827 380.014 143.827 L 380.014 143.827 Z  M 651.881 143.827 C 639.277 143.827 627.631 150.109 621.329 160.307 C 615.027 170.505 615.027 183.07 621.329 193.268 C 627.631 203.466 639.277 209.748 651.881 209.748 C 671.365 209.748 687.16 194.991 687.16 176.788 C 687.16 158.584 671.365 143.827 651.881 143.827 L 651.881 143.827 Z " fill="rgb(119,96,64)"/><path d=" M 523.595 245.244 C 566.275 304.019 512 367.174 512 367.174 C 512 367.174 457.972 304.25 500.405 245.244 C 455.505 119.625 331.906 55.318 246.053 24.663 C 238.159 40.106 231.745 56.471 227.057 73.527 C 220.643 95.885 217.436 119.625 217.436 144.058 C 217.436 221.503 251.728 291.573 306.743 341.589 C 345.722 376.855 395.062 402.439 450.077 413.273 C 470.06 417.191 491.03 419.496 512.247 419.496 C 526.062 419.496 539.631 418.574 552.953 416.96 C 615.122 408.893 671.124 382.848 714.79 344.355 C 771.779 294.108 807.304 222.886 807.304 144.058 C 807.304 119.625 803.85 96.115 797.683 73.758 C 792.995 56.701 786.334 40.336 778.44 24.893 C 691.847 55.549 568.742 119.856 523.595 245.244 L 523.595 245.244 Z  M 380.014 209.748 C 367.41 209.748 355.763 203.466 349.461 193.268 C 343.159 183.07 343.159 170.505 349.461 160.307 C 355.763 150.109 367.41 143.827 380.014 143.827 C 399.497 143.827 415.292 158.584 415.292 176.788 C 415.292 194.991 399.497 209.748 380.014 209.748 L 380.014 209.748 Z  M 651.881 209.748 C 639.277 209.748 627.631 203.466 621.329 193.268 C 615.027 183.07 615.027 170.505 621.329 160.307 C 627.631 150.109 639.277 143.827 651.881 143.827 C 671.365 143.827 687.16 158.584 687.16 176.788 C 687.16 194.991 671.365 209.748 651.881 209.748 L 651.881 209.748 Z  M 421.706 767.77 L 328.206 767.77 C 328.206 767.77 324.752 739.88 356.33 739.88 C 368.665 739.88 384.701 741.954 401.477 745.181 C 427.874 750.252 455.998 758.78 474.254 767.77 L 421.706 767.77 Z  M 535.19 767.77 C 555.667 757.628 588.478 748.178 617.589 743.337 C 630.911 741.032 643.246 739.88 653.115 739.88 C 684.693 739.88 681.239 767.77 681.239 767.77 L 535.19 767.77 Z " fill="rgb(242,220,196)"/></g></g></svg>