<?xml version="1.0" encoding="UTF-8" standalone="no"?><!-- Generator: Gravit.io --><svg xmlns="http://www.w3.org/2000/svg" xmlns:xlink="http://www.w3.org/1999/xlink" style="isolation:isolate" viewBox="0 0 1024 768" width="1024pt" height="768pt"><defs><clipPath id="_clipPath_wlwTVXpHoe4thZm8uNIG8debWilQ7XNU"><rect width="1024" height="768"/></clipPath></defs><g clip-path="url(#_clipPath_wlwTVXpHoe4thZm8uNIG8debWilQ7XNU)"><g><path d=" M 929.381 768 C 830.342 768 797.686 698.742 787.159 639.684 C 776.153 662.352 760.479 681.85 741.399 696.608 L 741.614 696.608 C 741.614 696.608 699.292 761.122 646.657 761.122 L 524.415 761.122 C 524.415 761.122 497.346 743.807 531.29 728.865 L 588.866 717.243 L 364.577 685.223 C 341.375 709.179 309.794 738.589 282.724 752.109 C 241.691 772.744 246.847 752.109 246.847 752.109 C 246.847 752.109 257.803 739.064 287.451 710.839 C 294.97 703.723 300.556 690.204 304.852 673.601 C 257.339 654.628 225.656 604.861 225.578 549.08 C 225.578 524.887 230.089 502.117 238.468 481.245 C 208.821 472.232 182.396 439.027 158.764 427.167 C 136.206 415.783 108.063 423.135 100.973 423.135 C 100.973 423.135 48.983 424.796 15.039 396.571 L 29.647 379.256 C 12.675 366.448 0.43 355.775 0.43 355.775 C 0.43 355.775 62.088 286.992 79.06 171.721 C 79.06 171.721 82.927 61.431 124.175 0 C 124.175 0 183.9 31.071 202.59 128.791 L 293.251 128.791 C 311.942 31.071 371.666 0 371.666 0 C 412.7 61.431 416.782 171.721 416.782 171.721 C 433.539 286.992 495.412 355.775 495.412 355.775 C 495.412 355.775 482.952 366.448 466.194 379.256 L 466.624 379.731 L 637.848 379.731 C 729.803 379.731 804.346 462.028 804.346 563.548 L 804.346 564.022 L 804.561 563.785 C 804.561 563.785 812.295 670.755 929.381 681.902 C 1046.467 693.05 1064.298 768 929.381 768 L 929.381 768 Z " fill="rgb(175,165,150)"/><path d=" M 198.079 276.319 C 198.079 276.319 191.204 258.53 171.224 255.684 C 151.459 252.838 118.16 282.011 110.211 291.261 C 102.262 300.511 88.512 338.224 140.718 343.204 C 192.923 348.422 211.614 334.191 198.079 276.319 Z  M 297.548 276.319 C 297.548 276.319 304.423 258.53 324.403 255.684 C 344.167 252.838 377.467 282.011 385.416 291.261 C 393.365 300.511 407.114 338.224 354.909 343.204 C 302.489 348.422 283.798 334.191 297.548 276.319 L 297.548 276.319 Z  M 163.49 134.246 C 163.49 134.246 164.564 67.36 124.175 33.917 C 124.175 33.917 102.477 74.95 102.477 134.246 C 102.262 134.246 114.937 170.061 163.49 134.246 L 163.49 134.246 Z  M 332.137 134.246 C 332.137 134.246 331.062 67.36 371.452 33.917 C 371.452 33.917 393.15 74.95 393.15 134.246 C 393.15 134.246 380.475 170.061 332.137 134.246 L 332.137 134.246 Z  M 233.527 423.372 C 233.527 423.372 220.852 403.923 223.43 379.968 C 226.008 355.775 237.824 325.89 233.527 293.159 C 229.23 260.427 236.105 220.106 247.491 220.106 C 258.878 220.106 257.159 260.427 257.159 294.107 C 257.159 327.788 268.115 348.897 268.115 379.968 C 268.115 411.039 257.374 424.321 257.374 424.321 C 257.374 424.321 247.062 431.2 233.527 423.372 L 233.527 423.372 Z  M 289.599 666.248 C 267.471 690.678 224.719 734.557 189.915 752.109 C 148.881 772.744 154.037 752.109 154.037 752.109 C 154.037 752.109 164.779 739.064 194.642 710.839 C 220.852 686.172 225.148 578.965 225.793 554.298 C 227.511 602.683 252.647 644.665 289.599 666.248 Z  M 514.318 746.416 L 442.992 746.416 C 442.992 746.416 415.923 729.102 449.867 714.159 L 498.42 704.435 L 588.651 717.243 L 531.075 728.865 C 517.97 734.794 514.103 740.961 514.318 746.416 L 514.318 746.416 Z " fill="rgb(104,95,84)"/><path d=" M 293.036 129.028 L 202.376 129.028 C 151.03 154.644 123.96 220.106 123.96 220.106 C 123.96 220.106 148.022 233.626 179.173 247.382 C 210.325 261.139 216.34 312.608 213.332 374.275 C 210.325 432.148 243.409 435.706 247.491 435.943 L 247.921 435.943 C 252.003 435.706 285.088 432.148 282.08 374.275 C 279.072 312.608 285.088 261.139 316.239 247.382 C 347.39 233.626 371.452 220.106 371.452 220.106 C 371.452 220.106 344.167 154.644 293.036 129.028 Z " fill="rgb(152,144,132)"/><path d=" M 194.427 299.8 C 194.427 312.608 184.974 323.044 173.373 323.044 C 161.772 323.044 152.319 312.608 152.319 299.8 C 152.319 286.992 161.772 276.556 173.373 276.556 C 184.974 276.556 194.427 286.992 194.427 299.8 Z  M 326.336 299.8 L 347.39 299.8 C 347.39 286.992 337.937 276.556 326.336 276.556 C 314.735 276.556 305.282 286.992 305.282 299.8 C 305.282 312.608 314.735 323.044 326.336 323.044 C 336.648 323.044 345.671 314.505 347.175 303.12 L 326.336 299.8 L 326.336 299.8 Z " fill="rgb(61,52,42)"/><path d=" M 495.412 355.775 C 428.598 331.82 392.506 366.448 358.991 374.987 C 327.195 383.051 308.075 384.237 301.2 433.097 C 294.54 479.348 252.647 473.893 247.921 472.944 L 247.491 472.944 C 242.765 473.655 200.872 479.111 194.212 433.097 C 187.122 384.237 168.217 383.288 136.421 374.987 C 103.121 366.448 66.814 331.582 0 355.775 C 0 355.775 12.246 366.448 29.218 379.256 L 14.609 396.571 C 48.553 424.796 100.543 423.135 100.543 423.135 C 132.554 423.372 161.772 414.122 185.618 460.136 C 200.657 488.835 225.363 505.201 247.491 505.201 C 264.678 505.201 288.095 492.393 305.067 462.508 C 330.418 417.443 362.429 423.372 394.654 423.135 C 394.654 423.135 446.859 424.558 480.588 396.571 L 465.98 379.256 C 482.952 366.448 495.412 355.775 495.412 355.775 Z " fill="rgb(248,229,205)"/><path d=" M 247.921 423.61 L 247.491 423.61 C 214.192 423.847 215.266 445.668 215.266 445.668 C 230.089 464.168 244.913 472.232 247.491 473.418 L 247.491 473.655 L 247.921 473.655 L 247.921 473.418 C 250.499 471.995 265.323 464.168 280.146 445.668 C 280.146 445.668 281.22 423.61 247.921 423.61 Z " fill="rgb(90,69,60)"/><path d=" M 668.785 474.841 C 731.517 474.841 782.433 531.054 782.433 600.311 C 782.433 669.569 731.517 725.781 668.785 725.781 C 606.053 725.781 555.136 669.569 555.136 600.311 C 555.136 531.054 606.053 474.841 668.785 474.841 Z " fill="rgb(193,186,176)"/></g></g></svg>