<?xml version="1.0" encoding="UTF-8" standalone="no"?><!-- Generator: Gravit.io --><svg xmlns="http://www.w3.org/2000/svg" xmlns:xlink="http://www.w3.org/1999/xlink" style="isolation:isolate" viewBox="0 0 1024 768" width="1024pt" height="768pt"><defs><clipPath id="_clipPath_tHTXxXFMUzQPm4OhSeLzaaT4icq9ple7"><rect width="1024" height="768"/></clipPath></defs><g clip-path="url(#_clipPath_tHTXxXFMUzQPm4OhSeLzaaT4icq9ple7)"><g><path d=" M 720.699 343.632 C 678.572 343.632 636.851 321.888 600.063 280.704 C 541.736 215.424 553.908 185.712 574.09 136.368 C 584.724 110.4 597.303 79.728 599.792 40.416 C 620.652 56.928 644.498 86.784 644.498 137.136 L 644.498 161.136 L 667.123 161.136 C 687.757 161.136 709.251 140.304 720.201 127.968 C 730.066 116.832 748.12 93.408 758.845 61.152 C 786.945 121.584 770.519 187.248 737.125 230.016 L 725.043 245.472 L 737.261 260.784 C 752.464 279.888 781.922 291.6 826.674 296.064 C 795.995 326.4 758.437 343.632 720.699 343.632 Z " fill="rgb(186,224,189)"/><path d=" M 613.412 94.32 C 618.525 105.936 621.919 120.048 621.919 137.136 L 621.919 185.136 L 667.169 185.136 C 694.862 185.136 720.292 162.96 736.763 144.336 C 741.777 138.666 746.49 132.705 750.881 126.48 C 750.564 163.008 734.862 195.312 719.704 214.704 L 695.495 245.664 L 719.975 276.384 C 731.197 290.448 747.216 301.152 768.709 308.64 C 753.596 315.795 737.249 319.554 720.699 319.68 C 684.409 319.68 649.34 301.056 616.489 264.288 C 568.479 210.528 575.628 192.96 594.859 146.064 C 600.923 131.184 607.937 114.096 613.412 94.32 Z  M 744.727 0 C 749.252 75.936 687.26 137.136 667.169 137.136 C 667.169 29.76 575.855 0 575.855 0 C 593.457 137.04 469.382 169.392 583.638 297.264 C 628.163 347.136 675.857 367.68 720.699 367.68 C 782.329 367.68 838.62 328.896 874.005 274.32 C 811.244 274.32 769.931 264.672 754.546 245.376 C 802.465 184.032 820.113 80.64 744.727 0 Z " fill="rgb(94,156,118)"/><path d=" M 336.347 744 C 275.668 744 227.431 729.888 204.037 705.264 C 183.765 684 172.634 640.272 172.634 582.144 C 172.634 438.912 235.305 256.56 312.32 175.584 C 347.886 138.192 382.321 120 417.616 120 C 485.762 120 555.266 187.104 626.444 261.936 C 690.518 329.184 733.867 381.264 752.148 432.912 C 772.012 489.024 758.573 537.936 708.482 591.504 C 610.516 696.288 446.938 744 336.347 744 Z " fill="rgb(247,143,143)"/><path d=" M 417.616 144 C 477.12 144 545.537 210.672 610.516 278.976 C 658.978 329.904 712.283 388.656 730.971 441.36 C 742.645 474.336 747.216 515.952 692.373 574.608 C 603.185 670.08 445.761 720 336.347 720 C 282.41 720 238.879 708.144 219.965 688.224 C 204.49 672 195.259 632.304 195.259 582.096 C 195.259 446.736 256.165 268.368 328.248 192.624 C 359.38 159.888 388.611 144 417.616 144 Z  M 417.616 96 C 378.43 96 338.429 114.336 296.392 158.544 C 173.81 287.328 101.23 631.008 188.064 722.352 C 217.476 753.216 271.731 768 336.347 768 C 462.549 768 628.118 711.552 724.5 608.448 C 845.951 478.512 760.609 369.12 642.372 244.896 C 564.723 163.248 492.64 96 417.616 96 Z " fill="rgb(199,67,67)"/><path d=" M 588.163 303.792 C 594.045 310.512 594.588 320.304 582.733 331.536 C 570.741 342.912 549.157 351.168 544.949 346.752 C 540.786 342.288 548.569 316.656 560.515 305.376 C 572.416 294.048 582.28 296.976 588.163 303.792 Z  M 406.756 492.96 C 412.639 499.68 413.182 509.472 401.326 520.704 C 389.38 532.08 367.796 540.336 363.588 535.872 C 359.425 531.456 367.163 505.824 379.154 494.496 C 391.009 483.216 400.919 486.144 406.756 492.96 Z  M 297.297 404.784 C 304.175 410.352 306.302 419.856 296.437 433.104 C 286.527 446.496 266.572 458.544 261.731 454.944 C 256.934 451.344 260.418 424.704 270.328 411.36 C 280.193 398.064 290.419 399.12 297.297 404.784 Z  M 490.287 612.48 C 494.541 620.448 493.002 630.144 478.975 638.16 C 464.902 646.32 442.096 649.104 438.974 643.776 C 435.852 638.448 448.974 615.36 463.047 607.248 C 477.074 599.184 486.034 604.464 490.287 612.48 Z  M 678.481 410.832 C 684.364 417.552 684.907 427.344 673.051 438.576 C 661.105 449.952 639.521 458.208 635.313 453.744 C 631.15 449.328 638.888 423.696 650.879 412.368 C 662.779 401.04 672.644 404.016 678.481 410.832 Z  M 554.904 459.552 C 560.786 466.272 561.329 476.064 549.474 487.296 C 537.528 498.672 515.944 506.928 511.736 502.464 C 507.573 498.048 515.31 472.416 527.302 461.088 C 539.157 449.808 549.021 452.736 554.904 459.552 Z  M 438.386 349.152 C 444.268 355.872 444.811 365.664 432.956 376.896 C 420.965 388.272 399.38 396.528 395.217 392.064 C 391.009 387.648 398.792 362.016 410.783 350.688 C 422.639 339.408 432.549 342.336 438.386 349.152 Z  M 270.916 564.48 C 276.935 569.088 278.609 577.872 269.378 591.12 C 260.147 604.512 241.956 617.52 237.703 614.544 C 233.449 611.568 237.296 586.272 246.572 572.88 C 255.803 559.584 264.943 559.728 270.916 564.48 Z  M 358.113 654.912 C 360.737 662.304 357.615 670.608 343.044 676.32 C 328.384 682.128 306.437 682.416 304.446 677.472 C 302.455 672.528 318.745 653.568 333.406 647.808 C 347.977 642.048 355.533 647.472 358.113 654.912 Z  M 328.972 266.88 C 333.497 272.16 332.999 280.848 321.234 292.224 C 309.424 303.744 289.333 313.584 286.075 310.128 C 282.817 306.672 292.41 282.96 304.22 271.488 C 315.985 260.064 324.447 261.504 328.972 266.88 Z  M 616.263 583.008 C 620.064 588.912 618.435 597.408 605.357 607.008 C 592.19 616.704 571.013 623.616 568.253 619.728 C 565.447 615.84 577.981 593.712 591.149 584.016 C 604.226 574.368 612.462 577.056 616.263 583.008 Z  M 487.799 204.24 C 493.681 210.96 494.224 220.752 482.369 231.984 C 470.377 243.36 448.793 251.568 444.63 247.152 C 440.467 242.736 448.205 217.104 460.151 205.776 C 472.052 194.448 481.916 197.424 487.799 204.24 Z  M 373 152.016 C 376.937 156.672 376.258 164.496 365.307 175.152 C 354.312 185.904 335.895 195.456 333.044 192.432 C 330.194 189.408 339.47 167.664 350.511 156.912 C 361.416 146.208 369.063 147.264 373 152.016 Z  M 736.763 505.968 C 741.333 511.344 740.881 520.032 729.116 531.408 C 717.305 542.928 697.169 552.72 693.866 549.216 C 690.563 545.712 700.065 521.904 711.875 510.432 C 723.64 498.96 732.193 500.496 736.763 505.968 Z " fill="rgb(255,238,163)"/></g></g></svg>