<?xml version="1.0" encoding="UTF-8" standalone="no"?><!-- Generator: Gravit.io --><svg xmlns="http://www.w3.org/2000/svg" xmlns:xlink="http://www.w3.org/1999/xlink" style="isolation:isolate" viewBox="0 0 1440 900" width="1440pt" height="900pt"><defs><clipPath id="_clipPath_VvIZTMcFi3SQVzDgEoJEbOG16OPLEPZH"><rect width="1440" height="900"/></clipPath></defs><g clip-path="url(#_clipPath_VvIZTMcFi3SQVzDgEoJEbOG16OPLEPZH)"><g><path d=" M 160.288 457.81 C 160.288 457.81 212.846 35.638 659.591 15.534 C 1106.337 -5.483 1217.797 365.517 1235.92 514.465 C 1235.92 514.465 1283.948 529.086 1290.291 572.948 C 1290.291 572.948 1352.817 589.396 1365.503 639.654 C 1379.096 694.482 1339.224 728.292 1339.224 728.292 C 1339.224 728.292 1357.348 810.534 1314.758 822.413 C 1272.167 833.378 1254.044 827.896 1254.044 827.896 C 1254.044 827.896 1214.172 871.758 1145.302 839.775 C 1145.302 839.775 1096.369 883.637 1041.998 869.016 C 1041.998 869.016 1023.875 869.93 1003.033 847.999 C 1003.033 847.999 926.914 859.878 891.573 818.758 C 855.326 776.723 864.387 720.982 864.387 720.982 C 864.387 720.982 823.609 673.465 850.795 616.81 C 863.481 591.223 896.104 593.051 896.104 593.051 C 896.104 593.051 887.948 567.465 906.978 541.879 C 906.978 541.879 877.074 428.568 684.964 427.655 C 518.228 427.655 511.885 482.482 494.667 488.879 C 494.667 488.879 560.818 532.741 534.539 605.844 C 534.539 605.844 591.628 707.275 507.354 738.344 C 507.354 738.344 504.635 805.965 452.983 826.982 C 400.425 847.085 387.738 824.24 387.738 824.24 C 387.738 824.24 316.15 904.654 237.313 829.723 C 237.313 829.723 146.695 827.896 126.759 747.482 C 82.356 767.585 -23.666 645.137 74.201 582.999 C 74.201 582.999 41.579 530.913 93.231 489.793 C 115.885 471.517 143.07 481.568 143.07 481.568 C 143.07 481.568 146.695 456.896 159.382 457.81 L 160.288 457.81 Z " fill-rule="evenodd" fill="rgb(0,0,0)" fill-opacity="0.2"/><path d=" M 198.347 448.672 C 198.347 448.672 250.905 25.586 696.745 4.569 C 1143.49 -16.448 1254.95 355.465 1273.073 504.413 C 1273.073 504.413 1321.101 519.034 1327.444 562.896 C 1327.444 562.896 1390.876 579.344 1402.657 628.689 C 1416.249 683.516 1376.378 717.327 1376.378 717.327 C 1376.378 717.327 1394.501 800.482 1351.911 812.361 C 1309.321 823.327 1292.103 812.361 1292.103 812.361 C 1292.103 812.361 1244.076 845.258 1182.456 830.637 C 1182.456 830.637 1134.428 872.671 1079.151 858.051 C 1079.151 858.051 1061.028 859.878 1040.186 837.947 C 1040.186 837.947 964.067 849.827 928.726 808.706 C 892.479 766.671 901.541 710.93 901.541 710.93 C 901.541 710.93 860.763 665.241 889.76 607.672 C 901.541 582.086 935.069 582.999 935.069 582.999 C 935.069 582.999 926.008 558.327 945.037 531.827 C 945.037 531.827 915.133 419.431 723.024 418.517 C 556.287 418.517 549.944 473.344 533.633 479.741 C 533.633 479.741 598.878 522.689 572.598 596.706 C 572.598 596.706 630.594 697.223 545.413 729.206 C 545.413 729.206 542.695 796.827 491.042 816.93 C 439.39 837.947 425.798 815.102 425.798 815.102 C 425.798 815.102 355.116 895.516 275.372 819.671 C 275.372 819.671 184.755 817.844 164.819 738.344 C 120.416 757.534 15.299 635.085 112.26 573.861 C 112.26 573.861 79.638 520.861 131.29 479.741 C 154.851 461.465 181.13 472.43 181.13 472.43 C 181.13 472.43 184.755 447.758 197.441 448.672 L 198.347 448.672 Z " fill-rule="evenodd" fill="rgb(255,255,255)"/><path d=" M 167.537 466.034 L 175.693 466.034 L 176.599 466.948 L 178.411 466.948 L 178.411 466.034 L 179.317 465.12 L 179.317 462.379 L 180.224 461.465 L 180.224 459.637 L 181.13 458.724 L 181.13 457.81 L 182.036 455.982 L 182.942 455.068 L 182.942 454.155 L 184.755 452.327 L 184.755 451.413 L 185.661 451.413 L 185.661 450.499 L 186.567 450.499 L 186.567 448.672 L 187.473 448.672 L 188.379 447.758 L 190.192 446.844 L 191.098 446.844 L 191.098 445.017 L 192.91 445.017 L 193.816 444.103 L 193.816 442.275 L 194.722 439.534 L 194.722 436.793 L 196.535 433.137 L 196.535 428.568 L 197.441 423.999 L 199.253 418.517 L 200.16 413.948 L 200.16 410.293 L 201.972 407.551 L 201.972 404.81 L 202.878 401.155 L 203.784 398.413 L 204.69 394.758 L 205.597 391.103 L 206.503 387.448 L 208.315 383.793 L 208.315 381.051 L 210.127 377.396 L 211.034 373.741 L 212.846 369.172 L 213.752 365.517 L 215.565 360.948 L 216.471 357.293 L 218.283 352.724 L 220.095 348.155 L 221.002 344.5 L 222.814 339.931 L 224.626 335.362 L 226.439 330.793 L 228.251 326.224 L 230.063 321.655 L 231.876 317.086 L 234.594 312.517 L 236.407 307.034 L 238.219 302.465 L 240.938 297.896 L 242.75 293.327 L 245.468 287.844 L 248.187 283.276 L 250.905 277.793 L 252.718 273.224 L 255.436 267.741 L 258.155 263.172 L 260.873 257.689 L 264.498 253.12 L 267.217 247.638 L 269.935 243.069 L 273.56 237.586 L 275.372 234.845 L 276.278 232.103 L 278.091 230.276 L 279.903 227.534 L 281.715 224.793 L 283.528 222.051 L 285.34 219.31 L 287.153 217.482 L 288.059 214.741 L 289.871 212 L 291.683 209.258 L 293.496 207.431 L 296.214 204.689 L 298.027 201.948 L 299.839 199.207 L 301.651 196.465 L 303.464 194.638 L 305.276 191.896 L 307.088 189.155 L 309.807 186.414 L 311.619 183.672 L 313.432 181.845 L 315.244 179.103 L 317.963 176.362 L 319.775 173.62 L 321.587 171.793 L 324.306 169.052 L 326.118 166.31 L 328.837 164.483 L 330.649 161.741 L 333.368 159 L 335.18 157.172 L 337.898 154.431 L 339.711 151.689 L 342.429 148.948 L 345.148 147.121 L 346.96 144.379 L 349.679 142.552 L 352.397 139.81 L 354.21 137.069 L 356.928 135.241 L 359.647 132.5 L 362.365 130.672 L 365.084 127.931 L 367.802 125.19 L 369.615 123.362 L 372.333 120.621 L 375.052 118.793 L 377.77 116.052 L 380.489 114.224 L 383.207 111.483 L 386.832 109.655 L 388.644 106.914 L 391.363 104.172 L 394.081 102.345 L 396.8 99.603 L 399.519 97.776 L 403.143 95.948 L 405.862 93.207 L 408.58 91.379 L 412.205 89.552 L 414.924 86.81 L 418.548 84.983 L 421.267 83.155 L 424.891 81.327 L 427.61 78.586 L 431.235 76.759 L 433.953 74.931 L 437.578 73.103 L 440.297 71.276 L 443.921 69.448 L 447.546 67.621 L 451.171 64.879 L 453.889 63.052 L 457.514 61.224 L 461.139 59.396 L 464.763 57.569 L 468.388 55.741 L 472.013 54.828 L 475.637 53 L 479.262 51.172 L 482.887 49.345 L 486.512 47.517 L 490.136 45.69 L 493.761 43.862 L 497.386 42.948 L 501.01 41.121 L 505.541 39.293 L 509.166 38.379 L 512.791 36.552 L 517.322 34.724 L 520.946 33.81 L 524.571 31.983 L 529.102 31.069 L 532.727 29.241 L 537.257 28.328 L 540.882 26.5 L 545.413 25.586 L 549.944 23.759 L 553.569 22.845 L 558.1 21.931 L 562.63 20.103 L 566.255 20.103 L 570.786 18.276 L 575.317 17.362 L 579.848 16.448 L 584.379 14.621 L 588.91 14.621 L 593.44 12.793 L 597.971 12.793 L 602.502 10.966 L 607.033 10.966 L 611.564 9.138 L 616.095 9.138 L 620.626 8.224 L 626.063 7.31 L 630.594 6.397 L 635.125 6.397 L 640.562 5.483 L 645.093 4.569 L 649.623 4.569 L 655.061 3.655 L 659.591 2.741 L 665.028 2.741 L 670.466 1.828 L 680.433 1.828 L 685.871 0.914 L 695.838 0.914 L 701.276 0 L 777.394 0 L 781.925 0.914 L 790.987 0.914 L 796.424 1.828 L 800.955 1.828 L 805.486 2.741 L 810.017 2.741 L 814.548 3.655 L 819.079 4.569 L 823.609 4.569 L 828.14 5.483 L 832.671 6.397 L 837.202 6.397 L 840.827 8.224 L 845.358 8.224 L 849.889 9.138 L 854.42 10.052 L 858.95 10.966 L 862.575 11.879 L 867.106 12.793 L 870.731 13.707 L 875.262 14.621 L 879.792 15.534 L 883.417 16.448 L 887.948 18.276 L 891.573 18.276 L 896.104 20.103 L 899.728 21.017 L 903.353 21.931 L 907.884 23.759 L 911.509 23.759 L 915.133 25.586 L 919.664 27.414 L 923.289 28.328 L 926.914 29.241 L 930.538 31.069 L 935.069 31.983 L 938.694 33.81 L 942.319 34.724 L 945.943 36.552 L 949.568 38.379 L 953.193 39.293 L 956.818 41.121 L 960.442 42.034 L 964.067 43.862 L 967.692 45.69 L 971.316 47.517 L 974.035 48.431 L 977.66 50.259 L 981.284 52.086 L 984.909 53.914 L 988.534 55.741 L 991.252 56.655 L 994.877 58.483 L 998.502 60.31 L 1001.22 62.138 L 1004.845 63.965 L 1007.563 65.793 L 1011.188 67.621 L 1013.907 69.448 L 1017.531 71.276 L 1020.25 73.103 L 1023.875 74.931 L 1026.593 77.672 L 1030.218 79.5 L 1032.936 81.327 L 1035.655 83.155 L 1039.28 84.983 L 1041.998 86.81 L 1044.717 89.552 L 1047.435 91.379 L 1051.06 93.207 L 1053.779 95.034 L 1056.497 97.776 L 1059.216 99.603 L 1061.934 101.431 L 1064.653 104.172 L 1067.371 106 L 1070.09 108.741 L 1072.808 110.569 L 1075.527 112.396 L 1078.245 115.138 L 1080.964 116.965 L 1083.682 119.707 L 1086.401 121.534 L 1089.119 124.276 L 1091.838 126.103 L 1093.65 128.845 L 1096.369 130.672 L 1099.087 133.414 L 1101.806 135.241 L 1103.618 137.983 L 1106.337 140.724 L 1109.055 142.552 L 1110.868 145.293 L 1113.586 148.034 L 1116.305 149.862 L 1118.117 152.603 L 1120.836 154.431 L 1122.648 157.172 L 1125.367 159.914 L 1127.179 162.655 L 1129.897 164.483 L 1131.71 167.224 L 1134.428 169.965 L 1136.241 172.707 L 1138.053 174.534 L 1140.772 177.276 L 1142.584 180.017 L 1144.396 182.758 L 1147.115 184.586 L 1148.927 187.327 L 1150.739 190.069 L 1152.552 192.81 L 1154.364 195.551 L 1157.083 198.293 L 1158.895 200.12 L 1160.707 202.862 L 1162.52 205.603 L 1164.332 208.345 L 1166.144 211.086 L 1167.957 213.827 L 1169.769 216.569 L 1171.582 219.31 L 1173.394 221.138 L 1175.206 223.879 L 1177.019 226.62 L 1178.831 229.362 L 1180.643 232.103 L 1182.456 234.845 L 1183.362 237.586 L 1185.174 240.327 L 1186.987 243.069 L 1188.799 245.81 L 1190.611 248.551 L 1191.517 251.293 L 1195.142 256.776 L 1197.861 261.345 L 1201.485 266.827 L 1204.204 272.31 L 1206.922 277.793 L 1209.641 283.276 L 1213.266 289.672 L 1215.984 295.155 L 1218.703 300.638 L 1221.421 306.12 L 1223.234 311.603 L 1225.952 317.086 L 1227.765 321.655 L 1230.483 327.138 L 1232.295 332.62 L 1235.014 338.103 L 1236.826 343.586 L 1238.639 349.069 L 1241.357 353.638 L 1243.17 359.12 L 1244.982 364.603 L 1246.794 370.086 L 1248.607 374.655 L 1249.513 380.137 L 1251.325 384.706 L 1253.138 390.189 L 1254.95 394.758 L 1255.856 400.241 L 1257.668 404.81 L 1258.575 410.293 L 1260.387 414.862 L 1261.293 419.431 L 1263.105 423.999 L 1264.012 429.482 L 1264.918 434.051 L 1265.824 438.62 L 1267.636 443.189 L 1267.636 447.758 L 1269.449 452.327 L 1269.449 456.896 L 1271.261 460.551 L 1271.261 465.12 L 1273.073 469.689 L 1273.073 472.43 L 1273.98 476.999 L 1274.886 480.655 L 1274.886 484.31 L 1275.792 488.879 L 1276.698 492.534 L 1276.698 496.189 L 1277.604 499.844 L 1277.604 500.758 L 1278.51 500.758 L 1280.323 501.672 L 1282.135 501.672 L 1283.041 503.499 L 1284.854 503.499 L 1287.572 505.327 L 1289.385 505.327 L 1291.197 507.155 L 1293.009 507.155 L 1293.915 508.982 L 1294.822 508.982 L 1296.634 509.896 L 1297.54 509.896 L 1298.446 511.724 L 1300.259 511.724 L 1301.165 513.551 L 1302.071 513.551 L 1303.883 515.379 L 1305.696 517.206 L 1306.602 518.12 L 1307.508 519.034 L 1309.321 519.948 L 1310.227 521.775 L 1311.133 522.689 L 1312.945 523.603 L 1313.851 525.43 L 1314.758 526.344 L 1316.57 528.172 L 1317.476 529.086 L 1318.382 530.913 L 1319.288 531.827 L 1321.101 533.655 L 1321.101 535.482 L 1322.913 537.31 L 1323.819 538.223 L 1324.726 540.051 L 1325.632 541.879 L 1325.632 543.706 L 1327.444 545.534 L 1327.444 547.361 L 1328.35 549.189 L 1329.256 551.017 L 1329.256 552.844 L 1330.163 555.586 L 1331.069 557.413 L 1331.069 559.241 L 1333.787 559.241 L 1334.693 560.154 L 1337.412 560.154 L 1339.224 561.982 L 1341.943 561.982 L 1344.661 563.81 L 1347.38 564.723 L 1348.286 564.723 L 1350.098 566.551 L 1351.005 566.551 L 1352.817 567.465 L 1354.629 568.379 L 1356.442 569.292 L 1357.348 569.292 L 1359.16 571.12 L 1360.973 571.12 L 1362.785 572.948 L 1364.597 573.861 L 1365.503 574.775 L 1367.316 575.689 L 1369.128 577.517 L 1370.941 578.43 L 1372.753 579.344 L 1374.565 581.172 L 1375.471 582.086 L 1377.284 582.999 L 1379.096 584.827 L 1380.909 586.654 L 1382.721 587.568 L 1383.627 589.396 L 1385.439 591.223 L 1387.252 592.137 L 1388.158 593.965 L 1389.97 595.792 L 1391.783 597.62 L 1392.689 599.448 L 1394.501 601.275 L 1395.407 603.103 L 1396.314 604.93 L 1397.22 605.844 L 1397.22 606.758 L 1398.126 607.672 L 1399.032 608.585 L 1399.032 610.413 L 1399.938 610.413 L 1400.844 612.241 L 1400.844 613.154 L 1401.751 614.068 L 1401.751 614.982 L 1402.657 616.81 L 1402.657 617.723 L 1403.563 618.637 L 1403.563 619.551 L 1404.469 621.379 L 1404.469 623.206 L 1405.375 625.034 L 1405.375 625.948 L 1406.281 626.861 L 1406.281 629.603 L 1407.188 631.43 L 1407.188 635.085 L 1408.094 637.827 L 1408.094 642.396 L 1409 645.137 L 1409 664.327 L 1408.094 666.154 L 1408.094 670.723 L 1407.188 672.551 L 1406.281 674.378 L 1406.281 677.12 L 1405.375 678.947 L 1405.375 680.775 L 1403.563 682.603 L 1403.563 684.43 L 1402.657 686.258 L 1402.657 688.085 L 1400.844 688.999 L 1400.844 690.827 L 1399.938 692.654 L 1399.032 694.482 L 1398.126 695.396 L 1398.126 697.223 L 1396.314 698.137 L 1396.314 699.965 L 1394.501 700.878 L 1394.501 702.706 L 1393.595 703.62 L 1392.689 705.447 L 1391.783 706.361 L 1390.876 707.275 L 1390.876 708.189 L 1388.158 710.93 L 1387.252 712.758 L 1385.439 713.672 L 1384.533 715.499 L 1382.721 717.327 L 1380.909 719.154 L 1380.909 722.809 L 1381.815 724.637 L 1381.815 727.378 L 1382.721 730.12 L 1382.721 733.775 L 1383.627 736.516 L 1383.627 748.396 L 1384.533 750.223 L 1384.533 771.24 L 1383.627 773.982 L 1383.627 775.809 L 1382.721 777.637 L 1382.721 782.206 L 1380.909 784.034 L 1380.909 788.602 L 1380.002 788.602 L 1380.002 790.43 L 1379.096 790.43 L 1379.096 793.171 L 1378.19 794.085 L 1378.19 794.999 L 1377.284 795.913 L 1377.284 796.827 L 1375.471 797.74 L 1375.471 799.568 L 1374.565 800.482 L 1374.565 801.396 L 1372.753 801.396 L 1372.753 803.223 L 1370.941 804.137 L 1370.941 805.051 L 1370.034 805.965 L 1369.128 806.878 L 1367.316 808.706 L 1366.41 809.62 L 1365.503 809.62 L 1364.597 810.534 L 1363.691 811.447 L 1362.785 811.447 L 1361.879 812.361 L 1360.973 812.361 L 1360.066 813.275 L 1358.254 813.275 L 1358.254 814.189 L 1356.442 814.189 L 1355.536 815.102 L 1353.723 815.102 L 1351.005 816.016 L 1349.192 816.016 L 1347.38 816.93 L 1345.568 816.93 L 1343.755 817.844 L 1341.943 817.844 L 1340.131 818.758 L 1336.506 818.758 L 1334.693 819.671 L 1328.35 819.671 L 1326.538 820.585 L 1303.883 820.585 L 1302.071 819.671 L 1300.259 819.671 L 1298.446 818.758 L 1295.728 818.758 L 1295.728 817.844 L 1293.915 817.844 L 1293.009 816.93 L 1290.291 816.93 L 1288.478 818.758 L 1286.666 818.758 L 1284.854 820.585 L 1283.041 821.499 L 1280.323 822.413 L 1277.604 824.24 L 1276.698 824.24 L 1274.886 825.154 L 1273.073 825.154 L 1272.167 826.982 L 1270.355 826.982 L 1268.543 827.896 L 1266.73 827.896 L 1264.918 828.809 L 1263.105 829.723 L 1261.293 829.723 L 1259.481 830.637 L 1257.668 831.551 L 1255.856 831.551 L 1253.138 832.465 L 1251.325 832.465 L 1249.513 833.378 L 1246.794 834.292 L 1244.982 834.292 L 1242.263 835.206 L 1237.732 835.206 L 1235.92 836.12 L 1233.202 836.12 L 1230.483 837.033 L 1196.048 837.033 L 1193.33 836.12 L 1190.611 836.12 L 1186.987 835.206 L 1184.268 834.292 L 1182.456 834.292 L 1181.55 835.206 L 1179.737 837.033 L 1177.925 837.947 L 1176.112 839.775 L 1174.3 840.689 L 1171.582 842.516 L 1168.863 844.344 L 1167.957 844.344 L 1166.144 846.171 L 1164.332 846.171 L 1163.426 847.999 L 1161.614 847.999 L 1159.801 849.827 L 1157.989 849.827 L 1156.177 851.654 L 1154.364 851.654 L 1153.458 853.482 L 1150.739 853.482 L 1148.927 854.396 L 1147.115 855.309 L 1145.302 856.223 L 1143.49 857.137 L 1141.678 858.051 L 1138.959 858.051 L 1137.147 859.878 L 1135.334 859.878 L 1132.616 860.792 L 1130.804 860.792 L 1128.085 861.706 L 1126.273 862.62 L 1122.648 862.62 L 1120.836 863.533 L 1115.399 863.533 L 1113.586 864.447 L 1106.337 864.447 L 1103.618 865.361 L 1090.026 865.361 L 1089.119 864.447 L 1084.589 864.447 L 1083.682 863.533 L 1080.058 863.533 L 1079.151 862.62 L 1071.902 862.62 L 1070.996 861.706 L 1068.277 861.706 L 1066.465 860.792 L 1065.559 860.792 L 1063.746 859.878 L 1062.84 859.878 L 1061.028 858.051 L 1059.216 858.051 L 1057.403 857.137 L 1055.591 856.223 L 1053.779 854.396 L 1051.966 854.396 L 1051.966 853.482 L 1050.154 852.568 L 1049.248 852.568 L 1048.341 850.74 L 1047.435 850.74 L 1046.529 849.827 L 1045.623 849.827 L 1044.717 847.999 L 1043.811 847.999 L 1042.904 846.171 L 1041.092 846.171 L 1041.092 844.344 L 1039.28 844.344 L 1038.374 842.516 L 1020.25 842.516 L 1017.531 843.43 L 997.596 843.43 L 994.877 842.516 L 990.346 842.516 L 988.534 841.602 L 985.815 841.602 L 983.097 840.689 L 981.284 840.689 L 978.566 839.775 L 976.753 839.775 L 974.035 838.861 L 971.316 838.861 L 969.504 837.033 L 966.785 837.033 L 964.067 836.12 L 962.255 835.206 L 959.536 834.292 L 956.818 833.378 L 955.005 832.465 L 952.287 830.637 L 950.474 830.637 L 949.568 829.723 L 947.756 828.809 L 946.85 828.809 L 945.943 827.896 L 945.037 826.982 L 943.225 826.982 L 943.225 825.154 L 941.413 825.154 L 940.506 824.24 L 939.6 823.327 L 937.788 823.327 L 937.788 821.499 L 935.975 821.499 L 935.069 820.585 L 934.163 819.671 L 933.257 818.758 L 932.351 817.844 L 931.445 816.93 L 930.538 816.016 L 929.632 815.102 L 928.726 814.189 L 927.82 813.275 L 926.914 812.361 L 926.008 810.534 L 924.195 808.706 L 922.383 806.878 L 920.57 805.051 L 918.758 802.309 L 917.852 800.482 L 916.04 798.654 L 915.133 795.913 L 913.321 794.085 L 913.321 792.258 L 911.509 789.516 L 910.603 787.689 L 908.79 785.861 L 908.79 783.12 L 906.978 781.292 L 906.978 779.465 L 905.165 776.723 L 905.165 774.896 L 904.259 773.068 L 903.353 770.327 L 903.353 768.499 L 902.447 766.671 L 901.541 763.93 L 901.541 762.103 L 900.635 760.275 L 900.635 758.447 L 899.728 755.706 L 899.728 753.878 L 898.822 752.051 L 898.822 748.396 L 897.01 746.568 L 897.01 741.085 L 896.104 739.258 L 896.104 710.016 L 894.291 709.103 L 894.291 707.275 L 892.479 705.447 L 890.667 703.62 L 889.76 701.792 L 889.76 699.965 L 887.948 699.965 L 887.948 698.137 L 887.042 696.31 L 887.042 695.396 L 885.23 693.568 L 885.23 692.654 L 884.323 690.827 L 883.417 688.999 L 883.417 687.172 L 881.605 686.258 L 881.605 684.43 L 880.699 682.603 L 880.699 680.775 L 879.792 678.947 L 878.886 677.12 L 878.886 675.292 L 877.98 673.465 L 877.98 670.723 L 877.074 668.896 L 877.074 667.068 L 876.168 665.241 L 876.168 662.499 L 875.262 660.672 L 875.262 632.344 L 876.168 631.43 L 876.168 627.775 L 877.074 625.948 L 877.074 624.12 L 877.98 622.292 L 877.98 621.379 L 878.886 619.551 L 878.886 618.637 L 879.792 616.81 L 879.792 615.896 L 880.699 614.068 L 880.699 613.154 L 881.605 611.327 L 881.605 610.413 L 883.417 608.585 L 883.417 609.499 L 884.323 607.672 L 884.323 606.758 L 885.23 604.93 L 886.136 604.017 L 887.042 603.103 L 887.042 600.361 L 888.854 600.361 L 888.854 598.534 L 890.667 597.62 L 890.667 596.706 L 891.573 595.792 L 892.479 594.879 L 893.385 593.965 L 894.291 593.051 L 896.104 592.137 L 896.104 591.223 L 897.916 591.223 L 897.916 589.396 L 899.728 589.396 L 899.728 588.482 L 901.541 588.482 L 902.447 587.568 L 903.353 586.654 L 904.259 586.654 L 906.072 585.741 L 907.884 584.827 L 908.79 584.827 L 909.696 583.913 L 911.509 583.913 L 912.415 582.999 L 915.133 582.086 L 916.946 582.086 L 918.758 581.172 L 922.383 581.172 L 924.195 580.258 L 928.726 580.258 L 928.726 557.413 L 929.632 555.586 L 929.632 551.93 L 930.538 551.93 L 930.538 550.103 L 931.445 549.189 L 931.445 547.361 L 932.351 546.448 L 932.351 545.534 L 933.257 543.706 L 933.257 542.792 L 934.163 541.879 L 934.163 540.051 L 935.975 539.137 L 935.975 536.396 L 936.882 535.482 L 937.788 534.568 L 937.788 532.741 L 939.6 531.827 L 939.6 528.172 L 938.694 526.344 L 938.694 527.258 L 937.788 525.43 L 936.882 524.517 L 935.975 522.689 L 935.975 520.861 L 934.163 519.034 L 933.257 517.206 L 932.351 515.379 L 930.538 513.551 L 929.632 510.81 L 927.82 508.982 L 926.914 507.155 L 925.101 504.413 L 923.289 502.586 L 923.289 499.844 L 921.477 498.93 L 921.477 498.017 L 919.664 496.189 L 918.758 495.275 L 917.852 494.361 L 916.946 492.534 L 915.133 491.62 L 915.133 489.793 L 913.321 488.879 L 912.415 487.965 L 910.603 486.137 L 909.696 485.224 L 907.884 483.396 L 906.978 482.482 L 905.165 481.568 L 904.259 479.741 L 902.447 478.827 L 901.541 476.999 L 899.728 476.086 L 897.916 474.258 L 897.01 473.344 L 896.104 472.43 L 894.291 470.603 L 892.479 469.689 L 890.667 467.862 L 888.854 466.948 L 887.042 466.034 L 885.23 464.206 L 883.417 463.293 L 881.605 461.465 L 879.792 460.551 L 877.98 459.637 L 876.168 457.81 L 873.449 456.896 L 871.637 455.982 L 869.825 454.155 L 867.106 454.155 L 865.294 452.327 L 862.575 451.413 L 860.763 449.586 L 858.044 448.672 L 856.232 447.758 L 853.513 446.844 L 850.795 445.017 L 848.076 445.017 L 845.358 443.189 L 842.639 442.275 L 840.827 441.362 L 838.108 440.448 L 834.484 439.534 L 831.765 438.62 L 829.047 437.706 L 826.328 436.793 L 823.609 435.879 L 819.985 434.965 L 817.266 434.051 L 814.548 433.137 L 810.923 432.224 L 808.204 432.224 L 804.58 430.396 L 800.955 430.396 L 798.237 429.482 L 794.612 429.482 L 790.987 427.655 L 783.738 427.655 L 780.113 426.741 L 776.488 425.827 L 772.864 425.827 L 769.239 424.913 L 760.177 424.913 L 756.552 423.999 L 748.397 423.999 L 743.866 423.086 L 678.621 423.086 L 675.903 423.999 L 665.028 423.999 L 662.31 424.913 L 656.873 424.913 L 654.154 425.827 L 651.436 425.827 L 648.717 426.741 L 642.374 426.741 L 639.656 427.655 L 637.843 427.655 L 635.125 428.568 L 633.312 428.568 L 631.5 429.482 L 628.781 429.482 L 626.969 430.396 L 624.25 430.396 L 622.438 431.31 L 619.72 432.224 L 617.907 432.224 L 616.095 433.137 L 614.283 433.137 L 611.564 434.051 L 609.752 434.051 L 607.939 435.879 L 604.315 435.879 L 602.502 436.793 L 600.69 437.706 L 598.878 437.706 L 597.065 438.62 L 596.159 439.534 L 594.347 439.534 L 592.534 440.448 L 590.722 441.362 L 589.816 441.362 L 588.003 443.189 L 585.285 443.189 L 584.379 445.017 L 582.566 445.017 L 581.66 445.93 L 578.942 445.93 L 578.942 447.758 L 576.223 449.586 L 574.411 450.499 L 571.692 452.327 L 569.88 453.241 L 568.068 455.068 L 566.255 455.982 L 564.443 457.81 L 562.63 458.724 L 560.818 459.637 L 559.006 461.465 L 558.1 462.379 L 556.287 464.206 L 555.381 465.12 L 554.475 466.034 L 552.662 467.862 L 551.756 467.862 L 550.85 469.689 L 549.944 470.603 L 548.132 473.344 L 545.413 475.172 L 544.507 476.999 L 543.601 477.913 L 542.695 478.827 L 541.788 479.741 L 540.882 479.741 L 540.882 480.655 L 541.788 482.482 L 543.601 483.396 L 545.413 485.224 L 547.225 487.051 L 548.132 487.051 L 549.944 488.879 L 550.85 490.706 L 551.756 490.706 L 553.569 492.534 L 554.475 494.361 L 556.287 495.275 L 557.193 497.103 L 559.006 498.93 L 559.912 500.758 L 561.724 501.672 L 561.724 503.499 L 563.537 505.327 L 565.349 507.155 L 566.255 508.982 L 568.068 511.724 L 568.974 513.551 L 569.88 515.379 L 571.692 517.206 L 571.692 519.948 L 573.505 521.775 L 574.411 524.517 L 575.317 526.344 L 575.317 528.172 L 577.129 529.086 L 577.129 531.827 L 578.035 532.741 L 578.035 535.482 L 578.942 536.396 L 578.942 538.223 L 579.848 539.137 L 579.848 541.879 L 580.754 543.706 L 580.754 546.448 L 581.66 547.361 L 581.66 551.93 L 582.566 553.758 L 582.566 577.517 L 581.66 578.43 L 581.66 582.086 L 580.754 583.913 L 580.754 585.741 L 578.942 587.568 L 578.942 592.137 L 578.035 593.965 L 577.129 595.792 L 577.129 596.706 L 578.942 600.361 L 579.848 603.103 L 580.754 604.93 L 581.66 606.758 L 581.66 608.585 L 583.473 610.413 L 583.473 612.241 L 584.379 614.068 L 585.285 616.81 L 586.191 618.637 L 587.097 620.465 L 587.097 623.206 L 588.91 625.948 L 588.91 627.775 L 589.816 630.516 L 590.722 633.258 L 590.722 635.999 L 591.628 638.741 L 592.534 641.482 L 592.534 644.223 L 593.44 646.965 L 593.44 652.447 L 594.347 654.275 L 594.347 678.034 L 593.44 679.861 L 593.44 682.603 L 592.534 684.43 L 592.534 687.172 L 591.628 688.085 L 591.628 689.913 L 590.722 691.741 L 589.816 692.654 L 589.816 694.482 L 588.91 695.396 L 588.003 697.223 L 588.003 698.137 L 587.097 699.965 L 586.191 700.878 L 585.285 702.706 L 584.379 703.62 L 583.473 705.447 L 582.566 706.361 L 581.66 708.189 L 580.754 708.189 L 579.848 710.016 L 578.942 711.844 L 577.129 712.758 L 576.223 713.672 L 575.317 715.499 L 573.505 715.499 L 572.598 717.327 L 570.786 718.241 L 569.88 720.068 L 568.068 720.068 L 567.161 721.896 L 565.349 722.809 L 563.537 723.723 L 562.63 724.637 L 560.818 726.465 L 559.006 726.465 L 557.193 728.292 L 555.381 728.292 L 553.569 730.12 L 551.756 730.12 L 549.944 731.034 L 548.132 731.947 L 548.132 738.344 L 547.225 741.085 L 547.225 743.827 L 546.319 746.568 L 545.413 748.396 L 545.413 752.051 L 544.507 753.878 L 544.507 754.792 L 543.601 756.62 L 542.695 758.447 L 542.695 760.275 L 541.788 762.103 L 540.882 763.93 L 540.882 765.758 L 539.976 767.585 L 539.07 770.327 L 538.164 772.154 L 537.257 773.982 L 536.351 775.809 L 535.445 777.637 L 534.539 779.465 L 533.633 781.292 L 532.727 783.12 L 530.914 784.947 L 530.008 787.689 L 529.102 789.516 L 527.29 791.344 L 526.383 793.171 L 524.571 794.999 L 523.665 796.827 L 521.852 798.654 L 520.04 800.482 L 518.228 801.396 L 518.228 802.309 L 517.322 803.223 L 516.415 804.137 L 515.509 805.051 L 514.603 805.965 L 513.697 805.965 L 512.791 807.792 L 511.885 807.792 L 510.072 808.706 L 510.072 809.62 L 508.26 810.534 L 506.447 812.361 L 505.541 813.275 L 503.729 813.275 L 503.729 815.102 L 501.917 815.102 L 501.01 816.016 L 499.198 816.016 L 499.198 816.93 L 497.386 817.844 L 496.479 817.844 L 494.667 818.758 L 493.761 818.758 L 491.949 819.671 L 490.136 820.585 L 487.418 821.499 L 484.699 822.413 L 482.887 823.327 L 479.262 823.327 L 477.45 825.154 L 472.919 825.154 L 471.107 826.068 L 470.2 826.068 L 468.388 826.982 L 464.763 826.982 L 462.951 827.896 L 455.702 827.896 L 454.795 828.809 L 443.015 828.809 L 442.109 827.896 L 440.297 827.896 L 438.484 826.982 L 436.672 826.982 L 435.766 826.068 L 433.953 826.068 L 433.953 825.154 L 432.141 825.154 L 432.141 824.24 L 430.329 824.24 L 429.422 823.327 L 428.516 822.413 L 426.704 821.499 L 426.704 820.585 L 424.891 820.585 L 422.173 822.413 L 420.361 824.24 L 419.454 825.154 L 417.642 826.068 L 416.736 827.896 L 414.924 828.809 L 413.111 829.723 L 411.299 831.551 L 410.393 832.465 L 408.58 834.292 L 405.862 835.206 L 404.049 836.12 L 402.237 837.947 L 400.425 838.861 L 397.706 840.689 L 395.894 841.602 L 393.175 843.43 L 391.363 843.43 L 388.644 845.258 L 385.926 846.171 L 385.02 847.085 L 383.207 847.085 L 382.301 847.999 L 380.489 847.999 L 379.583 848.913 L 377.77 848.913 L 376.864 849.827 L 375.052 849.827 L 374.146 850.74 L 372.333 850.74 L 371.427 851.654 L 370.521 851.654 L 368.709 852.568 L 365.99 852.568 L 364.178 853.482 L 361.459 853.482 L 359.647 854.396 L 353.303 854.396 L 351.491 855.309 L 335.18 855.309 L 333.368 854.396 L 329.743 854.396 L 327.931 853.482 L 325.212 853.482 L 323.4 852.568 L 321.587 851.654 L 319.775 851.654 L 317.963 850.74 L 316.15 849.827 L 314.338 849.827 L 312.526 848.913 L 310.713 847.999 L 308.901 847.085 L 307.088 847.085 L 305.276 846.171 L 303.464 845.258 L 301.651 844.344 L 299.839 843.43 L 298.027 841.602 L 296.214 841.602 L 294.402 839.775 L 292.59 837.947 L 288.965 837.947 L 287.153 837.033 L 285.34 835.206 L 283.528 833.378 L 280.809 832.465 L 278.997 830.637 L 277.185 828.809 L 275.372 827.896 L 273.56 826.068 L 273.56 825.154 L 268.123 825.154 L 265.404 824.24 L 259.061 824.24 L 257.249 823.327 L 255.436 823.327 L 253.624 822.413 L 249.999 822.413 L 248.187 821.499 L 246.375 820.585 L 243.656 820.585 L 241.844 819.671 L 239.125 818.758 L 237.313 818.758 L 234.594 816.93 L 231.876 816.016 L 229.157 815.102 L 227.345 814.189 L 224.626 812.361 L 221.908 812.361 L 220.095 810.534 L 217.377 809.62 L 214.658 807.792 L 212.846 806.878 L 210.127 805.051 L 207.409 805.051 L 205.597 803.223 L 204.69 803.223 L 203.784 802.309 L 201.972 801.396 L 201.066 800.482 L 200.16 799.568 L 198.347 798.654 L 197.441 797.74 L 196.535 796.827 L 194.722 795.913 L 193.816 794.999 L 192.91 794.085 L 191.098 793.171 L 191.098 792.258 L 189.285 790.43 L 188.379 788.602 L 186.567 787.689 L 186.567 786.775 L 184.755 784.947 L 183.848 784.034 L 182.942 783.12 L 181.13 781.292 L 181.13 780.378 L 179.317 778.551 L 179.317 777.637 L 177.505 776.723 L 176.599 774.896 L 175.693 773.982 L 174.787 772.154 L 173.88 770.327 L 172.974 769.413 L 172.068 767.585 L 171.162 766.671 L 171.162 764.844 L 169.35 763.016 L 169.35 761.189 L 167.537 760.275 L 167.537 758.447 L 166.631 756.62 L 165.725 754.792 L 165.725 752.965 L 164.819 751.137 L 163.912 749.309 L 163.912 746.568 L 163.006 744.74 L 162.1 743.827 L 143.977 743.827 L 143.07 742.913 L 139.446 742.913 L 138.539 741.999 L 136.727 741.085 L 135.821 741.085 L 134.009 740.172 L 133.102 739.258 L 131.29 739.258 L 129.478 738.344 L 128.572 737.43 L 126.759 736.516 L 125.853 735.603 L 124.041 734.689 L 122.228 733.775 L 121.322 732.861 L 119.51 731.947 L 118.604 731.034 L 116.791 730.12 L 115.885 729.206 L 114.073 727.378 L 112.26 725.551 L 111.354 724.637 L 109.542 722.809 L 108.636 721.896 L 106.823 720.068 L 105.917 719.154 L 104.105 718.241 L 103.199 716.413 L 101.386 715.499 L 100.48 713.672 L 98.668 712.758 L 97.762 710.93 L 96.855 709.103 L 95.043 708.189 L 94.137 706.361 L 93.231 704.534 L 91.418 703.62 L 91.418 701.792 L 89.606 699.965 L 88.7 698.137 L 86.887 697.223 L 86.887 695.396 L 85.075 693.568 L 84.169 691.741 L 83.263 689.913 L 82.356 688.085 L 81.45 686.258 L 80.544 684.43 L 79.638 683.516 L 78.732 681.689 L 77.826 679.861 L 76.919 678.034 L 76.919 676.206 L 75.107 674.378 L 75.107 672.551 L 74.201 670.723 L 74.201 667.982 L 73.295 666.154 L 72.389 664.327 L 72.389 662.499 L 71.482 660.672 L 71.482 658.844 L 70.576 657.016 L 70.576 653.361 L 69.67 651.534 L 69.67 645.137 L 68.764 643.31 L 68.764 627.775 L 69.67 625.948 L 69.67 623.206 L 70.576 621.379 L 70.576 619.551 L 71.482 618.637 L 72.389 616.81 L 72.389 614.982 L 74.201 613.154 L 74.201 609.499 L 75.107 607.672 L 76.013 604.93 L 77.826 603.103 L 77.826 601.275 L 80.544 600.361 L 81.45 598.534 L 83.263 596.706 L 83.263 594.879 L 85.075 593.051 L 86.887 591.223 L 88.7 590.31 L 89.606 588.482 L 91.418 586.654 L 93.231 584.827 L 95.043 582.999 L 96.855 581.172 L 98.668 579.344 L 100.48 578.43 L 103.199 576.603 L 105.011 574.775 L 106.823 572.948 L 107.729 572.948 L 107.729 572.034 L 106.823 570.206 L 105.917 568.379 L 105.011 566.551 L 105.011 563.81 L 103.199 563.81 L 103.199 561.982 L 102.292 560.154 L 102.292 559.241 L 101.386 557.413 L 101.386 556.499 L 100.48 554.672 L 100.48 551.93 L 99.574 550.103 L 99.574 548.275 L 98.668 548.275 L 98.668 525.43 L 99.574 522.689 L 99.574 520.861 L 100.48 519.034 L 100.48 517.206 L 101.386 515.379 L 101.386 513.551 L 102.292 512.637 L 102.292 511.724 L 103.199 510.81 L 103.199 508.982 L 104.105 508.982 L 104.105 507.155 L 105.011 506.241 L 105.011 505.327 L 105.917 504.413 L 105.917 502.586 L 107.729 502.586 L 107.729 499.844 L 108.636 498.93 L 108.636 498.017 L 110.448 497.103 L 110.448 495.275 L 111.354 495.275 L 111.354 493.448 L 113.167 492.534 L 113.167 491.62 L 114.979 490.706 L 114.979 488.879 L 116.791 488.879 L 116.791 487.051 L 118.604 487.051 L 118.604 485.224 L 120.416 484.31 L 120.416 483.396 L 122.228 482.482 L 123.134 481.568 L 124.947 479.741 L 126.759 477.913 L 128.572 476.999 L 128.572 476.086 L 130.384 475.172 L 131.29 474.258 L 133.102 474.258 L 134.009 472.43 L 136.727 472.43 L 138.539 470.603 L 140.352 470.603 L 142.164 469.689 L 143.07 469.689 L 144.883 468.775 L 145.789 468.775 L 146.695 467.862 L 148.507 467.862 L 150.32 466.948 L 153.038 466.948 L 154.851 466.034 L 167.537 466.034 Z  M 201.066 450.499 L 200.16 451.413 L 198.347 451.413 L 198.347 452.327 L 193.816 452.327 L 193.816 453.241 L 192.91 453.241 L 192.004 454.155 L 192.004 455.068 L 191.098 455.068 L 191.098 455.982 L 190.192 455.982 L 190.192 457.81 L 189.285 457.81 L 189.285 459.637 L 188.379 460.551 L 188.379 461.465 L 187.473 462.379 L 187.473 463.293 L 186.567 465.12 L 186.567 466.948 L 185.661 466.948 L 185.661 470.603 L 184.755 472.43 L 184.755 474.258 L 183.848 474.258 L 183.848 475.172 L 182.942 475.172 L 182.942 476.086 L 176.599 476.086 L 174.787 475.172 L 172.974 475.172 L 172.068 474.258 L 150.32 474.258 L 149.414 475.172 L 147.601 475.172 L 145.789 476.086 L 143.977 476.999 L 142.164 477.913 L 141.258 477.913 L 140.352 478.827 L 139.446 478.827 L 138.539 480.655 L 136.727 480.655 L 136.727 481.568 L 134.915 481.568 L 134.915 483.396 L 133.102 483.396 L 132.196 485.224 L 130.384 485.224 L 130.384 487.051 L 128.572 487.051 L 127.665 488.879 L 126.759 488.879 L 125.853 490.706 L 124.947 490.706 L 124.041 492.534 L 123.134 493.448 L 122.228 494.361 L 122.228 495.275 L 120.416 496.189 L 120.416 497.103 L 119.51 498.017 L 118.604 498.93 L 117.697 499.844 L 117.697 500.758 L 116.791 501.672 L 115.885 502.586 L 115.885 503.499 L 114.979 504.413 L 114.979 506.241 L 113.167 506.241 L 112.26 508.068 L 111.354 509.896 L 110.448 511.724 L 110.448 513.551 L 109.542 513.551 L 109.542 515.379 L 108.636 515.379 L 108.636 518.12 L 107.729 519.034 L 107.729 520.861 L 106.823 522.689 L 106.823 526.344 L 105.917 528.172 L 105.917 548.275 L 106.823 549.189 L 106.823 551.93 L 107.729 553.758 L 107.729 554.672 L 108.636 556.499 L 108.636 559.241 L 109.542 559.241 L 109.542 561.068 L 110.448 561.982 L 110.448 563.81 L 112.26 565.637 L 112.26 567.465 L 113.167 569.292 L 113.167 570.206 L 114.073 571.12 L 114.979 572.034 L 114.979 576.603 L 114.073 577.517 L 111.354 579.344 L 109.542 580.258 L 107.729 582.086 L 105.917 583.913 L 104.105 584.827 L 102.292 586.654 L 100.48 588.482 L 98.668 589.396 L 96.855 591.223 L 95.043 593.051 L 94.137 593.965 L 92.324 595.792 L 91.418 597.62 L 89.606 599.448 L 88.7 600.361 L 87.794 602.189 L 85.981 604.017 L 85.981 605.844 L 84.169 607.672 L 84.169 608.585 L 82.356 610.413 L 82.356 612.241 L 80.544 614.068 L 80.544 615.896 L 79.638 617.723 L 79.638 619.551 L 78.732 620.465 L 78.732 622.292 L 77.826 624.12 L 77.826 625.948 L 76.919 627.775 L 76.919 631.43 L 76.013 633.258 L 76.013 653.361 L 76.919 655.189 L 76.919 657.016 L 77.826 658.844 L 77.826 660.672 L 78.732 662.499 L 78.732 664.327 L 79.638 666.154 L 80.544 667.982 L 80.544 668.896 L 81.45 670.723 L 82.356 672.551 L 82.356 674.378 L 84.169 676.206 L 84.169 678.034 L 85.981 679.861 L 85.981 680.775 L 86.887 682.603 L 87.794 684.43 L 88.7 686.258 L 89.606 688.085 L 90.512 688.999 L 92.324 690.827 L 92.324 692.654 L 94.137 693.568 L 94.137 695.396 L 95.949 697.223 L 96.855 698.137 L 97.762 699.965 L 99.574 701.792 L 99.574 702.706 L 101.386 704.534 L 103.199 705.447 L 103.199 707.275 L 105.011 708.189 L 105.917 710.016 L 107.729 710.93 L 108.636 711.844 L 110.448 713.672 L 110.448 714.585 L 112.26 715.499 L 114.073 717.327 L 114.979 718.241 L 116.791 719.154 L 117.697 720.068 L 118.604 721.896 L 120.416 721.896 L 121.322 723.723 L 123.134 723.723 L 124.041 725.551 L 125.853 725.551 L 126.759 727.378 L 128.572 727.378 L 128.572 728.292 L 130.384 729.206 L 132.196 730.12 L 133.102 730.12 L 134.915 731.947 L 137.633 731.947 L 137.633 732.861 L 139.446 733.775 L 141.258 733.775 L 142.164 734.689 L 144.883 734.689 L 145.789 735.603 L 150.32 735.603 L 151.226 736.516 L 159.382 736.516 L 160.288 735.603 L 162.1 735.603 L 162.1 734.689 L 165.725 734.689 L 165.725 735.603 L 166.631 735.603 L 166.631 736.516 L 167.537 737.43 L 167.537 739.258 L 168.443 741.085 L 168.443 742.913 L 169.35 744.74 L 169.35 746.568 L 171.162 747.482 L 171.162 751.137 L 172.974 752.965 L 172.974 753.878 L 173.88 755.706 L 174.787 757.534 L 174.787 758.447 L 176.599 760.275 L 176.599 761.189 L 177.505 763.016 L 178.411 763.93 L 179.317 765.758 L 180.224 766.671 L 181.13 768.499 L 182.036 769.413 L 182.036 770.327 L 183.848 772.154 L 183.848 773.068 L 185.661 773.982 L 186.567 775.809 L 187.473 776.723 L 188.379 777.637 L 189.285 778.551 L 190.192 780.378 L 191.098 780.378 L 192.91 782.206 L 192.91 783.12 L 194.722 784.034 L 195.629 784.947 L 196.535 785.861 L 197.441 786.775 L 199.253 787.689 L 199.253 788.602 L 201.066 789.516 L 201.972 790.43 L 202.878 791.344 L 204.69 791.344 L 204.69 793.171 L 206.503 793.171 L 207.409 794.085 L 209.221 794.999 L 209.221 795.913 L 211.034 795.913 L 211.94 797.74 L 214.658 798.654 L 216.471 800.482 L 219.189 800.482 L 221.002 802.309 L 223.72 803.223 L 226.439 804.137 L 228.251 805.965 L 230.97 805.965 L 232.782 806.878 L 235.5 807.792 L 237.313 808.706 L 239.125 809.62 L 241.844 809.62 L 243.656 810.534 L 245.468 811.447 L 248.187 811.447 L 249.999 812.361 L 251.812 812.361 L 253.624 813.275 L 257.249 813.275 L 259.061 814.189 L 261.78 814.189 L 263.592 815.102 L 269.029 815.102 L 270.841 816.016 L 275.372 816.016 L 276.278 816.93 L 278.997 818.758 L 280.809 820.585 L 282.622 822.413 L 284.434 823.327 L 286.246 825.154 L 288.059 826.982 L 289.871 827.896 L 291.683 829.723 L 293.496 830.637 L 295.308 831.551 L 297.121 833.378 L 298.933 833.378 L 299.839 835.206 L 301.651 836.12 L 303.464 837.033 L 307.088 837.947 L 308.901 838.861 L 310.713 839.775 L 312.526 839.775 L 314.338 841.602 L 316.15 841.602 L 317.963 842.516 L 318.869 842.516 L 320.681 844.344 L 324.306 844.344 L 326.118 845.258 L 327.024 845.258 L 328.837 846.171 L 332.461 846.171 L 334.274 847.085 L 336.992 847.085 L 338.805 847.999 L 361.459 847.999 L 363.271 847.085 L 365.99 847.085 L 366.896 846.171 L 369.615 846.171 L 371.427 845.258 L 372.333 845.258 L 374.146 844.344 L 375.052 844.344 L 375.958 843.43 L 377.77 843.43 L 378.676 842.516 L 380.489 842.516 L 381.395 841.602 L 382.301 841.602 L 384.114 840.689 L 385.926 838.861 L 388.644 838.861 L 390.457 837.033 L 393.175 836.12 L 394.988 834.292 L 396.8 833.378 L 398.612 832.465 L 401.331 830.637 L 403.143 829.723 L 404.956 828.809 L 405.862 826.982 L 407.674 826.068 L 409.486 825.154 L 411.299 823.327 L 412.205 822.413 L 414.017 821.499 L 414.924 820.585 L 415.83 819.671 L 416.736 817.844 L 417.642 817.844 L 419.454 816.016 L 421.267 814.189 L 423.079 812.361 L 423.985 812.361 L 424.891 811.447 L 427.61 811.447 L 428.516 812.361 L 428.516 813.275 L 429.422 813.275 L 429.422 814.189 L 430.329 814.189 L 430.329 815.102 L 432.141 816.016 L 433.047 816.93 L 433.953 816.93 L 433.953 817.844 L 434.859 817.844 L 436.672 818.758 L 437.578 818.758 L 439.39 819.671 L 441.203 819.671 L 441.203 820.585 L 444.827 820.585 L 446.64 821.499 L 464.763 821.499 L 466.576 820.585 L 468.388 820.585 L 470.2 819.671 L 472.013 819.671 L 473.825 818.758 L 476.544 818.758 L 478.356 817.844 L 480.168 816.93 L 482.887 816.93 L 484.699 815.102 L 488.324 815.102 L 490.136 813.275 L 492.855 813.275 L 492.855 812.361 L 494.667 812.361 L 495.573 811.447 L 496.479 811.447 L 498.292 809.62 L 500.104 809.62 L 501.01 808.706 L 501.917 807.792 L 502.823 807.792 L 503.729 805.965 L 505.541 805.965 L 506.447 804.137 L 507.354 804.137 L 508.26 803.223 L 509.166 803.223 L 510.072 801.396 L 511.885 800.482 L 511.885 799.568 L 512.791 799.568 L 513.697 797.74 L 514.603 797.74 L 516.415 795.913 L 517.322 794.085 L 519.134 792.258 L 520.04 790.43 L 521.852 788.602 L 522.759 787.689 L 523.665 785.861 L 525.477 784.034 L 525.477 782.206 L 527.29 780.378 L 528.196 778.551 L 529.102 776.723 L 530.008 774.896 L 530.914 773.068 L 531.82 771.24 L 531.82 769.413 L 533.633 767.585 L 533.633 765.758 L 534.539 763.93 L 534.539 762.103 L 536.351 761.189 L 536.351 757.534 L 537.257 755.706 L 537.257 753.878 L 538.164 752.051 L 538.164 751.137 L 539.07 749.309 L 539.07 746.568 L 539.976 744.74 L 539.976 741.999 L 540.882 739.258 L 540.882 737.43 L 541.788 734.689 L 541.788 727.378 L 542.695 727.378 L 543.601 726.465 L 544.507 726.465 L 546.319 724.637 L 548.132 724.637 L 549.944 723.723 L 551.756 722.809 L 553.569 721.896 L 555.381 720.982 L 557.193 720.068 L 558.1 720.068 L 559.912 718.241 L 561.724 718.241 L 562.63 716.413 L 564.443 715.499 L 565.349 714.585 L 567.161 713.672 L 567.161 712.758 L 568.974 711.844 L 569.88 710.93 L 571.692 709.103 L 573.505 707.275 L 574.411 706.361 L 575.317 705.447 L 576.223 703.62 L 577.129 703.62 L 577.129 701.792 L 578.942 700.878 L 578.942 699.051 L 579.848 697.223 L 579.848 696.31 L 581.66 694.482 L 581.66 692.654 L 582.566 690.827 L 583.473 689.913 L 583.473 688.999 L 584.379 687.172 L 584.379 684.43 L 585.285 683.516 L 585.285 682.603 L 586.191 680.775 L 586.191 677.12 L 587.097 675.292 L 587.097 646.051 L 586.191 643.31 L 585.285 640.568 L 585.285 638.741 L 584.379 635.999 L 583.473 633.258 L 583.473 631.43 L 581.66 628.689 L 581.66 627.775 L 580.754 625.034 L 580.754 623.206 L 578.942 618.637 L 578.035 616.81 L 577.129 614.982 L 576.223 613.154 L 576.223 611.327 L 574.411 609.499 L 574.411 608.585 L 572.598 605.844 L 571.692 603.103 L 570.786 601.275 L 570.786 600.361 L 568.974 599.448 L 568.974 593.965 L 569.88 592.137 L 570.786 591.223 L 570.786 589.396 L 571.692 587.568 L 571.692 585.741 L 572.598 584.827 L 572.598 581.172 L 573.505 580.258 L 573.505 576.603 L 574.411 575.689 L 574.411 545.534 L 573.505 543.706 L 573.505 541.879 L 572.598 540.051 L 572.598 538.223 L 571.692 536.396 L 570.786 534.568 L 570.786 533.655 L 569.88 531.827 L 568.974 529.999 L 568.974 529.086 L 567.161 526.344 L 567.161 524.517 L 565.349 522.689 L 565.349 519.948 L 563.537 518.12 L 562.63 516.292 L 560.818 514.465 L 559.912 512.637 L 559.006 510.81 L 557.193 508.982 L 556.287 507.155 L 555.381 506.241 L 553.569 504.413 L 552.662 502.586 L 551.756 501.672 L 549.944 499.844 L 549.038 498.93 L 547.225 497.103 L 547.225 496.189 L 545.413 494.361 L 544.507 494.361 L 542.695 492.534 L 542.695 491.62 L 540.882 490.706 L 539.976 489.793 L 539.07 488.879 L 537.257 487.051 L 535.445 486.137 L 533.633 485.224 L 533.633 484.31 L 531.82 484.31 L 531.82 483.396 L 530.914 482.482 L 530.914 481.568 L 530.008 481.568 L 530.008 477.913 L 530.914 476.999 L 531.82 476.999 L 531.82 476.086 L 533.633 476.086 L 533.633 475.172 L 534.539 475.172 L 535.445 474.258 L 535.445 472.43 L 537.257 472.43 L 537.257 470.603 L 538.164 470.603 L 539.976 467.862 L 541.788 466.034 L 543.601 464.206 L 544.507 462.379 L 546.319 461.465 L 547.225 460.551 L 548.132 458.724 L 549.944 457.81 L 550.85 455.982 L 552.662 455.068 L 554.475 453.241 L 556.287 452.327 L 558.1 450.499 L 559.912 449.586 L 561.724 447.758 L 563.537 446.844 L 565.349 445.017 L 568.068 443.189 L 569.88 442.275 L 572.598 440.448 L 575.317 439.534 L 576.223 439.534 L 578.942 437.706 L 580.754 436.793 L 581.66 436.793 L 583.473 434.965 L 585.285 434.965 L 586.191 434.051 L 588.003 434.051 L 589.816 432.224 L 591.628 432.224 L 592.534 431.31 L 594.347 431.31 L 596.159 430.396 L 597.971 429.482 L 599.784 429.482 L 601.596 428.568 L 603.408 427.655 L 606.127 427.655 L 607.939 426.741 L 609.752 425.827 L 611.564 425.827 L 613.376 424.913 L 616.095 424.913 L 617.907 423.999 L 620.626 423.999 L 622.438 422.172 L 626.969 422.172 L 629.688 421.258 L 632.406 421.258 L 634.218 420.344 L 636.937 420.344 L 639.656 419.431 L 642.374 419.431 L 645.093 418.517 L 650.53 418.517 L 653.248 417.603 L 655.967 417.603 L 658.685 416.689 L 665.028 416.689 L 667.747 415.775 L 676.809 415.775 L 680.433 414.862 L 694.026 414.862 L 697.651 413.948 L 753.834 413.948 L 757.459 414.862 L 761.989 414.862 L 765.614 415.775 L 773.77 415.775 L 777.394 416.689 L 781.019 417.603 L 784.644 417.603 L 788.269 418.517 L 791.893 418.517 L 795.518 420.344 L 799.143 420.344 L 802.767 421.258 L 806.392 421.258 L 809.111 423.086 L 812.735 423.086 L 816.36 424.913 L 819.079 424.913 L 822.703 425.827 L 825.422 426.741 L 828.14 427.655 L 831.765 428.568 L 834.484 430.396 L 837.202 430.396 L 839.921 432.224 L 842.639 432.224 L 845.358 434.051 L 848.076 434.965 L 850.795 435.879 L 853.513 437.706 L 856.232 437.706 L 858.95 439.534 L 861.669 440.448 L 863.481 441.362 L 866.2 443.189 L 868.918 444.103 L 870.731 445.017 L 873.449 446.844 L 875.262 447.758 L 877.98 449.586 L 879.792 449.586 L 881.605 451.413 L 884.323 453.241 L 886.136 454.155 L 887.948 455.982 L 889.76 456.896 L 891.573 457.81 L 893.385 459.637 L 895.197 460.551 L 897.01 462.379 L 898.822 463.293 L 900.635 465.12 L 902.447 466.034 L 904.259 467.862 L 906.072 468.775 L 906.978 470.603 L 908.79 471.517 L 910.603 473.344 L 911.509 474.258 L 913.321 476.086 L 914.227 476.999 L 916.04 478.827 L 916.946 479.741 L 918.758 481.568 L 919.664 482.482 L 920.57 484.31 L 922.383 485.224 L 923.289 487.051 L 924.195 487.051 L 925.101 488.879 L 926.914 490.706 L 926.914 491.62 L 928.726 493.448 L 929.632 494.361 L 930.538 495.275 L 932.351 498.017 L 934.163 500.758 L 935.975 502.586 L 936.882 505.327 L 938.694 507.155 L 939.6 509.896 L 940.506 511.724 L 942.319 513.551 L 942.319 515.379 L 944.131 517.206 L 944.131 519.034 L 945.037 520.861 L 945.943 522.689 L 945.943 523.603 L 946.85 524.517 L 946.85 526.344 L 947.756 526.344 L 947.756 529.086 L 948.662 529.086 L 948.662 532.741 L 947.756 534.568 L 946.85 535.482 L 946.85 537.31 L 945.037 537.31 L 945.037 539.137 L 944.131 540.051 L 944.131 541.879 L 943.225 541.879 L 941.413 545.534 L 941.413 546.448 L 940.506 547.361 L 940.506 549.189 L 939.6 549.189 L 939.6 551.93 L 938.694 552.844 L 938.694 554.672 L 937.788 556.499 L 937.788 559.241 L 936.882 560.154 L 936.882 567.465 L 935.975 569.292 L 935.975 577.517 L 936.882 579.344 L 936.882 582.086 L 937.788 582.086 L 937.788 585.741 L 936.882 585.741 L 935.975 586.654 L 928.726 586.654 L 927.82 587.568 L 921.477 587.568 L 920.57 588.482 L 918.758 588.482 L 916.946 589.396 L 915.133 589.396 L 915.133 590.31 L 914.227 590.31 L 912.415 591.223 L 910.603 592.137 L 908.79 593.051 L 906.978 593.965 L 905.165 594.879 L 904.259 595.792 L 903.353 596.706 L 902.447 596.706 L 901.541 597.62 L 901.541 598.534 L 899.728 598.534 L 899.728 600.361 L 898.822 600.361 L 897.916 601.275 L 897.916 602.189 L 896.104 603.103 L 896.104 604.017 L 895.197 604.93 L 895.197 605.844 L 894.291 606.758 L 893.385 607.672 L 893.385 608.585 L 892.479 610.413 L 891.573 611.327 L 891.573 613.154 L 890.667 614.068 L 890.667 614.982 L 889.76 616.81 L 889.76 617.723 L 888.854 619.551 L 888.854 620.465 L 887.948 621.379 L 887.948 623.206 L 887.042 624.12 L 887.042 625.034 L 886.136 626.861 L 886.136 628.689 L 885.23 630.516 L 885.23 634.172 L 884.323 634.172 L 884.323 640.568 L 883.417 643.31 L 883.417 662.499 L 884.323 664.327 L 884.323 666.154 L 885.23 667.982 L 885.23 669.81 L 886.136 671.637 L 886.136 673.465 L 887.042 675.292 L 887.042 677.12 L 887.948 678.947 L 888.854 680.775 L 888.854 682.603 L 889.76 683.516 L 890.667 685.344 L 890.667 687.172 L 891.573 688.085 L 892.479 689.913 L 893.385 690.827 L 893.385 692.654 L 894.291 693.568 L 895.197 695.396 L 897.01 697.223 L 897.01 698.137 L 898.822 699.965 L 898.822 701.792 L 900.635 703.62 L 901.541 704.534 L 902.447 706.361 L 903.353 707.275 L 904.259 708.189 L 904.259 741.999 L 905.165 743.827 L 905.165 748.396 L 906.072 750.223 L 906.072 752.051 L 906.978 754.792 L 906.978 756.62 L 907.884 758.447 L 907.884 760.275 L 908.79 762.103 L 908.79 763.93 L 909.696 765.758 L 910.603 768.499 L 910.603 770.327 L 912.415 772.154 L 912.415 773.982 L 913.321 775.809 L 914.227 778.551 L 915.133 780.378 L 916.04 782.206 L 916.946 784.034 L 917.852 785.861 L 919.664 788.602 L 919.664 790.43 L 921.477 792.258 L 922.383 794.085 L 924.195 795.913 L 925.101 797.74 L 926.914 800.482 L 928.726 802.309 L 929.632 804.137 L 931.445 805.965 L 933.257 807.792 L 935.069 809.62 L 935.975 810.534 L 936.882 811.447 L 937.788 812.361 L 938.694 813.275 L 939.6 813.275 L 940.506 815.102 L 941.413 815.102 L 942.319 816.016 L 943.225 816.93 L 945.037 816.93 L 945.037 817.844 L 946.85 818.758 L 948.662 819.671 L 949.568 820.585 L 950.474 820.585 L 951.38 821.499 L 952.287 822.413 L 954.099 822.413 L 955.911 824.24 L 957.724 824.24 L 960.442 826.068 L 962.255 826.068 L 964.973 827.896 L 966.785 827.896 L 968.598 828.809 L 971.316 829.723 L 973.129 829.723 L 975.847 830.637 L 977.66 831.551 L 980.378 831.551 L 982.191 832.465 L 984.909 832.465 L 986.721 833.378 L 991.252 833.378 L 993.971 834.292 L 1002.126 834.292 L 1003.939 835.206 L 1036.561 835.206 L 1037.467 834.292 L 1042.904 834.292 L 1043.811 836.12 L 1044.717 837.033 L 1045.623 837.947 L 1046.529 838.861 L 1047.435 839.775 L 1048.341 839.775 L 1049.248 841.602 L 1050.154 841.602 L 1051.06 842.516 L 1051.966 843.43 L 1052.872 843.43 L 1053.779 844.344 L 1054.685 845.258 L 1056.497 846.171 L 1056.497 847.085 L 1058.309 847.999 L 1060.122 848.913 L 1061.934 849.827 L 1063.746 849.827 L 1064.653 851.654 L 1067.371 851.654 L 1068.277 852.568 L 1070.09 852.568 L 1070.996 853.482 L 1074.621 853.482 L 1075.527 854.396 L 1080.964 854.396 L 1082.776 855.309 L 1085.495 855.309 L 1087.307 856.223 L 1092.744 856.223 L 1092.744 857.137 L 1116.305 857.137 L 1119.023 856.223 L 1122.648 856.223 L 1124.46 855.309 L 1126.273 855.309 L 1128.991 853.482 L 1132.616 853.482 L 1134.428 851.654 L 1137.147 851.654 L 1138.959 850.74 L 1140.772 850.74 L 1142.584 848.913 L 1144.396 848.913 L 1146.209 847.999 L 1148.021 847.085 L 1149.833 846.171 L 1151.646 845.258 L 1153.458 844.344 L 1154.364 844.344 L 1156.177 842.516 L 1157.989 842.516 L 1158.895 840.689 L 1160.707 840.689 L 1162.52 838.861 L 1163.426 838.861 L 1165.238 837.947 L 1167.051 836.12 L 1169.769 834.292 L 1171.582 833.378 L 1173.394 831.551 L 1175.206 830.637 L 1177.019 829.723 L 1177.019 828.809 L 1178.831 827.896 L 1179.737 826.982 L 1180.643 826.982 L 1180.643 826.068 L 1186.08 826.068 L 1188.799 826.982 L 1191.517 826.982 L 1194.236 827.896 L 1196.955 827.896 L 1199.673 828.809 L 1205.11 828.809 L 1207.829 829.723 L 1232.295 829.723 L 1234.108 828.809 L 1236.826 828.809 L 1238.639 827.896 L 1243.17 827.896 L 1244.982 826.982 L 1247.7 826.982 L 1249.513 826.068 L 1251.325 825.154 L 1253.138 825.154 L 1254.95 824.24 L 1256.762 824.24 L 1258.575 823.327 L 1260.387 822.413 L 1262.199 822.413 L 1264.012 821.499 L 1265.824 820.585 L 1267.636 820.585 L 1268.543 819.671 L 1270.355 818.758 L 1272.167 818.758 L 1273.073 817.844 L 1274.886 816.93 L 1276.698 816.016 L 1279.417 814.189 L 1281.229 814.189 L 1283.041 812.361 L 1284.854 812.361 L 1286.666 810.534 L 1287.572 810.534 L 1288.478 809.62 L 1289.385 808.706 L 1294.822 808.706 L 1295.728 809.62 L 1296.634 809.62 L 1298.446 810.534 L 1300.259 810.534 L 1302.071 811.447 L 1303.883 811.447 L 1305.696 812.361 L 1334.693 812.361 L 1336.506 811.447 L 1340.131 811.447 L 1341.943 810.534 L 1343.755 810.534 L 1345.568 809.62 L 1347.38 809.62 L 1349.192 808.706 L 1351.911 808.706 L 1352.817 807.792 L 1354.629 807.792 L 1355.536 806.878 L 1357.348 806.878 L 1357.348 805.965 L 1358.254 805.965 L 1359.16 805.051 L 1360.973 804.137 L 1361.879 803.223 L 1362.785 801.396 L 1363.691 801.396 L 1364.597 800.482 L 1364.597 799.568 L 1365.503 799.568 L 1366.41 797.74 L 1367.316 797.74 L 1367.316 795.913 L 1368.222 795.913 L 1368.222 794.999 L 1369.128 794.085 L 1370.034 792.258 L 1370.034 790.43 L 1370.941 790.43 L 1370.941 789.516 L 1371.847 788.602 L 1371.847 786.775 L 1372.753 785.861 L 1372.753 784.034 L 1373.659 782.206 L 1373.659 780.378 L 1374.565 778.551 L 1374.565 776.723 L 1375.471 774.896 L 1375.471 768.499 L 1376.378 766.671 L 1376.378 737.43 L 1375.471 734.689 L 1375.471 728.292 L 1374.565 726.465 L 1374.565 723.723 L 1373.659 721.896 L 1373.659 715.499 L 1374.565 714.585 L 1375.471 713.672 L 1376.378 712.758 L 1377.284 711.844 L 1378.19 710.016 L 1380.002 709.103 L 1380.909 707.275 L 1382.721 705.447 L 1383.627 703.62 L 1384.533 703.62 L 1384.533 701.792 L 1386.346 700.878 L 1386.346 699.965 L 1387.252 698.137 L 1388.158 697.223 L 1389.064 696.31 L 1389.064 694.482 L 1390.876 693.568 L 1390.876 691.741 L 1391.783 690.827 L 1392.689 688.999 L 1392.689 688.085 L 1394.501 686.258 L 1394.501 684.43 L 1395.407 682.603 L 1395.407 681.689 L 1396.314 679.861 L 1397.22 678.034 L 1397.22 676.206 L 1398.126 674.378 L 1398.126 672.551 L 1399.032 670.723 L 1399.032 668.896 L 1399.938 667.068 L 1399.938 663.413 L 1400.844 661.585 L 1400.844 636.913 L 1399.938 635.085 L 1399.938 633.258 L 1399.032 631.43 L 1399.032 627.775 L 1398.126 626.861 L 1398.126 625.948 L 1397.22 624.12 L 1397.22 622.292 L 1396.314 622.292 L 1396.314 620.465 L 1394.501 619.551 L 1394.501 616.81 L 1393.595 615.896 L 1393.595 614.982 L 1392.689 614.068 L 1392.689 613.154 L 1390.876 612.241 L 1390.876 609.499 L 1389.064 607.672 L 1388.158 605.844 L 1386.346 604.017 L 1385.439 602.189 L 1383.627 600.361 L 1382.721 599.448 L 1380.909 597.62 L 1380.002 596.706 L 1378.19 594.879 L 1377.284 593.051 L 1375.471 592.137 L 1373.659 591.223 L 1372.753 589.396 L 1370.941 588.482 L 1369.128 586.654 L 1368.222 586.654 L 1366.41 584.827 L 1364.597 583.913 L 1363.691 582.999 L 1361.879 581.172 L 1360.066 581.172 L 1358.254 579.344 L 1357.348 579.344 L 1355.536 577.517 L 1353.723 577.517 L 1352.817 576.603 L 1351.005 575.689 L 1349.192 574.775 L 1348.286 574.775 L 1346.474 572.948 L 1345.568 572.948 L 1343.755 572.034 L 1341.037 571.12 L 1339.224 570.206 L 1336.506 569.292 L 1334.693 568.379 L 1332.881 568.379 L 1331.069 566.551 L 1327.444 566.551 L 1326.538 565.637 L 1325.632 565.637 L 1325.632 564.723 L 1324.726 564.723 L 1324.726 561.068 L 1323.819 559.241 L 1323.819 557.413 L 1322.913 555.586 L 1322.007 553.758 L 1322.007 551.93 L 1321.101 550.103 L 1320.195 548.275 L 1320.195 547.361 L 1318.382 545.534 L 1318.382 543.706 L 1316.57 542.792 L 1316.57 540.965 L 1315.664 539.137 L 1314.758 538.223 L 1312.945 536.396 L 1311.133 535.482 L 1311.133 533.655 L 1309.321 532.741 L 1308.414 531.827 L 1307.508 529.999 L 1305.696 529.999 L 1305.696 527.258 L 1303.883 527.258 L 1302.977 526.344 L 1301.165 525.43 L 1301.165 523.603 L 1299.353 523.603 L 1298.446 521.775 L 1296.634 521.775 L 1296.634 520.861 L 1294.822 519.948 L 1293.915 519.034 L 1292.103 519.034 L 1292.103 517.206 L 1290.291 517.206 L 1289.385 516.292 L 1287.572 516.292 L 1287.572 514.465 L 1284.854 514.465 L 1283.041 512.637 L 1281.229 512.637 L 1279.417 510.81 L 1277.604 510.81 L 1276.698 509.896 L 1274.886 509.896 L 1274.886 508.982 L 1272.167 508.982 L 1272.167 508.068 L 1271.261 508.068 L 1270.355 507.155 L 1270.355 505.327 L 1269.449 501.672 L 1269.449 498.017 L 1267.636 494.361 L 1267.636 487.051 L 1265.824 482.482 L 1265.824 478.827 L 1264.918 475.172 L 1264.918 470.603 L 1263.105 466.034 L 1263.105 463.293 L 1261.293 458.724 L 1261.293 454.155 L 1259.481 450.499 L 1259.481 445.017 L 1257.668 440.448 L 1256.762 435.879 L 1255.856 431.31 L 1254.044 426.741 L 1254.044 421.258 L 1252.231 416.689 L 1250.419 412.12 L 1249.513 407.551 L 1247.7 402.068 L 1246.794 397.5 L 1244.982 392.017 L 1243.17 387.448 L 1241.357 381.965 L 1239.545 377.396 L 1238.639 371.913 L 1236.826 367.344 L 1235.014 361.862 L 1232.295 356.379 L 1230.483 351.81 L 1228.671 346.327 L 1226.858 340.844 L 1224.14 335.362 L 1222.327 330.793 L 1220.515 325.31 L 1217.797 319.827 L 1215.078 314.344 L 1213.266 308.862 L 1210.547 304.293 L 1207.829 298.81 L 1205.11 293.327 L 1202.392 287.844 L 1199.673 282.362 L 1196.955 276.879 L 1194.236 271.396 L 1191.517 266.827 L 1187.893 261.345 L 1185.174 255.862 L 1183.362 253.12 L 1182.456 250.379 L 1180.643 247.638 L 1178.831 244.896 L 1177.019 242.155 L 1175.206 240.327 L 1174.3 237.586 L 1172.488 234.845 L 1170.675 232.103 L 1168.863 229.362 L 1167.051 226.62 L 1165.238 223.879 L 1163.426 221.138 L 1161.614 219.31 L 1159.801 216.569 L 1157.989 213.827 L 1156.177 211.086 L 1154.364 208.345 L 1152.552 205.603 L 1150.739 203.776 L 1148.927 201.034 L 1146.209 198.293 L 1144.396 195.551 L 1142.584 193.724 L 1140.772 190.983 L 1138.959 188.241 L 1136.241 185.5 L 1134.428 182.758 L 1132.616 180.931 L 1129.897 178.189 L 1128.085 175.448 L 1126.273 173.62 L 1122.648 170.879 L 1122.648 168.138 L 1119.929 166.31 L 1118.117 163.569 L 1116.305 160.827 L 1113.586 159 L 1110.868 156.258 L 1109.055 153.517 L 1106.337 151.689 L 1104.524 148.948 L 1101.806 147.121 L 1099.994 144.379 L 1097.275 142.552 L 1094.556 139.81 L 1091.838 137.983 L 1090.026 135.241 L 1087.307 133.414 L 1084.589 130.672 L 1081.87 128.845 L 1080.058 126.103 L 1077.339 124.276 L 1074.621 121.534 L 1071.902 119.707 L 1069.184 116.965 L 1066.465 115.138 L 1063.746 113.31 L 1061.028 110.569 L 1058.309 108.741 L 1055.591 106.914 L 1052.872 105.086 L 1050.154 102.345 L 1047.435 100.517 L 1044.717 98.69 L 1041.092 96.862 L 1038.374 94.121 L 1035.655 92.293 L 1032.936 90.465 L 1029.312 88.638 L 1026.593 86.81 L 1023.875 84.983 L 1020.25 83.155 L 1017.531 81.327 L 1014.813 79.5 L 1011.188 77.672 L 1008.47 75.845 L 1004.845 74.017 L 1002.126 72.19 L 998.502 70.362 L 995.783 68.534 L 992.158 66.707 L 988.534 64.879 L 985.815 63.052 L 982.191 61.224 L 978.566 60.31 L 975.847 58.483 L 972.223 56.655 L 968.598 54.828 L 964.973 53.914 L 961.348 52.086 L 958.63 50.259 L 955.005 49.345 L 951.38 47.517 L 947.756 45.69 L 944.131 44.776 L 940.506 42.948 L 936.882 42.034 L 933.257 40.207 L 929.632 39.293 L 925.101 37.465 L 921.477 37.465 L 917.852 35.638 L 914.227 33.81 L 910.603 33.81 L 906.072 31.983 L 902.447 30.155 L 898.822 30.155 L 894.291 28.328 L 890.667 27.414 L 887.042 26.5 L 882.511 25.586 L 878.886 24.672 L 874.355 22.845 L 870.731 22.845 L 866.2 21.017 L 861.669 21.017 L 858.044 20.103 L 853.513 19.19 L 848.982 18.276 L 845.358 17.362 L 840.827 17.362 L 835.39 15.534 L 830.859 15.534 L 827.234 14.621 L 822.703 14.621 L 818.172 13.707 L 813.642 12.793 L 809.111 12.793 L 804.58 11.879 L 800.049 11.879 L 795.518 10.966 L 790.987 10.966 L 786.456 10.052 L 776.488 10.052 L 771.957 9.138 L 752.928 9.138 L 747.491 8.224 L 696.745 8.224 L 692.214 9.138 L 681.34 9.138 L 676.809 10.052 L 671.372 10.052 L 666.841 10.966 L 660.498 10.966 L 655.967 11.879 L 651.436 11.879 L 646.905 12.793 L 642.374 13.707 L 636.937 13.707 L 633.312 15.534 L 627.875 15.534 L 623.344 16.448 L 618.813 16.448 L 614.283 18.276 L 608.845 18.276 L 604.315 20.103 L 599.784 20.103 L 595.253 21.931 L 591.628 21.931 L 587.097 23.759 L 582.566 23.759 L 578.035 25.586 L 573.505 26.5 L 569.88 27.414 L 565.349 29.241 L 560.818 30.155 L 557.193 31.069 L 552.662 32.897 L 548.132 33.81 L 544.507 34.724 L 539.976 36.552 L 536.351 37.465 L 532.727 39.293 L 528.196 40.207 L 524.571 42.034 L 520.04 42.948 L 516.415 44.776 L 512.791 46.603 L 509.166 47.517 L 505.541 49.345 L 501.01 51.172 L 497.386 52.086 L 493.761 53.914 L 490.136 55.741 L 486.512 57.569 L 482.887 58.483 L 479.262 60.31 L 475.637 62.138 L 472.919 63.965 L 469.294 65.793 L 465.669 67.621 L 462.045 69.448 L 458.42 71.276 L 455.702 73.103 L 452.077 74.931 L 448.452 76.759 L 445.734 78.586 L 442.109 80.414 L 439.39 82.241 L 435.766 84.069 L 433.047 86.81 L 429.422 88.638 L 426.704 90.465 L 423.079 92.293 L 420.361 94.121 L 417.642 96.862 L 414.017 98.69 L 411.299 100.517 L 408.58 102.345 L 405.862 105.086 L 402.237 106.914 L 399.519 108.741 L 396.8 111.483 L 394.081 113.31 L 391.363 116.052 L 388.644 117.879 L 385.926 119.707 L 383.207 122.448 L 380.489 124.276 L 377.77 127.017 L 375.052 128.845 L 372.333 131.586 L 369.615 133.414 L 367.802 136.155 L 365.084 137.983 L 362.365 140.724 L 359.647 142.552 L 357.834 145.293 L 355.116 148.034 L 352.397 149.862 L 350.585 152.603 L 347.866 154.431 L 345.148 157.172 L 343.336 159.914 L 340.617 161.741 L 338.805 164.483 L 336.086 167.224 L 334.274 169.052 L 332.461 171.793 L 329.743 174.534 L 327.931 176.362 L 326.118 179.103 L 323.4 181.845 L 321.587 183.672 L 319.775 186.414 L 317.056 189.155 L 315.244 191.896 L 313.432 193.724 L 311.619 196.465 L 309.807 199.207 L 307.995 201.034 L 306.182 203.776 L 303.464 206.517 L 301.651 209.258 L 299.839 211.086 L 298.027 213.827 L 296.214 216.569 L 295.308 219.31 L 293.496 221.138 L 291.683 223.879 L 289.871 226.62 L 288.059 229.362 L 286.246 232.103 L 284.434 233.931 L 283.528 236.672 L 281.715 239.414 L 279.903 242.155 L 277.185 246.724 L 273.56 252.207 L 270.841 256.776 L 268.123 261.345 L 265.404 266.827 L 262.686 271.396 L 259.967 276.879 L 257.249 281.448 L 254.53 286.931 L 252.718 291.5 L 249.999 296.069 L 248.187 300.638 L 245.468 306.12 L 243.656 310.689 L 241.844 315.258 L 239.125 319.827 L 237.313 324.396 L 235.5 328.965 L 233.688 333.534 L 231.876 338.103 L 230.063 342.672 L 228.251 347.241 L 227.345 350.896 L 225.532 355.465 L 223.72 360.034 L 222.814 363.689 L 221.002 367.344 L 221.002 371.913 L 219.189 375.569 L 217.377 379.224 L 217.377 382.879 L 215.565 386.534 L 214.658 390.189 L 213.752 393.844 L 212.846 397.5 L 211.94 401.155 L 211.034 403.896 L 210.127 407.551 L 209.221 410.293 L 209.221 413.034 L 207.409 415.775 L 207.409 421.258 L 205.597 426.741 L 204.69 431.31 L 203.784 434.965 L 203.784 438.62 L 202.878 441.362 L 202.878 444.103 L 201.972 446.844 L 201.972 449.586 L 201.066 449.586 L 201.066 450.499 Z " fill-rule="evenodd" fill="rgb(207,207,207)"/><path d=" M 975.847 603.103 C 966.785 596.706 959.536 488.879 1063.746 520.861 C 1056.497 511.724 1139.865 448.672 1186.08 529.086 C 1186.08 529.086 1258.575 499.844 1293.009 602.189 C 1303.883 584.827 1422.593 629.603 1329.256 707.275 C 1344.661 713.672 1371.847 813.275 1275.792 773.068 C 1275.792 773.068 1215.984 835.206 1175.206 778.551 C 1184.268 791.344 1096.369 872.671 1044.717 794.085 C 1047.435 820.585 898.822 798.654 942.319 705.447 C 942.319 705.447 879.792 615.896 975.847 603.103 Z  M 497.386 703.62 C 506.447 710.016 507.354 820.585 406.768 784.034 C 413.111 793.171 327.931 853.482 286.246 770.327 C 286.246 770.327 212.846 796.827 183.848 690.827 C 172.068 708.189 56.984 657.93 153.038 582.086 C 137.633 574.775 114.979 472.43 207.409 518.12 C 207.409 518.12 270.841 456.896 307.995 515.379 C 299.839 502.586 389.551 423.999 436.672 506.241 C 435.766 478.827 581.66 507.155 534.539 600.361 C 534.539 600.361 591.628 694.482 497.386 703.62 Z  M 497.386 703.62 L 495.573 703.62 L 497.386 703.62 Z  M 975.847 603.103 L 974.941 603.103 L 975.847 603.103 Z " fill-rule="evenodd" fill="rgb(255,255,255)"/><path d=" M 402.237 434.965 C 402.237 434.965 334.274 169.965 793.706 216.569 C 1110.868 249.465 1076.433 509.896 1076.433 509.896 C 1091.838 488.879 1119.023 481.568 1135.334 487.965 C 1160.707 499.844 1179.737 529.086 1205.11 526.344 C 1219.609 524.517 1215.078 529.086 1224.14 525.43 C 1224.14 525.43 1196.955 47.517 732.992 44.776 C 257.249 41.121 246.375 496.189 246.375 496.189 C 261.78 499.844 266.31 489.793 278.997 490.706 C 288.059 490.706 296.214 509.896 306.182 508.068 C 317.963 505.327 332.461 482.482 342.429 480.655 C 368.302 475.576 390.385 458.706 402.237 434.965 Z " fill-rule="evenodd" fill="rgb(236,128,158)"/><path d=" M 404.956 472.43 C 404.956 472.43 335.18 237.586 794.612 285.103 C 1111.774 318 1080.058 502.586 1080.058 502.586 L 1128.991 487.965 L 1170.675 511.724 C 1170.675 511.724 1166.144 122.448 732.086 112.396 C 298.933 103.258 297.121 507.155 297.121 507.155 L 374.146 465.12 L 404.049 472.43 L 404.956 472.43 Z " fill-rule="evenodd" fill="rgb(236,226,128)"/><path d=" M 404.956 479.741 C 404.956 479.741 443.015 280.534 763.802 287.844 C 1083.682 294.241 1070.996 511.724 1070.996 511.724 L 1122.648 489.793 C 1122.648 489.793 1119.023 178.189 732.992 171.793 C 368.709 165.396 356.928 476.999 356.928 476.999 L 384.114 470.603 L 404.956 479.741 Z " fill-rule="evenodd" fill="rgb(128,236,135)"/><path d=" M 454.795 494.361 C 454.795 494.361 451.171 304.293 785.55 360.034 C 984.909 392.931 1032.936 518.12 1032.936 518.12 L 1061.028 515.379 L 1079.151 505.327 C 1079.151 505.327 1045.623 248.551 737.523 239.414 C 429.422 230.276 402.237 472.43 402.237 472.43 L 432.141 500.758 L 454.795 493.448 L 454.795 494.361 Z " fill-rule="evenodd" fill="rgb(128,233,236)"/><path d=" M 474.731 499.844 C 474.731 499.844 502.823 351.81 770.145 383.793 C 933.257 403.896 987.628 526.344 987.628 526.344 L 1045.623 512.637 C 1045.623 512.637 989.44 310.689 737.523 304.293 C 483.793 298.81 434.859 505.327 434.859 505.327 C 447.459 500.051 461.279 498.467 474.731 500.758 L 474.731 499.844 Z " fill-rule="evenodd" fill="rgb(209,128,236)"/><path d=" M 236.407 488.879 C 241.502 451.401 249.686 414.417 260.873 378.31 C 286.994 293.171 333.705 215.921 396.8 153.517 C 445.695 108.024 504.76 75.109 568.974 57.569 C 712.046 18.169 864.691 36.182 994.877 107.827 C 1051.742 143.688 1099.772 192.123 1135.334 249.465 C 1169.648 301.93 1195.35 359.63 1211.453 420.344 C 1220.951 453.315 1228.217 486.898 1233.202 520.861 L 1233.202 519.948 L 1233.202 520.861 C 1240.649 523.037 1247.69 526.433 1254.044 530.913 C 1258.853 534.202 1263.398 537.869 1267.636 541.879 C 1281.229 555.586 1290.291 572.948 1297.54 590.31 L 1297.54 591.223 L 1299.353 591.223 L 1316.57 592.137 C 1335.805 596.784 1352.806 608.106 1364.597 624.12 C 1368.961 630.696 1371.752 638.203 1372.753 646.051 C 1372.947 648.484 1372.947 650.928 1372.753 653.361 C 1371.108 666.758 1365.771 679.421 1357.348 689.913 L 1353.723 693.568 C 1350.078 698.087 1346.142 702.361 1341.943 706.361 L 1341.037 707.275 L 1341.037 709.103 L 1342.849 711.844 C 1350.201 725.535 1353.355 741.119 1351.911 756.62 C 1351.841 767.136 1346.789 776.985 1338.318 783.12 L 1334.693 784.947 C 1324.908 789.949 1313.76 791.555 1302.977 789.516 C 1295.202 788.293 1287.597 786.146 1280.323 783.12 L 1278.51 783.12 L 1278.51 782.206 C 1276.698 782.206 1275.792 783.12 1275.792 784.034 L 1266.73 791.344 C 1262.68 794.356 1258.442 797.103 1254.044 799.568 C 1241.01 807.652 1225.82 811.482 1210.547 810.534 C 1204.2 809.415 1198.077 807.254 1192.424 804.137 C 1187.17 801.83 1182.284 798.751 1177.925 794.999 L 1177.019 795.913 C 1168.921 806.443 1158.736 815.157 1147.115 821.499 C 1128.5 833.266 1106.279 837.812 1084.589 834.292 C 1068.711 830.253 1054.658 820.913 1044.717 807.792 L 1043.811 807.792 L 1041.998 808.706 C 1036.23 811.033 1030.087 812.272 1023.875 812.361 C 1009.952 812.472 996.128 809.994 983.097 805.051 C 977.737 803.128 972.577 800.679 967.692 797.74 C 953.936 791.052 942.319 780.604 934.163 767.585 C 928.294 757.026 925.765 744.91 926.914 732.861 C 926.914 723.723 929.632 714.585 933.257 707.275 L 931.445 702.706 L 929.632 699.965 C 927.638 696.404 925.823 692.744 924.195 688.999 L 920.57 680.775 L 918.758 674.378 C 914.232 661.45 913.601 647.461 916.946 634.172 C 920.862 622.007 929.309 611.851 940.506 605.844 C 947.883 601.671 955.818 598.593 964.067 596.706 L 964.067 592.137 C 962.079 574.648 964.9 556.945 972.223 540.965 C 974.035 535.482 977.66 531.827 981.284 527.258 C 981.284 526.344 981.284 525.43 983.097 525.43 C 964.327 495.229 940.396 468.621 912.415 446.844 C 869.139 413.892 817.053 394.793 762.896 392.017 C 726.437 388.34 689.706 388.34 653.248 392.017 L 637.843 394.758 C 598.832 401.212 561.884 416.867 530.008 440.448 C 512.313 455.178 497.552 473.164 486.512 493.448 C 493.716 495.859 500.691 498.917 507.354 502.586 C 525.521 511.19 540 526.115 548.132 544.62 L 550.85 556.499 L 550.85 572.948 C 549.944 582.086 547.225 591.223 543.601 599.448 L 545.413 604.017 L 546.319 606.758 C 550.218 615.26 553.254 624.139 555.381 633.258 C 559.462 646.967 559.462 661.583 555.381 675.292 C 552.854 682.194 548.829 688.438 543.601 693.568 C 539.846 697.233 535.57 700.313 530.914 702.706 C 523.735 706.188 516.11 708.648 508.26 710.016 L 508.26 715.499 C 509.509 733.836 505.747 752.167 497.386 768.499 C 491.201 779.685 481.693 788.634 470.2 794.085 C 453.852 799.826 436.167 800.463 419.454 795.913 L 412.205 793.171 L 411.299 794.999 L 409.486 794.999 C 390.902 812.562 366.059 821.791 340.617 820.585 C 325.407 819.159 311.081 812.738 299.839 802.309 C 292.686 795.664 286.575 787.961 281.715 779.465 L 279.903 779.465 L 277.185 780.378 C 269.972 781.416 262.649 781.416 255.436 780.378 C 238.898 777.62 223.661 769.618 211.94 757.534 C 197.176 742.075 186.3 723.274 180.224 702.706 L 180.224 701.792 L 174.787 701.792 C 165.31 700.712 156.102 697.927 147.601 693.568 C 134.357 687.32 123.072 677.52 114.979 665.241 C 109.856 656.413 107.635 646.177 108.636 635.999 C 110.448 622.292 117.697 608.585 125.853 599.448 L 129.478 593.965 C 133.298 589.307 137.545 585.024 142.164 581.172 L 142.164 579.344 L 140.352 576.603 C 133.697 562.371 131.184 546.528 133.102 530.913 C 133.102 525.43 134.915 521.775 137.633 517.206 C 139.961 512.241 143.368 507.868 147.601 504.413 C 149.031 503.37 150.547 502.453 152.132 501.672 C 161.194 498.017 171.162 498.017 180.224 499.844 L 184.755 499.844 L 190.192 501.672 C 195.804 503.318 201.262 505.458 206.503 508.068 L 207.409 508.068 L 211.034 505.327 L 214.658 502.586 L 221.908 498.017 L 228.251 493.448 L 237.313 488.879 L 236.407 488.879 Z  M 993.971 536.396 C 989.662 541.205 986.282 546.784 984.003 552.844 C 979.423 564.438 977.864 577.022 979.472 589.396 L 982.191 607.672 L 982.191 608.585 L 980.378 609.499 C 979.256 610.083 978.016 610.395 976.753 610.413 L 974.941 610.413 L 971.316 611.327 C 964.119 612.52 957.111 614.671 950.474 617.723 C 946.889 619.408 943.538 621.558 940.506 624.12 C 937.553 626.69 935.096 629.788 933.257 633.258 C 929.966 642.329 929.337 652.163 931.445 661.585 L 932.351 667.068 C 934.798 674.606 937.828 681.939 941.413 688.999 L 948.662 700.878 L 951.38 705.447 L 948.662 710.93 L 946.85 713.672 C 944.237 720.389 942.707 727.484 942.319 734.689 C 941.684 742.875 943.25 751.082 946.85 758.447 C 952.287 767.585 961.348 776.723 970.41 782.206 L 975.847 784.947 C 991.595 792.894 1008.985 796.965 1026.593 796.827 L 1028.406 796.827 L 1034.749 794.999 L 1051.06 789.516 L 1053.779 793.171 L 1056.497 795.913 C 1060.122 801.396 1065.559 805.965 1070.09 810.534 C 1077.354 815.605 1085.769 818.748 1094.556 819.671 C 1107.243 821.499 1121.742 817.844 1132.616 811.447 C 1142.22 806.692 1151.075 800.534 1158.895 793.171 L 1177.019 773.982 L 1196.955 789.516 C 1200.88 791.788 1205.176 793.335 1209.641 794.085 C 1220.519 795.527 1231.576 793.615 1241.357 788.602 L 1245.888 785.861 C 1251.019 783.324 1255.877 780.262 1260.387 776.723 L 1273.98 763.93 C 1282.235 767.52 1290.71 770.572 1299.353 773.068 L 1311.133 773.982 C 1316.57 773.982 1321.101 773.982 1326.538 772.154 C 1328.233 771.189 1329.763 769.955 1331.069 768.499 C 1334.574 764.368 1336.782 759.278 1337.412 753.878 L 1337.412 741.999 C 1335.979 734.266 1333.219 726.844 1329.256 720.068 L 1327.444 717.327 L 1325.632 715.499 L 1323.819 701.792 C 1325.632 701.792 1326.538 699.965 1328.35 699.051 L 1331.975 695.396 L 1338.318 688.999 C 1342.253 684.368 1345.886 679.485 1349.192 674.378 C 1355.171 666.598 1357.784 656.714 1356.442 646.965 L 1356.442 642.396 C 1353.652 633.917 1348.256 626.556 1341.037 621.379 L 1337.412 619.551 L 1331.975 615.896 C 1327.435 613.144 1322.562 610.994 1317.476 609.499 C 1306.889 608.419 1296.316 607.201 1285.76 605.844 L 1283.948 600.361 L 1282.135 594.879 C 1276.287 578.735 1267.008 564.077 1254.95 551.93 C 1237.704 535.02 1212.63 529.05 1189.705 536.396 L 1182.456 539.137 L 1177.925 530.913 C 1173.525 523.69 1168.02 517.213 1161.614 511.724 C 1148.818 500.118 1131.452 495.067 1114.492 498.017 C 1103.485 499.658 1092.968 503.713 1083.682 509.896 C 1081.16 511.577 1078.739 513.408 1076.433 515.379 L 1061.028 529.086 L 1056.497 528.172 L 1051.966 526.344 L 1043.811 525.43 L 1037.467 524.517 C 1025.703 522.74 1013.682 524.654 1003.033 529.999 C 1000.799 530.993 998.673 532.218 996.689 533.655 L 993.971 537.31 L 993.971 536.396 Z  M 243.656 502.586 L 241.844 502.586 L 237.313 505.327 C 228.5 510.469 220.292 516.6 212.846 523.603 L 208.315 527.258 L 200.16 523.603 C 191.428 519.636 182.32 516.574 172.974 514.465 C 167.537 514.465 162.1 514.465 157.569 516.292 C 156.641 516.524 155.732 516.83 154.851 517.206 C 149.414 520.861 147.601 527.258 145.789 533.655 C 145.539 536.39 145.539 539.143 145.789 541.879 L 145.789 547.361 L 146.695 553.758 L 150.32 567.465 L 156.663 588.482 L 153.038 592.137 C 146.658 597.554 140.606 603.351 134.915 609.499 L 132.196 613.154 C 125.853 622.292 121.322 631.43 122.228 642.396 L 122.228 647.879 L 125.853 657.016 C 127.665 660.672 130.384 663.413 134.009 666.154 C 137.633 671.637 143.977 674.378 148.507 678.034 C 154.851 683.516 190.192 690.827 190.192 688.085 L 192.004 694.482 L 193.816 699.965 L 196.535 708.189 C 201.066 718.241 205.597 728.292 211.94 736.516 C 219.015 746.489 228.331 754.63 239.125 760.275 C 247.701 764.018 256.966 765.887 266.31 765.758 C 271.854 765.688 277.355 764.763 282.622 763.016 L 288.965 760.275 L 293.496 769.413 L 295.308 773.068 C 298.933 779.465 304.37 785.861 308.901 791.344 L 322.493 800.482 C 332.638 805.369 344.035 806.965 355.116 805.051 C 362.365 805.051 368.709 802.309 375.052 799.568 C 381.395 797.74 407.674 776.723 408.58 775.809 C 409.486 774.896 411.299 777.637 413.111 777.637 L 417.642 779.465 L 423.985 781.292 L 430.329 781.292 C 442.109 784.034 454.795 784.034 465.669 778.551 C 470.548 775.738 474.853 772.017 478.356 767.585 C 481.332 763.669 483.771 759.366 485.605 754.792 C 488.315 748.371 490.145 741.608 491.042 734.689 C 491.949 729.206 490.136 699.965 490.136 699.965 L 489.23 698.137 C 491.318 695.898 494.383 694.868 497.386 695.396 L 501.01 695.396 C 507.87 694.479 514.575 692.635 520.946 689.913 C 526.622 687.555 531.611 683.782 535.445 678.947 L 538.164 675.292 C 542.747 665.952 544.026 655.312 541.788 645.137 L 541.788 640.568 C 538.836 627.997 533.943 615.971 527.29 604.93 L 524.571 600.361 L 527.29 594.879 C 530.803 587.985 533.248 580.589 534.539 572.948 C 535.437 565.589 534.82 558.123 532.727 551.017 L 530.914 545.534 C 524.41 533.499 514.245 523.889 501.917 518.12 C 496.222 514.42 490.145 511.356 483.793 508.982 C 474.422 505.824 464.665 503.979 454.795 503.499 C 452.355 503.557 449.926 503.863 447.546 504.413 L 429.422 509.896 L 426.704 506.241 C 422.373 499.231 416.851 493.044 410.393 487.965 C 403.894 482.419 396.095 478.643 387.738 476.999 C 373.224 475.32 358.567 478.533 346.054 486.137 C 339.477 489.196 333.373 493.198 327.931 498.017 L 304.37 519.034 C 296.074 512.29 287.29 506.181 278.091 500.758 C 268.41 497.345 257.868 497.345 248.187 500.758 L 243.656 502.586 Z  M 1220.515 518.12 C 1211.102 455.961 1192.468 395.584 1165.238 339.017 C 1139.969 283.848 1106.34 232.981 1065.559 188.241 C 995.637 113.596 901.369 66.877 800.049 56.655 C 777.394 53.914 754.74 52.086 731.179 52.086 L 723.93 52.086 C 635.766 50.04 548.703 72.146 472.013 116.052 C 444.325 132.992 418.767 153.242 395.894 176.362 C 315.697 259.845 265.326 367.863 252.718 483.396 C 259.91 482.096 267.274 482.096 274.466 483.396 C 280.873 484.276 287.037 486.452 292.59 489.793 C 298.027 492.534 301.651 496.189 305.276 498.93 L 307.088 498.93 C 312.324 491.193 319.117 484.655 327.024 479.741 C 342.429 468.775 360.553 461.465 379.583 461.465 L 381.395 461.465 C 397.092 461.603 412.213 467.443 423.985 477.913 C 429.422 481.568 433.047 487.051 437.578 491.62 L 438.484 491.62 C 444.196 489.107 450.377 487.86 456.608 487.965 C 461.139 487.965 465.669 487.965 471.107 489.793 L 480.168 473.344 L 482.887 469.689 C 495.955 450.267 512.56 433.523 531.82 420.344 C 570.744 394.288 615.705 378.86 662.31 375.569 C 726.494 370.015 791.136 377.154 852.607 396.586 C 924.195 426.741 966.785 480.655 988.534 519.034 L 990.346 519.034 C 994.776 515.625 999.656 512.857 1004.845 510.81 C 1022.126 506.688 1040.122 506.688 1057.403 510.81 L 1059.216 510.81 L 1059.216 508.982 C 1072.566 494.798 1090.002 485.208 1109.055 481.568 C 1131.02 476.87 1153.892 482.975 1170.675 498.017 C 1178.831 504.413 1184.268 511.724 1188.799 519.034 L 1195.142 519.034 C 1199.611 518.023 1204.159 517.412 1208.735 517.206 L 1221.421 517.206 L 1220.515 518.12 Z " fill-rule="evenodd" fill="rgb(67,50,49)"/></g></g></svg>