<?xml version="1.0" encoding="UTF-8" standalone="no"?><!-- Generator: Gravit.io --><svg xmlns="http://www.w3.org/2000/svg" xmlns:xlink="http://www.w3.org/1999/xlink" style="isolation:isolate" viewBox="0 0 1024 768" width="1024pt" height="768pt"><defs><clipPath id="_clipPath_uSyMcX0C9H9bidaDbncUYdhWKJRNPswD"><rect width="1024" height="768"/></clipPath></defs><g clip-path="url(#_clipPath_uSyMcX0C9H9bidaDbncUYdhWKJRNPswD)"><g><path d=" M 456.305 767.808 C 454.829 767.808 453.352 768 451.876 768 C 446.604 768 441.121 767.615 436.059 767.038 C 412.675 764.411 390.514 756.031 371.949 742.795 C 340.628 720.431 322.347 686.15 322.39 649.864 C 322.39 613.884 339.894 581.753 367.731 560.204 L 367.731 683.15 C 367.731 728.75 407.167 765.691 456.305 767.808 L 456.305 767.808 Z  M 728.142 649.864 C 728.12 605.827 701.258 565.456 658.447 545.118 C 615.635 524.78 563.979 527.85 524.422 553.085 C 489.807 575.193 469.185 611.314 469.169 649.864 C 469.169 651.596 469.169 653.327 469.38 655.059 C 472.383 718.21 529.372 767.998 598.655 768 C 601.186 768 603.506 768 606.037 767.808 C 620.588 767.038 634.718 764.152 647.582 759.342 C 661.922 753.955 674.998 746.451 686.175 737.023 C 712.9 714.598 728.119 682.991 728.142 649.864 L 728.142 649.864 Z " fill="rgb(255,198,38)"/><path d=" M 371.949 742.795 C 390.085 755.686 412.018 764.344 436.059 767.038 L 436.059 768 L 299.192 768 C 299.192 768 298.348 742.795 333.778 742.795 L 371.949 742.795 Z  M 518.728 742.795 L 503.755 742.795 C 468.326 742.795 469.169 768 469.169 768 L 606.037 768 L 606.037 767.808 C 603.506 768 601.186 768 598.655 768 C 568.498 768 540.872 758.572 518.728 742.795 Z  M 308.26 169.047 C 332.091 148.844 350.86 159.619 353.812 161.543 C 367.942 173.664 378.486 189.249 385.868 204.834 C 393.038 218.879 383.759 235.426 367.098 237.927 C 358.03 239.274 346.22 239.274 331.88 236.003 C 287.593 225.998 282.321 191.173 308.26 169.047 Z  M 340.526 204.834 C 340.526 212.53 347.486 218.879 355.921 218.879 C 364.357 218.879 371.316 212.53 371.316 204.834 C 371.316 197.138 364.357 190.788 355.921 190.788 C 347.486 190.788 340.526 197.138 340.526 204.834 Z  M 488.782 205.219 C 496.585 189.057 507.129 172.895 521.892 160.581 C 528.007 157.502 544.879 151.73 565.546 169.239 C 591.485 191.173 586.213 225.998 541.926 236.003 C 528.851 239.082 517.885 239.274 509.027 238.312 C 491.945 236.196 482.033 219.649 488.782 205.219 L 488.782 205.219 Z  M 503.122 204.834 C 503.122 212.53 510.082 218.879 518.517 218.879 C 526.953 218.879 533.912 212.53 533.912 204.834 C 533.912 197.138 526.953 190.788 518.517 190.788 C 510.082 190.788 503.122 197.138 503.122 204.834 Z  M 613.418 225.806 L 613.418 224.459 L 613.418 225.806 Z  M 427.202 386.848 C 430.365 387.04 433.74 387.04 436.903 387.04 L 437.536 387.04 C 440.488 387.04 443.44 387.04 446.393 386.848 C 476.55 385.501 502.49 378.574 524.422 368.569 C 541.083 361.066 555.423 352.023 567.655 342.403 C 607.091 311.425 624.806 275.831 624.806 275.831 C 612.574 271.021 610.676 254.474 610.676 254.474 L 610.465 254.666 C 610.465 254.474 610.465 254.089 610.676 253.897 C 609.833 253.704 592.54 249.856 559.43 257.168 C 538.763 261.785 517.252 275.831 504.388 285.451 C 503.333 288.914 502.068 291.8 500.803 293.532 C 493.421 304.691 479.292 311.041 466.638 314.119 L 464.319 331.82 C 463.897 334.764 461.413 337.109 458.203 337.592 L 445.339 339.516 C 441.121 340.286 437.325 337.4 436.692 333.744 C 436.059 337.592 432.263 340.286 428.256 339.516 L 415.392 337.592 C 412.229 337.015 409.698 334.706 409.276 331.82 L 406.957 314.119 C 394.303 311.041 379.963 304.691 372.16 293.34 C 370.683 291.031 368.785 286.605 367.942 281.218 C 353.18 272.175 332.723 261.208 313.743 256.783 C 281.477 249.664 263.13 254.282 263.13 254.282 C 263.13 254.282 256.592 226.383 263.973 192.135 C 259.221 212.729 258.934 233.972 263.13 254.666 C 263.13 254.666 261.232 271.213 249 276.023 C 249 276.023 284.64 347.982 367.731 376.073 C 377.643 379.536 388.398 382.23 399.786 384.154 C 408.433 385.501 417.712 386.463 427.202 386.848 L 427.202 386.848 Z " fill="rgb(247,225,205)"/><path d=" M 340.526 204.834 C 340.526 197.138 347.486 190.788 355.921 190.788 C 364.357 190.788 371.316 197.138 371.316 204.834 C 371.316 212.53 364.357 218.879 355.921 218.879 C 347.486 218.879 340.526 212.53 340.526 204.834 Z  M 518.517 218.879 C 526.953 218.879 533.912 212.53 533.912 204.834 C 533.912 197.138 526.953 190.788 518.517 190.788 C 510.082 190.788 503.122 197.138 503.122 204.834 C 503.122 212.53 510.082 218.879 518.517 218.879 Z " fill="rgb(143,108,63)"/><path d=" M 367.731 422.443 L 367.731 490.554 C 342.846 497.288 320.913 501.713 320.913 501.713 L 320.703 501.521 C 320.07 499.404 314.798 484.589 295.818 480.164 L 295.607 479.971 C 337.363 468.812 359.928 436.103 367.731 422.443 L 367.731 422.443 Z  M 295.818 480.164 C 293.287 479.587 290.334 479.202 287.171 479.009 C 259.544 477.855 252.374 496.326 252.374 496.326 L 320.703 501.713 L 320.703 501.521 C 320.07 499.404 314.587 484.589 295.818 480.164 L 295.818 480.164 Z  M 771.163 321.43 C 771.163 342.403 783.606 360.488 802.164 370.301 C 805.328 372.418 813.341 377.035 821.777 382.615 L 822.621 382.615 C 858.472 382.615 887.364 356.256 887.364 323.547 C 887.364 293.724 863.111 269.097 831.9 265.056 C 798.186 265.581 771.158 290.668 771.163 321.43 L 771.163 321.43 Z  M 524.422 428.022 C 524.844 427.253 525.477 426.483 525.898 425.713 C 527.164 422.443 528.851 419.364 530.96 416.478 L 530.96 416.286 C 538.341 406.473 550.783 400.124 564.913 400.124 C 587.689 400.124 606.247 417.055 606.247 437.835 C 606.247 453.612 595.703 467.08 580.519 472.66 C 565.757 479.394 543.824 485.936 524.422 491.131 L 524.422 552.892 C 563.979 527.658 615.635 524.587 658.447 544.925 C 701.258 565.263 728.12 605.635 728.142 649.672 C 728.142 684.112 711.903 715.089 686.175 736.638 C 734.679 705.469 766.524 654.097 766.524 595.798 C 766.524 539.232 740.584 485.359 695.032 453.227 C 685.331 446.493 675.841 439.374 667.195 431.678 L 614.683 384.731 L 567.655 342.403 C 555.423 352.023 541.083 361.066 524.422 368.569 L 524.422 428.022 L 524.422 428.022 Z  M 503.755 742.795 L 518.728 742.795 C 489.038 721.518 471.013 689.472 469.38 655.059 C 451.782 656.855 434.173 651.771 420.911 641.065 C 407.649 630.359 399.975 615.032 399.786 598.877 L 399.786 383.962 C 388.398 382.038 377.643 379.344 367.731 375.881 L 367.731 683.15 C 367.731 728.75 407.167 765.691 456.305 767.808 C 457.781 767.808 459.257 768 460.733 768 L 469.169 768 C 469.169 768 468.326 742.795 503.755 742.795 Z  M 581.573 472.468 C 581.152 472.66 580.941 472.852 580.519 472.852 C 596.042 467.078 606.205 453.322 606.247 438.027 C 606.247 417.248 587.689 400.316 564.913 400.316 C 550.783 400.316 538.552 406.665 530.96 416.478 C 532.858 417.44 613.207 457.652 581.573 472.468 L 581.573 472.468 Z  M 525.898 425.713 C 528.851 420.711 530.538 417.248 530.96 416.478 C 528.851 419.364 527.164 422.443 525.898 425.713 Z  M 455.672 479.971 L 455.883 480.164 C 474.652 484.589 479.924 499.404 480.768 501.521 L 480.979 501.713 C 480.979 501.713 501.013 497.48 524.422 491.323 C 544.035 486.128 565.757 479.587 580.519 472.852 C 580.941 472.66 581.152 472.468 581.573 472.468 C 613.207 457.652 532.858 417.44 530.96 416.478 C 529.062 415.516 530.96 416.478 530.96 416.67 C 530.538 417.44 529.062 420.903 525.898 425.906 C 525.477 426.675 525.055 427.445 524.422 428.215 C 514.51 443.607 492.578 470.159 455.672 479.971 L 455.672 479.971 Z  M 455.883 480.164 C 453.352 479.587 450.4 479.202 447.237 479.009 C 419.61 477.855 412.44 496.326 412.44 496.326 L 480.768 501.713 L 480.768 501.521 C 480.135 499.404 474.652 484.589 455.883 480.164 L 455.883 480.164 Z  M 263.973 192.135 C 267.137 177.32 273.041 161.35 283.164 145.958 L 282.953 145.958 C 282.953 145.958 289.913 76.115 306.995 46.293 C 319.437 24.744 330.614 11.275 339.472 2.232 C 343.268 -1.808 350.438 -0.076 351.914 5.118 C 354.656 15.316 353.812 29.939 355.921 39.174 C 359.295 53.027 363.724 67.65 368.153 77.27 C 389.242 69.189 412.44 64.571 436.903 64.571 C 461.577 64.571 484.986 69.381 506.286 77.655 C 510.714 68.035 515.354 53.219 518.517 39.366 C 520.837 30.131 519.783 15.508 522.524 5.311 C 523.79 0.116 530.96 -1.616 534.967 2.425 C 543.824 11.275 555.212 24.936 567.444 46.485 C 584.315 76.308 591.485 146.151 591.485 146.151 L 590.22 145.189 C 608.989 173.279 613.207 203.102 613.418 224.459 L 613.418 231.578 C 613.418 232.347 613.418 233.309 613.207 234.079 C 612.574 246.201 610.676 253.897 610.676 253.897 C 609.833 253.704 592.54 249.856 559.43 257.168 C 538.763 261.785 517.252 275.831 504.388 285.451 C 508.395 271.405 506.286 247.163 465.162 247.163 L 464.74 247.163 C 463.264 246.585 461.366 246.393 458.203 246.393 L 415.392 246.393 C 412.651 246.393 410.753 246.585 409.487 246.97 L 408.011 246.97 C 370.683 246.97 365.833 266.98 367.942 281.218 C 353.18 272.175 332.723 261.208 313.743 256.783 C 281.477 249.664 263.13 254.282 263.13 254.282 C 263.13 254.282 256.592 226.383 263.973 192.135 L 263.973 192.135 Z  M 547.409 24.359 C 547.409 24.359 570.818 67.457 564.491 118.252 L 581.784 132.49 C 581.784 132.49 577.356 89.199 568.076 64.571 C 558.797 39.751 547.409 24.359 547.409 24.359 L 547.409 24.359 Z  M 509.027 238.312 C 517.885 239.274 528.851 239.082 541.926 236.003 C 586.213 225.998 591.485 191.173 565.546 169.239 C 544.879 151.73 528.007 157.502 521.892 160.581 C 507.129 172.895 496.585 189.057 488.782 205.219 C 482.033 219.649 491.945 236.196 509.027 238.312 L 509.027 238.312 Z  M 292.865 132.49 L 310.158 118.252 C 303.831 67.457 327.24 24.359 327.24 24.359 C 327.24 24.359 315.852 39.751 306.573 64.571 C 297.294 89.199 292.865 132.49 292.865 132.49 L 292.865 132.49 Z  M 331.88 236.003 C 346.22 239.274 358.03 239.274 367.098 237.927 C 383.759 235.426 393.038 218.879 385.868 204.834 C 378.486 189.249 367.942 173.664 353.812 161.543 C 350.86 159.619 332.091 148.844 308.26 169.047 C 282.321 191.173 287.593 225.998 331.88 236.003 Z " fill="rgb(244,158,35)"/><path d=" M 524.422 491.323 L 524.422 553.085 C 489.807 575.193 469.185 611.314 469.169 649.864 C 469.169 651.596 469.169 653.327 469.38 655.059 C 451.782 656.855 434.173 651.771 420.911 641.065 C 407.649 630.359 399.975 615.032 399.786 598.877 L 399.786 383.962 C 408.433 385.501 417.712 386.463 427.202 386.848 C 430.365 387.04 433.74 387.04 436.903 387.04 L 437.536 387.04 C 440.488 387.04 443.44 387.04 446.393 386.848 C 476.55 385.501 502.49 378.574 524.422 368.569 L 524.422 428.022 C 514.51 443.415 492.578 470.159 455.672 479.971 L 455.883 480.164 C 453.352 479.587 450.4 479.202 447.237 479.009 C 419.61 477.855 412.44 496.326 412.44 496.326 L 480.768 501.713 L 480.768 501.521 L 480.979 501.713 C 480.979 501.713 501.013 497.48 524.422 491.323 L 524.422 491.323 Z  M 436.692 310.848 C 436.692 310.848 436.692 310.656 436.692 310.848 C 435.216 310.656 433.74 311.233 432.685 312.388 C 430.787 314.696 428.046 316.428 423.828 316.428 C 419.61 316.428 413.494 315.658 406.957 314.119 L 409.276 331.82 C 409.698 334.706 412.229 337.015 415.392 337.592 L 428.256 339.516 C 432.474 340.286 436.27 337.4 436.692 333.744 L 436.692 310.848 L 436.692 310.848 Z  M 440.066 312.388 C 439.223 311.233 437.957 310.848 436.692 310.656 L 436.692 333.744 C 437.114 337.592 440.91 340.286 445.339 339.516 L 458.203 337.592 C 461.413 337.109 463.897 334.764 464.319 331.82 L 466.638 314.119 C 459.89 315.851 453.352 316.62 449.135 316.62 C 444.917 316.62 441.964 314.889 440.066 312.388 L 440.066 312.388 Z " fill="rgb(255,255,255)"/><path d=" M 504.388 285.451 C 503.333 288.914 502.068 291.8 500.803 293.532 C 493.421 304.691 479.292 311.041 466.638 314.119 C 459.89 315.851 453.352 316.62 449.135 316.62 C 444.917 316.62 441.964 314.889 440.066 312.388 C 439.223 311.233 437.957 310.848 436.692 310.656 C 435.216 310.463 433.74 311.041 432.685 312.388 C 430.787 314.696 428.046 316.428 423.828 316.428 C 419.61 316.428 413.494 315.658 406.957 314.119 C 394.303 311.041 379.963 304.691 372.16 293.34 C 370.683 291.031 368.785 286.605 367.942 281.218 C 365.833 266.98 370.683 246.97 408.011 246.97 L 409.487 246.97 C 407.378 247.547 406.535 248.894 405.691 251.011 C 404.426 254.474 405.691 263.325 414.127 269.866 C 414.127 269.866 420.875 274.676 426.358 279.294 C 426.358 279.294 431.842 283.335 436.692 283.335 C 441.542 283.335 447.026 279.294 447.026 279.294 C 454.407 273.522 459.257 269.866 459.257 269.866 C 467.904 263.325 469.169 254.666 467.904 251.011 C 467.271 249.087 466.427 247.932 464.74 247.163 L 465.162 247.163 C 506.286 247.163 508.184 271.405 504.388 285.451 L 504.388 285.451 Z " fill="rgb(249,240,232)"/><path d=" M 409.487 246.97 C 410.753 246.585 412.651 246.393 415.392 246.393 L 458.203 246.393 C 461.366 246.393 463.264 246.585 464.74 247.163 C 466.427 247.932 467.271 249.087 467.904 251.011 C 469.169 254.666 467.904 263.325 459.257 269.866 C 459.257 269.866 454.407 273.522 447.026 279.294 C 447.026 279.294 441.542 283.335 436.692 283.335 C 431.842 283.335 426.358 279.294 426.358 279.294 C 420.875 274.676 414.127 269.866 414.127 269.866 C 405.691 263.325 404.426 254.474 405.691 251.011 C 406.535 248.894 407.167 247.547 409.487 246.97 Z " fill="rgb(211,156,98)"/><path d=" M 856.574 648.325 C 810.811 717.398 714.012 746.836 647.582 759.149 C 661.922 753.762 674.998 746.258 686.175 736.831 C 734.679 705.661 766.524 654.289 766.524 595.991 C 766.524 539.424 740.584 485.551 695.032 453.42 C 685.331 446.685 675.841 439.567 667.195 431.87 L 614.683 384.731 C 617.003 372.995 620.166 361.258 624.806 349.329 C 670.991 227.345 832.954 265.056 832.954 265.056 L 831.9 265.056 C 798.368 265.633 771.163 290.646 771.163 321.43 C 771.163 342.403 783.606 360.488 802.164 370.301 C 805.328 372.418 813.341 377.035 821.777 382.615 C 825.573 385.116 829.369 387.81 832.954 390.504 C 913.725 452.842 909.085 569.247 856.574 648.325 L 856.574 648.325 Z  M 327.24 24.359 C 327.24 24.359 315.852 39.751 306.573 64.571 C 297.294 89.199 292.865 132.49 292.865 132.49 L 310.158 118.252 C 303.831 67.457 327.24 24.359 327.24 24.359 L 327.24 24.359 Z  M 564.491 118.252 L 581.784 132.49 C 581.784 132.49 577.356 89.199 568.076 64.571 C 558.797 39.751 547.409 24.359 547.409 24.359 C 547.409 24.359 570.818 67.457 564.491 118.252 Z " fill="rgb(213,131,40)"/></g></g></svg>