<?xml version="1.0" encoding="UTF-8" standalone="no"?><!-- Generator: Gravit.io --><svg xmlns="http://www.w3.org/2000/svg" xmlns:xlink="http://www.w3.org/1999/xlink" style="isolation:isolate" viewBox="0 0 1024 768" width="1024pt" height="768pt"><defs><clipPath id="_clipPath_qXvf5F0g8C5YQCOucFAHOREHim2pBbYL"><rect width="1024" height="768"/></clipPath></defs><g clip-path="url(#_clipPath_qXvf5F0g8C5YQCOucFAHOREHim2pBbYL)"><g><path d=" M 255.146 480.08 L 388.34 498.997 L 345.467 648.597 C 345.467 655.192 343.561 661.266 340.322 666.646 L 291.16 767.826 L 241.617 767.826 L 265.245 732.596 L 265.245 648.597 L 265.436 648.597 L 264.864 648.597 L 243.713 493.617 C 242.57 487.022 247.715 480.774 255.146 480.08 L 255.146 480.08 Z  M 713.037 498.997 L 579.843 512.013 C 572.412 512.707 567.267 518.955 568.41 525.55 L 589.561 648.597 L 590.133 648.597 L 590.133 732.596 L 566.314 767.826 L 616.047 767.826 L 665.59 665.605 C 668.449 660.572 670.164 654.671 670.164 648.597 L 713.037 498.997 L 713.037 498.997 Z " fill="rgb(130,128,129)"/><path d=" M 458.653 239.365 C 458.653 239.365 359.758 184.002 385.863 98.789 C 389.103 78.484 397.677 30.237 402.06 6.113 C 403.013 1.254 396.725 -1.87 392.533 1.254 L 361.854 25.377 C 319.171 59.046 296.114 98.789 296.114 98.789 L 162.539 98.789 C 162.539 98.789 139.482 59.046 96.799 25.377 L 66.121 1.427 C 62.119 -1.87 55.831 1.427 56.593 6.287 C 60.976 30.41 69.741 78.657 72.79 98.963 C 98.705 184.176 0 239.539 0 239.539 C 0 239.539 11.433 247.695 27.058 257.588 L 13.529 270.778 C 46.494 286.571 93.179 291.083 93.179 291.083 C 127.287 305.661 166.159 323.364 166.159 363.974 C 166.159 418.643 226.564 414.478 229.422 414.304 C 232.28 414.478 292.684 418.643 292.684 363.974 C 292.684 323.537 331.366 305.835 365.665 291.083 C 365.665 291.083 412.35 286.571 445.315 270.778 L 431.786 257.588 C 447.411 247.695 458.653 239.365 458.653 239.365 L 458.653 239.365 Z " fill="rgb(220,218,217)"/><path d=" M 144.627 206.738 C 154.52 206.738 162.539 214.041 162.539 223.051 C 162.539 232.061 154.52 239.365 144.627 239.365 C 134.735 239.365 126.716 232.061 126.716 223.051 C 126.716 214.041 134.735 206.738 144.627 206.738 Z  M 314.217 206.738 C 324.109 206.738 332.128 214.041 332.128 223.051 C 332.128 232.061 324.109 239.365 314.217 239.365 C 304.324 239.365 296.305 232.061 296.305 223.051 C 296.305 214.041 304.324 206.738 314.217 206.738 Z " fill="rgb(12,159,204)"/><path d=" M 73.743 26.592 L 123.286 98.963 C 123.286 98.963 114.139 113.714 98.514 113.888 C 98.514 113.714 85.176 94.971 73.743 26.592 Z  M 385.101 26.592 L 335.558 98.963 C 335.558 98.963 344.705 113.714 360.33 113.888 C 360.33 113.714 373.668 94.971 385.101 26.592 Z  M 335.558 141.135 C 307.166 113.714 296.305 98.789 296.305 98.789 L 162.73 98.789 C 162.73 98.789 151.868 113.714 123.476 141.135 C 107.28 156.755 98.705 178.449 143.675 193.201 C 189.406 208.126 202.554 251.514 202.554 292.645 L 202.554 345.752 C 202.554 345.752 204.841 364.495 229.422 364.669 L 229.803 364.669 C 254.384 364.495 256.671 345.752 256.671 345.752 L 256.671 292.645 C 256.671 251.687 269.818 208.126 315.55 193.201 C 360.33 178.449 351.755 156.755 335.558 141.135 Z  M 1019.06 459.774 C 928.168 473.138 945.317 443.287 910.637 361.198 C 876.148 279.108 786.399 276.158 786.399 276.158 L 432.548 276.158 C 401.488 287.612 365.665 291.083 365.665 291.083 C 331.366 305.835 292.684 323.537 292.684 363.974 C 292.684 403.37 261.434 412.221 242.76 413.957 L 242.76 481.815 C 242.76 523.988 283.538 556.615 329.461 551.235 L 335.368 550.541 L 352.136 648.597 L 352.708 648.597 L 352.708 732.596 L 328.889 767.826 L 378.622 767.826 L 428.165 665.605 C 431.024 660.572 432.739 654.671 432.739 648.597 L 465.323 535.269 L 641.772 514.443 C 642.153 515.831 642.534 517.393 643.105 518.781 C 641.962 520.864 641.581 523.294 641.962 525.723 L 663.113 648.771 L 663.685 648.771 L 663.685 732.769 L 639.866 768 L 689.6 768 L 739.143 665.779 C 742.001 660.746 743.716 654.845 743.716 648.771 L 777.062 532.145 C 783.16 522.426 786.589 511.319 786.589 499.344 L 786.589 309.132 C 814.41 322.496 823.747 354.776 838.038 389.66 C 855.378 432.18 857.283 453.006 906.445 489.278 C 958.084 527.633 1045.737 455.956 1019.06 459.774 Z " fill="rgb(165,163,164)"/><path d=" M 202.364 345.752 C 202.364 357.379 206.365 361.198 206.365 361.198 C 220.276 360.85 219.132 373.52 219.132 373.52 C 223.705 376.296 228.088 376.644 229.231 376.644 L 229.612 376.644 C 230.756 376.644 235.138 376.296 239.712 373.52 C 239.712 373.52 238.568 360.85 252.478 361.198 C 252.478 361.198 256.48 357.206 256.48 345.752 L 202.364 345.752 L 202.364 345.752 Z " fill="rgb(216,140,105)"/></g></g></svg>