<?xml version="1.0" encoding="UTF-8" standalone="no"?><!-- Generator: Gravit.io --><svg xmlns="http://www.w3.org/2000/svg" xmlns:xlink="http://www.w3.org/1999/xlink" style="isolation:isolate" viewBox="0 0 1024 768" width="1024pt" height="768pt"><defs><clipPath id="_clipPath_1xFJUFRfFoqHCYIiZRPcI0o74nFUhOkK"><rect width="1024" height="768"/></clipPath></defs><g clip-path="url(#_clipPath_1xFJUFRfFoqHCYIiZRPcI0o74nFUhOkK)"><g><path d=" M 628.267 728.75 C 603.858 728.75 577.56 711.08 577.56 672.299 C 577.56 660.767 578.206 646.212 578.902 630.077 C 582.929 536.612 583.376 456.4 546.887 420.92 C 535.105 409.341 519.893 403.25 502.991 403.25 C 486.088 403.25 470.876 409.388 458.995 420.92 C 422.605 456.446 422.953 536.612 427.029 630.031 C 427.775 646.259 428.421 660.767 428.421 672.299 C 428.421 711.08 402.123 728.75 377.664 728.75 C 334.116 728.75 314.479 652.211 293.749 571.069 C 288.877 552.19 283.906 532.799 278.437 513.548 C 267.202 474.674 250.051 436.126 233.546 398.833 C 205.906 336.569 179.856 277.839 179.856 220.551 C 179.856 91.421 246.024 31.25 388.104 31.25 C 415.545 31.25 464.165 38.736 488.275 48.78 L 493.098 50.78 L 501.101 51.291 C 505.77 51.258 510.39 50.407 514.723 48.78 C 530.134 44.363 581.537 31.25 609.674 31.25 C 679.919 31.25 737.089 50.129 774.871 85.934 C 809.52 118.67 826.771 163.914 826.075 220.319 C 826.075 277.839 800.025 336.615 772.435 398.832 C 755.88 436.172 738.729 474.72 727.544 513.455 C 721.926 533.078 716.756 552.933 711.835 572.277 C 691.055 652.723 671.468 728.75 628.267 728.75 Z " fill="rgb(255,255,255)"/><path d=" M 609.674 54.5 C 673.158 54.5 724.163 71.008 757.222 102.256 C 787.05 130.434 801.865 170.099 801.268 220.551 C 801.268 273.189 776.113 329.873 749.517 389.951 C 732.664 427.895 715.265 467.187 703.582 507.457 C 698.021 527.154 692.735 546.918 687.724 566.744 C 674.301 618.638 651.881 705.5 628.267 705.5 C 612.558 705.5 602.416 692.48 602.416 672.299 C 602.416 661.046 603.063 646.817 603.759 631.007 C 608.233 528.661 608.183 447.006 564.883 404.831 C 548.229 388.556 526.803 380 502.991 380 C 479.178 380 457.752 388.556 441.098 404.831 C 397.798 447.007 397.798 528.614 402.272 630.961 C 402.918 646.817 403.565 661.046 403.565 672.299 C 403.565 692.48 393.423 705.5 377.714 705.5 C 353.752 705.5 332.177 621.335 317.909 565.628 C 313.037 546.563 308.016 526.987 302.449 507.317 C 290.766 467.188 273.317 427.895 256.514 389.951 C 229.868 329.92 204.713 273.236 204.713 220.551 C 204.713 104.162 259.596 54.5 388.154 54.5 C 414.849 54.5 459.392 62.172 477.388 69.659 C 484.746 72.867 492.75 74.495 501.101 74.495 C 509.304 74.495 516.314 72.867 520.937 71.38 C 544.004 64.777 587.751 54.5 609.674 54.5 Z  M 609.674 8 C 571.495 8 505.277 27.251 505.277 27.251 C 505.277 27.251 503.289 27.995 501.101 27.995 C 500.161 28.014 499.227 27.84 498.367 27.483 C 471.075 16.091 419.025 8 388.154 8 C 228.376 8 155 83.423 155 220.551 C 155 319.178 225.394 419.386 254.426 519.5 C 286.69 633.518 301.852 752 377.714 752 C 418.081 752 453.278 721.589 453.278 672.299 C 453.278 602.968 430.807 426.5 502.991 426.5 C 575.174 426.5 552.703 602.968 552.703 672.299 C 552.703 721.589 587.95 752 628.267 752 C 704.129 752 719.291 631.937 751.555 519.5 C 780.587 419.386 850.981 319.132 850.981 220.551 C 852.572 83.423 754.091 8 609.674 8 Z " fill="rgb(120,139,156)"/></g></g></svg>